<?xml version="1.0" encoding="UTF-8" standalone="no"?>
<!DOCTYPE svg PUBLIC "-//W3C//DTD SVG 1.1//EN"
 "http://www.w3.org/Graphics/SVG/1.1/DTD/svg11.dtd">
<!-- Generated by graphviz version 12.2.1 (20241206.2353)
 -->
<!-- Title: AST Pages: 1 -->
<svg width="1533pt" height="764pt"
 viewBox="0.00 0.00 1533.22 764.00" xmlns="http://www.w3.org/2000/svg" xmlns:xlink="http://www.w3.org/1999/xlink">
<g id="graph0" class="graph" transform="scale(1 1) rotate(0) translate(4 760)">
<title>AST</title>
<polygon fill="white" stroke="none" points="-4,4 -4,-760 1529.22,-760 1529.22,4 -4,4"/>
<!-- n0 -->
<g id="node1" class="node">
<title>n0</title>
<ellipse fill="none" stroke="black" cx="883.91" cy="-738" rx="42.65" ry="18"/>
<text text-anchor="middle" x="883.91" y="-732.95" font-family="Times,serif" font-size="14.00">program</text>
</g>
<!-- n1 -->
<g id="node2" class="node">
<title>n1</title>
<ellipse fill="none" stroke="black" cx="360.91" cy="-666" rx="107.65" ry="18"/>
<text text-anchor="middle" x="360.91" y="-660.95" font-family="Times,serif" font-size="14.00">&lt;&lt;function declaration&gt;&gt;</text>
</g>
<!-- n0&#45;&gt;n1 -->
<g id="edge1" class="edge">
<title>n0&#45;&gt;n1</title>
<path fill="none" stroke="black" d="M843.74,-731.62C760.98,-720.55 569.6,-694.93 454.18,-679.48"/>
<polygon fill="black" stroke="black" points="454.79,-676.03 444.41,-678.18 453.86,-682.97 454.79,-676.03"/>
</g>
<!-- n42 -->
<g id="node43" class="node">
<title>n42</title>
<ellipse fill="none" stroke="black" cx="883.91" cy="-666" rx="59.54" ry="18"/>
<text text-anchor="middle" x="883.91" y="-660.95" font-family="Times,serif" font-size="14.00">&lt;&lt;var def&gt;&gt;</text>
</g>
<!-- n0&#45;&gt;n42 -->
<g id="edge42" class="edge">
<title>n0&#45;&gt;n42</title>
<path fill="none" stroke="black" d="M883.91,-719.7C883.91,-712.41 883.91,-703.73 883.91,-695.54"/>
<polygon fill="black" stroke="black" points="887.41,-695.62 883.91,-685.62 880.41,-695.62 887.41,-695.62"/>
</g>
<!-- n47 -->
<g id="node48" class="node">
<title>n47</title>
<ellipse fill="none" stroke="black" cx="1121.91" cy="-666" rx="53.91" ry="18"/>
<text text-anchor="middle" x="1121.91" y="-660.95" font-family="Times,serif" font-size="14.00">&lt;&lt;block&gt;&gt;</text>
</g>
<!-- n0&#45;&gt;n47 -->
<g id="edge47" class="edge">
<title>n0&#45;&gt;n47</title>
<path fill="none" stroke="black" d="M918.26,-726.9C958.46,-715.07 1025.37,-695.39 1071.46,-681.84"/>
<polygon fill="black" stroke="black" points="1072.35,-685.22 1080.96,-679.04 1070.38,-678.51 1072.35,-685.22"/>
</g>
<!-- n2 -->
<g id="node3" class="node">
<title>n2</title>
<ellipse fill="none" stroke="black" cx="53.91" cy="-594" rx="53.91" ry="18"/>
<text text-anchor="middle" x="53.91" y="-588.95" font-family="Times,serif" font-size="14.00">&lt;&lt;name&gt;&gt;</text>
</g>
<!-- n1&#45;&gt;n2 -->
<g id="edge2" class="edge">
<title>n1&#45;&gt;n2</title>
<path fill="none" stroke="black" d="M296.93,-651.16C248.97,-640.69 181.74,-625.8 122.91,-612 117.78,-610.8 112.43,-609.52 107.09,-608.23"/>
<polygon fill="black" stroke="black" points="108.22,-604.9 97.67,-605.94 106.56,-611.7 108.22,-604.9"/>
</g>
<!-- n4 -->
<g id="node5" class="node">
<title>n4</title>
<ellipse fill="none" stroke="black" cx="205.91" cy="-594" rx="73.87" ry="18"/>
<text text-anchor="middle" x="205.91" y="-588.95" font-family="Times,serif" font-size="14.00">&lt;&lt;return type&gt;&gt;</text>
</g>
<!-- n1&#45;&gt;n4 -->
<g id="edge4" class="edge">
<title>n1&#45;&gt;n4</title>
<path fill="none" stroke="black" d="M324.57,-648.59C302.38,-638.57 273.84,-625.68 250.32,-615.05"/>
<polygon fill="black" stroke="black" points="251.83,-611.9 241.28,-610.97 248.95,-618.28 251.83,-611.9"/>
</g>
<!-- n6 -->
<g id="node7" class="node">
<title>n6</title>
<ellipse fill="none" stroke="black" cx="360.91" cy="-594" rx="60.56" ry="18"/>
<text text-anchor="middle" x="360.91" y="-588.95" font-family="Times,serif" font-size="14.00">&lt;&lt;params&gt;&gt;</text>
</g>
<!-- n1&#45;&gt;n6 -->
<g id="edge6" class="edge">
<title>n1&#45;&gt;n6</title>
<path fill="none" stroke="black" d="M360.91,-647.7C360.91,-640.41 360.91,-631.73 360.91,-623.54"/>
<polygon fill="black" stroke="black" points="364.41,-623.62 360.91,-613.62 357.41,-623.62 364.41,-623.62"/>
</g>
<!-- n11 -->
<g id="node12" class="node">
<title>n11</title>
<ellipse fill="none" stroke="black" cx="533.91" cy="-594" rx="53.91" ry="18"/>
<text text-anchor="middle" x="533.91" y="-588.95" font-family="Times,serif" font-size="14.00">&lt;&lt;block&gt;&gt;</text>
</g>
<!-- n1&#45;&gt;n11 -->
<g id="edge11" class="edge">
<title>n1&#45;&gt;n11</title>
<path fill="none" stroke="black" d="M400.6,-648.94C427.28,-638.14 462.47,-623.91 490,-612.77"/>
<polygon fill="black" stroke="black" points="491.15,-616.08 499.11,-609.08 488.53,-609.59 491.15,-616.08"/>
</g>
<!-- n3 -->
<g id="node4" class="node">
<title>n3</title>
<ellipse fill="none" stroke="black" cx="51.91" cy="-522" rx="27" ry="18"/>
<text text-anchor="middle" x="51.91" y="-516.95" font-family="Times,serif" font-size="14.00">fact</text>
</g>
<!-- n2&#45;&gt;n3 -->
<g id="edge3" class="edge">
<title>n2&#45;&gt;n3</title>
<path fill="none" stroke="black" d="M53.42,-575.7C53.21,-568.41 52.96,-559.73 52.73,-551.54"/>
<polygon fill="black" stroke="black" points="56.23,-551.51 52.44,-541.62 49.23,-551.71 56.23,-551.51"/>
</g>
<!-- n5 -->
<g id="node6" class="node">
<title>n5</title>
<ellipse fill="none" stroke="black" cx="133.91" cy="-522" rx="37.02" ry="18"/>
<text text-anchor="middle" x="133.91" y="-516.95" font-family="Times,serif" font-size="14.00">longint</text>
</g>
<!-- n4&#45;&gt;n5 -->
<g id="edge5" class="edge">
<title>n4&#45;&gt;n5</title>
<path fill="none" stroke="black" d="M188.48,-576.05C179.25,-567.08 167.77,-555.92 157.72,-546.15"/>
<polygon fill="black" stroke="black" points="160.4,-543.87 150.79,-539.41 155.52,-548.89 160.4,-543.87"/>
</g>
<!-- n7 -->
<g id="node8" class="node">
<title>n7</title>
<ellipse fill="none" stroke="black" cx="237.91" cy="-522" rx="49.3" ry="18"/>
<text text-anchor="middle" x="237.91" y="-516.95" font-family="Times,serif" font-size="14.00">&lt;&lt;type&gt;&gt;</text>
</g>
<!-- n6&#45;&gt;n7 -->
<g id="edge7" class="edge">
<title>n6&#45;&gt;n7</title>
<path fill="none" stroke="black" d="M333.61,-577.46C315.97,-567.43 292.83,-554.26 273.73,-543.38"/>
<polygon fill="black" stroke="black" points="275.61,-540.43 265.18,-538.52 272.14,-546.51 275.61,-540.43"/>
</g>
<!-- n9 -->
<g id="node10" class="node">
<title>n9</title>
<ellipse fill="none" stroke="black" cx="362.91" cy="-522" rx="57.49" ry="18"/>
<text text-anchor="middle" x="362.91" y="-516.95" font-family="Times,serif" font-size="14.00">&lt;&lt;names&gt;&gt;</text>
</g>
<!-- n6&#45;&gt;n9 -->
<g id="edge9" class="edge">
<title>n6&#45;&gt;n9</title>
<path fill="none" stroke="black" d="M361.4,-575.7C361.61,-568.41 361.86,-559.73 362.1,-551.54"/>
<polygon fill="black" stroke="black" points="365.59,-551.71 362.38,-541.62 358.59,-551.51 365.59,-551.71"/>
</g>
<!-- n8 -->
<g id="node9" class="node">
<title>n8</title>
<ellipse fill="none" stroke="black" cx="237.91" cy="-450" rx="37.02" ry="18"/>
<text text-anchor="middle" x="237.91" y="-444.95" font-family="Times,serif" font-size="14.00">longint</text>
</g>
<!-- n7&#45;&gt;n8 -->
<g id="edge8" class="edge">
<title>n7&#45;&gt;n8</title>
<path fill="none" stroke="black" d="M237.91,-503.7C237.91,-496.41 237.91,-487.73 237.91,-479.54"/>
<polygon fill="black" stroke="black" points="241.41,-479.62 237.91,-469.62 234.41,-479.62 241.41,-479.62"/>
</g>
<!-- n10 -->
<g id="node11" class="node">
<title>n10</title>
<ellipse fill="none" stroke="black" cx="362.91" cy="-450" rx="27" ry="18"/>
<text text-anchor="middle" x="362.91" y="-444.95" font-family="Times,serif" font-size="14.00">n</text>
</g>
<!-- n9&#45;&gt;n10 -->
<g id="edge10" class="edge">
<title>n9&#45;&gt;n10</title>
<path fill="none" stroke="black" d="M362.91,-503.7C362.91,-496.41 362.91,-487.73 362.91,-479.54"/>
<polygon fill="black" stroke="black" points="366.41,-479.62 362.91,-469.62 359.41,-479.62 366.41,-479.62"/>
</g>
<!-- n12 -->
<g id="node13" class="node">
<title>n12</title>
<ellipse fill="none" stroke="black" cx="533.91" cy="-522" rx="95.37" ry="18"/>
<text text-anchor="middle" x="533.91" y="-516.95" font-family="Times,serif" font-size="14.00">&lt;&lt;statement line: 5&gt;&gt;</text>
</g>
<!-- n11&#45;&gt;n12 -->
<g id="edge12" class="edge">
<title>n11&#45;&gt;n12</title>
<path fill="none" stroke="black" d="M533.91,-575.7C533.91,-568.41 533.91,-559.73 533.91,-551.54"/>
<polygon fill="black" stroke="black" points="537.41,-551.62 533.91,-541.62 530.41,-551.62 537.41,-551.62"/>
</g>
<!-- n17 -->
<g id="node18" class="node">
<title>n17</title>
<ellipse fill="none" stroke="black" cx="722.91" cy="-522" rx="75.92" ry="18"/>
<text text-anchor="middle" x="722.91" y="-516.95" font-family="Times,serif" font-size="14.00">&lt;&lt;cycle while&gt;&gt;</text>
</g>
<!-- n11&#45;&gt;n17 -->
<g id="edge17" class="edge">
<title>n11&#45;&gt;n17</title>
<path fill="none" stroke="black" d="M569.02,-580C598.08,-569.23 639.74,-553.8 672.39,-541.71"/>
<polygon fill="black" stroke="black" points="673.5,-545.03 681.67,-538.28 671.07,-538.47 673.5,-545.03"/>
</g>
<!-- n13 -->
<g id="node14" class="node">
<title>n13</title>
<ellipse fill="none" stroke="black" cx="533.91" cy="-450" rx="27" ry="18"/>
<text text-anchor="middle" x="533.91" y="-444.95" font-family="Times,serif" font-size="14.00">=</text>
</g>
<!-- n12&#45;&gt;n13 -->
<g id="edge13" class="edge">
<title>n12&#45;&gt;n13</title>
<path fill="none" stroke="black" d="M533.91,-503.7C533.91,-496.41 533.91,-487.73 533.91,-479.54"/>
<polygon fill="black" stroke="black" points="537.41,-479.62 533.91,-469.62 530.41,-479.62 537.41,-479.62"/>
</g>
<!-- n14 -->
<g id="node15" class="node">
<title>n14</title>
<ellipse fill="none" stroke="black" cx="454.91" cy="-378" rx="71.31" ry="18"/>
<text text-anchor="middle" x="454.91" y="-372.95" font-family="Times,serif" font-size="14.00">&lt;&lt;var access&gt;&gt;</text>
</g>
<!-- n13&#45;&gt;n14 -->
<g id="edge14" class="edge">
<title>n13&#45;&gt;n14</title>
<path fill="none" stroke="black" d="M518.3,-435.17C508.03,-426.06 494.29,-413.9 482.24,-403.21"/>
<polygon fill="black" stroke="black" points="484.77,-400.78 474.96,-396.77 480.13,-406.02 484.77,-400.78"/>
</g>
<!-- n16 -->
<g id="node17" class="node">
<title>n16</title>
<ellipse fill="none" stroke="black" cx="570.91" cy="-378" rx="27" ry="18"/>
<text text-anchor="middle" x="570.91" y="-372.95" font-family="Times,serif" font-size="14.00">1</text>
</g>
<!-- n13&#45;&gt;n16 -->
<g id="edge16" class="edge">
<title>n13&#45;&gt;n16</title>
<path fill="none" stroke="black" d="M542.49,-432.76C546.83,-424.55 552.21,-414.37 557.12,-405.09"/>
<polygon fill="black" stroke="black" points="560.09,-406.96 561.67,-396.49 553.9,-403.69 560.09,-406.96"/>
</g>
<!-- n15 -->
<g id="node16" class="node">
<title>n15</title>
<ellipse fill="none" stroke="black" cx="454.91" cy="-306" rx="34.46" ry="18"/>
<text text-anchor="middle" x="454.91" y="-300.95" font-family="Times,serif" font-size="14.00">Result</text>
</g>
<!-- n14&#45;&gt;n15 -->
<g id="edge15" class="edge">
<title>n14&#45;&gt;n15</title>
<path fill="none" stroke="black" d="M454.91,-359.7C454.91,-352.41 454.91,-343.73 454.91,-335.54"/>
<polygon fill="black" stroke="black" points="458.41,-335.62 454.91,-325.62 451.41,-335.62 458.41,-335.62"/>
</g>
<!-- n18 -->
<g id="node19" class="node">
<title>n18</title>
<ellipse fill="none" stroke="black" cx="716.91" cy="-450" rx="72.85" ry="18"/>
<text text-anchor="middle" x="716.91" y="-444.95" font-family="Times,serif" font-size="14.00">&lt;&lt;expression&gt;&gt;</text>
</g>
<!-- n17&#45;&gt;n18 -->
<g id="edge18" class="edge">
<title>n17&#45;&gt;n18</title>
<path fill="none" stroke="black" d="M721.43,-503.7C720.8,-496.41 720.06,-487.73 719.36,-479.54"/>
<polygon fill="black" stroke="black" points="722.85,-479.28 718.51,-469.61 715.87,-479.87 722.85,-479.28"/>
</g>
<!-- n23 -->
<g id="node24" class="node">
<title>n23</title>
<ellipse fill="none" stroke="black" cx="859.91" cy="-450" rx="51.86" ry="18"/>
<text text-anchor="middle" x="859.91" y="-444.95" font-family="Times,serif" font-size="14.00">&lt;&lt;body&gt;&gt;</text>
</g>
<!-- n17&#45;&gt;n23 -->
<g id="edge23" class="edge">
<title>n17&#45;&gt;n23</title>
<path fill="none" stroke="black" d="M754,-505.12C774.08,-494.85 800.35,-481.43 821.7,-470.52"/>
<polygon fill="black" stroke="black" points="823.08,-473.75 830.39,-466.08 819.9,-467.51 823.08,-473.75"/>
</g>
<!-- n19 -->
<g id="node20" class="node">
<title>n19</title>
<ellipse fill="none" stroke="black" cx="716.91" cy="-378" rx="27" ry="18"/>
<text text-anchor="middle" x="716.91" y="-372.95" font-family="Times,serif" font-size="14.00">&gt;</text>
</g>
<!-- n18&#45;&gt;n19 -->
<g id="edge19" class="edge">
<title>n18&#45;&gt;n19</title>
<path fill="none" stroke="black" d="M716.91,-431.7C716.91,-424.41 716.91,-415.73 716.91,-407.54"/>
<polygon fill="black" stroke="black" points="720.41,-407.62 716.91,-397.62 713.41,-407.62 720.41,-407.62"/>
</g>
<!-- n20 -->
<g id="node21" class="node">
<title>n20</title>
<ellipse fill="none" stroke="black" cx="601.91" cy="-306" rx="71.31" ry="18"/>
<text text-anchor="middle" x="601.91" y="-300.95" font-family="Times,serif" font-size="14.00">&lt;&lt;var access&gt;&gt;</text>
</g>
<!-- n19&#45;&gt;n20 -->
<g id="edge20" class="edge">
<title>n19&#45;&gt;n20</title>
<path fill="none" stroke="black" d="M697.4,-365.13C681.18,-355.25 657.64,-340.92 638,-328.97"/>
<polygon fill="black" stroke="black" points="640.08,-326.14 629.72,-323.93 636.44,-332.12 640.08,-326.14"/>
</g>
<!-- n22 -->
<g id="node23" class="node">
<title>n22</title>
<ellipse fill="none" stroke="black" cx="717.91" cy="-306" rx="27" ry="18"/>
<text text-anchor="middle" x="717.91" y="-300.95" font-family="Times,serif" font-size="14.00">1</text>
</g>
<!-- n19&#45;&gt;n22 -->
<g id="edge22" class="edge">
<title>n19&#45;&gt;n22</title>
<path fill="none" stroke="black" d="M717.16,-359.7C717.26,-352.41 717.39,-343.73 717.5,-335.54"/>
<polygon fill="black" stroke="black" points="721,-335.67 717.64,-325.62 714,-335.57 721,-335.67"/>
</g>
<!-- n21 -->
<g id="node22" class="node">
<title>n21</title>
<ellipse fill="none" stroke="black" cx="601.91" cy="-234" rx="27" ry="18"/>
<text text-anchor="middle" x="601.91" y="-228.95" font-family="Times,serif" font-size="14.00">n</text>
</g>
<!-- n20&#45;&gt;n21 -->
<g id="edge21" class="edge">
<title>n20&#45;&gt;n21</title>
<path fill="none" stroke="black" d="M601.91,-287.7C601.91,-280.41 601.91,-271.73 601.91,-263.54"/>
<polygon fill="black" stroke="black" points="605.41,-263.62 601.91,-253.62 598.41,-263.62 605.41,-263.62"/>
</g>
<!-- n24 -->
<g id="node25" class="node">
<title>n24</title>
<ellipse fill="none" stroke="black" cx="859.91" cy="-378" rx="53.91" ry="18"/>
<text text-anchor="middle" x="859.91" y="-372.95" font-family="Times,serif" font-size="14.00">&lt;&lt;block&gt;&gt;</text>
</g>
<!-- n23&#45;&gt;n24 -->
<g id="edge24" class="edge">
<title>n23&#45;&gt;n24</title>
<path fill="none" stroke="black" d="M859.91,-431.7C859.91,-424.41 859.91,-415.73 859.91,-407.54"/>
<polygon fill="black" stroke="black" points="863.41,-407.62 859.91,-397.62 856.41,-407.62 863.41,-407.62"/>
</g>
<!-- n25 -->
<g id="node26" class="node">
<title>n25</title>
<ellipse fill="none" stroke="black" cx="858.91" cy="-306" rx="95.37" ry="18"/>
<text text-anchor="middle" x="858.91" y="-300.95" font-family="Times,serif" font-size="14.00">&lt;&lt;statement line: 7&gt;&gt;</text>
</g>
<!-- n24&#45;&gt;n25 -->
<g id="edge25" class="edge">
<title>n24&#45;&gt;n25</title>
<path fill="none" stroke="black" d="M859.66,-359.7C859.56,-352.41 859.44,-343.73 859.32,-335.54"/>
<polygon fill="black" stroke="black" points="862.82,-335.57 859.18,-325.62 855.82,-335.67 862.82,-335.57"/>
</g>
<!-- n34 -->
<g id="node35" class="node">
<title>n34</title>
<ellipse fill="none" stroke="black" cx="1101.91" cy="-306" rx="95.37" ry="18"/>
<text text-anchor="middle" x="1101.91" y="-300.95" font-family="Times,serif" font-size="14.00">&lt;&lt;statement line: 8&gt;&gt;</text>
</g>
<!-- n24&#45;&gt;n34 -->
<g id="edge34" class="edge">
<title>n24&#45;&gt;n34</title>
<path fill="none" stroke="black" d="M899.6,-365.52C937.8,-354.47 996.12,-337.6 1040.34,-324.81"/>
<polygon fill="black" stroke="black" points="1041.17,-328.21 1049.81,-322.07 1039.23,-321.49 1041.17,-328.21"/>
</g>
<!-- n26 -->
<g id="node27" class="node">
<title>n26</title>
<ellipse fill="none" stroke="black" cx="850.91" cy="-234" rx="27" ry="18"/>
<text text-anchor="middle" x="850.91" y="-228.95" font-family="Times,serif" font-size="14.00">=</text>
</g>
<!-- n25&#45;&gt;n26 -->
<g id="edge26" class="edge">
<title>n25&#45;&gt;n26</title>
<path fill="none" stroke="black" d="M856.93,-287.7C856.1,-280.41 855.11,-271.73 854.17,-263.54"/>
<polygon fill="black" stroke="black" points="857.65,-263.15 853.04,-253.61 850.7,-263.94 857.65,-263.15"/>
</g>
<!-- n27 -->
<g id="node28" class="node">
<title>n27</title>
<ellipse fill="none" stroke="black" cx="730.91" cy="-162" rx="71.31" ry="18"/>
<text text-anchor="middle" x="730.91" y="-156.95" font-family="Times,serif" font-size="14.00">&lt;&lt;var access&gt;&gt;</text>
</g>
<!-- n26&#45;&gt;n27 -->
<g id="edge27" class="edge">
<title>n26&#45;&gt;n27</title>
<path fill="none" stroke="black" d="M831.09,-221.44C814.05,-211.5 788.99,-196.88 768.2,-184.75"/>
<polygon fill="black" stroke="black" points="770.1,-181.81 759.7,-179.79 766.57,-187.85 770.1,-181.81"/>
</g>
<!-- n29 -->
<g id="node30" class="node">
<title>n29</title>
<ellipse fill="none" stroke="black" cx="850.91" cy="-162" rx="27" ry="18"/>
<text text-anchor="middle" x="850.91" y="-156.95" font-family="Times,serif" font-size="14.00">*</text>
</g>
<!-- n26&#45;&gt;n29 -->
<g id="edge29" class="edge">
<title>n26&#45;&gt;n29</title>
<path fill="none" stroke="black" d="M850.91,-215.7C850.91,-208.41 850.91,-199.73 850.91,-191.54"/>
<polygon fill="black" stroke="black" points="854.41,-191.62 850.91,-181.62 847.41,-191.62 854.41,-191.62"/>
</g>
<!-- n28 -->
<g id="node29" class="node">
<title>n28</title>
<ellipse fill="none" stroke="black" cx="709.91" cy="-90" rx="34.46" ry="18"/>
<text text-anchor="middle" x="709.91" y="-84.95" font-family="Times,serif" font-size="14.00">Result</text>
</g>
<!-- n27&#45;&gt;n28 -->
<g id="edge28" class="edge">
<title>n27&#45;&gt;n28</title>
<path fill="none" stroke="black" d="M725.72,-143.7C723.48,-136.24 720.81,-127.32 718.3,-118.97"/>
<polygon fill="black" stroke="black" points="721.7,-118.13 715.48,-109.55 715,-120.14 721.7,-118.13"/>
</g>
<!-- n30 -->
<g id="node31" class="node">
<title>n30</title>
<ellipse fill="none" stroke="black" cx="833.91" cy="-90" rx="71.31" ry="18"/>
<text text-anchor="middle" x="833.91" y="-84.95" font-family="Times,serif" font-size="14.00">&lt;&lt;var access&gt;&gt;</text>
</g>
<!-- n29&#45;&gt;n30 -->
<g id="edge30" class="edge">
<title>n29&#45;&gt;n30</title>
<path fill="none" stroke="black" d="M846.8,-144.05C844.98,-136.6 842.81,-127.64 840.76,-119.22"/>
<polygon fill="black" stroke="black" points="844.22,-118.64 838.46,-109.75 837.42,-120.29 844.22,-118.64"/>
</g>
<!-- n32 -->
<g id="node33" class="node">
<title>n32</title>
<ellipse fill="none" stroke="black" cx="994.91" cy="-90" rx="71.31" ry="18"/>
<text text-anchor="middle" x="994.91" y="-84.95" font-family="Times,serif" font-size="14.00">&lt;&lt;var access&gt;&gt;</text>
</g>
<!-- n29&#45;&gt;n32 -->
<g id="edge32" class="edge">
<title>n29&#45;&gt;n32</title>
<path fill="none" stroke="black" d="M872.47,-150.52C893.66,-140.22 926.58,-124.22 952.95,-111.4"/>
<polygon fill="black" stroke="black" points="954.23,-114.67 961.7,-107.15 951.17,-108.37 954.23,-114.67"/>
</g>
<!-- n31 -->
<g id="node32" class="node">
<title>n31</title>
<ellipse fill="none" stroke="black" cx="833.91" cy="-18" rx="34.46" ry="18"/>
<text text-anchor="middle" x="833.91" y="-12.95" font-family="Times,serif" font-size="14.00">Result</text>
</g>
<!-- n30&#45;&gt;n31 -->
<g id="edge31" class="edge">
<title>n30&#45;&gt;n31</title>
<path fill="none" stroke="black" d="M833.91,-71.7C833.91,-64.41 833.91,-55.73 833.91,-47.54"/>
<polygon fill="black" stroke="black" points="837.41,-47.62 833.91,-37.62 830.41,-47.62 837.41,-47.62"/>
</g>
<!-- n33 -->
<g id="node34" class="node">
<title>n33</title>
<ellipse fill="none" stroke="black" cx="994.91" cy="-18" rx="27" ry="18"/>
<text text-anchor="middle" x="994.91" y="-12.95" font-family="Times,serif" font-size="14.00">n</text>
</g>
<!-- n32&#45;&gt;n33 -->
<g id="edge33" class="edge">
<title>n32&#45;&gt;n33</title>
<path fill="none" stroke="black" d="M994.91,-71.7C994.91,-64.41 994.91,-55.73 994.91,-47.54"/>
<polygon fill="black" stroke="black" points="998.41,-47.62 994.91,-37.62 991.41,-47.62 998.41,-47.62"/>
</g>
<!-- n35 -->
<g id="node36" class="node">
<title>n35</title>
<ellipse fill="none" stroke="black" cx="1110.91" cy="-234" rx="27" ry="18"/>
<text text-anchor="middle" x="1110.91" y="-228.95" font-family="Times,serif" font-size="14.00">=</text>
</g>
<!-- n34&#45;&gt;n35 -->
<g id="edge35" class="edge">
<title>n34&#45;&gt;n35</title>
<path fill="none" stroke="black" d="M1104.14,-287.7C1105.08,-280.32 1106.21,-271.52 1107.28,-263.25"/>
<polygon fill="black" stroke="black" points="1110.71,-263.97 1108.52,-253.61 1103.77,-263.08 1110.71,-263.97"/>
</g>
<!-- n36 -->
<g id="node37" class="node">
<title>n36</title>
<ellipse fill="none" stroke="black" cx="1110.91" cy="-162" rx="71.31" ry="18"/>
<text text-anchor="middle" x="1110.91" y="-156.95" font-family="Times,serif" font-size="14.00">&lt;&lt;var access&gt;&gt;</text>
</g>
<!-- n35&#45;&gt;n36 -->
<g id="edge36" class="edge">
<title>n35&#45;&gt;n36</title>
<path fill="none" stroke="black" d="M1110.91,-215.7C1110.91,-208.41 1110.91,-199.73 1110.91,-191.54"/>
<polygon fill="black" stroke="black" points="1114.41,-191.62 1110.91,-181.62 1107.41,-191.62 1114.41,-191.62"/>
</g>
<!-- n38 -->
<g id="node39" class="node">
<title>n38</title>
<ellipse fill="none" stroke="black" cx="1226.91" cy="-162" rx="27" ry="18"/>
<text text-anchor="middle" x="1226.91" y="-156.95" font-family="Times,serif" font-size="14.00">&#45;</text>
</g>
<!-- n35&#45;&gt;n38 -->
<g id="edge38" class="edge">
<title>n35&#45;&gt;n38</title>
<path fill="none" stroke="black" d="M1130.59,-221.13C1149.03,-210 1176.83,-193.22 1197.83,-180.55"/>
<polygon fill="black" stroke="black" points="1199.47,-183.64 1206.23,-175.48 1195.86,-177.65 1199.47,-183.64"/>
</g>
<!-- n37 -->
<g id="node38" class="node">
<title>n37</title>
<ellipse fill="none" stroke="black" cx="1110.91" cy="-90" rx="27" ry="18"/>
<text text-anchor="middle" x="1110.91" y="-84.95" font-family="Times,serif" font-size="14.00">n</text>
</g>
<!-- n36&#45;&gt;n37 -->
<g id="edge37" class="edge">
<title>n36&#45;&gt;n37</title>
<path fill="none" stroke="black" d="M1110.91,-143.7C1110.91,-136.41 1110.91,-127.73 1110.91,-119.54"/>
<polygon fill="black" stroke="black" points="1114.41,-119.62 1110.91,-109.62 1107.41,-119.62 1114.41,-119.62"/>
</g>
<!-- n39 -->
<g id="node40" class="node">
<title>n39</title>
<ellipse fill="none" stroke="black" cx="1226.91" cy="-90" rx="71.31" ry="18"/>
<text text-anchor="middle" x="1226.91" y="-84.95" font-family="Times,serif" font-size="14.00">&lt;&lt;var access&gt;&gt;</text>
</g>
<!-- n38&#45;&gt;n39 -->
<g id="edge39" class="edge">
<title>n38&#45;&gt;n39</title>
<path fill="none" stroke="black" d="M1226.91,-143.7C1226.91,-136.41 1226.91,-127.73 1226.91,-119.54"/>
<polygon fill="black" stroke="black" points="1230.41,-119.62 1226.91,-109.62 1223.41,-119.62 1230.41,-119.62"/>
</g>
<!-- n41 -->
<g id="node42" class="node">
<title>n41</title>
<ellipse fill="none" stroke="black" cx="1342.91" cy="-90" rx="27" ry="18"/>
<text text-anchor="middle" x="1342.91" y="-84.95" font-family="Times,serif" font-size="14.00">1</text>
</g>
<!-- n38&#45;&gt;n41 -->
<g id="edge41" class="edge">
<title>n38&#45;&gt;n41</title>
<path fill="none" stroke="black" d="M1246.59,-149.13C1265.03,-138 1292.83,-121.22 1313.83,-108.55"/>
<polygon fill="black" stroke="black" points="1315.47,-111.64 1322.23,-103.48 1311.86,-105.65 1315.47,-111.64"/>
</g>
<!-- n40 -->
<g id="node41" class="node">
<title>n40</title>
<ellipse fill="none" stroke="black" cx="1226.91" cy="-18" rx="27" ry="18"/>
<text text-anchor="middle" x="1226.91" y="-12.95" font-family="Times,serif" font-size="14.00">n</text>
</g>
<!-- n39&#45;&gt;n40 -->
<g id="edge40" class="edge">
<title>n39&#45;&gt;n40</title>
<path fill="none" stroke="black" d="M1226.91,-71.7C1226.91,-64.41 1226.91,-55.73 1226.91,-47.54"/>
<polygon fill="black" stroke="black" points="1230.41,-47.62 1226.91,-37.62 1223.41,-47.62 1230.41,-47.62"/>
</g>
<!-- n43 -->
<g id="node44" class="node">
<title>n43</title>
<ellipse fill="none" stroke="black" cx="821.91" cy="-594" rx="49.3" ry="18"/>
<text text-anchor="middle" x="821.91" y="-588.95" font-family="Times,serif" font-size="14.00">&lt;&lt;type&gt;&gt;</text>
</g>
<!-- n42&#45;&gt;n43 -->
<g id="edge43" class="edge">
<title>n42&#45;&gt;n43</title>
<path fill="none" stroke="black" d="M869.22,-648.41C861.73,-639.95 852.46,-629.49 844.12,-620.08"/>
<polygon fill="black" stroke="black" points="846.75,-617.77 837.5,-612.6 841.51,-622.41 846.75,-617.77"/>
</g>
<!-- n45 -->
<g id="node46" class="node">
<title>n45</title>
<ellipse fill="none" stroke="black" cx="946.91" cy="-594" rx="57.49" ry="18"/>
<text text-anchor="middle" x="946.91" y="-588.95" font-family="Times,serif" font-size="14.00">&lt;&lt;names&gt;&gt;</text>
</g>
<!-- n42&#45;&gt;n45 -->
<g id="edge45" class="edge">
<title>n42&#45;&gt;n45</title>
<path fill="none" stroke="black" d="M898.84,-648.41C906.53,-639.87 916.06,-629.28 924.6,-619.79"/>
<polygon fill="black" stroke="black" points="926.99,-622.37 931.07,-612.59 921.78,-617.69 926.99,-622.37"/>
</g>
<!-- n44 -->
<g id="node45" class="node">
<title>n44</title>
<ellipse fill="none" stroke="black" cx="853.91" cy="-522" rx="37.02" ry="18"/>
<text text-anchor="middle" x="853.91" y="-516.95" font-family="Times,serif" font-size="14.00">longint</text>
</g>
<!-- n43&#45;&gt;n44 -->
<g id="edge44" class="edge">
<title>n43&#45;&gt;n44</title>
<path fill="none" stroke="black" d="M829.66,-576.05C833.23,-568.23 837.57,-558.75 841.58,-549.98"/>
<polygon fill="black" stroke="black" points="844.63,-551.72 845.61,-541.17 838.27,-548.81 844.63,-551.72"/>
</g>
<!-- n46 -->
<g id="node47" class="node">
<title>n46</title>
<ellipse fill="none" stroke="black" cx="946.91" cy="-522" rx="27" ry="18"/>
<text text-anchor="middle" x="946.91" y="-516.95" font-family="Times,serif" font-size="14.00">n</text>
</g>
<!-- n45&#45;&gt;n46 -->
<g id="edge46" class="edge">
<title>n45&#45;&gt;n46</title>
<path fill="none" stroke="black" d="M946.91,-575.7C946.91,-568.41 946.91,-559.73 946.91,-551.54"/>
<polygon fill="black" stroke="black" points="950.41,-551.62 946.91,-541.62 943.41,-551.62 950.41,-551.62"/>
</g>
<!-- n48 -->
<g id="node49" class="node">
<title>n48</title>
<ellipse fill="none" stroke="black" cx="1121.91" cy="-594" rx="99.97" ry="18"/>
<text text-anchor="middle" x="1121.91" y="-588.95" font-family="Times,serif" font-size="14.00">&lt;&lt;statement line: 15&gt;&gt;</text>
</g>
<!-- n47&#45;&gt;n48 -->
<g id="edge48" class="edge">
<title>n47&#45;&gt;n48</title>
<path fill="none" stroke="black" d="M1121.91,-647.7C1121.91,-640.41 1121.91,-631.73 1121.91,-623.54"/>
<polygon fill="black" stroke="black" points="1125.41,-623.62 1121.91,-613.62 1118.41,-623.62 1125.41,-623.62"/>
</g>
<!-- n53 -->
<g id="node54" class="node">
<title>n53</title>
<ellipse fill="none" stroke="black" cx="1339.91" cy="-594" rx="99.97" ry="18"/>
<text text-anchor="middle" x="1339.91" y="-588.95" font-family="Times,serif" font-size="14.00">&lt;&lt;statement line: 16&gt;&gt;</text>
</g>
<!-- n47&#45;&gt;n53 -->
<g id="edge53" class="edge">
<title>n47&#45;&gt;n53</title>
<path fill="none" stroke="black" d="M1159.88,-652.81C1193.56,-641.99 1243.25,-626.04 1281.9,-613.63"/>
<polygon fill="black" stroke="black" points="1282.6,-617.08 1291.05,-610.69 1280.46,-610.41 1282.6,-617.08"/>
</g>
<!-- n49 -->
<g id="node50" class="node">
<title>n49</title>
<ellipse fill="none" stroke="black" cx="1121.91" cy="-522" rx="27" ry="18"/>
<text text-anchor="middle" x="1121.91" y="-516.95" font-family="Times,serif" font-size="14.00">=</text>
</g>
<!-- n48&#45;&gt;n49 -->
<g id="edge49" class="edge">
<title>n48&#45;&gt;n49</title>
<path fill="none" stroke="black" d="M1121.91,-575.7C1121.91,-568.41 1121.91,-559.73 1121.91,-551.54"/>
<polygon fill="black" stroke="black" points="1125.41,-551.62 1121.91,-541.62 1118.41,-551.62 1125.41,-551.62"/>
</g>
<!-- n50 -->
<g id="node51" class="node">
<title>n50</title>
<ellipse fill="none" stroke="black" cx="1010.91" cy="-450" rx="71.31" ry="18"/>
<text text-anchor="middle" x="1010.91" y="-444.95" font-family="Times,serif" font-size="14.00">&lt;&lt;var access&gt;&gt;</text>
</g>
<!-- n49&#45;&gt;n50 -->
<g id="edge50" class="edge">
<title>n49&#45;&gt;n50</title>
<path fill="none" stroke="black" d="M1102.83,-508.97C1087.28,-499.16 1064.89,-485.04 1046.11,-473.2"/>
<polygon fill="black" stroke="black" points="1047.99,-470.25 1037.67,-467.88 1044.26,-476.17 1047.99,-470.25"/>
</g>
<!-- n52 -->
<g id="node53" class="node">
<title>n52</title>
<ellipse fill="none" stroke="black" cx="1126.91" cy="-450" rx="27" ry="18"/>
<text text-anchor="middle" x="1126.91" y="-444.95" font-family="Times,serif" font-size="14.00">10</text>
</g>
<!-- n49&#45;&gt;n52 -->
<g id="edge52" class="edge">
<title>n49&#45;&gt;n52</title>
<path fill="none" stroke="black" d="M1123.15,-503.7C1123.67,-496.41 1124.29,-487.73 1124.87,-479.54"/>
<polygon fill="black" stroke="black" points="1128.36,-479.84 1125.58,-469.61 1121.38,-479.34 1128.36,-479.84"/>
</g>
<!-- n51 -->
<g id="node52" class="node">
<title>n51</title>
<ellipse fill="none" stroke="black" cx="1010.91" cy="-378" rx="27" ry="18"/>
<text text-anchor="middle" x="1010.91" y="-372.95" font-family="Times,serif" font-size="14.00">n</text>
</g>
<!-- n50&#45;&gt;n51 -->
<g id="edge51" class="edge">
<title>n50&#45;&gt;n51</title>
<path fill="none" stroke="black" d="M1010.91,-431.7C1010.91,-424.41 1010.91,-415.73 1010.91,-407.54"/>
<polygon fill="black" stroke="black" points="1014.41,-407.62 1010.91,-397.62 1007.41,-407.62 1014.41,-407.62"/>
</g>
<!-- n54 -->
<g id="node55" class="node">
<title>n54</title>
<ellipse fill="none" stroke="black" cx="1339.91" cy="-522" rx="80.01" ry="18"/>
<text text-anchor="middle" x="1339.91" y="-516.95" font-family="Times,serif" font-size="14.00">&lt;&lt;function call&gt;&gt;</text>
</g>
<!-- n53&#45;&gt;n54 -->
<g id="edge54" class="edge">
<title>n53&#45;&gt;n54</title>
<path fill="none" stroke="black" d="M1339.91,-575.7C1339.91,-568.41 1339.91,-559.73 1339.91,-551.54"/>
<polygon fill="black" stroke="black" points="1343.41,-551.62 1339.91,-541.62 1336.41,-551.62 1343.41,-551.62"/>
</g>
<!-- n55 -->
<g id="node56" class="node">
<title>n55</title>
<ellipse fill="none" stroke="black" cx="1279.91" cy="-450" rx="64.15" ry="18"/>
<text text-anchor="middle" x="1279.91" y="-444.95" font-family="Times,serif" font-size="14.00">&lt;&lt;function&gt;&gt;</text>
</g>
<!-- n54&#45;&gt;n55 -->
<g id="edge55" class="edge">
<title>n54&#45;&gt;n55</title>
<path fill="none" stroke="black" d="M1325.39,-504.05C1318.24,-495.71 1309.47,-485.49 1301.55,-476.25"/>
<polygon fill="black" stroke="black" points="1304.45,-474.25 1295.29,-468.94 1299.14,-478.81 1304.45,-474.25"/>
</g>
<!-- n57 -->
<g id="node58" class="node">
<title>n57</title>
<ellipse fill="none" stroke="black" cx="1412.91" cy="-450" rx="48.79" ry="18"/>
<text text-anchor="middle" x="1412.91" y="-444.95" font-family="Times,serif" font-size="14.00">&lt;&lt;args&gt;&gt;</text>
</g>
<!-- n54&#45;&gt;n57 -->
<g id="edge57" class="edge">
<title>n54&#45;&gt;n57</title>
<path fill="none" stroke="black" d="M1357.58,-504.05C1366.59,-495.42 1377.7,-484.76 1387.6,-475.27"/>
<polygon fill="black" stroke="black" points="1390.02,-477.8 1394.81,-468.35 1385.17,-472.75 1390.02,-477.8"/>
</g>
<!-- n56 -->
<g id="node57" class="node">
<title>n56</title>
<ellipse fill="none" stroke="black" cx="1278.91" cy="-378" rx="37.02" ry="18"/>
<text text-anchor="middle" x="1278.91" y="-372.95" font-family="Times,serif" font-size="14.00">writeln</text>
</g>
<!-- n55&#45;&gt;n56 -->
<g id="edge56" class="edge">
<title>n55&#45;&gt;n56</title>
<path fill="none" stroke="black" d="M1279.66,-431.7C1279.56,-424.41 1279.44,-415.73 1279.32,-407.54"/>
<polygon fill="black" stroke="black" points="1282.82,-407.57 1279.18,-397.62 1275.82,-407.67 1282.82,-407.57"/>
</g>
<!-- n58 -->
<g id="node59" class="node">
<title>n58</title>
<ellipse fill="none" stroke="black" cx="1413.91" cy="-378" rx="80.01" ry="18"/>
<text text-anchor="middle" x="1413.91" y="-372.95" font-family="Times,serif" font-size="14.00">&lt;&lt;function call&gt;&gt;</text>
</g>
<!-- n57&#45;&gt;n58 -->
<g id="edge58" class="edge">
<title>n57&#45;&gt;n58</title>
<path fill="none" stroke="black" d="M1413.16,-431.7C1413.26,-424.41 1413.39,-415.73 1413.5,-407.54"/>
<polygon fill="black" stroke="black" points="1417,-407.67 1413.64,-397.62 1410,-407.57 1417,-407.67"/>
</g>
<!-- n59 -->
<g id="node60" class="node">
<title>n59</title>
<ellipse fill="none" stroke="black" cx="1322.91" cy="-306" rx="64.15" ry="18"/>
<text text-anchor="middle" x="1322.91" y="-300.95" font-family="Times,serif" font-size="14.00">&lt;&lt;function&gt;&gt;</text>
</g>
<!-- n58&#45;&gt;n59 -->
<g id="edge59" class="edge">
<title>n58&#45;&gt;n59</title>
<path fill="none" stroke="black" d="M1392.34,-360.41C1380.59,-351.37 1365.85,-340.03 1352.98,-330.13"/>
<polygon fill="black" stroke="black" points="1355.27,-327.47 1345.21,-324.15 1351,-333.02 1355.27,-327.47"/>
</g>
<!-- n61 -->
<g id="node62" class="node">
<title>n61</title>
<ellipse fill="none" stroke="black" cx="1453.91" cy="-306" rx="48.79" ry="18"/>
<text text-anchor="middle" x="1453.91" y="-300.95" font-family="Times,serif" font-size="14.00">&lt;&lt;args&gt;&gt;</text>
</g>
<!-- n58&#45;&gt;n61 -->
<g id="edge61" class="edge">
<title>n58&#45;&gt;n61</title>
<path fill="none" stroke="black" d="M1423.8,-359.7C1428.25,-351.9 1433.62,-342.51 1438.58,-333.83"/>
<polygon fill="black" stroke="black" points="1441.46,-335.84 1443.39,-325.42 1435.39,-332.36 1441.46,-335.84"/>
</g>
<!-- n60 -->
<g id="node61" class="node">
<title>n60</title>
<ellipse fill="none" stroke="black" cx="1322.91" cy="-234" rx="27" ry="18"/>
<text text-anchor="middle" x="1322.91" y="-228.95" font-family="Times,serif" font-size="14.00">fact</text>
</g>
<!-- n59&#45;&gt;n60 -->
<g id="edge60" class="edge">
<title>n59&#45;&gt;n60</title>
<path fill="none" stroke="black" d="M1322.91,-287.7C1322.91,-280.41 1322.91,-271.73 1322.91,-263.54"/>
<polygon fill="black" stroke="black" points="1326.41,-263.62 1322.91,-253.62 1319.41,-263.62 1326.41,-263.62"/>
</g>
<!-- n62 -->
<g id="node63" class="node">
<title>n62</title>
<ellipse fill="none" stroke="black" cx="1453.91" cy="-234" rx="71.31" ry="18"/>
<text text-anchor="middle" x="1453.91" y="-228.95" font-family="Times,serif" font-size="14.00">&lt;&lt;var access&gt;&gt;</text>
</g>
<!-- n61&#45;&gt;n62 -->
<g id="edge62" class="edge">
<title>n61&#45;&gt;n62</title>
<path fill="none" stroke="black" d="M1453.91,-287.7C1453.91,-280.41 1453.91,-271.73 1453.91,-263.54"/>
<polygon fill="black" stroke="black" points="1457.41,-263.62 1453.91,-253.62 1450.41,-263.62 1457.41,-263.62"/>
</g>
<!-- n63 -->
<g id="node64" class="node">
<title>n63</title>
<ellipse fill="none" stroke="black" cx="1453.91" cy="-162" rx="27" ry="18"/>
<text text-anchor="middle" x="1453.91" y="-156.95" font-family="Times,serif" font-size="14.00">n</text>
</g>
<!-- n62&#45;&gt;n63 -->
<g id="edge63" class="edge">
<title>n62&#45;&gt;n63</title>
<path fill="none" stroke="black" d="M1453.91,-215.7C1453.91,-208.41 1453.91,-199.73 1453.91,-191.54"/>
<polygon fill="black" stroke="black" points="1457.41,-191.62 1453.91,-181.62 1450.41,-191.62 1457.41,-191.62"/>
</g>
</g>
</svg>
