<?xml version="1.0" encoding="UTF-8" standalone="no"?>
<!DOCTYPE svg PUBLIC "-//W3C//DTD SVG 1.1//EN"
 "http://www.w3.org/Graphics/SVG/1.1/DTD/svg11.dtd">
<!-- Generated by graphviz version 12.2.1 (20241206.2353)
 -->
<!-- Title: AST Pages: 1 -->
<svg width="1442pt" height="908pt"
 viewBox="0.00 0.00 1442.22 908.00" xmlns="http://www.w3.org/2000/svg" xmlns:xlink="http://www.w3.org/1999/xlink">
<g id="graph0" class="graph" transform="scale(1 1) rotate(0) translate(4 904)">
<title>AST</title>
<polygon fill="white" stroke="none" points="-4,4 -4,-904 1438.22,-904 1438.22,4 -4,4"/>
<!-- n0 -->
<g id="node1" class="node">
<title>n0</title>
<ellipse fill="none" stroke="black" cx="708.91" cy="-882" rx="42.65" ry="18"/>
<text text-anchor="middle" x="708.91" y="-876.95" font-family="Times,serif" font-size="14.00">program</text>
</g>
<!-- n1 -->
<g id="node2" class="node">
<title>n1</title>
<ellipse fill="none" stroke="black" cx="360.91" cy="-810" rx="107.65" ry="18"/>
<text text-anchor="middle" x="360.91" y="-804.95" font-family="Times,serif" font-size="14.00">&lt;&lt;function declaration&gt;&gt;</text>
</g>
<!-- n0&#45;&gt;n1 -->
<g id="edge1" class="edge">
<title>n0&#45;&gt;n1</title>
<path fill="none" stroke="black" d="M671.01,-873.38C615.54,-862.22 511.04,-841.2 438.77,-826.66"/>
<polygon fill="black" stroke="black" points="439.89,-823.32 429.39,-824.78 438.51,-830.18 439.89,-823.32"/>
</g>
<!-- n40 -->
<g id="node41" class="node">
<title>n40</title>
<ellipse fill="none" stroke="black" cx="708.91" cy="-810" rx="59.54" ry="18"/>
<text text-anchor="middle" x="708.91" y="-804.95" font-family="Times,serif" font-size="14.00">&lt;&lt;var def&gt;&gt;</text>
</g>
<!-- n0&#45;&gt;n40 -->
<g id="edge40" class="edge">
<title>n0&#45;&gt;n40</title>
<path fill="none" stroke="black" d="M708.91,-863.7C708.91,-856.41 708.91,-847.73 708.91,-839.54"/>
<polygon fill="black" stroke="black" points="712.41,-839.62 708.91,-829.62 705.41,-839.62 712.41,-839.62"/>
</g>
<!-- n45 -->
<g id="node46" class="node">
<title>n45</title>
<ellipse fill="none" stroke="black" cx="946.91" cy="-810" rx="53.91" ry="18"/>
<text text-anchor="middle" x="946.91" y="-804.95" font-family="Times,serif" font-size="14.00">&lt;&lt;block&gt;&gt;</text>
</g>
<!-- n0&#45;&gt;n45 -->
<g id="edge45" class="edge">
<title>n0&#45;&gt;n45</title>
<path fill="none" stroke="black" d="M743.26,-870.9C783.46,-859.07 850.37,-839.39 896.46,-825.84"/>
<polygon fill="black" stroke="black" points="897.35,-829.22 905.96,-823.04 895.38,-822.51 897.35,-829.22"/>
</g>
<!-- n2 -->
<g id="node3" class="node">
<title>n2</title>
<ellipse fill="none" stroke="black" cx="53.91" cy="-738" rx="53.91" ry="18"/>
<text text-anchor="middle" x="53.91" y="-732.95" font-family="Times,serif" font-size="14.00">&lt;&lt;name&gt;&gt;</text>
</g>
<!-- n1&#45;&gt;n2 -->
<g id="edge2" class="edge">
<title>n1&#45;&gt;n2</title>
<path fill="none" stroke="black" d="M296.93,-795.16C248.97,-784.69 181.74,-769.8 122.91,-756 117.78,-754.8 112.43,-753.52 107.09,-752.23"/>
<polygon fill="black" stroke="black" points="108.22,-748.9 97.67,-749.94 106.56,-755.7 108.22,-748.9"/>
</g>
<!-- n4 -->
<g id="node5" class="node">
<title>n4</title>
<ellipse fill="none" stroke="black" cx="205.91" cy="-738" rx="73.87" ry="18"/>
<text text-anchor="middle" x="205.91" y="-732.95" font-family="Times,serif" font-size="14.00">&lt;&lt;return type&gt;&gt;</text>
</g>
<!-- n1&#45;&gt;n4 -->
<g id="edge4" class="edge">
<title>n1&#45;&gt;n4</title>
<path fill="none" stroke="black" d="M324.57,-792.59C302.38,-782.57 273.84,-769.68 250.32,-759.05"/>
<polygon fill="black" stroke="black" points="251.83,-755.9 241.28,-754.97 248.95,-762.28 251.83,-755.9"/>
</g>
<!-- n6 -->
<g id="node7" class="node">
<title>n6</title>
<ellipse fill="none" stroke="black" cx="360.91" cy="-738" rx="60.56" ry="18"/>
<text text-anchor="middle" x="360.91" y="-732.95" font-family="Times,serif" font-size="14.00">&lt;&lt;params&gt;&gt;</text>
</g>
<!-- n1&#45;&gt;n6 -->
<g id="edge6" class="edge">
<title>n1&#45;&gt;n6</title>
<path fill="none" stroke="black" d="M360.91,-791.7C360.91,-784.41 360.91,-775.73 360.91,-767.54"/>
<polygon fill="black" stroke="black" points="364.41,-767.62 360.91,-757.62 357.41,-767.62 364.41,-767.62"/>
</g>
<!-- n11 -->
<g id="node12" class="node">
<title>n11</title>
<ellipse fill="none" stroke="black" cx="505.91" cy="-738" rx="53.91" ry="18"/>
<text text-anchor="middle" x="505.91" y="-732.95" font-family="Times,serif" font-size="14.00">&lt;&lt;block&gt;&gt;</text>
</g>
<!-- n1&#45;&gt;n11 -->
<g id="edge11" class="edge">
<title>n1&#45;&gt;n11</title>
<path fill="none" stroke="black" d="M394.91,-792.59C416.15,-782.33 443.61,-769.08 465.9,-758.31"/>
<polygon fill="black" stroke="black" points="467.21,-761.57 474.7,-754.07 464.17,-755.26 467.21,-761.57"/>
</g>
<!-- n3 -->
<g id="node4" class="node">
<title>n3</title>
<ellipse fill="none" stroke="black" cx="51.91" cy="-666" rx="27" ry="18"/>
<text text-anchor="middle" x="51.91" y="-660.95" font-family="Times,serif" font-size="14.00">fact</text>
</g>
<!-- n2&#45;&gt;n3 -->
<g id="edge3" class="edge">
<title>n2&#45;&gt;n3</title>
<path fill="none" stroke="black" d="M53.42,-719.7C53.21,-712.41 52.96,-703.73 52.73,-695.54"/>
<polygon fill="black" stroke="black" points="56.23,-695.51 52.44,-685.62 49.23,-695.71 56.23,-695.51"/>
</g>
<!-- n5 -->
<g id="node6" class="node">
<title>n5</title>
<ellipse fill="none" stroke="black" cx="133.91" cy="-666" rx="37.02" ry="18"/>
<text text-anchor="middle" x="133.91" y="-660.95" font-family="Times,serif" font-size="14.00">longint</text>
</g>
<!-- n4&#45;&gt;n5 -->
<g id="edge5" class="edge">
<title>n4&#45;&gt;n5</title>
<path fill="none" stroke="black" d="M188.48,-720.05C179.25,-711.08 167.77,-699.92 157.72,-690.15"/>
<polygon fill="black" stroke="black" points="160.4,-687.87 150.79,-683.41 155.52,-692.89 160.4,-687.87"/>
</g>
<!-- n7 -->
<g id="node8" class="node">
<title>n7</title>
<ellipse fill="none" stroke="black" cx="237.91" cy="-666" rx="49.3" ry="18"/>
<text text-anchor="middle" x="237.91" y="-660.95" font-family="Times,serif" font-size="14.00">&lt;&lt;type&gt;&gt;</text>
</g>
<!-- n6&#45;&gt;n7 -->
<g id="edge7" class="edge">
<title>n6&#45;&gt;n7</title>
<path fill="none" stroke="black" d="M333.61,-721.46C315.97,-711.43 292.83,-698.26 273.73,-687.38"/>
<polygon fill="black" stroke="black" points="275.61,-684.43 265.18,-682.52 272.14,-690.51 275.61,-684.43"/>
</g>
<!-- n9 -->
<g id="node10" class="node">
<title>n9</title>
<ellipse fill="none" stroke="black" cx="362.91" cy="-666" rx="57.49" ry="18"/>
<text text-anchor="middle" x="362.91" y="-660.95" font-family="Times,serif" font-size="14.00">&lt;&lt;names&gt;&gt;</text>
</g>
<!-- n6&#45;&gt;n9 -->
<g id="edge9" class="edge">
<title>n6&#45;&gt;n9</title>
<path fill="none" stroke="black" d="M361.4,-719.7C361.61,-712.41 361.86,-703.73 362.1,-695.54"/>
<polygon fill="black" stroke="black" points="365.59,-695.71 362.38,-685.62 358.59,-695.51 365.59,-695.71"/>
</g>
<!-- n8 -->
<g id="node9" class="node">
<title>n8</title>
<ellipse fill="none" stroke="black" cx="237.91" cy="-594" rx="37.02" ry="18"/>
<text text-anchor="middle" x="237.91" y="-588.95" font-family="Times,serif" font-size="14.00">longint</text>
</g>
<!-- n7&#45;&gt;n8 -->
<g id="edge8" class="edge">
<title>n7&#45;&gt;n8</title>
<path fill="none" stroke="black" d="M237.91,-647.7C237.91,-640.41 237.91,-631.73 237.91,-623.54"/>
<polygon fill="black" stroke="black" points="241.41,-623.62 237.91,-613.62 234.41,-623.62 241.41,-623.62"/>
</g>
<!-- n10 -->
<g id="node11" class="node">
<title>n10</title>
<ellipse fill="none" stroke="black" cx="322.91" cy="-594" rx="27" ry="18"/>
<text text-anchor="middle" x="322.91" y="-588.95" font-family="Times,serif" font-size="14.00">n</text>
</g>
<!-- n9&#45;&gt;n10 -->
<g id="edge10" class="edge">
<title>n9&#45;&gt;n10</title>
<path fill="none" stroke="black" d="M353.23,-648.05C348.64,-640.03 343.06,-630.26 337.94,-621.3"/>
<polygon fill="black" stroke="black" points="340.98,-619.57 332.98,-612.62 334.9,-623.04 340.98,-619.57"/>
</g>
<!-- n12 -->
<g id="node13" class="node">
<title>n12</title>
<ellipse fill="none" stroke="black" cx="515.91" cy="-666" rx="77.45" ry="18"/>
<text text-anchor="middle" x="515.91" y="-660.95" font-family="Times,serif" font-size="14.00">&lt;&lt;if statement&gt;&gt;</text>
</g>
<!-- n11&#45;&gt;n12 -->
<g id="edge12" class="edge">
<title>n11&#45;&gt;n12</title>
<path fill="none" stroke="black" d="M508.38,-719.7C509.44,-712.32 510.69,-703.52 511.87,-695.25"/>
<polygon fill="black" stroke="black" points="515.3,-696 513.25,-685.6 508.37,-695.01 515.3,-696"/>
</g>
<!-- n13 -->
<g id="node14" class="node">
<title>n13</title>
<ellipse fill="none" stroke="black" cx="440.91" cy="-594" rx="72.85" ry="18"/>
<text text-anchor="middle" x="440.91" y="-588.95" font-family="Times,serif" font-size="14.00">&lt;&lt;expression&gt;&gt;</text>
</g>
<!-- n12&#45;&gt;n13 -->
<g id="edge13" class="edge">
<title>n12&#45;&gt;n13</title>
<path fill="none" stroke="black" d="M497.76,-648.05C488.54,-639.46 477.19,-628.86 467.05,-619.4"/>
<polygon fill="black" stroke="black" points="469.7,-617.09 460.01,-612.82 464.93,-622.2 469.7,-617.09"/>
</g>
<!-- n18 -->
<g id="node19" class="node">
<title>n18</title>
<ellipse fill="none" stroke="black" cx="580.91" cy="-594" rx="49.3" ry="18"/>
<text text-anchor="middle" x="580.91" y="-588.95" font-family="Times,serif" font-size="14.00">&lt;&lt;then&gt;&gt;</text>
</g>
<!-- n12&#45;&gt;n18 -->
<g id="edge18" class="edge">
<title>n12&#45;&gt;n18</title>
<path fill="none" stroke="black" d="M531.65,-648.05C539.58,-639.5 549.36,-628.97 558.11,-619.56"/>
<polygon fill="black" stroke="black" points="560.5,-622.13 564.74,-612.42 555.37,-617.36 560.5,-622.13"/>
</g>
<!-- n24 -->
<g id="node25" class="node">
<title>n24</title>
<ellipse fill="none" stroke="black" cx="742.91" cy="-594" rx="47.77" ry="18"/>
<text text-anchor="middle" x="742.91" y="-588.95" font-family="Times,serif" font-size="14.00">&lt;&lt;else&gt;&gt;</text>
</g>
<!-- n12&#45;&gt;n24 -->
<g id="edge24" class="edge">
<title>n12&#45;&gt;n24</title>
<path fill="none" stroke="black" d="M561.3,-651C600.36,-638.96 656.5,-621.64 696,-609.47"/>
<polygon fill="black" stroke="black" points="696.95,-612.83 705.48,-606.54 694.89,-606.15 696.95,-612.83"/>
</g>
<!-- n14 -->
<g id="node15" class="node">
<title>n14</title>
<ellipse fill="none" stroke="black" cx="440.91" cy="-522" rx="27" ry="18"/>
<text text-anchor="middle" x="440.91" y="-516.95" font-family="Times,serif" font-size="14.00">==</text>
</g>
<!-- n13&#45;&gt;n14 -->
<g id="edge14" class="edge">
<title>n13&#45;&gt;n14</title>
<path fill="none" stroke="black" d="M440.91,-575.7C440.91,-568.41 440.91,-559.73 440.91,-551.54"/>
<polygon fill="black" stroke="black" points="444.41,-551.62 440.91,-541.62 437.41,-551.62 444.41,-551.62"/>
</g>
<!-- n15 -->
<g id="node16" class="node">
<title>n15</title>
<ellipse fill="none" stroke="black" cx="370.91" cy="-450" rx="71.31" ry="18"/>
<text text-anchor="middle" x="370.91" y="-444.95" font-family="Times,serif" font-size="14.00">&lt;&lt;var access&gt;&gt;</text>
</g>
<!-- n14&#45;&gt;n15 -->
<g id="edge15" class="edge">
<title>n14&#45;&gt;n15</title>
<path fill="none" stroke="black" d="M426.41,-506.5C417.56,-497.65 406.01,-486.1 395.75,-475.84"/>
<polygon fill="black" stroke="black" points="398.48,-473.62 388.93,-469.02 393.53,-478.57 398.48,-473.62"/>
</g>
<!-- n17 -->
<g id="node18" class="node">
<title>n17</title>
<ellipse fill="none" stroke="black" cx="486.91" cy="-450" rx="27" ry="18"/>
<text text-anchor="middle" x="486.91" y="-444.95" font-family="Times,serif" font-size="14.00">1</text>
</g>
<!-- n14&#45;&gt;n17 -->
<g id="edge17" class="edge">
<title>n14&#45;&gt;n17</title>
<path fill="none" stroke="black" d="M451.35,-505.12C456.94,-496.61 463.95,-485.94 470.27,-476.32"/>
<polygon fill="black" stroke="black" points="473.12,-478.37 475.68,-468.09 467.27,-474.52 473.12,-478.37"/>
</g>
<!-- n16 -->
<g id="node17" class="node">
<title>n16</title>
<ellipse fill="none" stroke="black" cx="370.91" cy="-378" rx="27" ry="18"/>
<text text-anchor="middle" x="370.91" y="-372.95" font-family="Times,serif" font-size="14.00">n</text>
</g>
<!-- n15&#45;&gt;n16 -->
<g id="edge16" class="edge">
<title>n15&#45;&gt;n16</title>
<path fill="none" stroke="black" d="M370.91,-431.7C370.91,-424.41 370.91,-415.73 370.91,-407.54"/>
<polygon fill="black" stroke="black" points="374.41,-407.62 370.91,-397.62 367.41,-407.62 374.41,-407.62"/>
</g>
<!-- n19 -->
<g id="node20" class="node">
<title>n19</title>
<ellipse fill="none" stroke="black" cx="580.91" cy="-522" rx="95.37" ry="18"/>
<text text-anchor="middle" x="580.91" y="-516.95" font-family="Times,serif" font-size="14.00">&lt;&lt;statement line: 6&gt;&gt;</text>
</g>
<!-- n18&#45;&gt;n19 -->
<g id="edge19" class="edge">
<title>n18&#45;&gt;n19</title>
<path fill="none" stroke="black" d="M580.91,-575.7C580.91,-568.41 580.91,-559.73 580.91,-551.54"/>
<polygon fill="black" stroke="black" points="584.41,-551.62 580.91,-541.62 577.41,-551.62 584.41,-551.62"/>
</g>
<!-- n20 -->
<g id="node21" class="node">
<title>n20</title>
<ellipse fill="none" stroke="black" cx="580.91" cy="-450" rx="27" ry="18"/>
<text text-anchor="middle" x="580.91" y="-444.95" font-family="Times,serif" font-size="14.00">=</text>
</g>
<!-- n19&#45;&gt;n20 -->
<g id="edge20" class="edge">
<title>n19&#45;&gt;n20</title>
<path fill="none" stroke="black" d="M580.91,-503.7C580.91,-496.41 580.91,-487.73 580.91,-479.54"/>
<polygon fill="black" stroke="black" points="584.41,-479.62 580.91,-469.62 577.41,-479.62 584.41,-479.62"/>
</g>
<!-- n21 -->
<g id="node22" class="node">
<title>n21</title>
<ellipse fill="none" stroke="black" cx="521.91" cy="-378" rx="71.31" ry="18"/>
<text text-anchor="middle" x="521.91" y="-372.95" font-family="Times,serif" font-size="14.00">&lt;&lt;var access&gt;&gt;</text>
</g>
<!-- n20&#45;&gt;n21 -->
<g id="edge21" class="edge">
<title>n20&#45;&gt;n21</title>
<path fill="none" stroke="black" d="M568.11,-433.81C560.84,-425.19 551.56,-414.18 543.23,-404.29"/>
<polygon fill="black" stroke="black" points="546.02,-402.18 536.9,-396.79 540.67,-406.69 546.02,-402.18"/>
</g>
<!-- n23 -->
<g id="node24" class="node">
<title>n23</title>
<ellipse fill="none" stroke="black" cx="637.91" cy="-378" rx="27" ry="18"/>
<text text-anchor="middle" x="637.91" y="-372.95" font-family="Times,serif" font-size="14.00">1</text>
</g>
<!-- n20&#45;&gt;n23 -->
<g id="edge23" class="edge">
<title>n20&#45;&gt;n23</title>
<path fill="none" stroke="black" d="M593.28,-433.81C600.6,-424.82 610.04,-413.23 618.35,-403.03"/>
<polygon fill="black" stroke="black" points="621.01,-405.3 624.61,-395.33 615.58,-400.88 621.01,-405.3"/>
</g>
<!-- n22 -->
<g id="node23" class="node">
<title>n22</title>
<ellipse fill="none" stroke="black" cx="521.91" cy="-306" rx="34.46" ry="18"/>
<text text-anchor="middle" x="521.91" y="-300.95" font-family="Times,serif" font-size="14.00">Result</text>
</g>
<!-- n21&#45;&gt;n22 -->
<g id="edge22" class="edge">
<title>n21&#45;&gt;n22</title>
<path fill="none" stroke="black" d="M521.91,-359.7C521.91,-352.41 521.91,-343.73 521.91,-335.54"/>
<polygon fill="black" stroke="black" points="525.41,-335.62 521.91,-325.62 518.41,-335.62 525.41,-335.62"/>
</g>
<!-- n25 -->
<g id="node26" class="node">
<title>n25</title>
<ellipse fill="none" stroke="black" cx="789.91" cy="-522" rx="95.37" ry="18"/>
<text text-anchor="middle" x="789.91" y="-516.95" font-family="Times,serif" font-size="14.00">&lt;&lt;statement line: 8&gt;&gt;</text>
</g>
<!-- n24&#45;&gt;n25 -->
<g id="edge25" class="edge">
<title>n24&#45;&gt;n25</title>
<path fill="none" stroke="black" d="M754.29,-576.05C759.58,-568.18 766,-558.62 771.92,-549.79"/>
<polygon fill="black" stroke="black" points="774.8,-551.79 777.47,-541.53 768.99,-547.88 774.8,-551.79"/>
</g>
<!-- n26 -->
<g id="node27" class="node">
<title>n26</title>
<ellipse fill="none" stroke="black" cx="789.91" cy="-450" rx="27" ry="18"/>
<text text-anchor="middle" x="789.91" y="-444.95" font-family="Times,serif" font-size="14.00">=</text>
</g>
<!-- n25&#45;&gt;n26 -->
<g id="edge26" class="edge">
<title>n25&#45;&gt;n26</title>
<path fill="none" stroke="black" d="M789.91,-503.7C789.91,-496.41 789.91,-487.73 789.91,-479.54"/>
<polygon fill="black" stroke="black" points="793.41,-479.62 789.91,-469.62 786.41,-479.62 793.41,-479.62"/>
</g>
<!-- n27 -->
<g id="node28" class="node">
<title>n27</title>
<ellipse fill="none" stroke="black" cx="771.91" cy="-378" rx="71.31" ry="18"/>
<text text-anchor="middle" x="771.91" y="-372.95" font-family="Times,serif" font-size="14.00">&lt;&lt;var access&gt;&gt;</text>
</g>
<!-- n26&#45;&gt;n27 -->
<g id="edge27" class="edge">
<title>n26&#45;&gt;n27</title>
<path fill="none" stroke="black" d="M785.55,-432.05C783.64,-424.6 781.33,-415.64 779.17,-407.22"/>
<polygon fill="black" stroke="black" points="782.61,-406.55 776.73,-397.74 775.83,-408.3 782.61,-406.55"/>
</g>
<!-- n29 -->
<g id="node30" class="node">
<title>n29</title>
<ellipse fill="none" stroke="black" cx="891.91" cy="-378" rx="27" ry="18"/>
<text text-anchor="middle" x="891.91" y="-372.95" font-family="Times,serif" font-size="14.00">*</text>
</g>
<!-- n26&#45;&gt;n29 -->
<g id="edge29" class="edge">
<title>n26&#45;&gt;n29</title>
<path fill="none" stroke="black" d="M808.15,-436.49C823.71,-425.8 846.35,-410.27 864.16,-398.04"/>
<polygon fill="black" stroke="black" points="865.98,-401.04 872.24,-392.5 862.02,-395.27 865.98,-401.04"/>
</g>
<!-- n28 -->
<g id="node29" class="node">
<title>n28</title>
<ellipse fill="none" stroke="black" cx="767.91" cy="-306" rx="34.46" ry="18"/>
<text text-anchor="middle" x="767.91" y="-300.95" font-family="Times,serif" font-size="14.00">Result</text>
</g>
<!-- n27&#45;&gt;n28 -->
<g id="edge28" class="edge">
<title>n27&#45;&gt;n28</title>
<path fill="none" stroke="black" d="M770.92,-359.7C770.51,-352.41 770.01,-343.73 769.54,-335.54"/>
<polygon fill="black" stroke="black" points="773.04,-335.4 768.97,-325.62 766.05,-335.8 773.04,-335.4"/>
</g>
<!-- n30 -->
<g id="node31" class="node">
<title>n30</title>
<ellipse fill="none" stroke="black" cx="891.91" cy="-306" rx="71.31" ry="18"/>
<text text-anchor="middle" x="891.91" y="-300.95" font-family="Times,serif" font-size="14.00">&lt;&lt;var access&gt;&gt;</text>
</g>
<!-- n29&#45;&gt;n30 -->
<g id="edge30" class="edge">
<title>n29&#45;&gt;n30</title>
<path fill="none" stroke="black" d="M891.91,-359.7C891.91,-352.41 891.91,-343.73 891.91,-335.54"/>
<polygon fill="black" stroke="black" points="895.41,-335.62 891.91,-325.62 888.41,-335.62 895.41,-335.62"/>
</g>
<!-- n32 -->
<g id="node33" class="node">
<title>n32</title>
<ellipse fill="none" stroke="black" cx="1060.91" cy="-306" rx="80.01" ry="18"/>
<text text-anchor="middle" x="1060.91" y="-300.95" font-family="Times,serif" font-size="14.00">&lt;&lt;function call&gt;&gt;</text>
</g>
<!-- n29&#45;&gt;n32 -->
<g id="edge32" class="edge">
<title>n29&#45;&gt;n32</title>
<path fill="none" stroke="black" d="M914.35,-367.7C939.44,-357.31 980.79,-340.18 1013.19,-326.77"/>
<polygon fill="black" stroke="black" points="1014.5,-330.01 1022.4,-322.95 1011.82,-323.55 1014.5,-330.01"/>
</g>
<!-- n31 -->
<g id="node32" class="node">
<title>n31</title>
<ellipse fill="none" stroke="black" cx="891.91" cy="-234" rx="27" ry="18"/>
<text text-anchor="middle" x="891.91" y="-228.95" font-family="Times,serif" font-size="14.00">n</text>
</g>
<!-- n30&#45;&gt;n31 -->
<g id="edge31" class="edge">
<title>n30&#45;&gt;n31</title>
<path fill="none" stroke="black" d="M891.91,-287.7C891.91,-280.41 891.91,-271.73 891.91,-263.54"/>
<polygon fill="black" stroke="black" points="895.41,-263.62 891.91,-253.62 888.41,-263.62 895.41,-263.62"/>
</g>
<!-- n33 -->
<g id="node34" class="node">
<title>n33</title>
<ellipse fill="none" stroke="black" cx="1030.91" cy="-234" rx="64.15" ry="18"/>
<text text-anchor="middle" x="1030.91" y="-228.95" font-family="Times,serif" font-size="14.00">&lt;&lt;function&gt;&gt;</text>
</g>
<!-- n32&#45;&gt;n33 -->
<g id="edge33" class="edge">
<title>n32&#45;&gt;n33</title>
<path fill="none" stroke="black" d="M1053.49,-287.7C1050.26,-280.15 1046.39,-271.12 1042.77,-262.68"/>
<polygon fill="black" stroke="black" points="1045.99,-261.31 1038.84,-253.5 1039.56,-264.07 1045.99,-261.31"/>
</g>
<!-- n35 -->
<g id="node36" class="node">
<title>n35</title>
<ellipse fill="none" stroke="black" cx="1161.91" cy="-234" rx="48.79" ry="18"/>
<text text-anchor="middle" x="1161.91" y="-228.95" font-family="Times,serif" font-size="14.00">&lt;&lt;args&gt;&gt;</text>
</g>
<!-- n32&#45;&gt;n35 -->
<g id="edge35" class="edge">
<title>n32&#45;&gt;n35</title>
<path fill="none" stroke="black" d="M1084.85,-288.41C1098.53,-278.93 1115.86,-266.92 1130.61,-256.69"/>
<polygon fill="black" stroke="black" points="1132.4,-259.71 1138.63,-251.14 1128.42,-253.96 1132.4,-259.71"/>
</g>
<!-- n34 -->
<g id="node35" class="node">
<title>n34</title>
<ellipse fill="none" stroke="black" cx="1030.91" cy="-162" rx="27" ry="18"/>
<text text-anchor="middle" x="1030.91" y="-156.95" font-family="Times,serif" font-size="14.00">fact</text>
</g>
<!-- n33&#45;&gt;n34 -->
<g id="edge34" class="edge">
<title>n33&#45;&gt;n34</title>
<path fill="none" stroke="black" d="M1030.91,-215.7C1030.91,-208.41 1030.91,-199.73 1030.91,-191.54"/>
<polygon fill="black" stroke="black" points="1034.41,-191.62 1030.91,-181.62 1027.41,-191.62 1034.41,-191.62"/>
</g>
<!-- n36 -->
<g id="node37" class="node">
<title>n36</title>
<ellipse fill="none" stroke="black" cx="1161.91" cy="-162" rx="27" ry="18"/>
<text text-anchor="middle" x="1161.91" y="-156.95" font-family="Times,serif" font-size="14.00">&#45;</text>
</g>
<!-- n35&#45;&gt;n36 -->
<g id="edge36" class="edge">
<title>n35&#45;&gt;n36</title>
<path fill="none" stroke="black" d="M1161.91,-215.7C1161.91,-208.41 1161.91,-199.73 1161.91,-191.54"/>
<polygon fill="black" stroke="black" points="1165.41,-191.62 1161.91,-181.62 1158.41,-191.62 1165.41,-191.62"/>
</g>
<!-- n37 -->
<g id="node38" class="node">
<title>n37</title>
<ellipse fill="none" stroke="black" cx="1103.91" cy="-90" rx="71.31" ry="18"/>
<text text-anchor="middle" x="1103.91" y="-84.95" font-family="Times,serif" font-size="14.00">&lt;&lt;var access&gt;&gt;</text>
</g>
<!-- n36&#45;&gt;n37 -->
<g id="edge37" class="edge">
<title>n36&#45;&gt;n37</title>
<path fill="none" stroke="black" d="M1149.33,-145.81C1142.29,-137.31 1133.32,-126.49 1125.22,-116.72"/>
<polygon fill="black" stroke="black" points="1128.14,-114.76 1119.07,-109.29 1122.75,-119.23 1128.14,-114.76"/>
</g>
<!-- n39 -->
<g id="node40" class="node">
<title>n39</title>
<ellipse fill="none" stroke="black" cx="1219.91" cy="-90" rx="27" ry="18"/>
<text text-anchor="middle" x="1219.91" y="-84.95" font-family="Times,serif" font-size="14.00">1</text>
</g>
<!-- n36&#45;&gt;n39 -->
<g id="edge39" class="edge">
<title>n36&#45;&gt;n39</title>
<path fill="none" stroke="black" d="M1174.5,-145.81C1182.02,-136.73 1191.74,-125 1200.26,-114.72"/>
<polygon fill="black" stroke="black" points="1202.7,-117.26 1206.38,-107.32 1197.31,-112.79 1202.7,-117.26"/>
</g>
<!-- n38 -->
<g id="node39" class="node">
<title>n38</title>
<ellipse fill="none" stroke="black" cx="1103.91" cy="-18" rx="27" ry="18"/>
<text text-anchor="middle" x="1103.91" y="-12.95" font-family="Times,serif" font-size="14.00">n</text>
</g>
<!-- n37&#45;&gt;n38 -->
<g id="edge38" class="edge">
<title>n37&#45;&gt;n38</title>
<path fill="none" stroke="black" d="M1103.91,-71.7C1103.91,-64.41 1103.91,-55.73 1103.91,-47.54"/>
<polygon fill="black" stroke="black" points="1107.41,-47.62 1103.91,-37.62 1100.41,-47.62 1107.41,-47.62"/>
</g>
<!-- n41 -->
<g id="node42" class="node">
<title>n41</title>
<ellipse fill="none" stroke="black" cx="646.91" cy="-738" rx="49.3" ry="18"/>
<text text-anchor="middle" x="646.91" y="-732.95" font-family="Times,serif" font-size="14.00">&lt;&lt;type&gt;&gt;</text>
</g>
<!-- n40&#45;&gt;n41 -->
<g id="edge41" class="edge">
<title>n40&#45;&gt;n41</title>
<path fill="none" stroke="black" d="M694.22,-792.41C686.73,-783.95 677.46,-773.49 669.12,-764.08"/>
<polygon fill="black" stroke="black" points="671.75,-761.77 662.5,-756.6 666.51,-766.41 671.75,-761.77"/>
</g>
<!-- n43 -->
<g id="node44" class="node">
<title>n43</title>
<ellipse fill="none" stroke="black" cx="771.91" cy="-738" rx="57.49" ry="18"/>
<text text-anchor="middle" x="771.91" y="-732.95" font-family="Times,serif" font-size="14.00">&lt;&lt;names&gt;&gt;</text>
</g>
<!-- n40&#45;&gt;n43 -->
<g id="edge43" class="edge">
<title>n40&#45;&gt;n43</title>
<path fill="none" stroke="black" d="M723.84,-792.41C731.53,-783.87 741.06,-773.28 749.6,-763.79"/>
<polygon fill="black" stroke="black" points="751.99,-766.37 756.07,-756.59 746.78,-761.69 751.99,-766.37"/>
</g>
<!-- n42 -->
<g id="node43" class="node">
<title>n42</title>
<ellipse fill="none" stroke="black" cx="647.91" cy="-666" rx="37.02" ry="18"/>
<text text-anchor="middle" x="647.91" y="-660.95" font-family="Times,serif" font-size="14.00">longint</text>
</g>
<!-- n41&#45;&gt;n42 -->
<g id="edge42" class="edge">
<title>n41&#45;&gt;n42</title>
<path fill="none" stroke="black" d="M647.16,-719.7C647.26,-712.41 647.39,-703.73 647.5,-695.54"/>
<polygon fill="black" stroke="black" points="651,-695.67 647.64,-685.62 644,-695.57 651,-695.67"/>
</g>
<!-- n44 -->
<g id="node45" class="node">
<title>n44</title>
<ellipse fill="none" stroke="black" cx="771.91" cy="-666" rx="27" ry="18"/>
<text text-anchor="middle" x="771.91" y="-660.95" font-family="Times,serif" font-size="14.00">n</text>
</g>
<!-- n43&#45;&gt;n44 -->
<g id="edge44" class="edge">
<title>n43&#45;&gt;n44</title>
<path fill="none" stroke="black" d="M771.91,-719.7C771.91,-712.41 771.91,-703.73 771.91,-695.54"/>
<polygon fill="black" stroke="black" points="775.41,-695.62 771.91,-685.62 768.41,-695.62 775.41,-695.62"/>
</g>
<!-- n46 -->
<g id="node47" class="node">
<title>n46</title>
<ellipse fill="none" stroke="black" cx="946.91" cy="-738" rx="99.97" ry="18"/>
<text text-anchor="middle" x="946.91" y="-732.95" font-family="Times,serif" font-size="14.00">&lt;&lt;statement line: 14&gt;&gt;</text>
</g>
<!-- n45&#45;&gt;n46 -->
<g id="edge46" class="edge">
<title>n45&#45;&gt;n46</title>
<path fill="none" stroke="black" d="M946.91,-791.7C946.91,-784.41 946.91,-775.73 946.91,-767.54"/>
<polygon fill="black" stroke="black" points="950.41,-767.62 946.91,-757.62 943.41,-767.62 950.41,-767.62"/>
</g>
<!-- n51 -->
<g id="node52" class="node">
<title>n51</title>
<ellipse fill="none" stroke="black" cx="1164.91" cy="-738" rx="99.97" ry="18"/>
<text text-anchor="middle" x="1164.91" y="-732.95" font-family="Times,serif" font-size="14.00">&lt;&lt;statement line: 15&gt;&gt;</text>
</g>
<!-- n45&#45;&gt;n51 -->
<g id="edge51" class="edge">
<title>n45&#45;&gt;n51</title>
<path fill="none" stroke="black" d="M984.88,-796.81C1018.56,-785.99 1068.25,-770.04 1106.9,-757.63"/>
<polygon fill="black" stroke="black" points="1107.6,-761.08 1116.05,-754.69 1105.46,-754.41 1107.6,-761.08"/>
</g>
<!-- n47 -->
<g id="node48" class="node">
<title>n47</title>
<ellipse fill="none" stroke="black" cx="946.91" cy="-666" rx="27" ry="18"/>
<text text-anchor="middle" x="946.91" y="-660.95" font-family="Times,serif" font-size="14.00">=</text>
</g>
<!-- n46&#45;&gt;n47 -->
<g id="edge47" class="edge">
<title>n46&#45;&gt;n47</title>
<path fill="none" stroke="black" d="M946.91,-719.7C946.91,-712.41 946.91,-703.73 946.91,-695.54"/>
<polygon fill="black" stroke="black" points="950.41,-695.62 946.91,-685.62 943.41,-695.62 950.41,-695.62"/>
</g>
<!-- n48 -->
<g id="node49" class="node">
<title>n48</title>
<ellipse fill="none" stroke="black" cx="936.91" cy="-594" rx="71.31" ry="18"/>
<text text-anchor="middle" x="936.91" y="-588.95" font-family="Times,serif" font-size="14.00">&lt;&lt;var access&gt;&gt;</text>
</g>
<!-- n47&#45;&gt;n48 -->
<g id="edge48" class="edge">
<title>n47&#45;&gt;n48</title>
<path fill="none" stroke="black" d="M944.44,-647.7C943.38,-640.32 942.13,-631.52 940.95,-623.25"/>
<polygon fill="black" stroke="black" points="944.45,-623.01 939.57,-613.6 937.52,-624 944.45,-623.01"/>
</g>
<!-- n50 -->
<g id="node51" class="node">
<title>n50</title>
<ellipse fill="none" stroke="black" cx="1052.91" cy="-594" rx="27" ry="18"/>
<text text-anchor="middle" x="1052.91" y="-588.95" font-family="Times,serif" font-size="14.00">10</text>
</g>
<!-- n47&#45;&gt;n50 -->
<g id="edge50" class="edge">
<title>n47&#45;&gt;n50</title>
<path fill="none" stroke="black" d="M965.37,-652.81C981.77,-641.98 1005.96,-626 1024.76,-613.59"/>
<polygon fill="black" stroke="black" points="1026.62,-616.55 1033.04,-608.12 1022.77,-610.71 1026.62,-616.55"/>
</g>
<!-- n49 -->
<g id="node50" class="node">
<title>n49</title>
<ellipse fill="none" stroke="black" cx="936.91" cy="-522" rx="27" ry="18"/>
<text text-anchor="middle" x="936.91" y="-516.95" font-family="Times,serif" font-size="14.00">n</text>
</g>
<!-- n48&#45;&gt;n49 -->
<g id="edge49" class="edge">
<title>n48&#45;&gt;n49</title>
<path fill="none" stroke="black" d="M936.91,-575.7C936.91,-568.41 936.91,-559.73 936.91,-551.54"/>
<polygon fill="black" stroke="black" points="940.41,-551.62 936.91,-541.62 933.41,-551.62 940.41,-551.62"/>
</g>
<!-- n52 -->
<g id="node53" class="node">
<title>n52</title>
<ellipse fill="none" stroke="black" cx="1164.91" cy="-666" rx="80.01" ry="18"/>
<text text-anchor="middle" x="1164.91" y="-660.95" font-family="Times,serif" font-size="14.00">&lt;&lt;function call&gt;&gt;</text>
</g>
<!-- n51&#45;&gt;n52 -->
<g id="edge52" class="edge">
<title>n51&#45;&gt;n52</title>
<path fill="none" stroke="black" d="M1164.91,-719.7C1164.91,-712.41 1164.91,-703.73 1164.91,-695.54"/>
<polygon fill="black" stroke="black" points="1168.41,-695.62 1164.91,-685.62 1161.41,-695.62 1168.41,-695.62"/>
</g>
<!-- n53 -->
<g id="node54" class="node">
<title>n53</title>
<ellipse fill="none" stroke="black" cx="1163.91" cy="-594" rx="64.15" ry="18"/>
<text text-anchor="middle" x="1163.91" y="-588.95" font-family="Times,serif" font-size="14.00">&lt;&lt;function&gt;&gt;</text>
</g>
<!-- n52&#45;&gt;n53 -->
<g id="edge53" class="edge">
<title>n52&#45;&gt;n53</title>
<path fill="none" stroke="black" d="M1164.66,-647.7C1164.56,-640.41 1164.44,-631.73 1164.32,-623.54"/>
<polygon fill="black" stroke="black" points="1167.82,-623.57 1164.18,-613.62 1160.82,-623.67 1167.82,-623.57"/>
</g>
<!-- n55 -->
<g id="node56" class="node">
<title>n55</title>
<ellipse fill="none" stroke="black" cx="1296.91" cy="-594" rx="48.79" ry="18"/>
<text text-anchor="middle" x="1296.91" y="-588.95" font-family="Times,serif" font-size="14.00">&lt;&lt;args&gt;&gt;</text>
</g>
<!-- n52&#45;&gt;n55 -->
<g id="edge55" class="edge">
<title>n52&#45;&gt;n55</title>
<path fill="none" stroke="black" d="M1195.19,-648.94C1214.47,-638.72 1239.56,-625.41 1259.99,-614.58"/>
<polygon fill="black" stroke="black" points="1261.37,-617.81 1268.57,-610.03 1258.09,-611.62 1261.37,-617.81"/>
</g>
<!-- n54 -->
<g id="node55" class="node">
<title>n54</title>
<ellipse fill="none" stroke="black" cx="1162.91" cy="-522" rx="37.02" ry="18"/>
<text text-anchor="middle" x="1162.91" y="-516.95" font-family="Times,serif" font-size="14.00">writeln</text>
</g>
<!-- n53&#45;&gt;n54 -->
<g id="edge54" class="edge">
<title>n53&#45;&gt;n54</title>
<path fill="none" stroke="black" d="M1163.66,-575.7C1163.56,-568.41 1163.44,-559.73 1163.32,-551.54"/>
<polygon fill="black" stroke="black" points="1166.82,-551.57 1163.18,-541.62 1159.82,-551.67 1166.82,-551.57"/>
</g>
<!-- n56 -->
<g id="node57" class="node">
<title>n56</title>
<ellipse fill="none" stroke="black" cx="1297.91" cy="-522" rx="80.01" ry="18"/>
<text text-anchor="middle" x="1297.91" y="-516.95" font-family="Times,serif" font-size="14.00">&lt;&lt;function call&gt;&gt;</text>
</g>
<!-- n55&#45;&gt;n56 -->
<g id="edge56" class="edge">
<title>n55&#45;&gt;n56</title>
<path fill="none" stroke="black" d="M1297.16,-575.7C1297.26,-568.41 1297.39,-559.73 1297.5,-551.54"/>
<polygon fill="black" stroke="black" points="1301,-551.67 1297.64,-541.62 1294,-551.57 1301,-551.67"/>
</g>
<!-- n57 -->
<g id="node58" class="node">
<title>n57</title>
<ellipse fill="none" stroke="black" cx="1231.91" cy="-450" rx="64.15" ry="18"/>
<text text-anchor="middle" x="1231.91" y="-444.95" font-family="Times,serif" font-size="14.00">&lt;&lt;function&gt;&gt;</text>
</g>
<!-- n56&#45;&gt;n57 -->
<g id="edge57" class="edge">
<title>n56&#45;&gt;n57</title>
<path fill="none" stroke="black" d="M1281.93,-504.05C1273.99,-495.63 1264.23,-485.28 1255.45,-475.97"/>
<polygon fill="black" stroke="black" points="1258.19,-473.77 1248.78,-468.89 1253.09,-478.57 1258.19,-473.77"/>
</g>
<!-- n59 -->
<g id="node60" class="node">
<title>n59</title>
<ellipse fill="none" stroke="black" cx="1362.91" cy="-450" rx="48.79" ry="18"/>
<text text-anchor="middle" x="1362.91" y="-444.95" font-family="Times,serif" font-size="14.00">&lt;&lt;args&gt;&gt;</text>
</g>
<!-- n56&#45;&gt;n59 -->
<g id="edge59" class="edge">
<title>n56&#45;&gt;n59</title>
<path fill="none" stroke="black" d="M1313.65,-504.05C1321.58,-495.5 1331.36,-484.97 1340.11,-475.56"/>
<polygon fill="black" stroke="black" points="1342.5,-478.13 1346.74,-468.42 1337.37,-473.36 1342.5,-478.13"/>
</g>
<!-- n58 -->
<g id="node59" class="node">
<title>n58</title>
<ellipse fill="none" stroke="black" cx="1231.91" cy="-378" rx="27" ry="18"/>
<text text-anchor="middle" x="1231.91" y="-372.95" font-family="Times,serif" font-size="14.00">fact</text>
</g>
<!-- n57&#45;&gt;n58 -->
<g id="edge58" class="edge">
<title>n57&#45;&gt;n58</title>
<path fill="none" stroke="black" d="M1231.91,-431.7C1231.91,-424.41 1231.91,-415.73 1231.91,-407.54"/>
<polygon fill="black" stroke="black" points="1235.41,-407.62 1231.91,-397.62 1228.41,-407.62 1235.41,-407.62"/>
</g>
<!-- n60 -->
<g id="node61" class="node">
<title>n60</title>
<ellipse fill="none" stroke="black" cx="1362.91" cy="-378" rx="71.31" ry="18"/>
<text text-anchor="middle" x="1362.91" y="-372.95" font-family="Times,serif" font-size="14.00">&lt;&lt;var access&gt;&gt;</text>
</g>
<!-- n59&#45;&gt;n60 -->
<g id="edge60" class="edge">
<title>n59&#45;&gt;n60</title>
<path fill="none" stroke="black" d="M1362.91,-431.7C1362.91,-424.41 1362.91,-415.73 1362.91,-407.54"/>
<polygon fill="black" stroke="black" points="1366.41,-407.62 1362.91,-397.62 1359.41,-407.62 1366.41,-407.62"/>
</g>
<!-- n61 -->
<g id="node62" class="node">
<title>n61</title>
<ellipse fill="none" stroke="black" cx="1362.91" cy="-306" rx="27" ry="18"/>
<text text-anchor="middle" x="1362.91" y="-300.95" font-family="Times,serif" font-size="14.00">n</text>
</g>
<!-- n60&#45;&gt;n61 -->
<g id="edge61" class="edge">
<title>n60&#45;&gt;n61</title>
<path fill="none" stroke="black" d="M1362.91,-359.7C1362.91,-352.41 1362.91,-343.73 1362.91,-335.54"/>
<polygon fill="black" stroke="black" points="1366.41,-335.62 1362.91,-325.62 1359.41,-335.62 1366.41,-335.62"/>
</g>
</g>
</svg>
