<?xml version="1.0" encoding="UTF-8" standalone="no"?>
<!DOCTYPE svg PUBLIC "-//W3C//DTD SVG 1.1//EN"
 "http://www.w3.org/Graphics/SVG/1.1/DTD/svg11.dtd">
<!-- Generated by graphviz version 12.2.1 (20241206.2353)
 -->
<!-- Title: DFA Pages: 1 -->
<svg width="443pt" height="191pt"
 viewBox="0.00 0.00 442.55 191.13" xmlns="http://www.w3.org/2000/svg" xmlns:xlink="http://www.w3.org/1999/xlink">
<g id="graph0" class="graph" transform="scale(1 1) rotate(0) translate(4 187.13)">
<title>DFA</title>
<polygon fill="white" stroke="none" points="-4,4 -4,-187.13 438.55,-187.13 438.55,4 -4,4"/>
<!-- start -->
<!-- q0 -->
<g id="node2" class="node">
<title>q0</title>
<ellipse fill="none" stroke="black" cx="60.73" cy="-50" rx="20.13" ry="20.13"/>
<text text-anchor="middle" x="60.73" y="-44.95" font-family="Times,serif" font-size="14.00">q0</text>
</g>
<!-- start&#45;&gt;q0 -->
<g id="edge1" class="edge">
<title>start&#45;&gt;q0</title>
<path fill="none" stroke="black" d="M3.79,-50C7.01,-50 17.65,-50 28.79,-50"/>
<polygon fill="black" stroke="black" points="28.79,-53.5 38.79,-50 28.79,-46.5 28.79,-53.5"/>
</g>
<!-- q1 -->
<g id="node3" class="node">
<title>q1</title>
<ellipse fill="none" stroke="black" cx="142.99" cy="-105" rx="20.13" ry="20.13"/>
<text text-anchor="middle" x="142.99" y="-99.95" font-family="Times,serif" font-size="14.00">q1</text>
</g>
<!-- q0&#45;&gt;q1 -->
<g id="edge2" class="edge">
<title>q0&#45;&gt;q1</title>
<path fill="none" stroke="black" d="M77.97,-61.13C89.07,-68.73 104,-78.96 116.65,-87.63"/>
<polygon fill="black" stroke="black" points="114.3,-90.27 124.53,-93.03 118.26,-84.49 114.3,-90.27"/>
<text text-anchor="middle" x="101.86" y="-82.35" font-family="Times,serif" font-size="14.00">a</text>
</g>
<!-- q2 -->
<g id="node4" class="node">
<title>q2</title>
<ellipse fill="none" stroke="black" cx="239.51" cy="-55" rx="20.13" ry="20.13"/>
<text text-anchor="middle" x="239.51" y="-49.95" font-family="Times,serif" font-size="14.00">q2</text>
</g>
<!-- q0&#45;&gt;q2 -->
<g id="edge3" class="edge">
<title>q0&#45;&gt;q2</title>
<path fill="none" stroke="black" d="M81.32,-50.55C111.93,-51.42 171.35,-53.1 207.72,-54.13"/>
<polygon fill="black" stroke="black" points="207.49,-57.62 217.58,-54.41 207.68,-50.63 207.49,-57.62"/>
<text text-anchor="middle" x="142.99" y="-56.03" font-family="Times,serif" font-size="14.00">b</text>
</g>
<!-- ∅ -->
<g id="node7" class="node">
<title>∅</title>
<ellipse fill="none" stroke="black" cx="416.35" cy="-81" rx="18.2" ry="18.2"/>
<text text-anchor="middle" x="416.35" y="-75.2" font-family="Times,serif" font-size="14.00">∅</text>
</g>
<!-- q0&#45;&gt;∅ -->
<g id="edge9" class="edge">
<title>q0&#45;&gt;∅</title>
<path fill="none" stroke="black" d="M74.95,-35.27C89.7,-20.52 115.07,0 141.99,0 141.99,0 141.99,0 322.77,0 357.15,0 384.9,-32.04 400.77,-55.82"/>
<polygon fill="black" stroke="black" points="397.71,-57.53 406.01,-64.1 403.62,-53.78 397.71,-57.53"/>
<text text-anchor="middle" x="239.51" y="-3.2" font-family="Times,serif" font-size="14.00">c</text>
</g>
<!-- q1&#45;&gt;q2 -->
<g id="edge4" class="edge">
<title>q1&#45;&gt;q2</title>
<path fill="none" stroke="black" d="M161.33,-95.83C175.32,-88.43 195.25,-77.88 211.35,-69.37"/>
<polygon fill="black" stroke="black" points="212.74,-72.59 219.94,-64.82 209.47,-66.4 212.74,-72.59"/>
<text text-anchor="middle" x="191.25" y="-87.68" font-family="Times,serif" font-size="14.00">a, b</text>
</g>
<!-- q3 -->
<g id="node5" class="node">
<title>q3</title>
<ellipse fill="none" stroke="black" cx="239.51" cy="-148" rx="20.13" ry="20.13"/>
<text text-anchor="middle" x="239.51" y="-142.95" font-family="Times,serif" font-size="14.00">q3</text>
</g>
<!-- q1&#45;&gt;q3 -->
<g id="edge5" class="edge">
<title>q1&#45;&gt;q3</title>
<path fill="none" stroke="black" d="M161.77,-113.09C175.5,-119.33 194.76,-128.1 210.54,-135.28"/>
<polygon fill="black" stroke="black" points="208.88,-138.37 219.43,-139.32 211.78,-131.99 208.88,-138.37"/>
<text text-anchor="middle" x="191.25" y="-133.55" font-family="Times,serif" font-size="14.00">c</text>
</g>
<!-- q2&#45;&gt;q2 -->
<g id="edge6" class="edge">
<title>q2&#45;&gt;q2</title>
<path fill="none" stroke="black" d="M232.06,-74.23C230.92,-84.17 233.4,-93.13 239.51,-93.13 243.04,-93.13 245.35,-90.14 246.46,-85.69"/>
<polygon fill="black" stroke="black" points="249.95,-85.88 246.88,-75.74 242.96,-85.58 249.95,-85.88"/>
<text text-anchor="middle" x="239.51" y="-96.33" font-family="Times,serif" font-size="14.00">a, b</text>
</g>
<!-- q2&#45;&gt;∅ -->
<g id="edge10" class="edge">
<title>q2&#45;&gt;∅</title>
<path fill="none" stroke="black" d="M259.95,-57.7C280.37,-60.56 313.41,-65.23 341.9,-69.5 356.81,-71.73 373.4,-74.32 387.04,-76.48"/>
<polygon fill="black" stroke="black" points="386.22,-79.89 396.65,-78 387.32,-72.98 386.22,-79.89"/>
<text text-anchor="middle" x="321.77" y="-72.7" font-family="Times,serif" font-size="14.00">c</text>
</g>
<!-- q4 -->
<g id="node6" class="node">
<title>q4</title>
<ellipse fill="none" stroke="black" cx="321.77" cy="-163" rx="20.13" ry="20.13"/>
<text text-anchor="middle" x="321.77" y="-157.95" font-family="Times,serif" font-size="14.00">q4</text>
</g>
<!-- q3&#45;&gt;q4 -->
<g id="edge7" class="edge">
<title>q3&#45;&gt;q4</title>
<path fill="none" stroke="black" d="M259.59,-144.64C267.15,-143.89 275.88,-143.76 283.64,-145.5 286.9,-146.23 290.21,-147.28 293.44,-148.51"/>
<polygon fill="black" stroke="black" points="292.01,-151.7 302.57,-152.55 294.84,-145.3 292.01,-151.7"/>
<text text-anchor="middle" x="280.64" y="-148.7" font-family="Times,serif" font-size="14.00">a</text>
</g>
<!-- q3&#45;&gt;∅ -->
<g id="edge11" class="edge">
<title>q3&#45;&gt;∅</title>
<path fill="none" stroke="black" d="M257.57,-138.61C269.66,-132.18 286.37,-123.72 301.64,-117.5 330.38,-105.79 364.4,-95.3 387.68,-88.6"/>
<polygon fill="black" stroke="black" points="388.37,-92.04 397.04,-85.95 386.46,-85.31 388.37,-92.04"/>
<text text-anchor="middle" x="321.77" y="-120.7" font-family="Times,serif" font-size="14.00">b, c</text>
</g>
<!-- q4&#45;&gt;q3 -->
<g id="edge8" class="edge">
<title>q4&#45;&gt;q3</title>
<path fill="none" stroke="black" d="M301.3,-163.93C293.84,-163.93 285.28,-163.49 277.64,-162 274.8,-161.45 271.89,-160.7 269.01,-159.84"/>
<polygon fill="black" stroke="black" points="270.3,-156.58 259.71,-156.59 268,-163.19 270.3,-156.58"/>
<text text-anchor="middle" x="280.64" y="-166.12" font-family="Times,serif" font-size="14.00">c</text>
</g>
<!-- q4&#45;&gt;∅ -->
<g id="edge12" class="edge">
<title>q4&#45;&gt;∅</title>
<path fill="none" stroke="black" d="M339.39,-152.67C351.3,-144.91 367.41,-133.65 380.15,-122 386.19,-116.47 392.21,-109.94 397.52,-103.74"/>
<polygon fill="black" stroke="black" points="400.07,-106.14 403.74,-96.2 394.67,-101.69 400.07,-106.14"/>
<text text-anchor="middle" x="370.02" y="-141.11" font-family="Times,serif" font-size="14.00">a, b</text>
</g>
<!-- ∅&#45;&gt;∅ -->
<g id="edge13" class="edge">
<title>∅&#45;&gt;∅</title>
<path fill="none" stroke="black" d="M408.2,-97.76C406.4,-107.77 409.11,-117.2 416.35,-117.2 420.64,-117.2 423.35,-113.88 424.46,-109.08"/>
<polygon fill="black" stroke="black" points="427.95,-109.28 424.49,-99.27 420.95,-109.26 427.95,-109.28"/>
<text text-anchor="middle" x="416.35" y="-120.4" font-family="Times,serif" font-size="14.00">a, b, c</text>
</g>
</g>
</svg>
