<?xml version="1.0" encoding="UTF-8" standalone="no"?>
<!DOCTYPE svg PUBLIC "-//W3C//DTD SVG 1.1//EN"
 "http://www.w3.org/Graphics/SVG/1.1/DTD/svg11.dtd">
<!-- Generated by graphviz version 12.2.1 (20241206.2353)
 -->
<!-- Title: DFA Pages: 1 -->
<svg width="451pt" height="137pt"
 viewBox="0.00 0.00 451.30 137.13" xmlns="http://www.w3.org/2000/svg" xmlns:xlink="http://www.w3.org/1999/xlink">
<g id="graph0" class="graph" transform="scale(1 1) rotate(0) translate(4 133.13)">
<title>DFA</title>
<polygon fill="white" stroke="none" points="-4,4 -4,-133.13 447.3,-133.13 447.3,4 -4,4"/>
<!-- start -->
<!-- q0 -->
<g id="node2" class="node">
<title>q0</title>
<ellipse fill="none" stroke="black" cx="60.73" cy="-33" rx="20.13" ry="20.13"/>
<text text-anchor="middle" x="60.73" y="-27.95" font-family="Times,serif" font-size="14.00">q0</text>
</g>
<!-- start&#45;&gt;q0 -->
<g id="edge1" class="edge">
<title>start&#45;&gt;q0</title>
<path fill="none" stroke="black" d="M3.79,-33C7.01,-33 17.65,-33 28.79,-33"/>
<polygon fill="black" stroke="black" points="28.79,-36.5 38.79,-33 28.79,-29.5 28.79,-36.5"/>
</g>
<!-- q0&#45;&gt;q0 -->
<g id="edge3" class="edge">
<title>q0&#45;&gt;q0</title>
<path fill="none" stroke="black" d="M53.74,-52.23C52.67,-62.17 55,-71.13 60.73,-71.13 64.05,-71.13 66.22,-68.14 67.26,-63.69"/>
<polygon fill="black" stroke="black" points="70.76,-63.87 67.66,-53.74 63.76,-63.59 70.76,-63.87"/>
<text text-anchor="middle" x="60.73" y="-74.33" font-family="Times,serif" font-size="14.00">c</text>
</g>
<!-- q1 -->
<g id="node4" class="node">
<title>q1</title>
<ellipse fill="none" stroke="black" cx="142.99" cy="-64" rx="20.13" ry="20.13"/>
<text text-anchor="middle" x="142.99" y="-58.95" font-family="Times,serif" font-size="14.00">q1</text>
</g>
<!-- q0&#45;&gt;q1 -->
<g id="edge2" class="edge">
<title>q0&#45;&gt;q1</title>
<path fill="none" stroke="black" d="M78.86,-42C85.06,-45.08 92.19,-48.4 98.86,-51 103.17,-52.68 107.78,-54.28 112.33,-55.74"/>
<polygon fill="black" stroke="black" points="111.27,-59.07 121.86,-58.63 113.3,-52.38 111.27,-59.07"/>
<text text-anchor="middle" x="101.86" y="-56.33" font-family="Times,serif" font-size="14.00">a</text>
</g>
<!-- ∅ -->
<g id="node6" class="node">
<title>∅</title>
<ellipse fill="none" stroke="black" cx="425.1" cy="-46" rx="18.2" ry="18.2"/>
<text text-anchor="middle" x="425.1" y="-40.2" font-family="Times,serif" font-size="14.00">∅</text>
</g>
<!-- q0&#45;&gt;∅ -->
<g id="edge8" class="edge">
<title>q0&#45;&gt;∅</title>
<path fill="none" stroke="black" d="M77.84,-22.01C93.51,-12.41 118.34,0 141.99,0 141.99,0 141.99,0 314.02,0 345.52,0 378.45,-16.24 399.99,-29.42"/>
<polygon fill="black" stroke="black" points="398.01,-32.31 408.32,-34.75 401.78,-26.41 398.01,-32.31"/>
<text text-anchor="middle" x="226.01" y="-3.2" font-family="Times,serif" font-size="14.00">b</text>
</g>
<!-- q3 -->
<g id="node3" class="node">
<title>q3</title>
<ellipse fill="none" stroke="black" cx="313.02" cy="-105" rx="20.13" ry="20.13"/>
<ellipse fill="none" stroke="black" cx="313.02" cy="-105" rx="24.13" ry="24.13"/>
<text text-anchor="middle" x="313.02" y="-99.95" font-family="Times,serif" font-size="14.00">q3</text>
</g>
<!-- q3&#45;&gt;∅ -->
<g id="edge10" class="edge">
<title>q3&#45;&gt;∅</title>
<path fill="none" stroke="black" d="M334.72,-93.9C352.8,-84.21 379.1,-70.12 398.5,-59.72"/>
<polygon fill="black" stroke="black" points="399.97,-62.9 407.13,-55.09 396.66,-56.73 399.97,-62.9"/>
<text text-anchor="middle" x="372.02" y="-85.72" font-family="Times,serif" font-size="14.00">a, b, c</text>
</g>
<!-- q1&#45;&gt;q0 -->
<g id="edge6" class="edge">
<title>q1&#45;&gt;q0</title>
<path fill="none" stroke="black" d="M129.59,-48.5C123.06,-41.58 114.42,-34.18 104.86,-30.5 100.85,-28.96 96.46,-28.23 92.08,-28.03"/>
<polygon fill="black" stroke="black" points="92.07,-24.53 82.24,-28.48 92.39,-31.52 92.07,-24.53"/>
<text text-anchor="middle" x="101.86" y="-33.7" font-family="Times,serif" font-size="14.00">c</text>
</g>
<!-- q1&#45;&gt;q1 -->
<g id="edge4" class="edge">
<title>q1&#45;&gt;q1</title>
<path fill="none" stroke="black" d="M135.55,-83.23C134.41,-93.17 136.89,-102.13 142.99,-102.13 146.52,-102.13 148.84,-99.14 149.95,-94.69"/>
<polygon fill="black" stroke="black" points="153.44,-94.88 150.37,-84.74 146.45,-94.58 153.44,-94.88"/>
<text text-anchor="middle" x="142.99" y="-105.33" font-family="Times,serif" font-size="14.00">a</text>
</g>
<!-- q2 -->
<g id="node5" class="node">
<title>q2</title>
<ellipse fill="none" stroke="black" cx="226.01" cy="-64" rx="20.13" ry="20.13"/>
<text text-anchor="middle" x="226.01" y="-58.95" font-family="Times,serif" font-size="14.00">q2</text>
</g>
<!-- q1&#45;&gt;q2 -->
<g id="edge5" class="edge">
<title>q1&#45;&gt;q2</title>
<path fill="none" stroke="black" d="M163.6,-64C172.76,-64 183.87,-64 194.12,-64"/>
<polygon fill="black" stroke="black" points="194.06,-67.5 204.06,-64 194.06,-60.5 194.06,-67.5"/>
<text text-anchor="middle" x="184.5" y="-67.2" font-family="Times,serif" font-size="14.00">b</text>
</g>
<!-- q2&#45;&gt;q3 -->
<g id="edge7" class="edge">
<title>q2&#45;&gt;q3</title>
<path fill="none" stroke="black" d="M244.62,-72.5C255,-77.5 268.44,-83.98 280.59,-89.84"/>
<polygon fill="black" stroke="black" points="278.92,-92.93 289.45,-94.12 281.97,-86.62 278.92,-92.93"/>
<text text-anchor="middle" x="267.51" y="-87.7" font-family="Times,serif" font-size="14.00">b</text>
</g>
<!-- q2&#45;&gt;∅ -->
<g id="edge9" class="edge">
<title>q2&#45;&gt;∅</title>
<path fill="none" stroke="black" d="M246.2,-61.03C258.4,-59.22 274.54,-56.99 288.89,-55.5 325.42,-51.71 367.67,-49.01 395.09,-47.48"/>
<polygon fill="black" stroke="black" points="395.25,-50.98 405.05,-46.94 394.88,-43.99 395.25,-50.98"/>
<text text-anchor="middle" x="313.02" y="-58.7" font-family="Times,serif" font-size="14.00">a, c</text>
</g>
<!-- ∅&#45;&gt;∅ -->
<g id="edge11" class="edge">
<title>∅&#45;&gt;∅</title>
<path fill="none" stroke="black" d="M415.93,-62C413.54,-72.29 416.6,-82.2 425.1,-82.2 430.28,-82.2 433.43,-78.52 434.57,-73.32"/>
<polygon fill="black" stroke="black" points="438.07,-73.42 434.3,-63.52 431.08,-73.61 438.07,-73.42"/>
<text text-anchor="middle" x="425.1" y="-85.4" font-family="Times,serif" font-size="14.00">a, b, c</text>
</g>
</g>
</svg>
