<?xml version="1.0" encoding="UTF-8" standalone="no"?>
<!DOCTYPE svg PUBLIC "-//W3C//DTD SVG 1.1//EN"
 "http://www.w3.org/Graphics/SVG/1.1/DTD/svg11.dtd">
<!-- Generated by graphviz version 12.2.1 (20241206.2353)
 -->
<!-- Title: DFA Pages: 1 -->
<svg width="345pt" height="91pt"
 viewBox="0.00 0.00 345.15 90.76" xmlns="http://www.w3.org/2000/svg" xmlns:xlink="http://www.w3.org/1999/xlink">
<g id="graph0" class="graph" transform="scale(1 1) rotate(0) translate(4 86.76)">
<title>DFA</title>
<polygon fill="white" stroke="none" points="-4,4 -4,-86.76 341.15,-86.76 341.15,4 -4,4"/>
<!-- start -->
<!-- q0 -->
<g id="node2" class="node">
<title>q0</title>
<ellipse fill="none" stroke="black" cx="60.73" cy="-24.13" rx="20.13" ry="20.13"/>
<text text-anchor="middle" x="60.73" y="-19.08" font-family="Times,serif" font-size="14.00">q0</text>
</g>
<!-- start&#45;&gt;q0 -->
<g id="edge1" class="edge">
<title>start&#45;&gt;q0</title>
<path fill="none" stroke="black" d="M3.79,-24.13C7.01,-24.13 17.65,-24.13 28.79,-24.13"/>
<polygon fill="black" stroke="black" points="28.79,-27.63 38.79,-24.13 28.79,-20.63 28.79,-27.63"/>
</g>
<!-- q1 -->
<g id="node4" class="node">
<title>q1</title>
<ellipse fill="none" stroke="black" cx="143.74" cy="-24.13" rx="20.13" ry="20.13"/>
<text text-anchor="middle" x="143.74" y="-19.08" font-family="Times,serif" font-size="14.00">q1</text>
</g>
<!-- q0&#45;&gt;q1 -->
<g id="edge2" class="edge">
<title>q0&#45;&gt;q1</title>
<path fill="none" stroke="black" d="M81.34,-24.13C90.5,-24.13 101.61,-24.13 111.86,-24.13"/>
<polygon fill="black" stroke="black" points="111.8,-27.63 121.8,-24.13 111.8,-20.63 111.8,-27.63"/>
<text text-anchor="middle" x="102.24" y="-27.33" font-family="Times,serif" font-size="14.00">b</text>
</g>
<!-- q3 -->
<g id="node3" class="node">
<title>q3</title>
<ellipse fill="none" stroke="black" cx="313.02" cy="-24.13" rx="20.13" ry="20.13"/>
<ellipse fill="none" stroke="black" cx="313.02" cy="-24.13" rx="24.13" ry="24.13"/>
<text text-anchor="middle" x="313.02" y="-19.08" font-family="Times,serif" font-size="14.00">q3</text>
</g>
<!-- q3&#45;&gt;q3 -->
<g id="edge5" class="edge">
<title>q3&#45;&gt;q3</title>
<path fill="none" stroke="black" d="M304.69,-47.1C303.89,-57.38 306.67,-66.26 313.02,-66.26 316.79,-66.26 319.3,-63.13 320.55,-58.43"/>
<polygon fill="black" stroke="black" points="324.03,-58.83 321.24,-48.61 317.04,-58.34 324.03,-58.83"/>
<text text-anchor="middle" x="313.02" y="-69.46" font-family="Times,serif" font-size="14.00">a, c</text>
</g>
<!-- q2 -->
<g id="node5" class="node">
<title>q2</title>
<ellipse fill="none" stroke="black" cx="226.76" cy="-24.13" rx="20.13" ry="20.13"/>
<text text-anchor="middle" x="226.76" y="-19.08" font-family="Times,serif" font-size="14.00">q2</text>
</g>
<!-- q1&#45;&gt;q2 -->
<g id="edge3" class="edge">
<title>q1&#45;&gt;q2</title>
<path fill="none" stroke="black" d="M164.35,-24.13C173.51,-24.13 184.62,-24.13 194.87,-24.13"/>
<polygon fill="black" stroke="black" points="194.81,-27.63 204.81,-24.13 194.81,-20.63 194.81,-27.63"/>
<text text-anchor="middle" x="185.25" y="-27.33" font-family="Times,serif" font-size="14.00">b</text>
</g>
<!-- q2&#45;&gt;q3 -->
<g id="edge4" class="edge">
<title>q2&#45;&gt;q3</title>
<path fill="none" stroke="black" d="M247.3,-24.13C256.27,-24.13 267.18,-24.13 277.47,-24.13"/>
<polygon fill="black" stroke="black" points="277.17,-27.63 287.17,-24.13 277.17,-20.63 277.17,-27.63"/>
<text text-anchor="middle" x="267.89" y="-27.33" font-family="Times,serif" font-size="14.00">a</text>
</g>
</g>
</svg>
