<?xml version="1.0" encoding="UTF-8" standalone="no"?>
<!DOCTYPE svg PUBLIC "-//W3C//DTD SVG 1.1//EN"
 "http://www.w3.org/Graphics/SVG/1.1/DTD/svg11.dtd">
<!-- Generated by graphviz version 12.2.1 (20241206.2353)
 -->
<!-- Title: DFA Pages: 1 -->
<svg width="345pt" height="87pt"
 viewBox="0.00 0.00 345.15 86.76" xmlns="http://www.w3.org/2000/svg" xmlns:xlink="http://www.w3.org/1999/xlink">
<g id="graph0" class="graph" transform="scale(1 1) rotate(0) translate(4 82.76)">
<title>DFA</title>
<polygon fill="white" stroke="none" points="-4,4 -4,-82.76 341.15,-82.76 341.15,4 -4,4"/>
<!-- start -->
<!-- q0 -->
<g id="node2" class="node">
<title>q0</title>
<ellipse fill="none" stroke="black" cx="60.73" cy="-24.13" rx="20.13" ry="20.13"/>
<text text-anchor="middle" x="60.73" y="-19.08" font-family="Times,serif" font-size="14.00">q0</text>
</g>
<!-- start&#45;&gt;q0 -->
<g id="edge1" class="edge">
<title>start&#45;&gt;q0</title>
<path fill="none" stroke="black" d="M3.79,-24.13C7.01,-24.13 17.65,-24.13 28.79,-24.13"/>
<polygon fill="black" stroke="black" points="28.79,-27.63 38.79,-24.13 28.79,-20.63 28.79,-27.63"/>
</g>
<!-- q0&#45;&gt;q0 -->
<g id="edge3" class="edge">
<title>q0&#45;&gt;q0</title>
<path fill="none" stroke="black" d="M53.74,-43.36C52.67,-53.3 55,-62.26 60.73,-62.26 64.05,-62.26 66.22,-59.27 67.26,-54.82"/>
<polygon fill="black" stroke="black" points="70.76,-55 67.66,-44.87 63.76,-54.72 70.76,-55"/>
<text text-anchor="middle" x="60.73" y="-65.46" font-family="Times,serif" font-size="14.00">c</text>
</g>
<!-- q1 -->
<g id="node4" class="node">
<title>q1</title>
<ellipse fill="none" stroke="black" cx="142.99" cy="-24.13" rx="20.13" ry="20.13"/>
<text text-anchor="middle" x="142.99" y="-19.08" font-family="Times,serif" font-size="14.00">q1</text>
</g>
<!-- q0&#45;&gt;q1 -->
<g id="edge2" class="edge">
<title>q0&#45;&gt;q1</title>
<path fill="none" stroke="black" d="M81.16,-24.13C90.16,-24.13 101.08,-24.13 111.17,-24.13"/>
<polygon fill="black" stroke="black" points="110.95,-27.63 120.95,-24.13 110.95,-20.63 110.95,-27.63"/>
<text text-anchor="middle" x="101.86" y="-27.33" font-family="Times,serif" font-size="14.00">a</text>
</g>
<!-- q3 -->
<g id="node3" class="node">
<title>q3</title>
<ellipse fill="none" stroke="black" cx="313.02" cy="-24.13" rx="20.13" ry="20.13"/>
<ellipse fill="none" stroke="black" cx="313.02" cy="-24.13" rx="24.13" ry="24.13"/>
<text text-anchor="middle" x="313.02" y="-19.08" font-family="Times,serif" font-size="14.00">q3</text>
</g>
<!-- q1&#45;&gt;q0 -->
<g id="edge6" class="edge">
<title>q1&#45;&gt;q0</title>
<path fill="none" stroke="black" d="M127.36,-11.35C119.25,-5.8 108.82,-1.07 98.86,-3.63 95.23,-4.57 91.56,-5.95 88.03,-7.55"/>
<polygon fill="black" stroke="black" points="86.54,-4.38 79.32,-12.13 89.8,-10.58 86.54,-4.38"/>
<text text-anchor="middle" x="101.86" y="-6.83" font-family="Times,serif" font-size="14.00">c</text>
</g>
<!-- q1&#45;&gt;q1 -->
<g id="edge4" class="edge">
<title>q1&#45;&gt;q1</title>
<path fill="none" stroke="black" d="M135.55,-43.36C134.41,-53.3 136.89,-62.26 142.99,-62.26 146.52,-62.26 148.84,-59.27 149.95,-54.82"/>
<polygon fill="black" stroke="black" points="153.44,-55.01 150.37,-44.87 146.45,-54.71 153.44,-55.01"/>
<text text-anchor="middle" x="142.99" y="-65.46" font-family="Times,serif" font-size="14.00">a</text>
</g>
<!-- q2 -->
<g id="node5" class="node">
<title>q2</title>
<ellipse fill="none" stroke="black" cx="226.01" cy="-24.13" rx="20.13" ry="20.13"/>
<text text-anchor="middle" x="226.01" y="-19.08" font-family="Times,serif" font-size="14.00">q2</text>
</g>
<!-- q1&#45;&gt;q2 -->
<g id="edge5" class="edge">
<title>q1&#45;&gt;q2</title>
<path fill="none" stroke="black" d="M163.6,-24.13C172.76,-24.13 183.87,-24.13 194.12,-24.13"/>
<polygon fill="black" stroke="black" points="194.06,-27.63 204.06,-24.13 194.06,-20.63 194.06,-27.63"/>
<text text-anchor="middle" x="184.5" y="-27.33" font-family="Times,serif" font-size="14.00">b</text>
</g>
<!-- q2&#45;&gt;q3 -->
<g id="edge7" class="edge">
<title>q2&#45;&gt;q3</title>
<path fill="none" stroke="black" d="M246.3,-24.13C255.41,-24.13 266.57,-24.13 277.1,-24.13"/>
<polygon fill="black" stroke="black" points="277.05,-27.63 287.05,-24.13 277.05,-20.63 277.05,-27.63"/>
<text text-anchor="middle" x="267.51" y="-27.33" font-family="Times,serif" font-size="14.00">b</text>
</g>
</g>
</svg>
