<?xml version="1.0" encoding="UTF-8" standalone="no"?>
<!DOCTYPE svg PUBLIC "-//W3C//DTD SVG 1.1//EN"
 "http://www.w3.org/Graphics/SVG/1.1/DTD/svg11.dtd">
<!-- Generated by graphviz version 12.2.1 (20241206.2353)
 -->
<!-- Title: AST Pages: 1 -->
<svg width="719pt" height="836pt"
 viewBox="0.00 0.00 718.70 836.00" xmlns="http://www.w3.org/2000/svg" xmlns:xlink="http://www.w3.org/1999/xlink">
<g id="graph0" class="graph" transform="scale(1 1) rotate(0) translate(4 832)">
<title>AST</title>
<polygon fill="white" stroke="none" points="-4,4 -4,-832 714.7,-832 714.7,4 -4,4"/>
<!-- n0 -->
<g id="node1" class="node">
<title>n0</title>
<ellipse fill="none" stroke="black" cx="350" cy="-810" rx="30.37" ry="18"/>
<text text-anchor="middle" x="350" y="-804.95" font-family="Times,serif" font-size="14.00">$root</text>
</g>
<!-- n1 -->
<g id="node2" class="node">
<title>n1</title>
<ellipse fill="none" stroke="black" cx="350" cy="-738" rx="42.65" ry="18"/>
<text text-anchor="middle" x="350" y="-732.95" font-family="Times,serif" font-size="14.00">program</text>
</g>
<!-- n0&#45;&gt;n1 -->
<g id="edge1" class="edge">
<title>n0&#45;&gt;n1</title>
<path fill="none" stroke="black" d="M350,-791.7C350,-784.41 350,-775.73 350,-767.54"/>
<polygon fill="black" stroke="black" points="353.5,-767.62 350,-757.62 346.5,-767.62 353.5,-767.62"/>
</g>
<!-- n2 -->
<g id="node3" class="node">
<title>n2</title>
<ellipse fill="none" stroke="black" cx="350" cy="-666" rx="31.39" ry="18"/>
<text text-anchor="middle" x="350" y="-660.95" font-family="Times,serif" font-size="14.00">block</text>
</g>
<!-- n1&#45;&gt;n2 -->
<g id="edge2" class="edge">
<title>n1&#45;&gt;n2</title>
<path fill="none" stroke="black" d="M350,-719.7C350,-712.41 350,-703.73 350,-695.54"/>
<polygon fill="black" stroke="black" points="353.5,-695.62 350,-685.62 346.5,-695.62 353.5,-695.62"/>
</g>
<!-- n3 -->
<g id="node4" class="node">
<title>n3</title>
<polygon fill="none" stroke="black" points="275,-612 221,-612 221,-576 275,-576 275,-612"/>
<text text-anchor="middle" x="248" y="-588.95" font-family="Times,serif" font-size="14.00">{</text>
</g>
<!-- n2&#45;&gt;n3 -->
<g id="edge3" class="edge">
<title>n2&#45;&gt;n3</title>
<path fill="none" stroke="black" d="M330.33,-651.5C316.78,-642.2 298.42,-629.6 282.47,-618.65"/>
<polygon fill="black" stroke="black" points="284.88,-616.07 274.66,-613.29 280.92,-621.84 284.88,-616.07"/>
</g>
<!-- n4 -->
<g id="node5" class="node">
<title>n4</title>
<ellipse fill="none" stroke="black" cx="350" cy="-594" rx="57.49" ry="18"/>
<text text-anchor="middle" x="350" y="-588.95" font-family="Times,serif" font-size="14.00">operator_list</text>
</g>
<!-- n2&#45;&gt;n4 -->
<g id="edge4" class="edge">
<title>n2&#45;&gt;n4</title>
<path fill="none" stroke="black" d="M350,-647.7C350,-640.41 350,-631.73 350,-623.54"/>
<polygon fill="black" stroke="black" points="353.5,-623.62 350,-613.62 346.5,-623.62 353.5,-623.62"/>
</g>
<!-- n28 -->
<g id="node29" class="node">
<title>n28</title>
<polygon fill="none" stroke="black" points="479,-612 425,-612 425,-576 479,-576 479,-612"/>
<text text-anchor="middle" x="452" y="-588.95" font-family="Times,serif" font-size="14.00">}</text>
</g>
<!-- n2&#45;&gt;n28 -->
<g id="edge28" class="edge">
<title>n2&#45;&gt;n28</title>
<path fill="none" stroke="black" d="M369.67,-651.5C383.22,-642.2 401.58,-629.6 417.53,-618.65"/>
<polygon fill="black" stroke="black" points="419.08,-621.84 425.34,-613.29 415.12,-616.07 419.08,-621.84"/>
</g>
<!-- n5 -->
<g id="node6" class="node">
<title>n5</title>
<ellipse fill="none" stroke="black" cx="291" cy="-522" rx="41.63" ry="18"/>
<text text-anchor="middle" x="291" y="-516.95" font-family="Times,serif" font-size="14.00">operator</text>
</g>
<!-- n4&#45;&gt;n5 -->
<g id="edge5" class="edge">
<title>n4&#45;&gt;n5</title>
<path fill="none" stroke="black" d="M336.02,-576.41C328.79,-567.83 319.82,-557.19 311.79,-547.67"/>
<polygon fill="black" stroke="black" points="314.57,-545.54 305.45,-540.15 309.22,-550.05 314.57,-545.54"/>
</g>
<!-- n27 -->
<g id="node28" class="node">
<title>n27</title>
<ellipse fill="none" stroke="black" cx="408" cy="-522" rx="57.49" ry="18"/>
<text text-anchor="middle" x="408" y="-516.95" font-family="Times,serif" font-size="14.00">operator_list</text>
</g>
<!-- n4&#45;&gt;n27 -->
<g id="edge27" class="edge">
<title>n4&#45;&gt;n27</title>
<path fill="none" stroke="black" d="M364.04,-576.05C370.88,-567.8 379.25,-557.7 386.84,-548.54"/>
<polygon fill="black" stroke="black" points="389.44,-550.89 393.12,-540.95 384.05,-546.42 389.44,-550.89"/>
</g>
<!-- n6 -->
<g id="node7" class="node">
<title>n6</title>
<polygon fill="none" stroke="black" points="199,-468 145,-468 145,-432 199,-432 199,-468"/>
<text text-anchor="middle" x="172" y="-444.95" font-family="Times,serif" font-size="14.00">a</text>
</g>
<!-- n5&#45;&gt;n6 -->
<g id="edge6" class="edge">
<title>n5&#45;&gt;n6</title>
<path fill="none" stroke="black" d="M266.92,-506.83C250.34,-497.08 227.99,-483.94 209.14,-472.85"/>
<polygon fill="black" stroke="black" points="211.07,-469.92 200.68,-467.87 207.53,-475.96 211.07,-469.92"/>
</g>
<!-- n7 -->
<g id="node8" class="node">
<title>n7</title>
<polygon fill="none" stroke="black" points="271,-468 217,-468 217,-432 271,-432 271,-468"/>
<text text-anchor="middle" x="244" y="-444.95" font-family="Times,serif" font-size="14.00">=</text>
</g>
<!-- n5&#45;&gt;n7 -->
<g id="edge7" class="edge">
<title>n5&#45;&gt;n7</title>
<path fill="none" stroke="black" d="M279.86,-504.41C274.52,-496.45 267.98,-486.72 261.96,-477.76"/>
<polygon fill="black" stroke="black" points="265.04,-476.05 256.56,-469.7 259.23,-479.96 265.04,-476.05"/>
</g>
<!-- n8 -->
<g id="node9" class="node">
<title>n8</title>
<ellipse fill="none" stroke="black" cx="339" cy="-450" rx="50.33" ry="18"/>
<text text-anchor="middle" x="339" y="-444.95" font-family="Times,serif" font-size="14.00">expression</text>
</g>
<!-- n5&#45;&gt;n8 -->
<g id="edge8" class="edge">
<title>n5&#45;&gt;n8</title>
<path fill="none" stroke="black" d="M302.38,-504.41C307.91,-496.34 314.7,-486.43 320.93,-477.35"/>
<polygon fill="black" stroke="black" points="323.75,-479.43 326.52,-469.2 317.98,-475.47 323.75,-479.43"/>
</g>
<!-- n26 -->
<g id="node27" class="node">
<title>n26</title>
<polygon fill="none" stroke="black" points="461,-468 407,-468 407,-432 461,-432 461,-468"/>
<text text-anchor="middle" x="434" y="-444.95" font-family="Times,serif" font-size="14.00">;</text>
</g>
<!-- n5&#45;&gt;n26 -->
<g id="edge26" class="edge">
<title>n5&#45;&gt;n26</title>
<path fill="none" stroke="black" d="M317.9,-507.83C340.13,-496.95 371.93,-481.38 396.63,-469.29"/>
<polygon fill="black" stroke="black" points="397.93,-472.55 405.38,-465.01 394.86,-466.26 397.93,-472.55"/>
</g>
<!-- n9 -->
<g id="node10" class="node">
<title>n9</title>
<ellipse fill="none" stroke="black" cx="250" cy="-378" rx="92.81" ry="18"/>
<text text-anchor="middle" x="250" y="-372.95" font-family="Times,serif" font-size="14.00">arithmetic_expression</text>
</g>
<!-- n8&#45;&gt;n9 -->
<g id="edge9" class="edge">
<title>n8&#45;&gt;n9</title>
<path fill="none" stroke="black" d="M318.8,-433.12C307.41,-424.16 292.96,-412.79 280.24,-402.79"/>
<polygon fill="black" stroke="black" points="282.57,-400.16 272.55,-396.73 278.24,-405.67 282.57,-400.16"/>
</g>
<!-- n25 -->
<g id="node26" class="node">
<title>n25</title>
<ellipse fill="none" stroke="black" cx="428" cy="-378" rx="66.71" ry="18"/>
<text text-anchor="middle" x="428" y="-372.95" font-family="Times,serif" font-size="14.00">expression_tail</text>
</g>
<!-- n8&#45;&gt;n25 -->
<g id="edge25" class="edge">
<title>n8&#45;&gt;n25</title>
<path fill="none" stroke="black" d="M359.2,-433.12C370.67,-424.09 385.25,-412.62 398.03,-402.57"/>
<polygon fill="black" stroke="black" points="400.07,-405.42 405.77,-396.49 395.74,-399.92 400.07,-405.42"/>
</g>
<!-- n10 -->
<g id="node11" class="node">
<title>n10</title>
<ellipse fill="none" stroke="black" cx="172" cy="-306" rx="28.32" ry="18"/>
<text text-anchor="middle" x="172" y="-300.95" font-family="Times,serif" font-size="14.00">term</text>
</g>
<!-- n9&#45;&gt;n10 -->
<g id="edge10" class="edge">
<title>n9&#45;&gt;n10</title>
<path fill="none" stroke="black" d="M231.12,-360.05C220.66,-350.67 207.54,-338.9 196.32,-328.83"/>
<polygon fill="black" stroke="black" points="198.72,-326.28 188.94,-322.21 194.05,-331.49 198.72,-326.28"/>
</g>
<!-- n24 -->
<g id="node25" class="node">
<title>n24</title>
<ellipse fill="none" stroke="black" cx="328" cy="-306" rx="109.19" ry="18"/>
<text text-anchor="middle" x="328" y="-300.95" font-family="Times,serif" font-size="14.00">arithmetic_expression_tail</text>
</g>
<!-- n9&#45;&gt;n24 -->
<g id="edge24" class="edge">
<title>n9&#45;&gt;n24</title>
<path fill="none" stroke="black" d="M268.88,-360.05C278.39,-351.52 290.1,-341.01 300.58,-331.61"/>
<polygon fill="black" stroke="black" points="302.79,-334.33 307.9,-325.04 298.12,-329.12 302.79,-334.33"/>
</g>
<!-- n11 -->
<g id="node12" class="node">
<title>n11</title>
<ellipse fill="none" stroke="black" cx="125" cy="-234" rx="32.41" ry="18"/>
<text text-anchor="middle" x="125" y="-228.95" font-family="Times,serif" font-size="14.00">factor</text>
</g>
<!-- n10&#45;&gt;n11 -->
<g id="edge11" class="edge">
<title>n10&#45;&gt;n11</title>
<path fill="none" stroke="black" d="M161.33,-289.12C155.71,-280.73 148.66,-270.24 142.28,-260.73"/>
<polygon fill="black" stroke="black" points="145.27,-258.91 136.79,-252.56 139.46,-262.82 145.27,-258.91"/>
</g>
<!-- n13 -->
<g id="node14" class="node">
<title>n13</title>
<ellipse fill="none" stroke="black" cx="244" cy="-234" rx="44.7" ry="18"/>
<text text-anchor="middle" x="244" y="-228.95" font-family="Times,serif" font-size="14.00">term_tail</text>
</g>
<!-- n10&#45;&gt;n13 -->
<g id="edge13" class="edge">
<title>n10&#45;&gt;n13</title>
<path fill="none" stroke="black" d="M186.92,-290.5C196.28,-281.4 208.58,-269.44 219.36,-258.96"/>
<polygon fill="black" stroke="black" points="221.78,-261.49 226.51,-252 216.9,-256.47 221.78,-261.49"/>
</g>
<!-- n12 -->
<g id="node13" class="node">
<title>n12</title>
<polygon fill="none" stroke="black" points="54,-180 0,-180 0,-144 54,-144 54,-180"/>
<text text-anchor="middle" x="27" y="-156.95" font-family="Times,serif" font-size="14.00">5</text>
</g>
<!-- n11&#45;&gt;n12 -->
<g id="edge12" class="edge">
<title>n11&#45;&gt;n12</title>
<path fill="none" stroke="black" d="M105.64,-219.17C92.7,-209.93 75.36,-197.54 60.25,-186.75"/>
<polygon fill="black" stroke="black" points="62.59,-184.12 52.42,-181.16 58.52,-189.82 62.59,-184.12"/>
</g>
<!-- n14 -->
<g id="node15" class="node">
<title>n14</title>
<ellipse fill="none" stroke="black" cx="170" cy="-162" rx="97.93" ry="18"/>
<text text-anchor="middle" x="170" y="-156.95" font-family="Times,serif" font-size="14.00">multiplicative_operator</text>
</g>
<!-- n13&#45;&gt;n14 -->
<g id="edge14" class="edge">
<title>n13&#45;&gt;n14</title>
<path fill="none" stroke="black" d="M227.21,-217.12C218.08,-208.48 206.58,-197.61 196.3,-187.88"/>
<polygon fill="black" stroke="black" points="198.79,-185.41 189.12,-181.08 193.98,-190.5 198.79,-185.41"/>
</g>
<!-- n16 -->
<g id="node17" class="node">
<title>n16</title>
<ellipse fill="none" stroke="black" cx="318" cy="-162" rx="32.41" ry="18"/>
<text text-anchor="middle" x="318" y="-156.95" font-family="Times,serif" font-size="14.00">factor</text>
</g>
<!-- n13&#45;&gt;n16 -->
<g id="edge16" class="edge">
<title>n13&#45;&gt;n16</title>
<path fill="none" stroke="black" d="M260.79,-217.12C270.62,-207.82 283.18,-195.93 294.04,-185.67"/>
<polygon fill="black" stroke="black" points="296.33,-188.32 301.19,-178.9 291.52,-183.23 296.33,-188.32"/>
</g>
<!-- n18 -->
<g id="node19" class="node">
<title>n18</title>
<ellipse fill="none" stroke="black" cx="497" cy="-162" rx="44.7" ry="18"/>
<text text-anchor="middle" x="497" y="-156.95" font-family="Times,serif" font-size="14.00">term_tail</text>
</g>
<!-- n13&#45;&gt;n18 -->
<g id="edge18" class="edge">
<title>n13&#45;&gt;n18</title>
<path fill="none" stroke="black" d="M280.25,-222.97C324.87,-210.63 400.75,-189.63 449.86,-176.04"/>
<polygon fill="black" stroke="black" points="450.66,-179.45 459.36,-173.41 448.79,-172.71 450.66,-179.45"/>
</g>
<!-- n15 -->
<g id="node16" class="node">
<title>n15</title>
<polygon fill="none" stroke="black" points="197,-108 143,-108 143,-72 197,-72 197,-108"/>
<text text-anchor="middle" x="170" y="-84.95" font-family="Times,serif" font-size="14.00">*</text>
</g>
<!-- n14&#45;&gt;n15 -->
<g id="edge15" class="edge">
<title>n14&#45;&gt;n15</title>
<path fill="none" stroke="black" d="M170,-143.7C170,-136.41 170,-127.73 170,-119.54"/>
<polygon fill="black" stroke="black" points="173.5,-119.62 170,-109.62 166.5,-119.62 173.5,-119.62"/>
</g>
<!-- n17 -->
<g id="node18" class="node">
<title>n17</title>
<polygon fill="none" stroke="black" points="307,-108 253,-108 253,-72 307,-72 307,-108"/>
<text text-anchor="middle" x="280" y="-84.95" font-family="Times,serif" font-size="14.00">10</text>
</g>
<!-- n16&#45;&gt;n17 -->
<g id="edge17" class="edge">
<title>n16&#45;&gt;n17</title>
<path fill="none" stroke="black" d="M308.99,-144.41C304.77,-136.62 299.62,-127.14 294.84,-118.33"/>
<polygon fill="black" stroke="black" points="298.04,-116.9 290.19,-109.78 291.89,-120.24 298.04,-116.9"/>
</g>
<!-- n19 -->
<g id="node20" class="node">
<title>n19</title>
<ellipse fill="none" stroke="black" cx="423" cy="-90" rx="97.93" ry="18"/>
<text text-anchor="middle" x="423" y="-84.95" font-family="Times,serif" font-size="14.00">multiplicative_operator</text>
</g>
<!-- n18&#45;&gt;n19 -->
<g id="edge19" class="edge">
<title>n18&#45;&gt;n19</title>
<path fill="none" stroke="black" d="M480.21,-145.12C471.08,-136.48 459.58,-125.61 449.3,-115.88"/>
<polygon fill="black" stroke="black" points="451.79,-113.41 442.12,-109.08 446.98,-118.5 451.79,-113.41"/>
</g>
<!-- n21 -->
<g id="node22" class="node">
<title>n21</title>
<ellipse fill="none" stroke="black" cx="571" cy="-90" rx="32.41" ry="18"/>
<text text-anchor="middle" x="571" y="-84.95" font-family="Times,serif" font-size="14.00">factor</text>
</g>
<!-- n18&#45;&gt;n21 -->
<g id="edge21" class="edge">
<title>n18&#45;&gt;n21</title>
<path fill="none" stroke="black" d="M513.79,-145.12C523.62,-135.82 536.18,-123.93 547.04,-113.67"/>
<polygon fill="black" stroke="black" points="549.33,-116.32 554.19,-106.9 544.52,-111.23 549.33,-116.32"/>
</g>
<!-- n23 -->
<g id="node24" class="node">
<title>n23</title>
<ellipse fill="none" stroke="black" cx="666" cy="-90" rx="44.7" ry="18"/>
<text text-anchor="middle" x="666" y="-84.95" font-family="Times,serif" font-size="14.00">term_tail</text>
</g>
<!-- n18&#45;&gt;n23 -->
<g id="edge23" class="edge">
<title>n18&#45;&gt;n23</title>
<path fill="none" stroke="black" d="M527.21,-148.49C554.44,-137.21 594.71,-120.53 624.87,-108.04"/>
<polygon fill="black" stroke="black" points="626.18,-111.28 634.08,-104.22 623.5,-104.81 626.18,-111.28"/>
</g>
<!-- n20 -->
<g id="node21" class="node">
<title>n20</title>
<polygon fill="none" stroke="black" points="450,-36 396,-36 396,0 450,0 450,-36"/>
<text text-anchor="middle" x="423" y="-12.95" font-family="Times,serif" font-size="14.00">*</text>
</g>
<!-- n19&#45;&gt;n20 -->
<g id="edge20" class="edge">
<title>n19&#45;&gt;n20</title>
<path fill="none" stroke="black" d="M423,-71.7C423,-64.41 423,-55.73 423,-47.54"/>
<polygon fill="black" stroke="black" points="426.5,-47.62 423,-37.62 419.5,-47.62 426.5,-47.62"/>
</g>
<!-- n22 -->
<g id="node23" class="node">
<title>n22</title>
<polygon fill="none" stroke="black" points="598,-36 544,-36 544,0 598,0 598,-36"/>
<text text-anchor="middle" x="571" y="-12.95" font-family="Times,serif" font-size="14.00">10</text>
</g>
<!-- n21&#45;&gt;n22 -->
<g id="edge22" class="edge">
<title>n21&#45;&gt;n22</title>
<path fill="none" stroke="black" d="M571,-71.7C571,-64.41 571,-55.73 571,-47.54"/>
<polygon fill="black" stroke="black" points="574.5,-47.62 571,-37.62 567.5,-47.62 574.5,-47.62"/>
</g>
</g>
</svg>
