<?xml version="1.0" encoding="UTF-8" standalone="no"?>
<!DOCTYPE svg PUBLIC "-//W3C//DTD SVG 1.1//EN"
 "http://www.w3.org/Graphics/SVG/1.1/DTD/svg11.dtd">
<!-- Generated by graphviz version 12.2.1 (20241206.2353)
 -->
<!-- Title: AST Pages: 1 -->
<svg width="1294pt" height="980pt"
 viewBox="0.00 0.00 1294.11 980.00" xmlns="http://www.w3.org/2000/svg" xmlns:xlink="http://www.w3.org/1999/xlink">
<g id="graph0" class="graph" transform="scale(1 1) rotate(0) translate(4 976)">
<title>AST</title>
<polygon fill="white" stroke="none" points="-4,4 -4,-976 1290.11,-976 1290.11,4 -4,4"/>
<!-- n0 -->
<g id="node1" class="node">
<title>n0</title>
<ellipse fill="none" stroke="black" cx="305.41" cy="-954" rx="30.37" ry="18"/>
<text text-anchor="middle" x="305.41" y="-948.95" font-family="Times,serif" font-size="14.00">$root</text>
</g>
<!-- n1 -->
<g id="node2" class="node">
<title>n1</title>
<ellipse fill="none" stroke="black" cx="305.41" cy="-882" rx="42.65" ry="18"/>
<text text-anchor="middle" x="305.41" y="-876.95" font-family="Times,serif" font-size="14.00">program</text>
</g>
<!-- n0&#45;&gt;n1 -->
<g id="edge1" class="edge">
<title>n0&#45;&gt;n1</title>
<path fill="none" stroke="black" d="M305.41,-935.7C305.41,-928.41 305.41,-919.73 305.41,-911.54"/>
<polygon fill="black" stroke="black" points="308.91,-911.62 305.41,-901.62 301.91,-911.62 308.91,-911.62"/>
</g>
<!-- n2 -->
<g id="node3" class="node">
<title>n2</title>
<ellipse fill="none" stroke="black" cx="305.41" cy="-810" rx="31.39" ry="18"/>
<text text-anchor="middle" x="305.41" y="-804.95" font-family="Times,serif" font-size="14.00">block</text>
</g>
<!-- n1&#45;&gt;n2 -->
<g id="edge2" class="edge">
<title>n1&#45;&gt;n2</title>
<path fill="none" stroke="black" d="M305.41,-863.7C305.41,-856.41 305.41,-847.73 305.41,-839.54"/>
<polygon fill="black" stroke="black" points="308.91,-839.62 305.41,-829.62 301.91,-839.62 308.91,-839.62"/>
</g>
<!-- n3 -->
<g id="node4" class="node">
<title>n3</title>
<polygon fill="none" stroke="black" points="230.41,-756 176.41,-756 176.41,-720 230.41,-720 230.41,-756"/>
<text text-anchor="middle" x="203.41" y="-732.95" font-family="Times,serif" font-size="14.00">{</text>
</g>
<!-- n2&#45;&gt;n3 -->
<g id="edge3" class="edge">
<title>n2&#45;&gt;n3</title>
<path fill="none" stroke="black" d="M285.75,-795.5C272.2,-786.2 253.83,-773.6 237.88,-762.65"/>
<polygon fill="black" stroke="black" points="240.3,-760.07 230.07,-757.29 236.34,-765.84 240.3,-760.07"/>
</g>
<!-- n4 -->
<g id="node5" class="node">
<title>n4</title>
<ellipse fill="none" stroke="black" cx="305.41" cy="-738" rx="57.49" ry="18"/>
<text text-anchor="middle" x="305.41" y="-732.95" font-family="Times,serif" font-size="14.00">operator_list</text>
</g>
<!-- n2&#45;&gt;n4 -->
<g id="edge4" class="edge">
<title>n2&#45;&gt;n4</title>
<path fill="none" stroke="black" d="M305.41,-791.7C305.41,-784.41 305.41,-775.73 305.41,-767.54"/>
<polygon fill="black" stroke="black" points="308.91,-767.62 305.41,-757.62 301.91,-767.62 308.91,-767.62"/>
</g>
<!-- n42 -->
<g id="node43" class="node">
<title>n42</title>
<polygon fill="none" stroke="black" points="434.41,-756 380.41,-756 380.41,-720 434.41,-720 434.41,-756"/>
<text text-anchor="middle" x="407.41" y="-732.95" font-family="Times,serif" font-size="14.00">}</text>
</g>
<!-- n2&#45;&gt;n42 -->
<g id="edge42" class="edge">
<title>n2&#45;&gt;n42</title>
<path fill="none" stroke="black" d="M325.08,-795.5C338.63,-786.2 357,-773.6 372.95,-762.65"/>
<polygon fill="black" stroke="black" points="374.49,-765.84 380.76,-757.29 370.53,-760.07 374.49,-765.84"/>
</g>
<!-- n5 -->
<g id="node6" class="node">
<title>n5</title>
<ellipse fill="none" stroke="black" cx="246.41" cy="-666" rx="41.63" ry="18"/>
<text text-anchor="middle" x="246.41" y="-660.95" font-family="Times,serif" font-size="14.00">operator</text>
</g>
<!-- n4&#45;&gt;n5 -->
<g id="edge5" class="edge">
<title>n4&#45;&gt;n5</title>
<path fill="none" stroke="black" d="M291.43,-720.41C284.2,-711.83 275.23,-701.19 267.21,-691.67"/>
<polygon fill="black" stroke="black" points="269.99,-689.54 260.87,-684.15 264.63,-694.05 269.99,-689.54"/>
</g>
<!-- n41 -->
<g id="node42" class="node">
<title>n41</title>
<ellipse fill="none" stroke="black" cx="363.41" cy="-666" rx="57.49" ry="18"/>
<text text-anchor="middle" x="363.41" y="-660.95" font-family="Times,serif" font-size="14.00">operator_list</text>
</g>
<!-- n4&#45;&gt;n41 -->
<g id="edge41" class="edge">
<title>n4&#45;&gt;n41</title>
<path fill="none" stroke="black" d="M319.45,-720.05C326.29,-711.8 334.66,-701.7 342.25,-692.54"/>
<polygon fill="black" stroke="black" points="344.85,-694.89 348.54,-684.95 339.46,-690.42 344.85,-694.89"/>
</g>
<!-- n6 -->
<g id="node7" class="node">
<title>n6</title>
<polygon fill="none" stroke="black" points="154.41,-612 100.41,-612 100.41,-576 154.41,-576 154.41,-612"/>
<text text-anchor="middle" x="127.41" y="-588.95" font-family="Times,serif" font-size="14.00">result</text>
</g>
<!-- n5&#45;&gt;n6 -->
<g id="edge6" class="edge">
<title>n5&#45;&gt;n6</title>
<path fill="none" stroke="black" d="M222.33,-650.83C205.75,-641.08 183.41,-627.94 164.56,-616.85"/>
<polygon fill="black" stroke="black" points="166.49,-613.92 156.09,-611.87 162.94,-619.96 166.49,-613.92"/>
</g>
<!-- n7 -->
<g id="node8" class="node">
<title>n7</title>
<polygon fill="none" stroke="black" points="226.41,-612 172.41,-612 172.41,-576 226.41,-576 226.41,-612"/>
<text text-anchor="middle" x="199.41" y="-588.95" font-family="Times,serif" font-size="14.00">=</text>
</g>
<!-- n5&#45;&gt;n7 -->
<g id="edge7" class="edge">
<title>n5&#45;&gt;n7</title>
<path fill="none" stroke="black" d="M235.28,-648.41C229.93,-640.45 223.4,-630.72 217.38,-621.76"/>
<polygon fill="black" stroke="black" points="220.45,-620.05 211.97,-613.7 214.64,-623.96 220.45,-620.05"/>
</g>
<!-- n8 -->
<g id="node9" class="node">
<title>n8</title>
<ellipse fill="none" stroke="black" cx="294.41" cy="-594" rx="50.33" ry="18"/>
<text text-anchor="middle" x="294.41" y="-588.95" font-family="Times,serif" font-size="14.00">expression</text>
</g>
<!-- n5&#45;&gt;n8 -->
<g id="edge8" class="edge">
<title>n5&#45;&gt;n8</title>
<path fill="none" stroke="black" d="M257.79,-648.41C263.33,-640.34 270.12,-630.43 276.34,-621.35"/>
<polygon fill="black" stroke="black" points="279.16,-623.43 281.93,-613.2 273.39,-619.47 279.16,-623.43"/>
</g>
<!-- n40 -->
<g id="node41" class="node">
<title>n40</title>
<polygon fill="none" stroke="black" points="416.41,-612 362.41,-612 362.41,-576 416.41,-576 416.41,-612"/>
<text text-anchor="middle" x="389.41" y="-588.95" font-family="Times,serif" font-size="14.00">;</text>
</g>
<!-- n5&#45;&gt;n40 -->
<g id="edge40" class="edge">
<title>n5&#45;&gt;n40</title>
<path fill="none" stroke="black" d="M273.31,-651.83C295.54,-640.95 327.35,-625.38 352.05,-613.29"/>
<polygon fill="black" stroke="black" points="353.35,-616.55 360.79,-609.01 350.27,-610.26 353.35,-616.55"/>
</g>
<!-- n9 -->
<g id="node10" class="node">
<title>n9</title>
<ellipse fill="none" stroke="black" cx="205.41" cy="-522" rx="92.81" ry="18"/>
<text text-anchor="middle" x="205.41" y="-516.95" font-family="Times,serif" font-size="14.00">arithmetic_expression</text>
</g>
<!-- n8&#45;&gt;n9 -->
<g id="edge9" class="edge">
<title>n8&#45;&gt;n9</title>
<path fill="none" stroke="black" d="M274.22,-577.12C262.83,-568.16 248.37,-556.79 235.66,-546.79"/>
<polygon fill="black" stroke="black" points="237.98,-544.16 227.96,-540.73 233.66,-549.67 237.98,-544.16"/>
</g>
<!-- n39 -->
<g id="node40" class="node">
<title>n39</title>
<ellipse fill="none" stroke="black" cx="383.41" cy="-522" rx="66.71" ry="18"/>
<text text-anchor="middle" x="383.41" y="-516.95" font-family="Times,serif" font-size="14.00">expression_tail</text>
</g>
<!-- n8&#45;&gt;n39 -->
<g id="edge39" class="edge">
<title>n8&#45;&gt;n39</title>
<path fill="none" stroke="black" d="M314.61,-577.12C326.08,-568.09 340.67,-556.62 353.45,-546.57"/>
<polygon fill="black" stroke="black" points="355.48,-549.42 361.18,-540.49 351.16,-543.92 355.48,-549.42"/>
</g>
<!-- n10 -->
<g id="node11" class="node">
<title>n10</title>
<ellipse fill="none" stroke="black" cx="127.41" cy="-450" rx="28.32" ry="18"/>
<text text-anchor="middle" x="127.41" y="-444.95" font-family="Times,serif" font-size="14.00">term</text>
</g>
<!-- n9&#45;&gt;n10 -->
<g id="edge10" class="edge">
<title>n9&#45;&gt;n10</title>
<path fill="none" stroke="black" d="M186.53,-504.05C176.07,-494.67 162.96,-482.9 151.74,-472.83"/>
<polygon fill="black" stroke="black" points="154.14,-470.28 144.36,-466.21 149.46,-475.49 154.14,-470.28"/>
</g>
<!-- n14 -->
<g id="node15" class="node">
<title>n14</title>
<ellipse fill="none" stroke="black" cx="335.41" cy="-450" rx="109.19" ry="18"/>
<text text-anchor="middle" x="335.41" y="-444.95" font-family="Times,serif" font-size="14.00">arithmetic_expression_tail</text>
</g>
<!-- n9&#45;&gt;n14 -->
<g id="edge14" class="edge">
<title>n9&#45;&gt;n14</title>
<path fill="none" stroke="black" d="M235.89,-504.59C253.45,-495.13 275.74,-483.13 294.78,-472.88"/>
<polygon fill="black" stroke="black" points="296.2,-476.09 303.34,-468.27 292.88,-469.93 296.2,-476.09"/>
</g>
<!-- n11 -->
<g id="node12" class="node">
<title>n11</title>
<ellipse fill="none" stroke="black" cx="32.41" cy="-378" rx="32.41" ry="18"/>
<text text-anchor="middle" x="32.41" y="-372.95" font-family="Times,serif" font-size="14.00">factor</text>
</g>
<!-- n10&#45;&gt;n11 -->
<g id="edge11" class="edge">
<title>n10&#45;&gt;n11</title>
<path fill="none" stroke="black" d="M109.55,-435.83C95.71,-425.64 76.28,-411.32 60.39,-399.61"/>
<polygon fill="black" stroke="black" points="62.85,-397.08 52.73,-393.97 58.7,-402.72 62.85,-397.08"/>
</g>
<!-- n13 -->
<g id="node14" class="node">
<title>n13</title>
<ellipse fill="none" stroke="black" cx="127.41" cy="-378" rx="44.7" ry="18"/>
<text text-anchor="middle" x="127.41" y="-372.95" font-family="Times,serif" font-size="14.00">term_tail</text>
</g>
<!-- n10&#45;&gt;n13 -->
<g id="edge13" class="edge">
<title>n10&#45;&gt;n13</title>
<path fill="none" stroke="black" d="M127.41,-431.7C127.41,-424.41 127.41,-415.73 127.41,-407.54"/>
<polygon fill="black" stroke="black" points="130.91,-407.62 127.41,-397.62 123.91,-407.62 130.91,-407.62"/>
</g>
<!-- n12 -->
<g id="node13" class="node">
<title>n12</title>
<polygon fill="none" stroke="black" points="59.41,-324 5.41,-324 5.41,-288 59.41,-288 59.41,-324"/>
<text text-anchor="middle" x="32.41" y="-300.95" font-family="Times,serif" font-size="14.00">a</text>
</g>
<!-- n11&#45;&gt;n12 -->
<g id="edge12" class="edge">
<title>n11&#45;&gt;n12</title>
<path fill="none" stroke="black" d="M32.41,-359.7C32.41,-352.41 32.41,-343.73 32.41,-335.54"/>
<polygon fill="black" stroke="black" points="35.91,-335.62 32.41,-325.62 28.91,-335.62 35.91,-335.62"/>
</g>
<!-- n15 -->
<g id="node16" class="node">
<title>n15</title>
<ellipse fill="none" stroke="black" cx="266.41" cy="-378" rx="75.92" ry="18"/>
<text text-anchor="middle" x="266.41" y="-372.95" font-family="Times,serif" font-size="14.00">additive_operator</text>
</g>
<!-- n14&#45;&gt;n15 -->
<g id="edge15" class="edge">
<title>n14&#45;&gt;n15</title>
<path fill="none" stroke="black" d="M318.71,-432.05C310.41,-423.63 300.2,-413.28 291.02,-403.97"/>
<polygon fill="black" stroke="black" points="293.54,-401.53 284.03,-396.87 288.55,-406.45 293.54,-401.53"/>
</g>
<!-- n17 -->
<g id="node18" class="node">
<title>n17</title>
<ellipse fill="none" stroke="black" cx="388.41" cy="-378" rx="28.32" ry="18"/>
<text text-anchor="middle" x="388.41" y="-372.95" font-family="Times,serif" font-size="14.00">term</text>
</g>
<!-- n14&#45;&gt;n17 -->
<g id="edge17" class="edge">
<title>n14&#45;&gt;n17</title>
<path fill="none" stroke="black" d="M348.52,-431.7C354.89,-423.28 362.66,-413.02 369.64,-403.79"/>
<polygon fill="black" stroke="black" points="372.39,-405.96 375.64,-395.88 366.81,-401.74 372.39,-405.96"/>
</g>
<!-- n21 -->
<g id="node22" class="node">
<title>n21</title>
<ellipse fill="none" stroke="black" cx="622.41" cy="-378" rx="109.19" ry="18"/>
<text text-anchor="middle" x="622.41" y="-372.95" font-family="Times,serif" font-size="14.00">arithmetic_expression_tail</text>
</g>
<!-- n14&#45;&gt;n21 -->
<g id="edge21" class="edge">
<title>n14&#45;&gt;n21</title>
<path fill="none" stroke="black" d="M394.88,-434.5C440.58,-423.35 503.83,-407.92 552.05,-396.16"/>
<polygon fill="black" stroke="black" points="552.67,-399.61 561.55,-393.84 551.01,-392.81 552.67,-399.61"/>
</g>
<!-- n16 -->
<g id="node17" class="node">
<title>n16</title>
<polygon fill="none" stroke="black" points="268.41,-324 214.41,-324 214.41,-288 268.41,-288 268.41,-324"/>
<text text-anchor="middle" x="241.41" y="-300.95" font-family="Times,serif" font-size="14.00">+</text>
</g>
<!-- n15&#45;&gt;n16 -->
<g id="edge16" class="edge">
<title>n15&#45;&gt;n16</title>
<path fill="none" stroke="black" d="M260.23,-359.7C257.54,-352.15 254.31,-343.12 251.3,-334.68"/>
<polygon fill="black" stroke="black" points="254.69,-333.77 248.03,-325.53 248.1,-336.12 254.69,-333.77"/>
</g>
<!-- n18 -->
<g id="node19" class="node">
<title>n18</title>
<ellipse fill="none" stroke="black" cx="318.41" cy="-306" rx="32.41" ry="18"/>
<text text-anchor="middle" x="318.41" y="-300.95" font-family="Times,serif" font-size="14.00">factor</text>
</g>
<!-- n17&#45;&gt;n18 -->
<g id="edge18" class="edge">
<title>n17&#45;&gt;n18</title>
<path fill="none" stroke="black" d="M373.57,-362.15C364.32,-352.91 352.23,-340.81 341.72,-330.31"/>
<polygon fill="black" stroke="black" points="344.34,-327.97 334.79,-323.38 339.39,-332.92 344.34,-327.97"/>
</g>
<!-- n20 -->
<g id="node21" class="node">
<title>n20</title>
<ellipse fill="none" stroke="black" cx="413.41" cy="-306" rx="44.7" ry="18"/>
<text text-anchor="middle" x="413.41" y="-300.95" font-family="Times,serif" font-size="14.00">term_tail</text>
</g>
<!-- n17&#45;&gt;n20 -->
<g id="edge20" class="edge">
<title>n17&#45;&gt;n20</title>
<path fill="none" stroke="black" d="M394.47,-360.05C397.16,-352.52 400.4,-343.44 403.44,-334.94"/>
<polygon fill="black" stroke="black" points="406.67,-336.3 406.74,-325.7 400.08,-333.94 406.67,-336.3"/>
</g>
<!-- n19 -->
<g id="node20" class="node">
<title>n19</title>
<polygon fill="none" stroke="black" points="345.41,-252 291.41,-252 291.41,-216 345.41,-216 345.41,-252"/>
<text text-anchor="middle" x="318.41" y="-228.95" font-family="Times,serif" font-size="14.00">b</text>
</g>
<!-- n18&#45;&gt;n19 -->
<g id="edge19" class="edge">
<title>n18&#45;&gt;n19</title>
<path fill="none" stroke="black" d="M318.41,-287.7C318.41,-280.41 318.41,-271.73 318.41,-263.54"/>
<polygon fill="black" stroke="black" points="321.91,-263.62 318.41,-253.62 314.91,-263.62 321.91,-263.62"/>
</g>
<!-- n22 -->
<g id="node23" class="node">
<title>n22</title>
<ellipse fill="none" stroke="black" cx="552.41" cy="-306" rx="75.92" ry="18"/>
<text text-anchor="middle" x="552.41" y="-300.95" font-family="Times,serif" font-size="14.00">additive_operator</text>
</g>
<!-- n21&#45;&gt;n22 -->
<g id="edge22" class="edge">
<title>n21&#45;&gt;n22</title>
<path fill="none" stroke="black" d="M605.47,-360.05C596.96,-351.54 586.48,-341.07 577.1,-331.68"/>
<polygon fill="black" stroke="black" points="579.82,-329.46 570.27,-324.86 574.87,-334.41 579.82,-329.46"/>
</g>
<!-- n24 -->
<g id="node25" class="node">
<title>n24</title>
<ellipse fill="none" stroke="black" cx="674.41" cy="-306" rx="28.32" ry="18"/>
<text text-anchor="middle" x="674.41" y="-300.95" font-family="Times,serif" font-size="14.00">term</text>
</g>
<!-- n21&#45;&gt;n24 -->
<g id="edge24" class="edge">
<title>n21&#45;&gt;n24</title>
<path fill="none" stroke="black" d="M635.27,-359.7C641.52,-351.28 649.14,-341.02 656,-331.79"/>
<polygon fill="black" stroke="black" points="658.72,-334 661.87,-323.89 653.1,-329.83 658.72,-334"/>
</g>
<!-- n38 -->
<g id="node39" class="node">
<title>n38</title>
<ellipse fill="none" stroke="black" cx="830.41" cy="-306" rx="109.19" ry="18"/>
<text text-anchor="middle" x="830.41" y="-300.95" font-family="Times,serif" font-size="14.00">arithmetic_expression_tail</text>
</g>
<!-- n21&#45;&gt;n38 -->
<g id="edge38" class="edge">
<title>n21&#45;&gt;n38</title>
<path fill="none" stroke="black" d="M669.09,-361.29C699.87,-350.93 740.39,-337.3 773.12,-326.28"/>
<polygon fill="black" stroke="black" points="774.1,-329.65 782.46,-323.14 771.86,-323.01 774.1,-329.65"/>
</g>
<!-- n23 -->
<g id="node24" class="node">
<title>n23</title>
<polygon fill="none" stroke="black" points="579.41,-252 525.41,-252 525.41,-216 579.41,-216 579.41,-252"/>
<text text-anchor="middle" x="552.41" y="-228.95" font-family="Times,serif" font-size="14.00">&#45;</text>
</g>
<!-- n22&#45;&gt;n23 -->
<g id="edge23" class="edge">
<title>n22&#45;&gt;n23</title>
<path fill="none" stroke="black" d="M552.41,-287.7C552.41,-280.41 552.41,-271.73 552.41,-263.54"/>
<polygon fill="black" stroke="black" points="555.91,-263.62 552.41,-253.62 548.91,-263.62 555.91,-263.62"/>
</g>
<!-- n25 -->
<g id="node26" class="node">
<title>n25</title>
<ellipse fill="none" stroke="black" cx="651.41" cy="-234" rx="32.41" ry="18"/>
<text text-anchor="middle" x="651.41" y="-228.95" font-family="Times,serif" font-size="14.00">factor</text>
</g>
<!-- n24&#45;&gt;n25 -->
<g id="edge25" class="edge">
<title>n24&#45;&gt;n25</title>
<path fill="none" stroke="black" d="M668.85,-288.05C666.33,-280.4 663.3,-271.16 660.47,-262.56"/>
<polygon fill="black" stroke="black" points="663.85,-261.63 657.4,-253.23 657.2,-263.82 663.85,-261.63"/>
</g>
<!-- n27 -->
<g id="node28" class="node">
<title>n27</title>
<ellipse fill="none" stroke="black" cx="844.41" cy="-234" rx="44.7" ry="18"/>
<text text-anchor="middle" x="844.41" y="-228.95" font-family="Times,serif" font-size="14.00">term_tail</text>
</g>
<!-- n24&#45;&gt;n27 -->
<g id="edge27" class="edge">
<title>n24&#45;&gt;n27</title>
<path fill="none" stroke="black" d="M696.86,-294.79C701.95,-292.52 707.36,-290.15 712.41,-288 742.35,-275.3 776.42,-261.64 802.44,-251.37"/>
<polygon fill="black" stroke="black" points="803.64,-254.66 811.66,-247.74 801.07,-248.15 803.64,-254.66"/>
</g>
<!-- n26 -->
<g id="node27" class="node">
<title>n26</title>
<polygon fill="none" stroke="black" points="629.41,-180 575.41,-180 575.41,-144 629.41,-144 629.41,-180"/>
<text text-anchor="middle" x="602.41" y="-156.95" font-family="Times,serif" font-size="14.00">5</text>
</g>
<!-- n25&#45;&gt;n26 -->
<g id="edge26" class="edge">
<title>n25&#45;&gt;n26</title>
<path fill="none" stroke="black" d="M640.05,-216.76C634.34,-208.61 627.28,-198.53 620.83,-189.31"/>
<polygon fill="black" stroke="black" points="623.87,-187.55 615.27,-181.36 618.14,-191.56 623.87,-187.55"/>
</g>
<!-- n28 -->
<g id="node29" class="node">
<title>n28</title>
<ellipse fill="none" stroke="black" cx="745.41" cy="-162" rx="97.93" ry="18"/>
<text text-anchor="middle" x="745.41" y="-156.95" font-family="Times,serif" font-size="14.00">multiplicative_operator</text>
</g>
<!-- n27&#45;&gt;n28 -->
<g id="edge28" class="edge">
<title>n27&#45;&gt;n28</title>
<path fill="none" stroke="black" d="M822.93,-217.81C809.96,-208.64 793.17,-196.77 778.53,-186.42"/>
<polygon fill="black" stroke="black" points="780.7,-183.67 770.52,-180.75 776.66,-189.38 780.7,-183.67"/>
</g>
<!-- n30 -->
<g id="node31" class="node">
<title>n30</title>
<ellipse fill="none" stroke="black" cx="893.41" cy="-162" rx="32.41" ry="18"/>
<text text-anchor="middle" x="893.41" y="-156.95" font-family="Times,serif" font-size="14.00">factor</text>
</g>
<!-- n27&#45;&gt;n30 -->
<g id="edge30" class="edge">
<title>n27&#45;&gt;n30</title>
<path fill="none" stroke="black" d="M856.03,-216.41C861.91,-208.01 869.17,-197.63 875.73,-188.26"/>
<polygon fill="black" stroke="black" points="878.49,-190.43 881.35,-180.23 872.75,-186.41 878.49,-190.43"/>
</g>
<!-- n32 -->
<g id="node33" class="node">
<title>n32</title>
<ellipse fill="none" stroke="black" cx="1072.41" cy="-162" rx="44.7" ry="18"/>
<text text-anchor="middle" x="1072.41" y="-156.95" font-family="Times,serif" font-size="14.00">term_tail</text>
</g>
<!-- n27&#45;&gt;n32 -->
<g id="edge32" class="edge">
<title>n27&#45;&gt;n32</title>
<path fill="none" stroke="black" d="M879.04,-222.37C918.58,-210.23 983.4,-190.33 1026.97,-176.95"/>
<polygon fill="black" stroke="black" points="1027.86,-180.34 1036.39,-174.06 1025.8,-173.65 1027.86,-180.34"/>
</g>
<!-- n29 -->
<g id="node30" class="node">
<title>n29</title>
<polygon fill="none" stroke="black" points="772.41,-108 718.41,-108 718.41,-72 772.41,-72 772.41,-108"/>
<text text-anchor="middle" x="745.41" y="-84.95" font-family="Times,serif" font-size="14.00">*</text>
</g>
<!-- n28&#45;&gt;n29 -->
<g id="edge29" class="edge">
<title>n28&#45;&gt;n29</title>
<path fill="none" stroke="black" d="M745.41,-143.7C745.41,-136.41 745.41,-127.73 745.41,-119.54"/>
<polygon fill="black" stroke="black" points="748.91,-119.62 745.41,-109.62 741.91,-119.62 748.91,-119.62"/>
</g>
<!-- n31 -->
<g id="node32" class="node">
<title>n31</title>
<polygon fill="none" stroke="black" points="882.41,-108 828.41,-108 828.41,-72 882.41,-72 882.41,-108"/>
<text text-anchor="middle" x="855.41" y="-84.95" font-family="Times,serif" font-size="14.00">10</text>
</g>
<!-- n30&#45;&gt;n31 -->
<g id="edge31" class="edge">
<title>n30&#45;&gt;n31</title>
<path fill="none" stroke="black" d="M884.41,-144.41C880.18,-136.62 875.03,-127.14 870.25,-118.33"/>
<polygon fill="black" stroke="black" points="873.45,-116.9 865.61,-109.78 867.3,-120.24 873.45,-116.9"/>
</g>
<!-- n33 -->
<g id="node34" class="node">
<title>n33</title>
<ellipse fill="none" stroke="black" cx="998.41" cy="-90" rx="97.93" ry="18"/>
<text text-anchor="middle" x="998.41" y="-84.95" font-family="Times,serif" font-size="14.00">multiplicative_operator</text>
</g>
<!-- n32&#45;&gt;n33 -->
<g id="edge33" class="edge">
<title>n32&#45;&gt;n33</title>
<path fill="none" stroke="black" d="M1055.62,-145.12C1046.49,-136.48 1035,-125.61 1024.71,-115.88"/>
<polygon fill="black" stroke="black" points="1027.2,-113.41 1017.53,-109.08 1022.39,-118.5 1027.2,-113.41"/>
</g>
<!-- n35 -->
<g id="node36" class="node">
<title>n35</title>
<ellipse fill="none" stroke="black" cx="1146.41" cy="-90" rx="32.41" ry="18"/>
<text text-anchor="middle" x="1146.41" y="-84.95" font-family="Times,serif" font-size="14.00">factor</text>
</g>
<!-- n32&#45;&gt;n35 -->
<g id="edge35" class="edge">
<title>n32&#45;&gt;n35</title>
<path fill="none" stroke="black" d="M1089.21,-145.12C1099.03,-135.82 1111.6,-123.93 1122.45,-113.67"/>
<polygon fill="black" stroke="black" points="1124.74,-116.32 1129.6,-106.9 1119.93,-111.23 1124.74,-116.32"/>
</g>
<!-- n37 -->
<g id="node38" class="node">
<title>n37</title>
<ellipse fill="none" stroke="black" cx="1241.41" cy="-90" rx="44.7" ry="18"/>
<text text-anchor="middle" x="1241.41" y="-84.95" font-family="Times,serif" font-size="14.00">term_tail</text>
</g>
<!-- n32&#45;&gt;n37 -->
<g id="edge37" class="edge">
<title>n32&#45;&gt;n37</title>
<path fill="none" stroke="black" d="M1102.63,-148.49C1129.86,-137.21 1170.12,-120.53 1200.28,-108.04"/>
<polygon fill="black" stroke="black" points="1201.59,-111.28 1209.49,-104.22 1198.92,-104.81 1201.59,-111.28"/>
</g>
<!-- n34 -->
<g id="node35" class="node">
<title>n34</title>
<polygon fill="none" stroke="black" points="1025.41,-36 971.41,-36 971.41,0 1025.41,0 1025.41,-36"/>
<text text-anchor="middle" x="998.41" y="-12.95" font-family="Times,serif" font-size="14.00">*</text>
</g>
<!-- n33&#45;&gt;n34 -->
<g id="edge34" class="edge">
<title>n33&#45;&gt;n34</title>
<path fill="none" stroke="black" d="M998.41,-71.7C998.41,-64.41 998.41,-55.73 998.41,-47.54"/>
<polygon fill="black" stroke="black" points="1001.91,-47.62 998.41,-37.62 994.91,-47.62 1001.91,-47.62"/>
</g>
<!-- n36 -->
<g id="node37" class="node">
<title>n36</title>
<polygon fill="none" stroke="black" points="1173.41,-36 1119.41,-36 1119.41,0 1173.41,0 1173.41,-36"/>
<text text-anchor="middle" x="1146.41" y="-12.95" font-family="Times,serif" font-size="14.00">10</text>
</g>
<!-- n35&#45;&gt;n36 -->
<g id="edge36" class="edge">
<title>n35&#45;&gt;n36</title>
<path fill="none" stroke="black" d="M1146.41,-71.7C1146.41,-64.41 1146.41,-55.73 1146.41,-47.54"/>
<polygon fill="black" stroke="black" points="1149.91,-47.62 1146.41,-37.62 1142.91,-47.62 1149.91,-47.62"/>
</g>
</g>
</svg>
