<?xml version="1.0" encoding="UTF-8" standalone="no"?>
<!DOCTYPE svg PUBLIC "-//W3C//DTD SVG 1.1//EN"
 "http://www.w3.org/Graphics/SVG/1.1/DTD/svg11.dtd">
<!-- Generated by graphviz version 12.2.1 (20241206.2353)
 -->
<!-- Title: AST Pages: 1 -->
<svg width="1039pt" height="980pt"
 viewBox="0.00 0.00 1038.60 980.00" xmlns="http://www.w3.org/2000/svg" xmlns:xlink="http://www.w3.org/1999/xlink">
<g id="graph0" class="graph" transform="scale(1 1) rotate(0) translate(4 976)">
<title>AST</title>
<polygon fill="white" stroke="none" points="-4,4 -4,-976 1034.6,-976 1034.6,4 -4,4"/>
<!-- n0 -->
<g id="node1" class="node">
<title>n0</title>
<ellipse fill="none" stroke="black" cx="546.41" cy="-954" rx="30.37" ry="18"/>
<text text-anchor="middle" x="546.41" y="-948.95" font-family="Times,serif" font-size="14.00">$root</text>
</g>
<!-- n1 -->
<g id="node2" class="node">
<title>n1</title>
<ellipse fill="none" stroke="black" cx="546.41" cy="-882" rx="42.65" ry="18"/>
<text text-anchor="middle" x="546.41" y="-876.95" font-family="Times,serif" font-size="14.00">program</text>
</g>
<!-- n0&#45;&gt;n1 -->
<g id="edge1" class="edge">
<title>n0&#45;&gt;n1</title>
<path fill="none" stroke="black" d="M546.41,-935.7C546.41,-928.41 546.41,-919.73 546.41,-911.54"/>
<polygon fill="black" stroke="black" points="549.91,-911.62 546.41,-901.62 542.91,-911.62 549.91,-911.62"/>
</g>
<!-- n2 -->
<g id="node3" class="node">
<title>n2</title>
<ellipse fill="none" stroke="black" cx="546.41" cy="-810" rx="31.39" ry="18"/>
<text text-anchor="middle" x="546.41" y="-804.95" font-family="Times,serif" font-size="14.00">block</text>
</g>
<!-- n1&#45;&gt;n2 -->
<g id="edge2" class="edge">
<title>n1&#45;&gt;n2</title>
<path fill="none" stroke="black" d="M546.41,-863.7C546.41,-856.41 546.41,-847.73 546.41,-839.54"/>
<polygon fill="black" stroke="black" points="549.91,-839.62 546.41,-829.62 542.91,-839.62 549.91,-839.62"/>
</g>
<!-- n3 -->
<g id="node4" class="node">
<title>n3</title>
<polygon fill="none" stroke="black" points="471.41,-756 417.41,-756 417.41,-720 471.41,-720 471.41,-756"/>
<text text-anchor="middle" x="444.41" y="-732.95" font-family="Times,serif" font-size="14.00">{</text>
</g>
<!-- n2&#45;&gt;n3 -->
<g id="edge3" class="edge">
<title>n2&#45;&gt;n3</title>
<path fill="none" stroke="black" d="M526.75,-795.5C513.2,-786.2 494.83,-773.6 478.88,-762.65"/>
<polygon fill="black" stroke="black" points="481.3,-760.07 471.07,-757.29 477.34,-765.84 481.3,-760.07"/>
</g>
<!-- n4 -->
<g id="node5" class="node">
<title>n4</title>
<ellipse fill="none" stroke="black" cx="546.41" cy="-738" rx="57.49" ry="18"/>
<text text-anchor="middle" x="546.41" y="-732.95" font-family="Times,serif" font-size="14.00">operator_list</text>
</g>
<!-- n2&#45;&gt;n4 -->
<g id="edge4" class="edge">
<title>n2&#45;&gt;n4</title>
<path fill="none" stroke="black" d="M546.41,-791.7C546.41,-784.41 546.41,-775.73 546.41,-767.54"/>
<polygon fill="black" stroke="black" points="549.91,-767.62 546.41,-757.62 542.91,-767.62 549.91,-767.62"/>
</g>
<!-- n40 -->
<g id="node41" class="node">
<title>n40</title>
<polygon fill="none" stroke="black" points="675.41,-756 621.41,-756 621.41,-720 675.41,-720 675.41,-756"/>
<text text-anchor="middle" x="648.41" y="-732.95" font-family="Times,serif" font-size="14.00">}</text>
</g>
<!-- n2&#45;&gt;n40 -->
<g id="edge40" class="edge">
<title>n2&#45;&gt;n40</title>
<path fill="none" stroke="black" d="M566.08,-795.5C579.63,-786.2 598,-773.6 613.95,-762.65"/>
<polygon fill="black" stroke="black" points="615.49,-765.84 621.76,-757.29 611.53,-760.07 615.49,-765.84"/>
</g>
<!-- n5 -->
<g id="node6" class="node">
<title>n5</title>
<ellipse fill="none" stroke="black" cx="487.41" cy="-666" rx="41.63" ry="18"/>
<text text-anchor="middle" x="487.41" y="-660.95" font-family="Times,serif" font-size="14.00">operator</text>
</g>
<!-- n4&#45;&gt;n5 -->
<g id="edge5" class="edge">
<title>n4&#45;&gt;n5</title>
<path fill="none" stroke="black" d="M532.43,-720.41C525.2,-711.83 516.23,-701.19 508.21,-691.67"/>
<polygon fill="black" stroke="black" points="510.99,-689.54 501.87,-684.15 505.63,-694.05 510.99,-689.54"/>
</g>
<!-- n39 -->
<g id="node40" class="node">
<title>n39</title>
<ellipse fill="none" stroke="black" cx="604.41" cy="-666" rx="57.49" ry="18"/>
<text text-anchor="middle" x="604.41" y="-660.95" font-family="Times,serif" font-size="14.00">operator_list</text>
</g>
<!-- n4&#45;&gt;n39 -->
<g id="edge39" class="edge">
<title>n4&#45;&gt;n39</title>
<path fill="none" stroke="black" d="M560.45,-720.05C567.29,-711.8 575.66,-701.7 583.25,-692.54"/>
<polygon fill="black" stroke="black" points="585.85,-694.89 589.54,-684.95 580.46,-690.42 585.85,-694.89"/>
</g>
<!-- n6 -->
<g id="node7" class="node">
<title>n6</title>
<polygon fill="none" stroke="black" points="395.41,-612 341.41,-612 341.41,-576 395.41,-576 395.41,-612"/>
<text text-anchor="middle" x="368.41" y="-588.95" font-family="Times,serif" font-size="14.00">flag</text>
</g>
<!-- n5&#45;&gt;n6 -->
<g id="edge6" class="edge">
<title>n5&#45;&gt;n6</title>
<path fill="none" stroke="black" d="M463.33,-650.83C446.75,-641.08 424.41,-627.94 405.56,-616.85"/>
<polygon fill="black" stroke="black" points="407.49,-613.92 397.09,-611.87 403.94,-619.96 407.49,-613.92"/>
</g>
<!-- n7 -->
<g id="node8" class="node">
<title>n7</title>
<polygon fill="none" stroke="black" points="467.41,-612 413.41,-612 413.41,-576 467.41,-576 467.41,-612"/>
<text text-anchor="middle" x="440.41" y="-588.95" font-family="Times,serif" font-size="14.00">=</text>
</g>
<!-- n5&#45;&gt;n7 -->
<g id="edge7" class="edge">
<title>n5&#45;&gt;n7</title>
<path fill="none" stroke="black" d="M476.28,-648.41C470.93,-640.45 464.4,-630.72 458.38,-621.76"/>
<polygon fill="black" stroke="black" points="461.45,-620.05 452.97,-613.7 455.64,-623.96 461.45,-620.05"/>
</g>
<!-- n8 -->
<g id="node9" class="node">
<title>n8</title>
<ellipse fill="none" stroke="black" cx="535.41" cy="-594" rx="50.33" ry="18"/>
<text text-anchor="middle" x="535.41" y="-588.95" font-family="Times,serif" font-size="14.00">expression</text>
</g>
<!-- n5&#45;&gt;n8 -->
<g id="edge8" class="edge">
<title>n5&#45;&gt;n8</title>
<path fill="none" stroke="black" d="M498.79,-648.41C504.33,-640.34 511.12,-630.43 517.34,-621.35"/>
<polygon fill="black" stroke="black" points="520.16,-623.43 522.93,-613.2 514.39,-619.47 520.16,-623.43"/>
</g>
<!-- n38 -->
<g id="node39" class="node">
<title>n38</title>
<polygon fill="none" stroke="black" points="657.41,-612 603.41,-612 603.41,-576 657.41,-576 657.41,-612"/>
<text text-anchor="middle" x="630.41" y="-588.95" font-family="Times,serif" font-size="14.00">;</text>
</g>
<!-- n5&#45;&gt;n38 -->
<g id="edge38" class="edge">
<title>n5&#45;&gt;n38</title>
<path fill="none" stroke="black" d="M514.31,-651.83C536.54,-640.95 568.35,-625.38 593.05,-613.29"/>
<polygon fill="black" stroke="black" points="594.35,-616.55 601.79,-609.01 591.27,-610.26 594.35,-616.55"/>
</g>
<!-- n9 -->
<g id="node10" class="node">
<title>n9</title>
<ellipse fill="none" stroke="black" cx="434.41" cy="-522" rx="92.81" ry="18"/>
<text text-anchor="middle" x="434.41" y="-516.95" font-family="Times,serif" font-size="14.00">arithmetic_expression</text>
</g>
<!-- n8&#45;&gt;n9 -->
<g id="edge9" class="edge">
<title>n8&#45;&gt;n9</title>
<path fill="none" stroke="black" d="M513,-577.46C499.75,-568.28 482.71,-556.47 467.89,-546.2"/>
<polygon fill="black" stroke="black" points="469.99,-543.4 459.77,-540.58 466,-549.15 469.99,-543.4"/>
</g>
<!-- n29 -->
<g id="node30" class="node">
<title>n29</title>
<ellipse fill="none" stroke="black" cx="636.41" cy="-522" rx="66.71" ry="18"/>
<text text-anchor="middle" x="636.41" y="-516.95" font-family="Times,serif" font-size="14.00">expression_tail</text>
</g>
<!-- n8&#45;&gt;n29 -->
<g id="edge29" class="edge">
<title>n8&#45;&gt;n29</title>
<path fill="none" stroke="black" d="M557.83,-577.46C571.27,-568.15 588.61,-556.13 603.58,-545.76"/>
<polygon fill="black" stroke="black" points="605.54,-548.66 611.77,-540.08 601.55,-542.9 605.54,-548.66"/>
</g>
<!-- n10 -->
<g id="node11" class="node">
<title>n10</title>
<ellipse fill="none" stroke="black" cx="278.41" cy="-450" rx="28.32" ry="18"/>
<text text-anchor="middle" x="278.41" y="-444.95" font-family="Times,serif" font-size="14.00">term</text>
</g>
<!-- n9&#45;&gt;n10 -->
<g id="edge10" class="edge">
<title>n9&#45;&gt;n10</title>
<path fill="none" stroke="black" d="M398.62,-504.94C372.34,-493.14 336.89,-477.24 311.31,-465.76"/>
<polygon fill="black" stroke="black" points="312.94,-462.66 302.39,-461.76 310.08,-469.04 312.94,-462.66"/>
</g>
<!-- n28 -->
<g id="node29" class="node">
<title>n28</title>
<ellipse fill="none" stroke="black" cx="434.41" cy="-450" rx="109.19" ry="18"/>
<text text-anchor="middle" x="434.41" y="-444.95" font-family="Times,serif" font-size="14.00">arithmetic_expression_tail</text>
</g>
<!-- n9&#45;&gt;n28 -->
<g id="edge28" class="edge">
<title>n9&#45;&gt;n28</title>
<path fill="none" stroke="black" d="M434.41,-503.7C434.41,-496.41 434.41,-487.73 434.41,-479.54"/>
<polygon fill="black" stroke="black" points="437.91,-479.62 434.41,-469.62 430.91,-479.62 437.91,-479.62"/>
</g>
<!-- n11 -->
<g id="node12" class="node">
<title>n11</title>
<ellipse fill="none" stroke="black" cx="231.41" cy="-378" rx="32.41" ry="18"/>
<text text-anchor="middle" x="231.41" y="-372.95" font-family="Times,serif" font-size="14.00">factor</text>
</g>
<!-- n10&#45;&gt;n11 -->
<g id="edge11" class="edge">
<title>n10&#45;&gt;n11</title>
<path fill="none" stroke="black" d="M267.75,-433.12C262.12,-424.73 255.08,-414.24 248.69,-404.73"/>
<polygon fill="black" stroke="black" points="251.69,-402.91 243.21,-396.56 245.88,-406.82 251.69,-402.91"/>
</g>
<!-- n27 -->
<g id="node28" class="node">
<title>n27</title>
<ellipse fill="none" stroke="black" cx="326.41" cy="-378" rx="44.7" ry="18"/>
<text text-anchor="middle" x="326.41" y="-372.95" font-family="Times,serif" font-size="14.00">term_tail</text>
</g>
<!-- n10&#45;&gt;n27 -->
<g id="edge27" class="edge">
<title>n10&#45;&gt;n27</title>
<path fill="none" stroke="black" d="M289.31,-433.12C294.97,-424.85 302.04,-414.54 308.49,-405.14"/>
<polygon fill="black" stroke="black" points="311.27,-407.27 314.04,-397.05 305.5,-403.31 311.27,-407.27"/>
</g>
<!-- n12 -->
<g id="node13" class="node">
<title>n12</title>
<polygon fill="none" stroke="black" points="120.41,-324 66.41,-324 66.41,-288 120.41,-288 120.41,-324"/>
<text text-anchor="middle" x="93.41" y="-300.95" font-family="Times,serif" font-size="14.00">(</text>
</g>
<!-- n11&#45;&gt;n12 -->
<g id="edge12" class="edge">
<title>n11&#45;&gt;n12</title>
<path fill="none" stroke="black" d="M208,-365.13C186.88,-354.41 155.43,-338.46 130.82,-325.97"/>
<polygon fill="black" stroke="black" points="132.59,-322.95 122.09,-321.54 129.42,-329.19 132.59,-322.95"/>
</g>
<!-- n13 -->
<g id="node14" class="node">
<title>n13</title>
<ellipse fill="none" stroke="black" cx="231.41" cy="-306" rx="92.81" ry="18"/>
<text text-anchor="middle" x="231.41" y="-300.95" font-family="Times,serif" font-size="14.00">arithmetic_expression</text>
</g>
<!-- n11&#45;&gt;n13 -->
<g id="edge13" class="edge">
<title>n11&#45;&gt;n13</title>
<path fill="none" stroke="black" d="M231.41,-359.7C231.41,-352.41 231.41,-343.73 231.41,-335.54"/>
<polygon fill="black" stroke="black" points="234.91,-335.62 231.41,-325.62 227.91,-335.62 234.91,-335.62"/>
</g>
<!-- n26 -->
<g id="node27" class="node">
<title>n26</title>
<polygon fill="none" stroke="black" points="396.41,-324 342.41,-324 342.41,-288 396.41,-288 396.41,-324"/>
<text text-anchor="middle" x="369.41" y="-300.95" font-family="Times,serif" font-size="14.00">)</text>
</g>
<!-- n11&#45;&gt;n26 -->
<g id="edge26" class="edge">
<title>n11&#45;&gt;n26</title>
<path fill="none" stroke="black" d="M254.82,-365.13C275.95,-354.41 307.4,-338.46 332.01,-325.97"/>
<polygon fill="black" stroke="black" points="333.41,-329.19 340.74,-321.54 330.24,-322.95 333.41,-329.19"/>
</g>
<!-- n14 -->
<g id="node15" class="node">
<title>n14</title>
<ellipse fill="none" stroke="black" cx="127.41" cy="-234" rx="28.32" ry="18"/>
<text text-anchor="middle" x="127.41" y="-228.95" font-family="Times,serif" font-size="14.00">term</text>
</g>
<!-- n13&#45;&gt;n14 -->
<g id="edge14" class="edge">
<title>n13&#45;&gt;n14</title>
<path fill="none" stroke="black" d="M206.5,-288.23C191.18,-277.92 171.49,-264.67 155.6,-253.97"/>
<polygon fill="black" stroke="black" points="157.77,-251.21 147.52,-248.53 153.86,-257.02 157.77,-251.21"/>
</g>
<!-- n18 -->
<g id="node19" class="node">
<title>n18</title>
<ellipse fill="none" stroke="black" cx="335.41" cy="-234" rx="109.19" ry="18"/>
<text text-anchor="middle" x="335.41" y="-228.95" font-family="Times,serif" font-size="14.00">arithmetic_expression_tail</text>
</g>
<!-- n13&#45;&gt;n18 -->
<g id="edge18" class="edge">
<title>n13&#45;&gt;n18</title>
<path fill="none" stroke="black" d="M256.33,-288.23C269.73,-279.21 286.48,-267.94 301.1,-258.1"/>
<polygon fill="black" stroke="black" points="302.75,-261.21 309.09,-252.72 298.84,-255.4 302.75,-261.21"/>
</g>
<!-- n15 -->
<g id="node16" class="node">
<title>n15</title>
<ellipse fill="none" stroke="black" cx="32.41" cy="-162" rx="32.41" ry="18"/>
<text text-anchor="middle" x="32.41" y="-156.95" font-family="Times,serif" font-size="14.00">factor</text>
</g>
<!-- n14&#45;&gt;n15 -->
<g id="edge15" class="edge">
<title>n14&#45;&gt;n15</title>
<path fill="none" stroke="black" d="M109.55,-219.83C95.71,-209.64 76.28,-195.32 60.39,-183.61"/>
<polygon fill="black" stroke="black" points="62.85,-181.08 52.73,-177.97 58.7,-186.72 62.85,-181.08"/>
</g>
<!-- n17 -->
<g id="node18" class="node">
<title>n17</title>
<ellipse fill="none" stroke="black" cx="127.41" cy="-162" rx="44.7" ry="18"/>
<text text-anchor="middle" x="127.41" y="-156.95" font-family="Times,serif" font-size="14.00">term_tail</text>
</g>
<!-- n14&#45;&gt;n17 -->
<g id="edge17" class="edge">
<title>n14&#45;&gt;n17</title>
<path fill="none" stroke="black" d="M127.41,-215.7C127.41,-208.41 127.41,-199.73 127.41,-191.54"/>
<polygon fill="black" stroke="black" points="130.91,-191.62 127.41,-181.62 123.91,-191.62 130.91,-191.62"/>
</g>
<!-- n16 -->
<g id="node17" class="node">
<title>n16</title>
<polygon fill="none" stroke="black" points="59.41,-108 5.41,-108 5.41,-72 59.41,-72 59.41,-108"/>
<text text-anchor="middle" x="32.41" y="-84.95" font-family="Times,serif" font-size="14.00">a</text>
</g>
<!-- n15&#45;&gt;n16 -->
<g id="edge16" class="edge">
<title>n15&#45;&gt;n16</title>
<path fill="none" stroke="black" d="M32.41,-143.7C32.41,-136.41 32.41,-127.73 32.41,-119.54"/>
<polygon fill="black" stroke="black" points="35.91,-119.62 32.41,-109.62 28.91,-119.62 35.91,-119.62"/>
</g>
<!-- n19 -->
<g id="node20" class="node">
<title>n19</title>
<ellipse fill="none" stroke="black" cx="266.41" cy="-162" rx="75.92" ry="18"/>
<text text-anchor="middle" x="266.41" y="-156.95" font-family="Times,serif" font-size="14.00">additive_operator</text>
</g>
<!-- n18&#45;&gt;n19 -->
<g id="edge19" class="edge">
<title>n18&#45;&gt;n19</title>
<path fill="none" stroke="black" d="M318.71,-216.05C310.41,-207.63 300.2,-197.28 291.02,-187.97"/>
<polygon fill="black" stroke="black" points="293.54,-185.53 284.03,-180.87 288.55,-190.45 293.54,-185.53"/>
</g>
<!-- n21 -->
<g id="node22" class="node">
<title>n21</title>
<ellipse fill="none" stroke="black" cx="388.41" cy="-162" rx="28.32" ry="18"/>
<text text-anchor="middle" x="388.41" y="-156.95" font-family="Times,serif" font-size="14.00">term</text>
</g>
<!-- n18&#45;&gt;n21 -->
<g id="edge21" class="edge">
<title>n18&#45;&gt;n21</title>
<path fill="none" stroke="black" d="M348.52,-215.7C354.89,-207.28 362.66,-197.02 369.64,-187.79"/>
<polygon fill="black" stroke="black" points="372.39,-189.96 375.64,-179.88 366.81,-185.74 372.39,-189.96"/>
</g>
<!-- n25 -->
<g id="node26" class="node">
<title>n25</title>
<ellipse fill="none" stroke="black" cx="544.41" cy="-162" rx="109.19" ry="18"/>
<text text-anchor="middle" x="544.41" y="-156.95" font-family="Times,serif" font-size="14.00">arithmetic_expression_tail</text>
</g>
<!-- n18&#45;&gt;n25 -->
<g id="edge25" class="edge">
<title>n18&#45;&gt;n25</title>
<path fill="none" stroke="black" d="M382.32,-217.29C413.24,-206.93 453.95,-193.3 486.84,-182.28"/>
<polygon fill="black" stroke="black" points="487.86,-185.63 496.23,-179.14 485.64,-178.99 487.86,-185.63"/>
</g>
<!-- n20 -->
<g id="node21" class="node">
<title>n20</title>
<polygon fill="none" stroke="black" points="293.41,-108 239.41,-108 239.41,-72 293.41,-72 293.41,-108"/>
<text text-anchor="middle" x="266.41" y="-84.95" font-family="Times,serif" font-size="14.00">+</text>
</g>
<!-- n19&#45;&gt;n20 -->
<g id="edge20" class="edge">
<title>n19&#45;&gt;n20</title>
<path fill="none" stroke="black" d="M266.41,-143.7C266.41,-136.41 266.41,-127.73 266.41,-119.54"/>
<polygon fill="black" stroke="black" points="269.91,-119.62 266.41,-109.62 262.91,-119.62 269.91,-119.62"/>
</g>
<!-- n22 -->
<g id="node23" class="node">
<title>n22</title>
<ellipse fill="none" stroke="black" cx="365.41" cy="-90" rx="32.41" ry="18"/>
<text text-anchor="middle" x="365.41" y="-84.95" font-family="Times,serif" font-size="14.00">factor</text>
</g>
<!-- n21&#45;&gt;n22 -->
<g id="edge22" class="edge">
<title>n21&#45;&gt;n22</title>
<path fill="none" stroke="black" d="M382.85,-144.05C380.33,-136.4 377.3,-127.16 374.47,-118.56"/>
<polygon fill="black" stroke="black" points="377.85,-117.63 371.4,-109.23 371.2,-119.82 377.85,-117.63"/>
</g>
<!-- n24 -->
<g id="node25" class="node">
<title>n24</title>
<ellipse fill="none" stroke="black" cx="460.41" cy="-90" rx="44.7" ry="18"/>
<text text-anchor="middle" x="460.41" y="-84.95" font-family="Times,serif" font-size="14.00">term_tail</text>
</g>
<!-- n21&#45;&gt;n24 -->
<g id="edge24" class="edge">
<title>n21&#45;&gt;n24</title>
<path fill="none" stroke="black" d="M403.33,-146.5C412.69,-137.4 424.99,-125.44 435.77,-114.96"/>
<polygon fill="black" stroke="black" points="438.19,-117.49 442.92,-108 433.31,-112.47 438.19,-117.49"/>
</g>
<!-- n23 -->
<g id="node24" class="node">
<title>n23</title>
<polygon fill="none" stroke="black" points="392.41,-36 338.41,-36 338.41,0 392.41,0 392.41,-36"/>
<text text-anchor="middle" x="365.41" y="-12.95" font-family="Times,serif" font-size="14.00">2</text>
</g>
<!-- n22&#45;&gt;n23 -->
<g id="edge23" class="edge">
<title>n22&#45;&gt;n23</title>
<path fill="none" stroke="black" d="M365.41,-71.7C365.41,-64.41 365.41,-55.73 365.41,-47.54"/>
<polygon fill="black" stroke="black" points="368.91,-47.62 365.41,-37.62 361.91,-47.62 368.91,-47.62"/>
</g>
<!-- n30 -->
<g id="node31" class="node">
<title>n30</title>
<ellipse fill="none" stroke="black" cx="636.41" cy="-450" rx="74.38" ry="18"/>
<text text-anchor="middle" x="636.41" y="-444.95" font-family="Times,serif" font-size="14.00">relation_operator</text>
</g>
<!-- n29&#45;&gt;n30 -->
<g id="edge30" class="edge">
<title>n29&#45;&gt;n30</title>
<path fill="none" stroke="black" d="M636.41,-503.7C636.41,-496.41 636.41,-487.73 636.41,-479.54"/>
<polygon fill="black" stroke="black" points="639.91,-479.62 636.41,-469.62 632.91,-479.62 639.91,-479.62"/>
</g>
<!-- n32 -->
<g id="node33" class="node">
<title>n32</title>
<ellipse fill="none" stroke="black" cx="821.41" cy="-450" rx="92.81" ry="18"/>
<text text-anchor="middle" x="821.41" y="-444.95" font-family="Times,serif" font-size="14.00">arithmetic_expression</text>
</g>
<!-- n29&#45;&gt;n32 -->
<g id="edge32" class="edge">
<title>n29&#45;&gt;n32</title>
<path fill="none" stroke="black" d="M673.85,-506.83C701.52,-496.36 739.53,-481.98 770.05,-470.44"/>
<polygon fill="black" stroke="black" points="770.97,-473.83 779.08,-467.02 768.49,-467.28 770.97,-473.83"/>
</g>
<!-- n31 -->
<g id="node32" class="node">
<title>n31</title>
<polygon fill="none" stroke="black" points="663.41,-396 609.41,-396 609.41,-360 663.41,-360 663.41,-396"/>
<text text-anchor="middle" x="636.41" y="-372.95" font-family="Times,serif" font-size="14.00">&gt;=</text>
</g>
<!-- n30&#45;&gt;n31 -->
<g id="edge31" class="edge">
<title>n30&#45;&gt;n31</title>
<path fill="none" stroke="black" d="M636.41,-431.7C636.41,-424.41 636.41,-415.73 636.41,-407.54"/>
<polygon fill="black" stroke="black" points="639.91,-407.62 636.41,-397.62 632.91,-407.62 639.91,-407.62"/>
</g>
<!-- n33 -->
<g id="node34" class="node">
<title>n33</title>
<ellipse fill="none" stroke="black" cx="765.41" cy="-378" rx="28.32" ry="18"/>
<text text-anchor="middle" x="765.41" y="-372.95" font-family="Times,serif" font-size="14.00">term</text>
</g>
<!-- n32&#45;&gt;n33 -->
<g id="edge33" class="edge">
<title>n32&#45;&gt;n33</title>
<path fill="none" stroke="black" d="M807.86,-432.05C800.96,-423.44 792.46,-412.81 784.88,-403.33"/>
<polygon fill="black" stroke="black" points="787.63,-401.16 778.65,-395.54 782.16,-405.53 787.63,-401.16"/>
</g>
<!-- n37 -->
<g id="node38" class="node">
<title>n37</title>
<ellipse fill="none" stroke="black" cx="921.41" cy="-378" rx="109.19" ry="18"/>
<text text-anchor="middle" x="921.41" y="-372.95" font-family="Times,serif" font-size="14.00">arithmetic_expression_tail</text>
</g>
<!-- n32&#45;&gt;n37 -->
<g id="edge37" class="edge">
<title>n32&#45;&gt;n37</title>
<path fill="none" stroke="black" d="M845.37,-432.23C858.14,-423.29 874.05,-412.15 888.02,-402.38"/>
<polygon fill="black" stroke="black" points="889.89,-405.34 896.07,-396.74 885.87,-399.61 889.89,-405.34"/>
</g>
<!-- n34 -->
<g id="node35" class="node">
<title>n34</title>
<ellipse fill="none" stroke="black" cx="717.41" cy="-306" rx="32.41" ry="18"/>
<text text-anchor="middle" x="717.41" y="-300.95" font-family="Times,serif" font-size="14.00">factor</text>
</g>
<!-- n33&#45;&gt;n34 -->
<g id="edge34" class="edge">
<title>n33&#45;&gt;n34</title>
<path fill="none" stroke="black" d="M754.52,-361.12C748.77,-352.73 741.58,-342.24 735.06,-332.73"/>
<polygon fill="black" stroke="black" points="737.99,-330.82 729.45,-324.56 732.22,-334.78 737.99,-330.82"/>
</g>
<!-- n36 -->
<g id="node37" class="node">
<title>n36</title>
<ellipse fill="none" stroke="black" cx="812.41" cy="-306" rx="44.7" ry="18"/>
<text text-anchor="middle" x="812.41" y="-300.95" font-family="Times,serif" font-size="14.00">term_tail</text>
</g>
<!-- n33&#45;&gt;n36 -->
<g id="edge36" class="edge">
<title>n33&#45;&gt;n36</title>
<path fill="none" stroke="black" d="M776.08,-361.12C781.63,-352.85 788.55,-342.54 794.86,-333.14"/>
<polygon fill="black" stroke="black" points="797.62,-335.31 800.29,-325.05 791.81,-331.41 797.62,-335.31"/>
</g>
<!-- n35 -->
<g id="node36" class="node">
<title>n35</title>
<polygon fill="none" stroke="black" points="744.41,-252 690.41,-252 690.41,-216 744.41,-216 744.41,-252"/>
<text text-anchor="middle" x="717.41" y="-228.95" font-family="Times,serif" font-size="14.00">10</text>
</g>
<!-- n34&#45;&gt;n35 -->
<g id="edge35" class="edge">
<title>n34&#45;&gt;n35</title>
<path fill="none" stroke="black" d="M717.41,-287.7C717.41,-280.41 717.41,-271.73 717.41,-263.54"/>
<polygon fill="black" stroke="black" points="720.91,-263.62 717.41,-253.62 713.91,-263.62 720.91,-263.62"/>
</g>
</g>
</svg>
