<?xml version="1.0" encoding="UTF-8" standalone="no"?>
<!DOCTYPE svg PUBLIC "-//W3C//DTD SVG 1.1//EN"
 "http://www.w3.org/Graphics/SVG/1.1/DTD/svg11.dtd">
<!-- Generated by graphviz version 12.2.1 (20241206.2353)
 -->
<!-- Title: AST Pages: 1 -->
<svg width="1196pt" height="1124pt"
 viewBox="0.00 0.00 1196.11 1124.00" xmlns="http://www.w3.org/2000/svg" xmlns:xlink="http://www.w3.org/1999/xlink">
<g id="graph0" class="graph" transform="scale(1 1) rotate(0) translate(4 1120)">
<title>AST</title>
<polygon fill="white" stroke="none" points="-4,4 -4,-1120 1192.11,-1120 1192.11,4 -4,4"/>
<!-- n0 -->
<g id="node1" class="node">
<title>n0</title>
<ellipse fill="none" stroke="black" cx="499.41" cy="-1098" rx="30.37" ry="18"/>
<text text-anchor="middle" x="499.41" y="-1092.95" font-family="Times,serif" font-size="14.00">$root</text>
</g>
<!-- n1 -->
<g id="node2" class="node">
<title>n1</title>
<ellipse fill="none" stroke="black" cx="499.41" cy="-1026" rx="42.65" ry="18"/>
<text text-anchor="middle" x="499.41" y="-1020.95" font-family="Times,serif" font-size="14.00">program</text>
</g>
<!-- n0&#45;&gt;n1 -->
<g id="edge1" class="edge">
<title>n0&#45;&gt;n1</title>
<path fill="none" stroke="black" d="M499.41,-1079.7C499.41,-1072.41 499.41,-1063.73 499.41,-1055.54"/>
<polygon fill="black" stroke="black" points="502.91,-1055.62 499.41,-1045.62 495.91,-1055.62 502.91,-1055.62"/>
</g>
<!-- n2 -->
<g id="node3" class="node">
<title>n2</title>
<ellipse fill="none" stroke="black" cx="499.41" cy="-954" rx="31.39" ry="18"/>
<text text-anchor="middle" x="499.41" y="-948.95" font-family="Times,serif" font-size="14.00">block</text>
</g>
<!-- n1&#45;&gt;n2 -->
<g id="edge2" class="edge">
<title>n1&#45;&gt;n2</title>
<path fill="none" stroke="black" d="M499.41,-1007.7C499.41,-1000.41 499.41,-991.73 499.41,-983.54"/>
<polygon fill="black" stroke="black" points="502.91,-983.62 499.41,-973.62 495.91,-983.62 502.91,-983.62"/>
</g>
<!-- n3 -->
<g id="node4" class="node">
<title>n3</title>
<polygon fill="none" stroke="black" points="424.41,-900 370.41,-900 370.41,-864 424.41,-864 424.41,-900"/>
<text text-anchor="middle" x="397.41" y="-876.95" font-family="Times,serif" font-size="14.00">{</text>
</g>
<!-- n2&#45;&gt;n3 -->
<g id="edge3" class="edge">
<title>n2&#45;&gt;n3</title>
<path fill="none" stroke="black" d="M479.75,-939.5C466.2,-930.2 447.83,-917.6 431.88,-906.65"/>
<polygon fill="black" stroke="black" points="434.3,-904.07 424.07,-901.29 430.34,-909.84 434.3,-904.07"/>
</g>
<!-- n4 -->
<g id="node5" class="node">
<title>n4</title>
<ellipse fill="none" stroke="black" cx="499.41" cy="-882" rx="57.49" ry="18"/>
<text text-anchor="middle" x="499.41" y="-876.95" font-family="Times,serif" font-size="14.00">operator_list</text>
</g>
<!-- n2&#45;&gt;n4 -->
<g id="edge4" class="edge">
<title>n2&#45;&gt;n4</title>
<path fill="none" stroke="black" d="M499.41,-935.7C499.41,-928.41 499.41,-919.73 499.41,-911.54"/>
<polygon fill="black" stroke="black" points="502.91,-911.62 499.41,-901.62 495.91,-911.62 502.91,-911.62"/>
</g>
<!-- n68 -->
<g id="node69" class="node">
<title>n68</title>
<polygon fill="none" stroke="black" points="628.41,-900 574.41,-900 574.41,-864 628.41,-864 628.41,-900"/>
<text text-anchor="middle" x="601.41" y="-876.95" font-family="Times,serif" font-size="14.00">}</text>
</g>
<!-- n2&#45;&gt;n68 -->
<g id="edge68" class="edge">
<title>n2&#45;&gt;n68</title>
<path fill="none" stroke="black" d="M519.08,-939.5C532.63,-930.2 551,-917.6 566.95,-906.65"/>
<polygon fill="black" stroke="black" points="568.49,-909.84 574.76,-901.29 564.53,-904.07 568.49,-909.84"/>
</g>
<!-- n5 -->
<g id="node6" class="node">
<title>n5</title>
<ellipse fill="none" stroke="black" cx="383.41" cy="-810" rx="41.63" ry="18"/>
<text text-anchor="middle" x="383.41" y="-804.95" font-family="Times,serif" font-size="14.00">operator</text>
</g>
<!-- n4&#45;&gt;n5 -->
<g id="edge5" class="edge">
<title>n4&#45;&gt;n5</title>
<path fill="none" stroke="black" d="M473.67,-865.46C456.77,-855.27 434.53,-841.84 416.34,-830.87"/>
<polygon fill="black" stroke="black" points="418.39,-828.02 408.02,-825.85 414.77,-834.01 418.39,-828.02"/>
</g>
<!-- n17 -->
<g id="node18" class="node">
<title>n17</title>
<ellipse fill="none" stroke="black" cx="614.41" cy="-810" rx="57.49" ry="18"/>
<text text-anchor="middle" x="614.41" y="-804.95" font-family="Times,serif" font-size="14.00">operator_list</text>
</g>
<!-- n4&#45;&gt;n17 -->
<g id="edge17" class="edge">
<title>n4&#45;&gt;n17</title>
<path fill="none" stroke="black" d="M524.94,-865.46C541.02,-855.68 561.99,-842.91 579.59,-832.2"/>
<polygon fill="black" stroke="black" points="580.95,-835.47 587.67,-827.28 577.31,-829.49 580.95,-835.47"/>
</g>
<!-- n6 -->
<g id="node7" class="node">
<title>n6</title>
<polygon fill="none" stroke="black" points="243.41,-756 189.41,-756 189.41,-720 243.41,-720 243.41,-756"/>
<text text-anchor="middle" x="216.41" y="-732.95" font-family="Times,serif" font-size="14.00">x</text>
</g>
<!-- n5&#45;&gt;n6 -->
<g id="edge6" class="edge">
<title>n5&#45;&gt;n6</title>
<path fill="none" stroke="black" d="M353.03,-797.27C328.54,-787.7 293.01,-773.53 254.31,-756.72"/>
<polygon fill="black" stroke="black" points="255.81,-753.56 245.25,-752.76 253.01,-759.97 255.81,-753.56"/>
</g>
<!-- n7 -->
<g id="node8" class="node">
<title>n7</title>
<polygon fill="none" stroke="black" points="315.41,-756 261.41,-756 261.41,-720 315.41,-720 315.41,-756"/>
<text text-anchor="middle" x="288.41" y="-732.95" font-family="Times,serif" font-size="14.00">=</text>
</g>
<!-- n5&#45;&gt;n7 -->
<g id="edge7" class="edge">
<title>n5&#45;&gt;n7</title>
<path fill="none" stroke="black" d="M363.27,-794.15C350.94,-785.07 334.87,-773.23 320.79,-762.86"/>
<polygon fill="black" stroke="black" points="323.23,-760.3 313.1,-757.19 319.08,-765.94 323.23,-760.3"/>
</g>
<!-- n8 -->
<g id="node9" class="node">
<title>n8</title>
<ellipse fill="none" stroke="black" cx="383.41" cy="-738" rx="50.33" ry="18"/>
<text text-anchor="middle" x="383.41" y="-732.95" font-family="Times,serif" font-size="14.00">expression</text>
</g>
<!-- n5&#45;&gt;n8 -->
<g id="edge8" class="edge">
<title>n5&#45;&gt;n8</title>
<path fill="none" stroke="black" d="M383.41,-791.7C383.41,-784.41 383.41,-775.73 383.41,-767.54"/>
<polygon fill="black" stroke="black" points="386.91,-767.62 383.41,-757.62 379.91,-767.62 386.91,-767.62"/>
</g>
<!-- n16 -->
<g id="node17" class="node">
<title>n16</title>
<polygon fill="none" stroke="black" points="505.41,-756 451.41,-756 451.41,-720 505.41,-720 505.41,-756"/>
<text text-anchor="middle" x="478.41" y="-732.95" font-family="Times,serif" font-size="14.00">;</text>
</g>
<!-- n5&#45;&gt;n16 -->
<g id="edge16" class="edge">
<title>n5&#45;&gt;n16</title>
<path fill="none" stroke="black" d="M403.56,-794.15C415.89,-785.07 431.96,-773.23 446.04,-762.86"/>
<polygon fill="black" stroke="black" points="447.75,-765.94 453.73,-757.19 443.6,-760.3 447.75,-765.94"/>
</g>
<!-- n9 -->
<g id="node10" class="node">
<title>n9</title>
<ellipse fill="none" stroke="black" cx="205.41" cy="-666" rx="92.81" ry="18"/>
<text text-anchor="middle" x="205.41" y="-660.95" font-family="Times,serif" font-size="14.00">arithmetic_expression</text>
</g>
<!-- n8&#45;&gt;n9 -->
<g id="edge9" class="edge">
<title>n8&#45;&gt;n9</title>
<path fill="none" stroke="black" d="M350.35,-724C323.73,-713.53 285.88,-698.64 255.54,-686.71"/>
<polygon fill="black" stroke="black" points="257.14,-683.58 246.56,-683.18 254.58,-690.1 257.14,-683.58"/>
</g>
<!-- n15 -->
<g id="node16" class="node">
<title>n15</title>
<ellipse fill="none" stroke="black" cx="383.41" cy="-666" rx="66.71" ry="18"/>
<text text-anchor="middle" x="383.41" y="-660.95" font-family="Times,serif" font-size="14.00">expression_tail</text>
</g>
<!-- n8&#45;&gt;n15 -->
<g id="edge15" class="edge">
<title>n8&#45;&gt;n15</title>
<path fill="none" stroke="black" d="M383.41,-719.7C383.41,-712.41 383.41,-703.73 383.41,-695.54"/>
<polygon fill="black" stroke="black" points="386.91,-695.62 383.41,-685.62 379.91,-695.62 386.91,-695.62"/>
</g>
<!-- n10 -->
<g id="node11" class="node">
<title>n10</title>
<ellipse fill="none" stroke="black" cx="79.41" cy="-594" rx="28.32" ry="18"/>
<text text-anchor="middle" x="79.41" y="-588.95" font-family="Times,serif" font-size="14.00">term</text>
</g>
<!-- n9&#45;&gt;n10 -->
<g id="edge10" class="edge">
<title>n9&#45;&gt;n10</title>
<path fill="none" stroke="black" d="M175.87,-648.59C156.05,-637.58 130.01,-623.11 109.98,-611.98"/>
<polygon fill="black" stroke="black" points="111.88,-609.03 101.44,-607.24 108.48,-615.15 111.88,-609.03"/>
</g>
<!-- n14 -->
<g id="node15" class="node">
<title>n14</title>
<ellipse fill="none" stroke="black" cx="235.41" cy="-594" rx="109.19" ry="18"/>
<text text-anchor="middle" x="235.41" y="-588.95" font-family="Times,serif" font-size="14.00">arithmetic_expression_tail</text>
</g>
<!-- n9&#45;&gt;n14 -->
<g id="edge14" class="edge">
<title>n9&#45;&gt;n14</title>
<path fill="none" stroke="black" d="M212.83,-647.7C216.06,-640.15 219.93,-631.12 223.55,-622.68"/>
<polygon fill="black" stroke="black" points="226.77,-624.07 227.49,-613.5 220.33,-621.31 226.77,-624.07"/>
</g>
<!-- n11 -->
<g id="node12" class="node">
<title>n11</title>
<ellipse fill="none" stroke="black" cx="32.41" cy="-522" rx="32.41" ry="18"/>
<text text-anchor="middle" x="32.41" y="-516.95" font-family="Times,serif" font-size="14.00">factor</text>
</g>
<!-- n10&#45;&gt;n11 -->
<g id="edge11" class="edge">
<title>n10&#45;&gt;n11</title>
<path fill="none" stroke="black" d="M68.75,-577.12C63.12,-568.73 56.08,-558.24 49.69,-548.73"/>
<polygon fill="black" stroke="black" points="52.69,-546.91 44.21,-540.56 46.88,-550.82 52.69,-546.91"/>
</g>
<!-- n13 -->
<g id="node14" class="node">
<title>n13</title>
<ellipse fill="none" stroke="black" cx="127.41" cy="-522" rx="44.7" ry="18"/>
<text text-anchor="middle" x="127.41" y="-516.95" font-family="Times,serif" font-size="14.00">term_tail</text>
</g>
<!-- n10&#45;&gt;n13 -->
<g id="edge13" class="edge">
<title>n10&#45;&gt;n13</title>
<path fill="none" stroke="black" d="M90.31,-577.12C95.97,-568.85 103.04,-558.54 109.49,-549.14"/>
<polygon fill="black" stroke="black" points="112.27,-551.27 115.04,-541.05 106.5,-547.31 112.27,-551.27"/>
</g>
<!-- n12 -->
<g id="node13" class="node">
<title>n12</title>
<polygon fill="none" stroke="black" points="59.41,-468 5.41,-468 5.41,-432 59.41,-432 59.41,-468"/>
<text text-anchor="middle" x="32.41" y="-444.95" font-family="Times,serif" font-size="14.00">10</text>
</g>
<!-- n11&#45;&gt;n12 -->
<g id="edge12" class="edge">
<title>n11&#45;&gt;n12</title>
<path fill="none" stroke="black" d="M32.41,-503.7C32.41,-496.41 32.41,-487.73 32.41,-479.54"/>
<polygon fill="black" stroke="black" points="35.91,-479.62 32.41,-469.62 28.91,-479.62 35.91,-479.62"/>
</g>
<!-- n18 -->
<g id="node19" class="node">
<title>n18</title>
<ellipse fill="none" stroke="black" cx="614.41" cy="-738" rx="41.63" ry="18"/>
<text text-anchor="middle" x="614.41" y="-732.95" font-family="Times,serif" font-size="14.00">operator</text>
</g>
<!-- n17&#45;&gt;n18 -->
<g id="edge18" class="edge">
<title>n17&#45;&gt;n18</title>
<path fill="none" stroke="black" d="M614.41,-791.7C614.41,-784.41 614.41,-775.73 614.41,-767.54"/>
<polygon fill="black" stroke="black" points="617.91,-767.62 614.41,-757.62 610.91,-767.62 617.91,-767.62"/>
</g>
<!-- n35 -->
<g id="node36" class="node">
<title>n35</title>
<ellipse fill="none" stroke="black" cx="846.41" cy="-738" rx="57.49" ry="18"/>
<text text-anchor="middle" x="846.41" y="-732.95" font-family="Times,serif" font-size="14.00">operator_list</text>
</g>
<!-- n17&#45;&gt;n35 -->
<g id="edge35" class="edge">
<title>n17&#45;&gt;n35</title>
<path fill="none" stroke="black" d="M654.83,-796.81C693.8,-785.05 752.92,-767.21 795.18,-754.46"/>
<polygon fill="black" stroke="black" points="796.07,-757.85 804.63,-751.61 794.04,-751.15 796.07,-757.85"/>
</g>
<!-- n19 -->
<g id="node20" class="node">
<title>n19</title>
<polygon fill="none" stroke="black" points="522.41,-684 468.41,-684 468.41,-648 522.41,-648 522.41,-684"/>
<text text-anchor="middle" x="495.41" y="-660.95" font-family="Times,serif" font-size="14.00">y</text>
</g>
<!-- n18&#45;&gt;n19 -->
<g id="edge19" class="edge">
<title>n18&#45;&gt;n19</title>
<path fill="none" stroke="black" d="M590.33,-722.83C573.75,-713.08 551.41,-699.94 532.56,-688.85"/>
<polygon fill="black" stroke="black" points="534.49,-685.92 524.09,-683.87 530.94,-691.96 534.49,-685.92"/>
</g>
<!-- n20 -->
<g id="node21" class="node">
<title>n20</title>
<polygon fill="none" stroke="black" points="594.41,-684 540.41,-684 540.41,-648 594.41,-648 594.41,-684"/>
<text text-anchor="middle" x="567.41" y="-660.95" font-family="Times,serif" font-size="14.00">=</text>
</g>
<!-- n18&#45;&gt;n20 -->
<g id="edge20" class="edge">
<title>n18&#45;&gt;n20</title>
<path fill="none" stroke="black" d="M603.28,-720.41C597.93,-712.45 591.4,-702.72 585.38,-693.76"/>
<polygon fill="black" stroke="black" points="588.45,-692.05 579.97,-685.7 582.64,-695.96 588.45,-692.05"/>
</g>
<!-- n21 -->
<g id="node22" class="node">
<title>n21</title>
<ellipse fill="none" stroke="black" cx="662.41" cy="-666" rx="50.33" ry="18"/>
<text text-anchor="middle" x="662.41" y="-660.95" font-family="Times,serif" font-size="14.00">expression</text>
</g>
<!-- n18&#45;&gt;n21 -->
<g id="edge21" class="edge">
<title>n18&#45;&gt;n21</title>
<path fill="none" stroke="black" d="M625.79,-720.41C631.33,-712.34 638.12,-702.43 644.34,-693.35"/>
<polygon fill="black" stroke="black" points="647.16,-695.43 649.93,-685.2 641.39,-691.47 647.16,-695.43"/>
</g>
<!-- n34 -->
<g id="node35" class="node">
<title>n34</title>
<polygon fill="none" stroke="black" points="784.41,-684 730.41,-684 730.41,-648 784.41,-648 784.41,-684"/>
<text text-anchor="middle" x="757.41" y="-660.95" font-family="Times,serif" font-size="14.00">;</text>
</g>
<!-- n18&#45;&gt;n34 -->
<g id="edge34" class="edge">
<title>n18&#45;&gt;n34</title>
<path fill="none" stroke="black" d="M641.31,-723.83C663.54,-712.95 695.35,-697.38 720.05,-685.29"/>
<polygon fill="black" stroke="black" points="721.35,-688.55 728.79,-681.01 718.27,-682.26 721.35,-688.55"/>
</g>
<!-- n22 -->
<g id="node23" class="node">
<title>n22</title>
<ellipse fill="none" stroke="black" cx="484.41" cy="-594" rx="92.81" ry="18"/>
<text text-anchor="middle" x="484.41" y="-588.95" font-family="Times,serif" font-size="14.00">arithmetic_expression</text>
</g>
<!-- n21&#45;&gt;n22 -->
<g id="edge22" class="edge">
<title>n21&#45;&gt;n22</title>
<path fill="none" stroke="black" d="M629.35,-652C602.73,-641.53 564.88,-626.64 534.54,-614.71"/>
<polygon fill="black" stroke="black" points="536.14,-611.58 525.56,-611.18 533.58,-618.1 536.14,-611.58"/>
</g>
<!-- n33 -->
<g id="node34" class="node">
<title>n33</title>
<ellipse fill="none" stroke="black" cx="662.41" cy="-594" rx="66.71" ry="18"/>
<text text-anchor="middle" x="662.41" y="-588.95" font-family="Times,serif" font-size="14.00">expression_tail</text>
</g>
<!-- n21&#45;&gt;n33 -->
<g id="edge33" class="edge">
<title>n21&#45;&gt;n33</title>
<path fill="none" stroke="black" d="M662.41,-647.7C662.41,-640.41 662.41,-631.73 662.41,-623.54"/>
<polygon fill="black" stroke="black" points="665.91,-623.62 662.41,-613.62 658.91,-623.62 665.91,-623.62"/>
</g>
<!-- n23 -->
<g id="node24" class="node">
<title>n23</title>
<ellipse fill="none" stroke="black" cx="337.41" cy="-522" rx="28.32" ry="18"/>
<text text-anchor="middle" x="337.41" y="-516.95" font-family="Times,serif" font-size="14.00">term</text>
</g>
<!-- n22&#45;&gt;n23 -->
<g id="edge23" class="edge">
<title>n22&#45;&gt;n23</title>
<path fill="none" stroke="black" d="M450.69,-576.94C426.43,-565.39 393.9,-549.9 369.93,-538.48"/>
<polygon fill="black" stroke="black" points="371.47,-535.34 360.94,-534.2 368.47,-541.66 371.47,-535.34"/>
</g>
<!-- n32 -->
<g id="node33" class="node">
<title>n32</title>
<ellipse fill="none" stroke="black" cx="493.41" cy="-522" rx="109.19" ry="18"/>
<text text-anchor="middle" x="493.41" y="-516.95" font-family="Times,serif" font-size="14.00">arithmetic_expression_tail</text>
</g>
<!-- n22&#45;&gt;n32 -->
<g id="edge32" class="edge">
<title>n22&#45;&gt;n32</title>
<path fill="none" stroke="black" d="M486.64,-575.7C487.59,-568.32 488.72,-559.52 489.78,-551.25"/>
<polygon fill="black" stroke="black" points="493.22,-551.97 491.02,-541.61 486.28,-551.08 493.22,-551.97"/>
</g>
<!-- n24 -->
<g id="node25" class="node">
<title>n24</title>
<ellipse fill="none" stroke="black" cx="184.41" cy="-450" rx="32.41" ry="18"/>
<text text-anchor="middle" x="184.41" y="-444.95" font-family="Times,serif" font-size="14.00">factor</text>
</g>
<!-- n23&#45;&gt;n24 -->
<g id="edge24" class="edge">
<title>n23&#45;&gt;n24</title>
<path fill="none" stroke="black" d="M314.84,-510.67C289.59,-499.12 248.41,-480.28 219.08,-466.86"/>
<polygon fill="black" stroke="black" points="220.78,-463.79 210.23,-462.81 217.87,-470.16 220.78,-463.79"/>
</g>
<!-- n26 -->
<g id="node27" class="node">
<title>n26</title>
<ellipse fill="none" stroke="black" cx="341.41" cy="-450" rx="44.7" ry="18"/>
<text text-anchor="middle" x="341.41" y="-444.95" font-family="Times,serif" font-size="14.00">term_tail</text>
</g>
<!-- n23&#45;&gt;n26 -->
<g id="edge26" class="edge">
<title>n23&#45;&gt;n26</title>
<path fill="none" stroke="black" d="M338.4,-503.7C338.82,-496.41 339.32,-487.73 339.78,-479.54"/>
<polygon fill="black" stroke="black" points="343.27,-479.8 340.35,-469.62 336.29,-479.4 343.27,-479.8"/>
</g>
<!-- n25 -->
<g id="node26" class="node">
<title>n25</title>
<polygon fill="none" stroke="black" points="128.41,-396 74.41,-396 74.41,-360 128.41,-360 128.41,-396"/>
<text text-anchor="middle" x="101.41" y="-372.95" font-family="Times,serif" font-size="14.00">x</text>
</g>
<!-- n24&#45;&gt;n25 -->
<g id="edge25" class="edge">
<title>n24&#45;&gt;n25</title>
<path fill="none" stroke="black" d="M167.22,-434.5C156.67,-425.6 142.89,-413.98 130.67,-403.67"/>
<polygon fill="black" stroke="black" points="133.17,-401.21 123.27,-397.43 128.66,-406.56 133.17,-401.21"/>
</g>
<!-- n27 -->
<g id="node28" class="node">
<title>n27</title>
<ellipse fill="none" stroke="black" cx="244.41" cy="-378" rx="97.93" ry="18"/>
<text text-anchor="middle" x="244.41" y="-372.95" font-family="Times,serif" font-size="14.00">multiplicative_operator</text>
</g>
<!-- n26&#45;&gt;n27 -->
<g id="edge27" class="edge">
<title>n26&#45;&gt;n27</title>
<path fill="none" stroke="black" d="M320.37,-433.81C307.66,-424.64 291.2,-412.77 276.86,-402.42"/>
<polygon fill="black" stroke="black" points="279.19,-399.78 269.03,-396.76 275.09,-405.45 279.19,-399.78"/>
</g>
<!-- n29 -->
<g id="node30" class="node">
<title>n29</title>
<ellipse fill="none" stroke="black" cx="392.41" cy="-378" rx="32.41" ry="18"/>
<text text-anchor="middle" x="392.41" y="-372.95" font-family="Times,serif" font-size="14.00">factor</text>
</g>
<!-- n26&#45;&gt;n29 -->
<g id="edge29" class="edge">
<title>n26&#45;&gt;n29</title>
<path fill="none" stroke="black" d="M353.5,-432.41C359.62,-424.01 367.19,-413.63 374.01,-404.26"/>
<polygon fill="black" stroke="black" points="376.81,-406.35 379.87,-396.21 371.16,-402.23 376.81,-406.35"/>
</g>
<!-- n31 -->
<g id="node32" class="node">
<title>n31</title>
<ellipse fill="none" stroke="black" cx="487.41" cy="-378" rx="44.7" ry="18"/>
<text text-anchor="middle" x="487.41" y="-372.95" font-family="Times,serif" font-size="14.00">term_tail</text>
</g>
<!-- n26&#45;&gt;n31 -->
<g id="edge31" class="edge">
<title>n26&#45;&gt;n31</title>
<path fill="none" stroke="black" d="M369.22,-435.67C391.95,-424.77 424.32,-409.25 449.44,-397.21"/>
<polygon fill="black" stroke="black" points="450.84,-400.42 458.35,-392.94 447.82,-394.1 450.84,-400.42"/>
</g>
<!-- n28 -->
<g id="node29" class="node">
<title>n28</title>
<polygon fill="none" stroke="black" points="271.41,-324 217.41,-324 217.41,-288 271.41,-288 271.41,-324"/>
<text text-anchor="middle" x="244.41" y="-300.95" font-family="Times,serif" font-size="14.00">*</text>
</g>
<!-- n27&#45;&gt;n28 -->
<g id="edge28" class="edge">
<title>n27&#45;&gt;n28</title>
<path fill="none" stroke="black" d="M244.41,-359.7C244.41,-352.41 244.41,-343.73 244.41,-335.54"/>
<polygon fill="black" stroke="black" points="247.91,-335.62 244.41,-325.62 240.91,-335.62 247.91,-335.62"/>
</g>
<!-- n30 -->
<g id="node31" class="node">
<title>n30</title>
<polygon fill="none" stroke="black" points="419.41,-324 365.41,-324 365.41,-288 419.41,-288 419.41,-324"/>
<text text-anchor="middle" x="392.41" y="-300.95" font-family="Times,serif" font-size="14.00">2</text>
</g>
<!-- n29&#45;&gt;n30 -->
<g id="edge30" class="edge">
<title>n29&#45;&gt;n30</title>
<path fill="none" stroke="black" d="M392.41,-359.7C392.41,-352.41 392.41,-343.73 392.41,-335.54"/>
<polygon fill="black" stroke="black" points="395.91,-335.62 392.41,-325.62 388.91,-335.62 395.91,-335.62"/>
</g>
<!-- n36 -->
<g id="node37" class="node">
<title>n36</title>
<ellipse fill="none" stroke="black" cx="846.41" cy="-666" rx="41.63" ry="18"/>
<text text-anchor="middle" x="846.41" y="-660.95" font-family="Times,serif" font-size="14.00">operator</text>
</g>
<!-- n35&#45;&gt;n36 -->
<g id="edge36" class="edge">
<title>n35&#45;&gt;n36</title>
<path fill="none" stroke="black" d="M846.41,-719.7C846.41,-712.41 846.41,-703.73 846.41,-695.54"/>
<polygon fill="black" stroke="black" points="849.91,-695.62 846.41,-685.62 842.91,-695.62 849.91,-695.62"/>
</g>
<!-- n67 -->
<g id="node68" class="node">
<title>n67</title>
<ellipse fill="none" stroke="black" cx="963.41" cy="-666" rx="57.49" ry="18"/>
<text text-anchor="middle" x="963.41" y="-660.95" font-family="Times,serif" font-size="14.00">operator_list</text>
</g>
<!-- n35&#45;&gt;n67 -->
<g id="edge67" class="edge">
<title>n35&#45;&gt;n67</title>
<path fill="none" stroke="black" d="M872.38,-721.46C888.74,-711.68 910.08,-698.91 927.98,-688.2"/>
<polygon fill="black" stroke="black" points="929.44,-691.41 936.22,-683.27 925.84,-685.4 929.44,-691.41"/>
</g>
<!-- n37 -->
<g id="node38" class="node">
<title>n37</title>
<polygon fill="none" stroke="black" points="801.41,-612 747.41,-612 747.41,-576 801.41,-576 801.41,-612"/>
<text text-anchor="middle" x="774.41" y="-588.95" font-family="Times,serif" font-size="14.00">z</text>
</g>
<!-- n36&#45;&gt;n37 -->
<g id="edge37" class="edge">
<title>n36&#45;&gt;n37</title>
<path fill="none" stroke="black" d="M830.08,-649.12C821.26,-640.54 810.17,-629.77 800.22,-620.09"/>
<polygon fill="black" stroke="black" points="802.9,-617.81 793.29,-613.35 798.02,-622.83 802.9,-617.81"/>
</g>
<!-- n38 -->
<g id="node39" class="node">
<title>n38</title>
<polygon fill="none" stroke="black" points="873.41,-612 819.41,-612 819.41,-576 873.41,-576 873.41,-612"/>
<text text-anchor="middle" x="846.41" y="-588.95" font-family="Times,serif" font-size="14.00">=</text>
</g>
<!-- n36&#45;&gt;n38 -->
<g id="edge38" class="edge">
<title>n36&#45;&gt;n38</title>
<path fill="none" stroke="black" d="M846.41,-647.7C846.41,-640.41 846.41,-631.73 846.41,-623.54"/>
<polygon fill="black" stroke="black" points="849.91,-623.62 846.41,-613.62 842.91,-623.62 849.91,-623.62"/>
</g>
<!-- n39 -->
<g id="node40" class="node">
<title>n39</title>
<ellipse fill="none" stroke="black" cx="941.41" cy="-594" rx="50.33" ry="18"/>
<text text-anchor="middle" x="941.41" y="-588.95" font-family="Times,serif" font-size="14.00">expression</text>
</g>
<!-- n36&#45;&gt;n39 -->
<g id="edge39" class="edge">
<title>n36&#45;&gt;n39</title>
<path fill="none" stroke="black" d="M866.56,-650.15C879.52,-640.61 896.59,-628.03 911.16,-617.29"/>
<polygon fill="black" stroke="black" points="913.12,-620.2 919.09,-611.45 908.96,-614.56 913.12,-620.2"/>
</g>
<!-- n66 -->
<g id="node67" class="node">
<title>n66</title>
<polygon fill="none" stroke="black" points="1063.41,-612 1009.41,-612 1009.41,-576 1063.41,-576 1063.41,-612"/>
<text text-anchor="middle" x="1036.41" y="-588.95" font-family="Times,serif" font-size="14.00">;</text>
</g>
<!-- n36&#45;&gt;n66 -->
<g id="edge66" class="edge">
<title>n36&#45;&gt;n66</title>
<path fill="none" stroke="black" d="M878.4,-654.2C914.5,-641.98 971.06,-622.76 998.6,-612.39"/>
<polygon fill="black" stroke="black" points="999.59,-615.76 1007.63,-608.86 997.04,-609.24 999.59,-615.76"/>
</g>
<!-- n40 -->
<g id="node41" class="node">
<title>n40</title>
<ellipse fill="none" stroke="black" cx="827.41" cy="-522" rx="92.81" ry="18"/>
<text text-anchor="middle" x="827.41" y="-516.95" font-family="Times,serif" font-size="14.00">arithmetic_expression</text>
</g>
<!-- n39&#45;&gt;n40 -->
<g id="edge40" class="edge">
<title>n39&#45;&gt;n40</title>
<path fill="none" stroke="black" d="M916.96,-577.98C901.54,-568.51 881.33,-556.11 864.02,-545.48"/>
<polygon fill="black" stroke="black" points="865.86,-542.5 855.51,-540.25 862.2,-548.47 865.86,-542.5"/>
</g>
<!-- n65 -->
<g id="node66" class="node">
<title>n65</title>
<ellipse fill="none" stroke="black" cx="1005.41" cy="-522" rx="66.71" ry="18"/>
<text text-anchor="middle" x="1005.41" y="-516.95" font-family="Times,serif" font-size="14.00">expression_tail</text>
</g>
<!-- n39&#45;&gt;n65 -->
<g id="edge65" class="edge">
<title>n39&#45;&gt;n65</title>
<path fill="none" stroke="black" d="M956.58,-576.41C964.28,-567.99 973.79,-557.58 982.37,-548.2"/>
<polygon fill="black" stroke="black" points="984.73,-550.82 988.89,-541.07 979.56,-546.09 984.73,-550.82"/>
</g>
<!-- n41 -->
<g id="node42" class="node">
<title>n41</title>
<ellipse fill="none" stroke="black" cx="703.41" cy="-450" rx="28.32" ry="18"/>
<text text-anchor="middle" x="703.41" y="-444.95" font-family="Times,serif" font-size="14.00">term</text>
</g>
<!-- n40&#45;&gt;n41 -->
<g id="edge41" class="edge">
<title>n40&#45;&gt;n41</title>
<path fill="none" stroke="black" d="M798.34,-504.59C779.05,-493.7 753.76,-479.42 734.13,-468.34"/>
<polygon fill="black" stroke="black" points="735.92,-465.33 725.49,-463.46 732.47,-471.42 735.92,-465.33"/>
</g>
<!-- n64 -->
<g id="node65" class="node">
<title>n64</title>
<ellipse fill="none" stroke="black" cx="859.41" cy="-450" rx="109.19" ry="18"/>
<text text-anchor="middle" x="859.41" y="-444.95" font-family="Times,serif" font-size="14.00">arithmetic_expression_tail</text>
</g>
<!-- n40&#45;&gt;n64 -->
<g id="edge64" class="edge">
<title>n40&#45;&gt;n64</title>
<path fill="none" stroke="black" d="M835.32,-503.7C838.81,-496.07 843,-486.92 846.89,-478.4"/>
<polygon fill="black" stroke="black" points="849.99,-480.03 850.97,-469.48 843.63,-477.12 849.99,-480.03"/>
</g>
<!-- n42 -->
<g id="node43" class="node">
<title>n42</title>
<ellipse fill="none" stroke="black" cx="653.41" cy="-378" rx="32.41" ry="18"/>
<text text-anchor="middle" x="653.41" y="-372.95" font-family="Times,serif" font-size="14.00">factor</text>
</g>
<!-- n41&#45;&gt;n42 -->
<g id="edge42" class="edge">
<title>n41&#45;&gt;n42</title>
<path fill="none" stroke="black" d="M692.07,-433.12C685.93,-424.52 678.21,-413.72 671.29,-404.02"/>
<polygon fill="black" stroke="black" points="674.26,-402.16 665.6,-396.05 668.56,-406.22 674.26,-402.16"/>
</g>
<!-- n58 -->
<g id="node59" class="node">
<title>n58</title>
<ellipse fill="none" stroke="black" cx="974.41" cy="-378" rx="44.7" ry="18"/>
<text text-anchor="middle" x="974.41" y="-372.95" font-family="Times,serif" font-size="14.00">term_tail</text>
</g>
<!-- n41&#45;&gt;n58 -->
<g id="edge58" class="edge">
<title>n41&#45;&gt;n58</title>
<path fill="none" stroke="black" d="M725.23,-438.36C730.45,-436.06 736.07,-433.78 741.41,-432 802.31,-411.67 874.72,-396.56 922.47,-387.78"/>
<polygon fill="black" stroke="black" points="923.05,-391.23 932.27,-386 921.81,-384.34 923.05,-391.23"/>
</g>
<!-- n43 -->
<g id="node44" class="node">
<title>n43</title>
<polygon fill="none" stroke="black" points="508.41,-324 454.41,-324 454.41,-288 508.41,-288 508.41,-324"/>
<text text-anchor="middle" x="481.41" y="-300.95" font-family="Times,serif" font-size="14.00">(</text>
</g>
<!-- n42&#45;&gt;n43 -->
<g id="edge43" class="edge">
<title>n42&#45;&gt;n43</title>
<path fill="none" stroke="black" d="M626.87,-367.28C601.39,-357.82 561.66,-342.71 519.35,-324.7"/>
<polygon fill="black" stroke="black" points="520.8,-321.52 510.23,-320.79 518.04,-327.95 520.8,-321.52"/>
</g>
<!-- n44 -->
<g id="node45" class="node">
<title>n44</title>
<ellipse fill="none" stroke="black" cx="619.41" cy="-306" rx="92.81" ry="18"/>
<text text-anchor="middle" x="619.41" y="-300.95" font-family="Times,serif" font-size="14.00">arithmetic_expression</text>
</g>
<!-- n42&#45;&gt;n44 -->
<g id="edge44" class="edge">
<title>n42&#45;&gt;n44</title>
<path fill="none" stroke="black" d="M645.36,-360.41C641.56,-352.59 636.93,-343.06 632.64,-334.23"/>
<polygon fill="black" stroke="black" points="635.83,-332.78 628.31,-325.32 629.53,-335.84 635.83,-332.78"/>
</g>
<!-- n57 -->
<g id="node58" class="node">
<title>n57</title>
<polygon fill="none" stroke="black" points="784.41,-324 730.41,-324 730.41,-288 784.41,-288 784.41,-324"/>
<text text-anchor="middle" x="757.41" y="-300.95" font-family="Times,serif" font-size="14.00">)</text>
</g>
<!-- n42&#45;&gt;n57 -->
<g id="edge57" class="edge">
<title>n42&#45;&gt;n57</title>
<path fill="none" stroke="black" d="M673.47,-363.5C687.28,-354.2 706.01,-341.6 722.27,-330.65"/>
<polygon fill="black" stroke="black" points="723.91,-333.77 730.25,-325.28 720,-327.96 723.91,-333.77"/>
</g>
<!-- n45 -->
<g id="node46" class="node">
<title>n45</title>
<ellipse fill="none" stroke="black" cx="475.41" cy="-234" rx="28.32" ry="18"/>
<text text-anchor="middle" x="475.41" y="-228.95" font-family="Times,serif" font-size="14.00">term</text>
</g>
<!-- n44&#45;&gt;n45 -->
<g id="edge45" class="edge">
<title>n44&#45;&gt;n45</title>
<path fill="none" stroke="black" d="M586.02,-288.76C562.38,-277.28 530.87,-261.96 507.53,-250.61"/>
<polygon fill="black" stroke="black" points="509.33,-247.59 498.8,-246.37 506.27,-253.89 509.33,-247.59"/>
</g>
<!-- n49 -->
<g id="node50" class="node">
<title>n49</title>
<ellipse fill="none" stroke="black" cx="683.41" cy="-234" rx="109.19" ry="18"/>
<text text-anchor="middle" x="683.41" y="-228.95" font-family="Times,serif" font-size="14.00">arithmetic_expression_tail</text>
</g>
<!-- n44&#45;&gt;n49 -->
<g id="edge49" class="edge">
<title>n44&#45;&gt;n49</title>
<path fill="none" stroke="black" d="M634.91,-288.05C642.42,-279.84 651.61,-269.79 659.95,-260.66"/>
<polygon fill="black" stroke="black" points="662.43,-263.13 666.6,-253.39 657.27,-258.41 662.43,-263.13"/>
</g>
<!-- n46 -->
<g id="node47" class="node">
<title>n46</title>
<ellipse fill="none" stroke="black" cx="380.41" cy="-162" rx="32.41" ry="18"/>
<text text-anchor="middle" x="380.41" y="-156.95" font-family="Times,serif" font-size="14.00">factor</text>
</g>
<!-- n45&#45;&gt;n46 -->
<g id="edge46" class="edge">
<title>n45&#45;&gt;n46</title>
<path fill="none" stroke="black" d="M457.55,-219.83C443.71,-209.64 424.28,-195.32 408.39,-183.61"/>
<polygon fill="black" stroke="black" points="410.85,-181.08 400.73,-177.97 406.7,-186.72 410.85,-181.08"/>
</g>
<!-- n48 -->
<g id="node49" class="node">
<title>n48</title>
<ellipse fill="none" stroke="black" cx="475.41" cy="-162" rx="44.7" ry="18"/>
<text text-anchor="middle" x="475.41" y="-156.95" font-family="Times,serif" font-size="14.00">term_tail</text>
</g>
<!-- n45&#45;&gt;n48 -->
<g id="edge48" class="edge">
<title>n45&#45;&gt;n48</title>
<path fill="none" stroke="black" d="M475.41,-215.7C475.41,-208.41 475.41,-199.73 475.41,-191.54"/>
<polygon fill="black" stroke="black" points="478.91,-191.62 475.41,-181.62 471.91,-191.62 478.91,-191.62"/>
</g>
<!-- n47 -->
<g id="node48" class="node">
<title>n47</title>
<polygon fill="none" stroke="black" points="407.41,-108 353.41,-108 353.41,-72 407.41,-72 407.41,-108"/>
<text text-anchor="middle" x="380.41" y="-84.95" font-family="Times,serif" font-size="14.00">y</text>
</g>
<!-- n46&#45;&gt;n47 -->
<g id="edge47" class="edge">
<title>n46&#45;&gt;n47</title>
<path fill="none" stroke="black" d="M380.41,-143.7C380.41,-136.41 380.41,-127.73 380.41,-119.54"/>
<polygon fill="black" stroke="black" points="383.91,-119.62 380.41,-109.62 376.91,-119.62 383.91,-119.62"/>
</g>
<!-- n50 -->
<g id="node51" class="node">
<title>n50</title>
<ellipse fill="none" stroke="black" cx="614.41" cy="-162" rx="75.92" ry="18"/>
<text text-anchor="middle" x="614.41" y="-156.95" font-family="Times,serif" font-size="14.00">additive_operator</text>
</g>
<!-- n49&#45;&gt;n50 -->
<g id="edge50" class="edge">
<title>n49&#45;&gt;n50</title>
<path fill="none" stroke="black" d="M666.71,-216.05C658.41,-207.63 648.2,-197.28 639.02,-187.97"/>
<polygon fill="black" stroke="black" points="641.54,-185.53 632.03,-180.87 636.55,-190.45 641.54,-185.53"/>
</g>
<!-- n52 -->
<g id="node53" class="node">
<title>n52</title>
<ellipse fill="none" stroke="black" cx="736.41" cy="-162" rx="28.32" ry="18"/>
<text text-anchor="middle" x="736.41" y="-156.95" font-family="Times,serif" font-size="14.00">term</text>
</g>
<!-- n49&#45;&gt;n52 -->
<g id="edge52" class="edge">
<title>n49&#45;&gt;n52</title>
<path fill="none" stroke="black" d="M696.52,-215.7C702.89,-207.28 710.66,-197.02 717.64,-187.79"/>
<polygon fill="black" stroke="black" points="720.39,-189.96 723.64,-179.88 714.81,-185.74 720.39,-189.96"/>
</g>
<!-- n56 -->
<g id="node57" class="node">
<title>n56</title>
<ellipse fill="none" stroke="black" cx="892.41" cy="-162" rx="109.19" ry="18"/>
<text text-anchor="middle" x="892.41" y="-156.95" font-family="Times,serif" font-size="14.00">arithmetic_expression_tail</text>
</g>
<!-- n49&#45;&gt;n56 -->
<g id="edge56" class="edge">
<title>n49&#45;&gt;n56</title>
<path fill="none" stroke="black" d="M730.32,-217.29C761.24,-206.93 801.95,-193.3 834.84,-182.28"/>
<polygon fill="black" stroke="black" points="835.86,-185.63 844.23,-179.14 833.64,-178.99 835.86,-185.63"/>
</g>
<!-- n51 -->
<g id="node52" class="node">
<title>n51</title>
<polygon fill="none" stroke="black" points="641.41,-108 587.41,-108 587.41,-72 641.41,-72 641.41,-108"/>
<text text-anchor="middle" x="614.41" y="-84.95" font-family="Times,serif" font-size="14.00">&#45;</text>
</g>
<!-- n50&#45;&gt;n51 -->
<g id="edge51" class="edge">
<title>n50&#45;&gt;n51</title>
<path fill="none" stroke="black" d="M614.41,-143.7C614.41,-136.41 614.41,-127.73 614.41,-119.54"/>
<polygon fill="black" stroke="black" points="617.91,-119.62 614.41,-109.62 610.91,-119.62 617.91,-119.62"/>
</g>
<!-- n53 -->
<g id="node54" class="node">
<title>n53</title>
<ellipse fill="none" stroke="black" cx="713.41" cy="-90" rx="32.41" ry="18"/>
<text text-anchor="middle" x="713.41" y="-84.95" font-family="Times,serif" font-size="14.00">factor</text>
</g>
<!-- n52&#45;&gt;n53 -->
<g id="edge53" class="edge">
<title>n52&#45;&gt;n53</title>
<path fill="none" stroke="black" d="M730.85,-144.05C728.33,-136.4 725.3,-127.16 722.47,-118.56"/>
<polygon fill="black" stroke="black" points="725.85,-117.63 719.4,-109.23 719.2,-119.82 725.85,-117.63"/>
</g>
<!-- n55 -->
<g id="node56" class="node">
<title>n55</title>
<ellipse fill="none" stroke="black" cx="808.41" cy="-90" rx="44.7" ry="18"/>
<text text-anchor="middle" x="808.41" y="-84.95" font-family="Times,serif" font-size="14.00">term_tail</text>
</g>
<!-- n52&#45;&gt;n55 -->
<g id="edge55" class="edge">
<title>n52&#45;&gt;n55</title>
<path fill="none" stroke="black" d="M751.33,-146.5C760.69,-137.4 772.99,-125.44 783.77,-114.96"/>
<polygon fill="black" stroke="black" points="786.19,-117.49 790.92,-108 781.31,-112.47 786.19,-117.49"/>
</g>
<!-- n54 -->
<g id="node55" class="node">
<title>n54</title>
<polygon fill="none" stroke="black" points="740.41,-36 686.41,-36 686.41,0 740.41,0 740.41,-36"/>
<text text-anchor="middle" x="713.41" y="-12.95" font-family="Times,serif" font-size="14.00">x</text>
</g>
<!-- n53&#45;&gt;n54 -->
<g id="edge54" class="edge">
<title>n53&#45;&gt;n54</title>
<path fill="none" stroke="black" d="M713.41,-71.7C713.41,-64.41 713.41,-55.73 713.41,-47.54"/>
<polygon fill="black" stroke="black" points="716.91,-47.62 713.41,-37.62 709.91,-47.62 716.91,-47.62"/>
</g>
<!-- n59 -->
<g id="node60" class="node">
<title>n59</title>
<ellipse fill="none" stroke="black" cx="900.41" cy="-306" rx="97.93" ry="18"/>
<text text-anchor="middle" x="900.41" y="-300.95" font-family="Times,serif" font-size="14.00">multiplicative_operator</text>
</g>
<!-- n58&#45;&gt;n59 -->
<g id="edge59" class="edge">
<title>n58&#45;&gt;n59</title>
<path fill="none" stroke="black" d="M957.62,-361.12C948.49,-352.48 937,-341.61 926.71,-331.88"/>
<polygon fill="black" stroke="black" points="929.2,-329.41 919.53,-325.08 924.39,-334.5 929.2,-329.41"/>
</g>
<!-- n61 -->
<g id="node62" class="node">
<title>n61</title>
<ellipse fill="none" stroke="black" cx="1048.41" cy="-306" rx="32.41" ry="18"/>
<text text-anchor="middle" x="1048.41" y="-300.95" font-family="Times,serif" font-size="14.00">factor</text>
</g>
<!-- n58&#45;&gt;n61 -->
<g id="edge61" class="edge">
<title>n58&#45;&gt;n61</title>
<path fill="none" stroke="black" d="M991.21,-361.12C1001.03,-351.82 1013.6,-339.93 1024.45,-329.67"/>
<polygon fill="black" stroke="black" points="1026.74,-332.32 1031.6,-322.9 1021.93,-327.23 1026.74,-332.32"/>
</g>
<!-- n63 -->
<g id="node64" class="node">
<title>n63</title>
<ellipse fill="none" stroke="black" cx="1143.41" cy="-306" rx="44.7" ry="18"/>
<text text-anchor="middle" x="1143.41" y="-300.95" font-family="Times,serif" font-size="14.00">term_tail</text>
</g>
<!-- n58&#45;&gt;n63 -->
<g id="edge63" class="edge">
<title>n58&#45;&gt;n63</title>
<path fill="none" stroke="black" d="M1004.63,-364.49C1031.86,-353.21 1072.12,-336.53 1102.28,-324.04"/>
<polygon fill="black" stroke="black" points="1103.59,-327.28 1111.49,-320.22 1100.92,-320.81 1103.59,-327.28"/>
</g>
<!-- n60 -->
<g id="node61" class="node">
<title>n60</title>
<polygon fill="none" stroke="black" points="927.41,-252 873.41,-252 873.41,-216 927.41,-216 927.41,-252"/>
<text text-anchor="middle" x="900.41" y="-228.95" font-family="Times,serif" font-size="14.00">/</text>
</g>
<!-- n59&#45;&gt;n60 -->
<g id="edge60" class="edge">
<title>n59&#45;&gt;n60</title>
<path fill="none" stroke="black" d="M900.41,-287.7C900.41,-280.41 900.41,-271.73 900.41,-263.54"/>
<polygon fill="black" stroke="black" points="903.91,-263.62 900.41,-253.62 896.91,-263.62 903.91,-263.62"/>
</g>
<!-- n62 -->
<g id="node63" class="node">
<title>n62</title>
<polygon fill="none" stroke="black" points="1075.41,-252 1021.41,-252 1021.41,-216 1075.41,-216 1075.41,-252"/>
<text text-anchor="middle" x="1048.41" y="-228.95" font-family="Times,serif" font-size="14.00">2</text>
</g>
<!-- n61&#45;&gt;n62 -->
<g id="edge62" class="edge">
<title>n61&#45;&gt;n62</title>
<path fill="none" stroke="black" d="M1048.41,-287.7C1048.41,-280.41 1048.41,-271.73 1048.41,-263.54"/>
<polygon fill="black" stroke="black" points="1051.91,-263.62 1048.41,-253.62 1044.91,-263.62 1051.91,-263.62"/>
</g>
</g>
</svg>
