<?xml version="1.0" encoding="UTF-8" standalone="no"?>
<!DOCTYPE svg PUBLIC "-//W3C//DTD SVG 1.1//EN"
 "http://www.w3.org/Graphics/SVG/1.1/DTD/svg11.dtd">
<!-- Generated by graphviz version 12.2.1 (20241206.2353)
 -->
<!-- Title: AST Pages: 1 -->
<svg width="1523pt" height="1124pt"
 viewBox="0.00 0.00 1522.60 1124.00" xmlns="http://www.w3.org/2000/svg" xmlns:xlink="http://www.w3.org/1999/xlink">
<g id="graph0" class="graph" transform="scale(1 1) rotate(0) translate(4 1120)">
<title>AST</title>
<polygon fill="white" stroke="none" points="-4,4 -4,-1120 1518.6,-1120 1518.6,4 -4,4"/>
<!-- n0 -->
<g id="node1" class="node">
<title>n0</title>
<ellipse fill="none" stroke="black" cx="794.41" cy="-1098" rx="30.37" ry="18"/>
<text text-anchor="middle" x="794.41" y="-1092.95" font-family="Times,serif" font-size="14.00">$root</text>
</g>
<!-- n1 -->
<g id="node2" class="node">
<title>n1</title>
<ellipse fill="none" stroke="black" cx="794.41" cy="-1026" rx="42.65" ry="18"/>
<text text-anchor="middle" x="794.41" y="-1020.95" font-family="Times,serif" font-size="14.00">program</text>
</g>
<!-- n0&#45;&gt;n1 -->
<g id="edge1" class="edge">
<title>n0&#45;&gt;n1</title>
<path fill="none" stroke="black" d="M794.41,-1079.7C794.41,-1072.41 794.41,-1063.73 794.41,-1055.54"/>
<polygon fill="black" stroke="black" points="797.91,-1055.62 794.41,-1045.62 790.91,-1055.62 797.91,-1055.62"/>
</g>
<!-- n2 -->
<g id="node3" class="node">
<title>n2</title>
<ellipse fill="none" stroke="black" cx="794.41" cy="-954" rx="31.39" ry="18"/>
<text text-anchor="middle" x="794.41" y="-948.95" font-family="Times,serif" font-size="14.00">block</text>
</g>
<!-- n1&#45;&gt;n2 -->
<g id="edge2" class="edge">
<title>n1&#45;&gt;n2</title>
<path fill="none" stroke="black" d="M794.41,-1007.7C794.41,-1000.41 794.41,-991.73 794.41,-983.54"/>
<polygon fill="black" stroke="black" points="797.91,-983.62 794.41,-973.62 790.91,-983.62 797.91,-983.62"/>
</g>
<!-- n3 -->
<g id="node4" class="node">
<title>n3</title>
<polygon fill="none" stroke="black" points="719.41,-900 665.41,-900 665.41,-864 719.41,-864 719.41,-900"/>
<text text-anchor="middle" x="692.41" y="-876.95" font-family="Times,serif" font-size="14.00">{</text>
</g>
<!-- n2&#45;&gt;n3 -->
<g id="edge3" class="edge">
<title>n2&#45;&gt;n3</title>
<path fill="none" stroke="black" d="M774.75,-939.5C761.2,-930.2 742.83,-917.6 726.88,-906.65"/>
<polygon fill="black" stroke="black" points="729.3,-904.07 719.07,-901.29 725.34,-909.84 729.3,-904.07"/>
</g>
<!-- n4 -->
<g id="node5" class="node">
<title>n4</title>
<ellipse fill="none" stroke="black" cx="794.41" cy="-882" rx="57.49" ry="18"/>
<text text-anchor="middle" x="794.41" y="-876.95" font-family="Times,serif" font-size="14.00">operator_list</text>
</g>
<!-- n2&#45;&gt;n4 -->
<g id="edge4" class="edge">
<title>n2&#45;&gt;n4</title>
<path fill="none" stroke="black" d="M794.41,-935.7C794.41,-928.41 794.41,-919.73 794.41,-911.54"/>
<polygon fill="black" stroke="black" points="797.91,-911.62 794.41,-901.62 790.91,-911.62 797.91,-911.62"/>
</g>
<!-- n68 -->
<g id="node69" class="node">
<title>n68</title>
<polygon fill="none" stroke="black" points="923.41,-900 869.41,-900 869.41,-864 923.41,-864 923.41,-900"/>
<text text-anchor="middle" x="896.41" y="-876.95" font-family="Times,serif" font-size="14.00">}</text>
</g>
<!-- n2&#45;&gt;n68 -->
<g id="edge68" class="edge">
<title>n2&#45;&gt;n68</title>
<path fill="none" stroke="black" d="M814.08,-939.5C827.63,-930.2 846,-917.6 861.95,-906.65"/>
<polygon fill="black" stroke="black" points="863.49,-909.84 869.76,-901.29 859.53,-904.07 863.49,-909.84"/>
</g>
<!-- n5 -->
<g id="node6" class="node">
<title>n5</title>
<ellipse fill="none" stroke="black" cx="703.41" cy="-810" rx="41.63" ry="18"/>
<text text-anchor="middle" x="703.41" y="-804.95" font-family="Times,serif" font-size="14.00">operator</text>
</g>
<!-- n4&#45;&gt;n5 -->
<g id="edge5" class="edge">
<title>n4&#45;&gt;n5</title>
<path fill="none" stroke="black" d="M773.77,-865.12C761.41,-855.61 745.53,-843.39 731.98,-832.97"/>
<polygon fill="black" stroke="black" points="734.31,-830.35 724.25,-827.02 730.04,-835.9 734.31,-830.35"/>
</g>
<!-- n47 -->
<g id="node48" class="node">
<title>n47</title>
<ellipse fill="none" stroke="black" cx="884.41" cy="-810" rx="57.49" ry="18"/>
<text text-anchor="middle" x="884.41" y="-804.95" font-family="Times,serif" font-size="14.00">operator_list</text>
</g>
<!-- n4&#45;&gt;n47 -->
<g id="edge47" class="edge">
<title>n4&#45;&gt;n47</title>
<path fill="none" stroke="black" d="M815.29,-864.76C826.99,-855.66 841.78,-844.16 854.67,-834.13"/>
<polygon fill="black" stroke="black" points="856.71,-836.98 862.46,-828.08 852.42,-831.45 856.71,-836.98"/>
</g>
<!-- n6 -->
<g id="node7" class="node">
<title>n6</title>
<ellipse fill="none" stroke="black" cx="670.41" cy="-738" rx="31.39" ry="18"/>
<text text-anchor="middle" x="670.41" y="-732.95" font-family="Times,serif" font-size="14.00">block</text>
</g>
<!-- n5&#45;&gt;n6 -->
<g id="edge6" class="edge">
<title>n5&#45;&gt;n6</title>
<path fill="none" stroke="black" d="M695.43,-792.05C691.74,-784.23 687.27,-774.75 683.13,-765.98"/>
<polygon fill="black" stroke="black" points="686.4,-764.71 678.97,-757.16 680.07,-767.7 686.4,-764.71"/>
</g>
<!-- n7 -->
<g id="node8" class="node">
<title>n7</title>
<polygon fill="none" stroke="black" points="563.41,-684 509.41,-684 509.41,-648 563.41,-648 563.41,-684"/>
<text text-anchor="middle" x="536.41" y="-660.95" font-family="Times,serif" font-size="14.00">{</text>
</g>
<!-- n6&#45;&gt;n7 -->
<g id="edge7" class="edge">
<title>n6&#45;&gt;n7</title>
<path fill="none" stroke="black" d="M647.68,-725.13C627.52,-714.59 597.67,-699 573.97,-686.62"/>
<polygon fill="black" stroke="black" points="575.72,-683.59 565.24,-682.06 572.48,-689.79 575.72,-683.59"/>
</g>
<!-- n8 -->
<g id="node9" class="node">
<title>n8</title>
<ellipse fill="none" stroke="black" cx="638.41" cy="-666" rx="57.49" ry="18"/>
<text text-anchor="middle" x="638.41" y="-660.95" font-family="Times,serif" font-size="14.00">operator_list</text>
</g>
<!-- n6&#45;&gt;n8 -->
<g id="edge8" class="edge">
<title>n6&#45;&gt;n8</title>
<path fill="none" stroke="black" d="M662.67,-720.05C659.18,-712.43 654.98,-703.23 651.05,-694.65"/>
<polygon fill="black" stroke="black" points="654.28,-693.29 646.94,-685.65 647.92,-696.2 654.28,-693.29"/>
</g>
<!-- n46 -->
<g id="node47" class="node">
<title>n46</title>
<polygon fill="none" stroke="black" points="767.41,-684 713.41,-684 713.41,-648 767.41,-648 767.41,-684"/>
<text text-anchor="middle" x="740.41" y="-660.95" font-family="Times,serif" font-size="14.00">}</text>
</g>
<!-- n6&#45;&gt;n46 -->
<g id="edge46" class="edge">
<title>n6&#45;&gt;n46</title>
<path fill="none" stroke="black" d="M685.6,-721.81C694.27,-713.14 705.36,-702.05 715.29,-692.12"/>
<polygon fill="black" stroke="black" points="717.62,-694.74 722.22,-685.2 712.67,-689.79 717.62,-694.74"/>
</g>
<!-- n9 -->
<g id="node10" class="node">
<title>n9</title>
<ellipse fill="none" stroke="black" cx="506.41" cy="-594" rx="41.63" ry="18"/>
<text text-anchor="middle" x="506.41" y="-588.95" font-family="Times,serif" font-size="14.00">operator</text>
</g>
<!-- n8&#45;&gt;n9 -->
<g id="edge9" class="edge">
<title>n8&#45;&gt;n9</title>
<path fill="none" stroke="black" d="M610.1,-649.98C590.18,-639.42 563.37,-625.2 542,-613.87"/>
<polygon fill="black" stroke="black" points="543.82,-610.87 533.34,-609.28 540.54,-617.06 543.82,-610.87"/>
</g>
<!-- n27 -->
<g id="node28" class="node">
<title>n27</title>
<ellipse fill="none" stroke="black" cx="638.41" cy="-594" rx="57.49" ry="18"/>
<text text-anchor="middle" x="638.41" y="-588.95" font-family="Times,serif" font-size="14.00">operator_list</text>
</g>
<!-- n8&#45;&gt;n27 -->
<g id="edge27" class="edge">
<title>n8&#45;&gt;n27</title>
<path fill="none" stroke="black" d="M638.41,-647.7C638.41,-640.41 638.41,-631.73 638.41,-623.54"/>
<polygon fill="black" stroke="black" points="641.91,-623.62 638.41,-613.62 634.91,-623.62 641.91,-623.62"/>
</g>
<!-- n10 -->
<g id="node11" class="node">
<title>n10</title>
<ellipse fill="none" stroke="black" cx="431.41" cy="-522" rx="31.39" ry="18"/>
<text text-anchor="middle" x="431.41" y="-516.95" font-family="Times,serif" font-size="14.00">block</text>
</g>
<!-- n9&#45;&gt;n10 -->
<g id="edge10" class="edge">
<title>n9&#45;&gt;n10</title>
<path fill="none" stroke="black" d="M489.4,-577.12C479.44,-567.82 466.7,-555.93 455.7,-545.67"/>
<polygon fill="black" stroke="black" points="458.15,-543.16 448.45,-538.9 453.37,-548.28 458.15,-543.16"/>
</g>
<!-- n11 -->
<g id="node12" class="node">
<title>n11</title>
<polygon fill="none" stroke="black" points="305.41,-468 251.41,-468 251.41,-432 305.41,-432 305.41,-468"/>
<text text-anchor="middle" x="278.41" y="-444.95" font-family="Times,serif" font-size="14.00">{</text>
</g>
<!-- n10&#45;&gt;n11 -->
<g id="edge11" class="edge">
<title>n10&#45;&gt;n11</title>
<path fill="none" stroke="black" d="M407.16,-510.15C385.5,-500.43 352.67,-485.62 316.27,-468.83"/>
<polygon fill="black" stroke="black" points="317.83,-465.69 307.28,-464.67 314.89,-472.05 317.83,-465.69"/>
</g>
<!-- n12 -->
<g id="node13" class="node">
<title>n12</title>
<ellipse fill="none" stroke="black" cx="380.41" cy="-450" rx="57.49" ry="18"/>
<text text-anchor="middle" x="380.41" y="-444.95" font-family="Times,serif" font-size="14.00">operator_list</text>
</g>
<!-- n10&#45;&gt;n12 -->
<g id="edge12" class="edge">
<title>n10&#45;&gt;n12</title>
<path fill="none" stroke="black" d="M419.84,-505.12C413.76,-496.77 406.15,-486.32 399.24,-476.84"/>
<polygon fill="black" stroke="black" points="402.26,-475.04 393.54,-469.02 396.6,-479.16 402.26,-475.04"/>
</g>
<!-- n26 -->
<g id="node27" class="node">
<title>n26</title>
<polygon fill="none" stroke="black" points="509.41,-468 455.41,-468 455.41,-432 509.41,-432 509.41,-468"/>
<text text-anchor="middle" x="482.41" y="-444.95" font-family="Times,serif" font-size="14.00">}</text>
</g>
<!-- n10&#45;&gt;n26 -->
<g id="edge26" class="edge">
<title>n10&#45;&gt;n26</title>
<path fill="none" stroke="black" d="M442.99,-505.12C448.92,-496.97 456.3,-486.84 463.07,-477.55"/>
<polygon fill="black" stroke="black" points="465.86,-479.66 468.92,-469.52 460.21,-475.54 465.86,-479.66"/>
</g>
<!-- n13 -->
<g id="node14" class="node">
<title>n13</title>
<ellipse fill="none" stroke="black" cx="277.41" cy="-378" rx="41.63" ry="18"/>
<text text-anchor="middle" x="277.41" y="-372.95" font-family="Times,serif" font-size="14.00">operator</text>
</g>
<!-- n12&#45;&gt;n13 -->
<g id="edge13" class="edge">
<title>n12&#45;&gt;n13</title>
<path fill="none" stroke="black" d="M357.04,-433.12C342.59,-423.29 323.88,-410.58 308.22,-399.94"/>
<polygon fill="black" stroke="black" points="310.43,-397.2 300.19,-394.48 306.49,-402.99 310.43,-397.2"/>
</g>
<!-- n25 -->
<g id="node26" class="node">
<title>n25</title>
<ellipse fill="none" stroke="black" cx="394.41" cy="-378" rx="57.49" ry="18"/>
<text text-anchor="middle" x="394.41" y="-372.95" font-family="Times,serif" font-size="14.00">operator_list</text>
</g>
<!-- n12&#45;&gt;n25 -->
<g id="edge25" class="edge">
<title>n12&#45;&gt;n25</title>
<path fill="none" stroke="black" d="M383.88,-431.7C385.35,-424.32 387.11,-415.52 388.76,-407.25"/>
<polygon fill="black" stroke="black" points="392.17,-408.08 390.7,-397.59 385.3,-406.71 392.17,-408.08"/>
</g>
<!-- n14 -->
<g id="node15" class="node">
<title>n14</title>
<polygon fill="none" stroke="black" points="211.41,-324 157.41,-324 157.41,-288 211.41,-288 211.41,-324"/>
<text text-anchor="middle" x="184.41" y="-300.95" font-family="Times,serif" font-size="14.00">x</text>
</g>
<!-- n13&#45;&gt;n14 -->
<g id="edge14" class="edge">
<title>n13&#45;&gt;n14</title>
<path fill="none" stroke="black" d="M257.23,-361.81C245.34,-352.86 230.02,-341.33 216.51,-331.16"/>
<polygon fill="black" stroke="black" points="218.81,-328.51 208.71,-325.29 214.6,-334.1 218.81,-328.51"/>
</g>
<!-- n15 -->
<g id="node16" class="node">
<title>n15</title>
<polygon fill="none" stroke="black" points="283.41,-324 229.41,-324 229.41,-288 283.41,-288 283.41,-324"/>
<text text-anchor="middle" x="256.41" y="-300.95" font-family="Times,serif" font-size="14.00">=</text>
</g>
<!-- n13&#45;&gt;n15 -->
<g id="edge15" class="edge">
<title>n13&#45;&gt;n15</title>
<path fill="none" stroke="black" d="M272.22,-359.7C269.99,-352.24 267.31,-343.32 264.8,-334.97"/>
<polygon fill="black" stroke="black" points="268.21,-334.13 261.98,-325.55 261.5,-336.14 268.21,-334.13"/>
</g>
<!-- n16 -->
<g id="node17" class="node">
<title>n16</title>
<ellipse fill="none" stroke="black" cx="351.41" cy="-306" rx="50.33" ry="18"/>
<text text-anchor="middle" x="351.41" y="-300.95" font-family="Times,serif" font-size="14.00">expression</text>
</g>
<!-- n13&#45;&gt;n16 -->
<g id="edge16" class="edge">
<title>n13&#45;&gt;n16</title>
<path fill="none" stroke="black" d="M294.21,-361.12C303.63,-352.2 315.57,-340.91 326.1,-330.94"/>
<polygon fill="black" stroke="black" points="328.22,-333.76 333.08,-324.35 323.41,-328.68 328.22,-333.76"/>
</g>
<!-- n24 -->
<g id="node25" class="node">
<title>n24</title>
<polygon fill="none" stroke="black" points="473.41,-324 419.41,-324 419.41,-288 473.41,-288 473.41,-324"/>
<text text-anchor="middle" x="446.41" y="-300.95" font-family="Times,serif" font-size="14.00">;</text>
</g>
<!-- n13&#45;&gt;n24 -->
<g id="edge24" class="edge">
<title>n13&#45;&gt;n24</title>
<path fill="none" stroke="black" d="M308.01,-365.43C332.94,-355.86 369.25,-341.63 408.63,-324.66"/>
<polygon fill="black" stroke="black" points="409.81,-327.97 417.59,-320.77 407.02,-321.54 409.81,-327.97"/>
</g>
<!-- n17 -->
<g id="node18" class="node">
<title>n17</title>
<ellipse fill="none" stroke="black" cx="200.41" cy="-234" rx="92.81" ry="18"/>
<text text-anchor="middle" x="200.41" y="-228.95" font-family="Times,serif" font-size="14.00">arithmetic_expression</text>
</g>
<!-- n16&#45;&gt;n17 -->
<g id="edge17" class="edge">
<title>n16&#45;&gt;n17</title>
<path fill="none" stroke="black" d="M321.58,-291.17C299.85,-281.09 270.03,-267.27 245.41,-255.86"/>
<polygon fill="black" stroke="black" points="247.13,-252.8 236.59,-251.77 244.19,-259.15 247.13,-252.8"/>
</g>
<!-- n23 -->
<g id="node24" class="node">
<title>n23</title>
<ellipse fill="none" stroke="black" cx="378.41" cy="-234" rx="66.71" ry="18"/>
<text text-anchor="middle" x="378.41" y="-228.95" font-family="Times,serif" font-size="14.00">expression_tail</text>
</g>
<!-- n16&#45;&gt;n23 -->
<g id="edge23" class="edge">
<title>n16&#45;&gt;n23</title>
<path fill="none" stroke="black" d="M358.09,-287.7C361,-280.15 364.48,-271.12 367.74,-262.68"/>
<polygon fill="black" stroke="black" points="370.94,-264.11 371.27,-253.52 364.41,-261.59 370.94,-264.11"/>
</g>
<!-- n18 -->
<g id="node19" class="node">
<title>n18</title>
<ellipse fill="none" stroke="black" cx="79.41" cy="-162" rx="28.32" ry="18"/>
<text text-anchor="middle" x="79.41" y="-156.95" font-family="Times,serif" font-size="14.00">term</text>
</g>
<!-- n17&#45;&gt;n18 -->
<g id="edge18" class="edge">
<title>n17&#45;&gt;n18</title>
<path fill="none" stroke="black" d="M171.74,-216.41C153.11,-205.63 128.84,-191.59 109.87,-180.62"/>
<polygon fill="black" stroke="black" points="111.65,-177.61 101.25,-175.63 108.15,-183.67 111.65,-177.61"/>
</g>
<!-- n22 -->
<g id="node23" class="node">
<title>n22</title>
<ellipse fill="none" stroke="black" cx="235.41" cy="-162" rx="109.19" ry="18"/>
<text text-anchor="middle" x="235.41" y="-156.95" font-family="Times,serif" font-size="14.00">arithmetic_expression_tail</text>
</g>
<!-- n17&#45;&gt;n22 -->
<g id="edge22" class="edge">
<title>n17&#45;&gt;n22</title>
<path fill="none" stroke="black" d="M209.07,-215.7C212.88,-208.07 217.46,-198.92 221.72,-190.4"/>
<polygon fill="black" stroke="black" points="224.84,-191.97 226.19,-181.46 218.58,-188.84 224.84,-191.97"/>
</g>
<!-- n19 -->
<g id="node20" class="node">
<title>n19</title>
<ellipse fill="none" stroke="black" cx="32.41" cy="-90" rx="32.41" ry="18"/>
<text text-anchor="middle" x="32.41" y="-84.95" font-family="Times,serif" font-size="14.00">factor</text>
</g>
<!-- n18&#45;&gt;n19 -->
<g id="edge19" class="edge">
<title>n18&#45;&gt;n19</title>
<path fill="none" stroke="black" d="M68.75,-145.12C63.12,-136.73 56.08,-126.24 49.69,-116.73"/>
<polygon fill="black" stroke="black" points="52.69,-114.91 44.21,-108.56 46.88,-118.82 52.69,-114.91"/>
</g>
<!-- n21 -->
<g id="node22" class="node">
<title>n21</title>
<ellipse fill="none" stroke="black" cx="127.41" cy="-90" rx="44.7" ry="18"/>
<text text-anchor="middle" x="127.41" y="-84.95" font-family="Times,serif" font-size="14.00">term_tail</text>
</g>
<!-- n18&#45;&gt;n21 -->
<g id="edge21" class="edge">
<title>n18&#45;&gt;n21</title>
<path fill="none" stroke="black" d="M90.31,-145.12C95.97,-136.85 103.04,-126.54 109.49,-117.14"/>
<polygon fill="black" stroke="black" points="112.27,-119.27 115.04,-109.05 106.5,-115.31 112.27,-119.27"/>
</g>
<!-- n20 -->
<g id="node21" class="node">
<title>n20</title>
<polygon fill="none" stroke="black" points="59.41,-36 5.41,-36 5.41,0 59.41,0 59.41,-36"/>
<text text-anchor="middle" x="32.41" y="-12.95" font-family="Times,serif" font-size="14.00">5</text>
</g>
<!-- n19&#45;&gt;n20 -->
<g id="edge20" class="edge">
<title>n19&#45;&gt;n20</title>
<path fill="none" stroke="black" d="M32.41,-71.7C32.41,-64.41 32.41,-55.73 32.41,-47.54"/>
<polygon fill="black" stroke="black" points="35.91,-47.62 32.41,-37.62 28.91,-47.62 35.91,-47.62"/>
</g>
<!-- n28 -->
<g id="node29" class="node">
<title>n28</title>
<ellipse fill="none" stroke="black" cx="636.41" cy="-522" rx="41.63" ry="18"/>
<text text-anchor="middle" x="636.41" y="-516.95" font-family="Times,serif" font-size="14.00">operator</text>
</g>
<!-- n27&#45;&gt;n28 -->
<g id="edge28" class="edge">
<title>n27&#45;&gt;n28</title>
<path fill="none" stroke="black" d="M637.92,-575.7C637.71,-568.41 637.46,-559.73 637.23,-551.54"/>
<polygon fill="black" stroke="black" points="640.73,-551.51 636.95,-541.62 633.73,-551.71 640.73,-551.51"/>
</g>
<!-- n45 -->
<g id="node46" class="node">
<title>n45</title>
<ellipse fill="none" stroke="black" cx="753.41" cy="-522" rx="57.49" ry="18"/>
<text text-anchor="middle" x="753.41" y="-516.95" font-family="Times,serif" font-size="14.00">operator_list</text>
</g>
<!-- n27&#45;&gt;n45 -->
<g id="edge45" class="edge">
<title>n27&#45;&gt;n45</title>
<path fill="none" stroke="black" d="M663.94,-577.46C680.02,-567.68 700.99,-554.91 718.59,-544.2"/>
<polygon fill="black" stroke="black" points="719.95,-547.47 726.67,-539.28 716.31,-541.49 719.95,-547.47"/>
</g>
<!-- n29 -->
<g id="node30" class="node">
<title>n29</title>
<polygon fill="none" stroke="black" points="581.41,-468 527.41,-468 527.41,-432 581.41,-432 581.41,-468"/>
<text text-anchor="middle" x="554.41" y="-444.95" font-family="Times,serif" font-size="14.00">y</text>
</g>
<!-- n28&#45;&gt;n29 -->
<g id="edge29" class="edge">
<title>n28&#45;&gt;n29</title>
<path fill="none" stroke="black" d="M618.22,-505.46C607.99,-496.73 594.99,-485.63 583.39,-475.74"/>
<polygon fill="black" stroke="black" points="585.9,-473.27 576.02,-469.44 581.35,-478.6 585.9,-473.27"/>
</g>
<!-- n30 -->
<g id="node31" class="node">
<title>n30</title>
<polygon fill="none" stroke="black" points="653.41,-468 599.41,-468 599.41,-432 653.41,-432 653.41,-468"/>
<text text-anchor="middle" x="626.41" y="-444.95" font-family="Times,serif" font-size="14.00">=</text>
</g>
<!-- n28&#45;&gt;n30 -->
<g id="edge30" class="edge">
<title>n28&#45;&gt;n30</title>
<path fill="none" stroke="black" d="M633.94,-503.7C632.89,-496.32 631.63,-487.52 630.45,-479.25"/>
<polygon fill="black" stroke="black" points="633.95,-479.01 629.07,-469.6 627.02,-480 633.95,-479.01"/>
</g>
<!-- n31 -->
<g id="node32" class="node">
<title>n31</title>
<ellipse fill="none" stroke="black" cx="721.41" cy="-450" rx="50.33" ry="18"/>
<text text-anchor="middle" x="721.41" y="-444.95" font-family="Times,serif" font-size="14.00">expression</text>
</g>
<!-- n28&#45;&gt;n31 -->
<g id="edge31" class="edge">
<title>n28&#45;&gt;n31</title>
<path fill="none" stroke="black" d="M655.28,-505.46C666.46,-496.26 680.83,-484.42 693.32,-474.13"/>
<polygon fill="black" stroke="black" points="695.35,-477 700.85,-467.94 690.9,-471.59 695.35,-477"/>
</g>
<!-- n44 -->
<g id="node45" class="node">
<title>n44</title>
<polygon fill="none" stroke="black" points="843.41,-468 789.41,-468 789.41,-432 843.41,-432 843.41,-468"/>
<text text-anchor="middle" x="816.41" y="-444.95" font-family="Times,serif" font-size="14.00">;</text>
</g>
<!-- n28&#45;&gt;n44 -->
<g id="edge44" class="edge">
<title>n28&#45;&gt;n44</title>
<path fill="none" stroke="black" d="M668.47,-510.12C695.63,-500.7 735.75,-486.32 778.41,-468.68"/>
<polygon fill="black" stroke="black" points="779.74,-471.92 787.61,-464.83 777.04,-465.46 779.74,-471.92"/>
</g>
<!-- n32 -->
<g id="node33" class="node">
<title>n32</title>
<ellipse fill="none" stroke="black" cx="589.41" cy="-378" rx="92.81" ry="18"/>
<text text-anchor="middle" x="589.41" y="-372.95" font-family="Times,serif" font-size="14.00">arithmetic_expression</text>
</g>
<!-- n31&#45;&gt;n32 -->
<g id="edge32" class="edge">
<title>n31&#45;&gt;n32</title>
<path fill="none" stroke="black" d="M694.06,-434.5C675.72,-424.77 651.22,-411.77 630.54,-400.81"/>
<polygon fill="black" stroke="black" points="632.24,-397.75 621.77,-396.16 628.96,-403.93 632.24,-397.75"/>
</g>
<!-- n43 -->
<g id="node44" class="node">
<title>n43</title>
<ellipse fill="none" stroke="black" cx="767.41" cy="-378" rx="66.71" ry="18"/>
<text text-anchor="middle" x="767.41" y="-372.95" font-family="Times,serif" font-size="14.00">expression_tail</text>
</g>
<!-- n31&#45;&gt;n43 -->
<g id="edge43" class="edge">
<title>n31&#45;&gt;n43</title>
<path fill="none" stroke="black" d="M732.55,-432.05C737.8,-424.06 744.2,-414.33 750.07,-405.4"/>
<polygon fill="black" stroke="black" points="752.98,-407.33 755.55,-397.05 747.13,-403.49 752.98,-407.33"/>
</g>
<!-- n33 -->
<g id="node34" class="node">
<title>n33</title>
<ellipse fill="none" stroke="black" cx="554.41" cy="-306" rx="28.32" ry="18"/>
<text text-anchor="middle" x="554.41" y="-300.95" font-family="Times,serif" font-size="14.00">term</text>
</g>
<!-- n32&#45;&gt;n33 -->
<g id="edge33" class="edge">
<title>n32&#45;&gt;n33</title>
<path fill="none" stroke="black" d="M580.76,-359.7C576.85,-351.87 572.13,-342.44 567.78,-333.73"/>
<polygon fill="black" stroke="black" points="571.01,-332.36 563.4,-324.98 564.74,-335.49 571.01,-332.36"/>
</g>
<!-- n42 -->
<g id="node43" class="node">
<title>n42</title>
<ellipse fill="none" stroke="black" cx="710.41" cy="-306" rx="109.19" ry="18"/>
<text text-anchor="middle" x="710.41" y="-300.95" font-family="Times,serif" font-size="14.00">arithmetic_expression_tail</text>
</g>
<!-- n32&#45;&gt;n42 -->
<g id="edge42" class="edge">
<title>n32&#45;&gt;n42</title>
<path fill="none" stroke="black" d="M618.09,-360.41C634.1,-351.15 654.26,-339.49 671.66,-329.42"/>
<polygon fill="black" stroke="black" points="673.31,-332.51 680.22,-324.47 669.81,-326.45 673.31,-332.51"/>
</g>
<!-- n34 -->
<g id="node35" class="node">
<title>n34</title>
<ellipse fill="none" stroke="black" cx="526.41" cy="-234" rx="32.41" ry="18"/>
<text text-anchor="middle" x="526.41" y="-228.95" font-family="Times,serif" font-size="14.00">factor</text>
</g>
<!-- n33&#45;&gt;n34 -->
<g id="edge34" class="edge">
<title>n33&#45;&gt;n34</title>
<path fill="none" stroke="black" d="M547.64,-288.05C544.54,-280.32 540.8,-270.96 537.32,-262.27"/>
<polygon fill="black" stroke="black" points="540.66,-261.18 533.69,-253.19 534.16,-263.78 540.66,-261.18"/>
</g>
<!-- n36 -->
<g id="node37" class="node">
<title>n36</title>
<ellipse fill="none" stroke="black" cx="637.41" cy="-234" rx="44.7" ry="18"/>
<text text-anchor="middle" x="637.41" y="-228.95" font-family="Times,serif" font-size="14.00">term_tail</text>
</g>
<!-- n33&#45;&gt;n36 -->
<g id="edge36" class="edge">
<title>n33&#45;&gt;n36</title>
<path fill="none" stroke="black" d="M570.81,-291.17C582.02,-281.72 597.14,-268.96 610.14,-258"/>
<polygon fill="black" stroke="black" points="612.19,-260.85 617.58,-251.73 607.67,-255.5 612.19,-260.85"/>
</g>
<!-- n35 -->
<g id="node36" class="node">
<title>n35</title>
<polygon fill="none" stroke="black" points="486.41,-180 432.41,-180 432.41,-144 486.41,-144 486.41,-180"/>
<text text-anchor="middle" x="459.41" y="-156.95" font-family="Times,serif" font-size="14.00">x</text>
</g>
<!-- n34&#45;&gt;n35 -->
<g id="edge35" class="edge">
<title>n34&#45;&gt;n35</title>
<path fill="none" stroke="black" d="M511.88,-217.81C503.66,-209.23 493.18,-198.27 483.74,-188.42"/>
<polygon fill="black" stroke="black" points="486.3,-186.02 476.85,-181.22 481.24,-190.86 486.3,-186.02"/>
</g>
<!-- n37 -->
<g id="node38" class="node">
<title>n37</title>
<ellipse fill="none" stroke="black" cx="602.41" cy="-162" rx="97.93" ry="18"/>
<text text-anchor="middle" x="602.41" y="-156.95" font-family="Times,serif" font-size="14.00">multiplicative_operator</text>
</g>
<!-- n36&#45;&gt;n37 -->
<g id="edge37" class="edge">
<title>n36&#45;&gt;n37</title>
<path fill="none" stroke="black" d="M628.94,-216.05C625.09,-208.35 620.43,-199.03 616.1,-190.36"/>
<polygon fill="black" stroke="black" points="619.33,-189.01 611.73,-181.63 613.07,-192.14 619.33,-189.01"/>
</g>
<!-- n39 -->
<g id="node40" class="node">
<title>n39</title>
<ellipse fill="none" stroke="black" cx="750.41" cy="-162" rx="32.41" ry="18"/>
<text text-anchor="middle" x="750.41" y="-156.95" font-family="Times,serif" font-size="14.00">factor</text>
</g>
<!-- n36&#45;&gt;n39 -->
<g id="edge39" class="edge">
<title>n36&#45;&gt;n39</title>
<path fill="none" stroke="black" d="M661.1,-218.33C678.14,-207.77 701.27,-193.44 719.72,-182.01"/>
<polygon fill="black" stroke="black" points="721.48,-185.04 728.13,-176.8 717.79,-179.09 721.48,-185.04"/>
</g>
<!-- n41 -->
<g id="node42" class="node">
<title>n41</title>
<ellipse fill="none" stroke="black" cx="845.41" cy="-162" rx="44.7" ry="18"/>
<text text-anchor="middle" x="845.41" y="-156.95" font-family="Times,serif" font-size="14.00">term_tail</text>
</g>
<!-- n36&#45;&gt;n41 -->
<g id="edge41" class="edge">
<title>n36&#45;&gt;n41</title>
<path fill="none" stroke="black" d="M670.83,-221.75C706.13,-209.87 761.97,-191.08 800.96,-177.96"/>
<polygon fill="black" stroke="black" points="801.94,-181.32 810.3,-174.82 799.71,-174.69 801.94,-181.32"/>
</g>
<!-- n38 -->
<g id="node39" class="node">
<title>n38</title>
<polygon fill="none" stroke="black" points="629.41,-108 575.41,-108 575.41,-72 629.41,-72 629.41,-108"/>
<text text-anchor="middle" x="602.41" y="-84.95" font-family="Times,serif" font-size="14.00">*</text>
</g>
<!-- n37&#45;&gt;n38 -->
<g id="edge38" class="edge">
<title>n37&#45;&gt;n38</title>
<path fill="none" stroke="black" d="M602.41,-143.7C602.41,-136.41 602.41,-127.73 602.41,-119.54"/>
<polygon fill="black" stroke="black" points="605.91,-119.62 602.41,-109.62 598.91,-119.62 605.91,-119.62"/>
</g>
<!-- n40 -->
<g id="node41" class="node">
<title>n40</title>
<polygon fill="none" stroke="black" points="777.41,-108 723.41,-108 723.41,-72 777.41,-72 777.41,-108"/>
<text text-anchor="middle" x="750.41" y="-84.95" font-family="Times,serif" font-size="14.00">2</text>
</g>
<!-- n39&#45;&gt;n40 -->
<g id="edge40" class="edge">
<title>n39&#45;&gt;n40</title>
<path fill="none" stroke="black" d="M750.41,-143.7C750.41,-136.41 750.41,-127.73 750.41,-119.54"/>
<polygon fill="black" stroke="black" points="753.91,-119.62 750.41,-109.62 746.91,-119.62 753.91,-119.62"/>
</g>
<!-- n48 -->
<g id="node49" class="node">
<title>n48</title>
<ellipse fill="none" stroke="black" cx="884.41" cy="-738" rx="41.63" ry="18"/>
<text text-anchor="middle" x="884.41" y="-732.95" font-family="Times,serif" font-size="14.00">operator</text>
</g>
<!-- n47&#45;&gt;n48 -->
<g id="edge48" class="edge">
<title>n47&#45;&gt;n48</title>
<path fill="none" stroke="black" d="M884.41,-791.7C884.41,-784.41 884.41,-775.73 884.41,-767.54"/>
<polygon fill="black" stroke="black" points="887.91,-767.62 884.41,-757.62 880.91,-767.62 887.91,-767.62"/>
</g>
<!-- n67 -->
<g id="node68" class="node">
<title>n67</title>
<ellipse fill="none" stroke="black" cx="1001.41" cy="-738" rx="57.49" ry="18"/>
<text text-anchor="middle" x="1001.41" y="-732.95" font-family="Times,serif" font-size="14.00">operator_list</text>
</g>
<!-- n47&#45;&gt;n67 -->
<g id="edge67" class="edge">
<title>n47&#45;&gt;n67</title>
<path fill="none" stroke="black" d="M910.38,-793.46C926.74,-783.68 948.08,-770.91 965.98,-760.2"/>
<polygon fill="black" stroke="black" points="967.44,-763.41 974.22,-755.27 963.84,-757.4 967.44,-763.41"/>
</g>
<!-- n49 -->
<g id="node50" class="node">
<title>n49</title>
<polygon fill="none" stroke="black" points="839.41,-684 785.41,-684 785.41,-648 839.41,-648 839.41,-684"/>
<text text-anchor="middle" x="812.41" y="-660.95" font-family="Times,serif" font-size="14.00">z</text>
</g>
<!-- n48&#45;&gt;n49 -->
<g id="edge49" class="edge">
<title>n48&#45;&gt;n49</title>
<path fill="none" stroke="black" d="M868.08,-721.12C859.26,-712.54 848.17,-701.77 838.22,-692.09"/>
<polygon fill="black" stroke="black" points="840.9,-689.81 831.29,-685.35 836.02,-694.83 840.9,-689.81"/>
</g>
<!-- n50 -->
<g id="node51" class="node">
<title>n50</title>
<polygon fill="none" stroke="black" points="911.41,-684 857.41,-684 857.41,-648 911.41,-648 911.41,-684"/>
<text text-anchor="middle" x="884.41" y="-660.95" font-family="Times,serif" font-size="14.00">=</text>
</g>
<!-- n48&#45;&gt;n50 -->
<g id="edge50" class="edge">
<title>n48&#45;&gt;n50</title>
<path fill="none" stroke="black" d="M884.41,-719.7C884.41,-712.41 884.41,-703.73 884.41,-695.54"/>
<polygon fill="black" stroke="black" points="887.91,-695.62 884.41,-685.62 880.91,-695.62 887.91,-695.62"/>
</g>
<!-- n51 -->
<g id="node52" class="node">
<title>n51</title>
<ellipse fill="none" stroke="black" cx="979.41" cy="-666" rx="50.33" ry="18"/>
<text text-anchor="middle" x="979.41" y="-660.95" font-family="Times,serif" font-size="14.00">expression</text>
</g>
<!-- n48&#45;&gt;n51 -->
<g id="edge51" class="edge">
<title>n48&#45;&gt;n51</title>
<path fill="none" stroke="black" d="M904.56,-722.15C917.52,-712.61 934.59,-700.03 949.16,-689.29"/>
<polygon fill="black" stroke="black" points="951.12,-692.2 957.09,-683.45 946.96,-686.56 951.12,-692.2"/>
</g>
<!-- n66 -->
<g id="node67" class="node">
<title>n66</title>
<polygon fill="none" stroke="black" points="1101.41,-684 1047.41,-684 1047.41,-648 1101.41,-648 1101.41,-684"/>
<text text-anchor="middle" x="1074.41" y="-660.95" font-family="Times,serif" font-size="14.00">;</text>
</g>
<!-- n48&#45;&gt;n66 -->
<g id="edge66" class="edge">
<title>n48&#45;&gt;n66</title>
<path fill="none" stroke="black" d="M916.4,-726.2C952.5,-713.98 1009.06,-694.76 1036.6,-684.39"/>
<polygon fill="black" stroke="black" points="1037.59,-687.76 1045.63,-680.86 1035.04,-681.24 1037.59,-687.76"/>
</g>
<!-- n52 -->
<g id="node53" class="node">
<title>n52</title>
<ellipse fill="none" stroke="black" cx="979.41" cy="-594" rx="92.81" ry="18"/>
<text text-anchor="middle" x="979.41" y="-588.95" font-family="Times,serif" font-size="14.00">arithmetic_expression</text>
</g>
<!-- n51&#45;&gt;n52 -->
<g id="edge52" class="edge">
<title>n51&#45;&gt;n52</title>
<path fill="none" stroke="black" d="M979.41,-647.7C979.41,-640.41 979.41,-631.73 979.41,-623.54"/>
<polygon fill="black" stroke="black" points="982.91,-623.62 979.41,-613.62 975.91,-623.62 982.91,-623.62"/>
</g>
<!-- n65 -->
<g id="node66" class="node">
<title>n65</title>
<ellipse fill="none" stroke="black" cx="1157.41" cy="-594" rx="66.71" ry="18"/>
<text text-anchor="middle" x="1157.41" y="-588.95" font-family="Times,serif" font-size="14.00">expression_tail</text>
</g>
<!-- n51&#45;&gt;n65 -->
<g id="edge65" class="edge">
<title>n51&#45;&gt;n65</title>
<path fill="none" stroke="black" d="M1012.48,-652C1040,-641.17 1079.52,-625.63 1110.34,-613.51"/>
<polygon fill="black" stroke="black" points="1111.41,-616.85 1119.44,-609.93 1108.85,-610.34 1111.41,-616.85"/>
</g>
<!-- n53 -->
<g id="node54" class="node">
<title>n53</title>
<ellipse fill="none" stroke="black" cx="979.41" cy="-522" rx="28.32" ry="18"/>
<text text-anchor="middle" x="979.41" y="-516.95" font-family="Times,serif" font-size="14.00">term</text>
</g>
<!-- n52&#45;&gt;n53 -->
<g id="edge53" class="edge">
<title>n52&#45;&gt;n53</title>
<path fill="none" stroke="black" d="M979.41,-575.7C979.41,-568.41 979.41,-559.73 979.41,-551.54"/>
<polygon fill="black" stroke="black" points="982.91,-551.62 979.41,-541.62 975.91,-551.62 982.91,-551.62"/>
</g>
<!-- n57 -->
<g id="node58" class="node">
<title>n57</title>
<ellipse fill="none" stroke="black" cx="1136.41" cy="-522" rx="109.19" ry="18"/>
<text text-anchor="middle" x="1136.41" y="-516.95" font-family="Times,serif" font-size="14.00">arithmetic_expression_tail</text>
</g>
<!-- n52&#45;&gt;n57 -->
<g id="edge57" class="edge">
<title>n52&#45;&gt;n57</title>
<path fill="none" stroke="black" d="M1015.43,-576.94C1037.44,-567.13 1065.81,-554.48 1089.55,-543.9"/>
<polygon fill="black" stroke="black" points="1090.66,-547.23 1098.36,-539.97 1087.81,-540.84 1090.66,-547.23"/>
</g>
<!-- n54 -->
<g id="node55" class="node">
<title>n54</title>
<ellipse fill="none" stroke="black" cx="893.41" cy="-450" rx="32.41" ry="18"/>
<text text-anchor="middle" x="893.41" y="-444.95" font-family="Times,serif" font-size="14.00">factor</text>
</g>
<!-- n53&#45;&gt;n54 -->
<g id="edge54" class="edge">
<title>n53&#45;&gt;n54</title>
<path fill="none" stroke="black" d="M962.42,-507.17C950.3,-497.3 933.75,-483.83 919.9,-472.56"/>
<polygon fill="black" stroke="black" points="922.4,-470.08 912.43,-466.48 917.98,-475.51 922.4,-470.08"/>
</g>
<!-- n56 -->
<g id="node57" class="node">
<title>n56</title>
<ellipse fill="none" stroke="black" cx="988.41" cy="-450" rx="44.7" ry="18"/>
<text text-anchor="middle" x="988.41" y="-444.95" font-family="Times,serif" font-size="14.00">term_tail</text>
</g>
<!-- n53&#45;&gt;n56 -->
<g id="edge56" class="edge">
<title>n53&#45;&gt;n56</title>
<path fill="none" stroke="black" d="M981.64,-503.7C982.59,-496.32 983.72,-487.52 984.78,-479.25"/>
<polygon fill="black" stroke="black" points="988.22,-479.97 986.02,-469.61 981.28,-479.08 988.22,-479.97"/>
</g>
<!-- n55 -->
<g id="node56" class="node">
<title>n55</title>
<polygon fill="none" stroke="black" points="920.41,-396 866.41,-396 866.41,-360 920.41,-360 920.41,-396"/>
<text text-anchor="middle" x="893.41" y="-372.95" font-family="Times,serif" font-size="14.00">y</text>
</g>
<!-- n54&#45;&gt;n55 -->
<g id="edge55" class="edge">
<title>n54&#45;&gt;n55</title>
<path fill="none" stroke="black" d="M893.41,-431.7C893.41,-424.41 893.41,-415.73 893.41,-407.54"/>
<polygon fill="black" stroke="black" points="896.91,-407.62 893.41,-397.62 889.91,-407.62 896.91,-407.62"/>
</g>
<!-- n58 -->
<g id="node59" class="node">
<title>n58</title>
<ellipse fill="none" stroke="black" cx="1127.41" cy="-450" rx="75.92" ry="18"/>
<text text-anchor="middle" x="1127.41" y="-444.95" font-family="Times,serif" font-size="14.00">additive_operator</text>
</g>
<!-- n57&#45;&gt;n58 -->
<g id="edge58" class="edge">
<title>n57&#45;&gt;n58</title>
<path fill="none" stroke="black" d="M1134.19,-503.7C1133.24,-496.32 1132.11,-487.52 1131.05,-479.25"/>
<polygon fill="black" stroke="black" points="1134.55,-479.08 1129.81,-469.61 1127.61,-479.97 1134.55,-479.08"/>
</g>
<!-- n60 -->
<g id="node61" class="node">
<title>n60</title>
<ellipse fill="none" stroke="black" cx="1249.41" cy="-450" rx="28.32" ry="18"/>
<text text-anchor="middle" x="1249.41" y="-444.95" font-family="Times,serif" font-size="14.00">term</text>
</g>
<!-- n57&#45;&gt;n60 -->
<g id="edge60" class="edge">
<title>n57&#45;&gt;n60</title>
<path fill="none" stroke="black" d="M1163.48,-504.23C1180.51,-493.68 1202.49,-480.07 1219.96,-469.25"/>
<polygon fill="black" stroke="black" points="1221.7,-472.28 1228.36,-464.04 1218.02,-466.33 1221.7,-472.28"/>
</g>
<!-- n64 -->
<g id="node65" class="node">
<title>n64</title>
<ellipse fill="none" stroke="black" cx="1405.41" cy="-450" rx="109.19" ry="18"/>
<text text-anchor="middle" x="1405.41" y="-444.95" font-family="Times,serif" font-size="14.00">arithmetic_expression_tail</text>
</g>
<!-- n57&#45;&gt;n64 -->
<g id="edge64" class="edge">
<title>n57&#45;&gt;n64</title>
<path fill="none" stroke="black" d="M1193.13,-506.24C1235.34,-495.26 1293.11,-480.22 1337.73,-468.61"/>
<polygon fill="black" stroke="black" points="1338.51,-472.03 1347.31,-466.12 1336.75,-465.25 1338.51,-472.03"/>
</g>
<!-- n59 -->
<g id="node60" class="node">
<title>n59</title>
<polygon fill="none" stroke="black" points="1154.41,-396 1100.41,-396 1100.41,-360 1154.41,-360 1154.41,-396"/>
<text text-anchor="middle" x="1127.41" y="-372.95" font-family="Times,serif" font-size="14.00">+</text>
</g>
<!-- n58&#45;&gt;n59 -->
<g id="edge59" class="edge">
<title>n58&#45;&gt;n59</title>
<path fill="none" stroke="black" d="M1127.41,-431.7C1127.41,-424.41 1127.41,-415.73 1127.41,-407.54"/>
<polygon fill="black" stroke="black" points="1130.91,-407.62 1127.41,-397.62 1123.91,-407.62 1130.91,-407.62"/>
</g>
<!-- n61 -->
<g id="node62" class="node">
<title>n61</title>
<ellipse fill="none" stroke="black" cx="1226.41" cy="-378" rx="32.41" ry="18"/>
<text text-anchor="middle" x="1226.41" y="-372.95" font-family="Times,serif" font-size="14.00">factor</text>
</g>
<!-- n60&#45;&gt;n61 -->
<g id="edge61" class="edge">
<title>n60&#45;&gt;n61</title>
<path fill="none" stroke="black" d="M1243.85,-432.05C1241.33,-424.4 1238.3,-415.16 1235.47,-406.56"/>
<polygon fill="black" stroke="black" points="1238.85,-405.63 1232.4,-397.23 1232.2,-407.82 1238.85,-405.63"/>
</g>
<!-- n63 -->
<g id="node64" class="node">
<title>n63</title>
<ellipse fill="none" stroke="black" cx="1321.41" cy="-378" rx="44.7" ry="18"/>
<text text-anchor="middle" x="1321.41" y="-372.95" font-family="Times,serif" font-size="14.00">term_tail</text>
</g>
<!-- n60&#45;&gt;n63 -->
<g id="edge63" class="edge">
<title>n60&#45;&gt;n63</title>
<path fill="none" stroke="black" d="M1264.33,-434.5C1273.69,-425.4 1285.99,-413.44 1296.77,-402.96"/>
<polygon fill="black" stroke="black" points="1299.19,-405.49 1303.92,-396 1294.31,-400.47 1299.19,-405.49"/>
</g>
<!-- n62 -->
<g id="node63" class="node">
<title>n62</title>
<polygon fill="none" stroke="black" points="1253.41,-324 1199.41,-324 1199.41,-288 1253.41,-288 1253.41,-324"/>
<text text-anchor="middle" x="1226.41" y="-300.95" font-family="Times,serif" font-size="14.00">1</text>
</g>
<!-- n61&#45;&gt;n62 -->
<g id="edge62" class="edge">
<title>n61&#45;&gt;n62</title>
<path fill="none" stroke="black" d="M1226.41,-359.7C1226.41,-352.41 1226.41,-343.73 1226.41,-335.54"/>
<polygon fill="black" stroke="black" points="1229.91,-335.62 1226.41,-325.62 1222.91,-335.62 1229.91,-335.62"/>
</g>
</g>
</svg>
