<?xml version="1.0" encoding="UTF-8" standalone="no"?>
<!DOCTYPE svg PUBLIC "-//W3C//DTD SVG 1.1//EN"
 "http://www.w3.org/Graphics/SVG/1.1/DTD/svg11.dtd">
<!-- Generated by graphviz version 12.2.1 (20241206.2353)
 -->
<!-- Title: AST Pages: 1 -->
<svg width="638pt" height="260pt"
 viewBox="0.00 0.00 638.00 260.00" xmlns="http://www.w3.org/2000/svg" xmlns:xlink="http://www.w3.org/1999/xlink">
<g id="graph0" class="graph" transform="scale(1 1) rotate(0) translate(4 256)">
<title>AST</title>
<polygon fill="white" stroke="none" points="-4,4 -4,-256 634,-256 634,4 -4,4"/>
<!-- n0 -->
<g id="node1" class="node">
<title>n0</title>
<ellipse fill="none" stroke="black" cx="63" cy="-234" rx="27" ry="18"/>
<text text-anchor="middle" x="63" y="-228.95" font-family="Times,serif" font-size="14.00">=</text>
</g>
<!-- n1 -->
<g id="node2" class="node">
<title>n1</title>
<ellipse fill="none" stroke="black" cx="27" cy="-162" rx="27" ry="18"/>
<text text-anchor="middle" x="27" y="-156.95" font-family="Times,serif" font-size="14.00">x</text>
</g>
<!-- n0&#45;&gt;n1 -->
<g id="edge1" class="edge">
<title>n0&#45;&gt;n1</title>
<path fill="none" stroke="black" d="M54.65,-216.76C50.42,-208.55 45.19,-198.37 40.42,-189.09"/>
<polygon fill="black" stroke="black" points="43.68,-187.79 36,-180.49 37.46,-190.99 43.68,-187.79"/>
</g>
<!-- n2 -->
<g id="node3" class="node">
<title>n2</title>
<ellipse fill="none" stroke="black" cx="99" cy="-162" rx="27" ry="18"/>
<text text-anchor="middle" x="99" y="-156.95" font-family="Times,serif" font-size="14.00">5</text>
</g>
<!-- n0&#45;&gt;n2 -->
<g id="edge2" class="edge">
<title>n0&#45;&gt;n2</title>
<path fill="none" stroke="black" d="M71.35,-216.76C75.58,-208.55 80.81,-198.37 85.58,-189.09"/>
<polygon fill="black" stroke="black" points="88.54,-190.99 90,-180.49 82.32,-187.79 88.54,-190.99"/>
</g>
<!-- n3 -->
<g id="node4" class="node">
<title>n3</title>
<ellipse fill="none" stroke="black" cx="207" cy="-234" rx="27" ry="18"/>
<text text-anchor="middle" x="207" y="-228.95" font-family="Times,serif" font-size="14.00">=</text>
</g>
<!-- n4 -->
<g id="node5" class="node">
<title>n4</title>
<ellipse fill="none" stroke="black" cx="171" cy="-162" rx="27" ry="18"/>
<text text-anchor="middle" x="171" y="-156.95" font-family="Times,serif" font-size="14.00">y</text>
</g>
<!-- n3&#45;&gt;n4 -->
<g id="edge3" class="edge">
<title>n3&#45;&gt;n4</title>
<path fill="none" stroke="black" d="M198.65,-216.76C194.42,-208.55 189.19,-198.37 184.42,-189.09"/>
<polygon fill="black" stroke="black" points="187.68,-187.79 180,-180.49 181.46,-190.99 187.68,-187.79"/>
</g>
<!-- n5 -->
<g id="node6" class="node">
<title>n5</title>
<ellipse fill="none" stroke="black" cx="243" cy="-162" rx="27" ry="18"/>
<text text-anchor="middle" x="243" y="-156.95" font-family="Times,serif" font-size="14.00">*</text>
</g>
<!-- n3&#45;&gt;n5 -->
<g id="edge4" class="edge">
<title>n3&#45;&gt;n5</title>
<path fill="none" stroke="black" d="M215.35,-216.76C219.58,-208.55 224.81,-198.37 229.58,-189.09"/>
<polygon fill="black" stroke="black" points="232.54,-190.99 234,-180.49 226.32,-187.79 232.54,-190.99"/>
</g>
<!-- n6 -->
<g id="node7" class="node">
<title>n6</title>
<ellipse fill="none" stroke="black" cx="171" cy="-90" rx="27" ry="18"/>
<text text-anchor="middle" x="171" y="-84.95" font-family="Times,serif" font-size="14.00">x</text>
</g>
<!-- n5&#45;&gt;n6 -->
<g id="edge5" class="edge">
<title>n5&#45;&gt;n6</title>
<path fill="none" stroke="black" d="M228.08,-146.5C218.23,-136.92 205.14,-124.19 193.97,-113.34"/>
<polygon fill="black" stroke="black" points="196.59,-111 186.98,-106.54 191.71,-116.02 196.59,-111"/>
</g>
<!-- n7 -->
<g id="node8" class="node">
<title>n7</title>
<ellipse fill="none" stroke="black" cx="243" cy="-90" rx="27" ry="18"/>
<text text-anchor="middle" x="243" y="-84.95" font-family="Times,serif" font-size="14.00">2</text>
</g>
<!-- n5&#45;&gt;n7 -->
<g id="edge6" class="edge">
<title>n5&#45;&gt;n7</title>
<path fill="none" stroke="black" d="M243,-143.7C243,-136.41 243,-127.73 243,-119.54"/>
<polygon fill="black" stroke="black" points="246.5,-119.62 243,-109.62 239.5,-119.62 246.5,-119.62"/>
</g>
<!-- n8 -->
<g id="node9" class="node">
<title>n8</title>
<ellipse fill="none" stroke="black" cx="351" cy="-234" rx="27" ry="18"/>
<text text-anchor="middle" x="351" y="-228.95" font-family="Times,serif" font-size="14.00">=</text>
</g>
<!-- n9 -->
<g id="node10" class="node">
<title>n9</title>
<ellipse fill="none" stroke="black" cx="315" cy="-162" rx="27" ry="18"/>
<text text-anchor="middle" x="315" y="-156.95" font-family="Times,serif" font-size="14.00">flag</text>
</g>
<!-- n8&#45;&gt;n9 -->
<g id="edge7" class="edge">
<title>n8&#45;&gt;n9</title>
<path fill="none" stroke="black" d="M342.65,-216.76C338.42,-208.55 333.19,-198.37 328.42,-189.09"/>
<polygon fill="black" stroke="black" points="331.68,-187.79 324,-180.49 325.46,-190.99 331.68,-187.79"/>
</g>
<!-- n10 -->
<g id="node11" class="node">
<title>n10</title>
<ellipse fill="none" stroke="black" cx="387" cy="-162" rx="27" ry="18"/>
<text text-anchor="middle" x="387" y="-156.95" font-family="Times,serif" font-size="14.00">&gt;=</text>
</g>
<!-- n8&#45;&gt;n10 -->
<g id="edge8" class="edge">
<title>n8&#45;&gt;n10</title>
<path fill="none" stroke="black" d="M359.35,-216.76C363.58,-208.55 368.81,-198.37 373.58,-189.09"/>
<polygon fill="black" stroke="black" points="376.54,-190.99 378,-180.49 370.32,-187.79 376.54,-190.99"/>
</g>
<!-- n11 -->
<g id="node12" class="node">
<title>n11</title>
<ellipse fill="none" stroke="black" cx="315" cy="-90" rx="27" ry="18"/>
<text text-anchor="middle" x="315" y="-84.95" font-family="Times,serif" font-size="14.00">+</text>
</g>
<!-- n10&#45;&gt;n11 -->
<g id="edge9" class="edge">
<title>n10&#45;&gt;n11</title>
<path fill="none" stroke="black" d="M372.08,-146.5C362.23,-136.92 349.14,-124.19 337.97,-113.34"/>
<polygon fill="black" stroke="black" points="340.59,-111 330.98,-106.54 335.71,-116.02 340.59,-111"/>
</g>
<!-- n14 -->
<g id="node15" class="node">
<title>n14</title>
<ellipse fill="none" stroke="black" cx="387" cy="-90" rx="27" ry="18"/>
<text text-anchor="middle" x="387" y="-84.95" font-family="Times,serif" font-size="14.00">/</text>
</g>
<!-- n10&#45;&gt;n14 -->
<g id="edge12" class="edge">
<title>n10&#45;&gt;n14</title>
<path fill="none" stroke="black" d="M387,-143.7C387,-136.41 387,-127.73 387,-119.54"/>
<polygon fill="black" stroke="black" points="390.5,-119.62 387,-109.62 383.5,-119.62 390.5,-119.62"/>
</g>
<!-- n12 -->
<g id="node13" class="node">
<title>n12</title>
<ellipse fill="none" stroke="black" cx="243" cy="-18" rx="27" ry="18"/>
<text text-anchor="middle" x="243" y="-12.95" font-family="Times,serif" font-size="14.00">y</text>
</g>
<!-- n11&#45;&gt;n12 -->
<g id="edge10" class="edge">
<title>n11&#45;&gt;n12</title>
<path fill="none" stroke="black" d="M300.08,-74.5C290.23,-64.92 277.14,-52.19 265.97,-41.34"/>
<polygon fill="black" stroke="black" points="268.59,-39 258.98,-34.54 263.71,-44.02 268.59,-39"/>
</g>
<!-- n13 -->
<g id="node14" class="node">
<title>n13</title>
<ellipse fill="none" stroke="black" cx="315" cy="-18" rx="27" ry="18"/>
<text text-anchor="middle" x="315" y="-12.95" font-family="Times,serif" font-size="14.00">2</text>
</g>
<!-- n11&#45;&gt;n13 -->
<g id="edge11" class="edge">
<title>n11&#45;&gt;n13</title>
<path fill="none" stroke="black" d="M315,-71.7C315,-64.41 315,-55.73 315,-47.54"/>
<polygon fill="black" stroke="black" points="318.5,-47.62 315,-37.62 311.5,-47.62 318.5,-47.62"/>
</g>
<!-- n15 -->
<g id="node16" class="node">
<title>n15</title>
<ellipse fill="none" stroke="black" cx="387" cy="-18" rx="27" ry="18"/>
<text text-anchor="middle" x="387" y="-12.95" font-family="Times,serif" font-size="14.00">10</text>
</g>
<!-- n14&#45;&gt;n15 -->
<g id="edge13" class="edge">
<title>n14&#45;&gt;n15</title>
<path fill="none" stroke="black" d="M387,-71.7C387,-64.41 387,-55.73 387,-47.54"/>
<polygon fill="black" stroke="black" points="390.5,-47.62 387,-37.62 383.5,-47.62 390.5,-47.62"/>
</g>
<!-- n16 -->
<g id="node17" class="node">
<title>n16</title>
<ellipse fill="none" stroke="black" cx="459" cy="-18" rx="27" ry="18"/>
<text text-anchor="middle" x="459" y="-12.95" font-family="Times,serif" font-size="14.00">x</text>
</g>
<!-- n14&#45;&gt;n16 -->
<g id="edge14" class="edge">
<title>n14&#45;&gt;n16</title>
<path fill="none" stroke="black" d="M401.92,-74.5C411.77,-64.92 424.86,-52.19 436.03,-41.34"/>
<polygon fill="black" stroke="black" points="438.29,-44.02 443.02,-34.54 433.41,-39 438.29,-44.02"/>
</g>
<!-- n17 -->
<g id="node18" class="node">
<title>n17</title>
<ellipse fill="none" stroke="black" cx="531" cy="-234" rx="27" ry="18"/>
<text text-anchor="middle" x="531" y="-228.95" font-family="Times,serif" font-size="14.00">=</text>
</g>
<!-- n18 -->
<g id="node19" class="node">
<title>n18</title>
<ellipse fill="none" stroke="black" cx="495" cy="-162" rx="27" ry="18"/>
<text text-anchor="middle" x="495" y="-156.95" font-family="Times,serif" font-size="14.00">z</text>
</g>
<!-- n17&#45;&gt;n18 -->
<g id="edge15" class="edge">
<title>n17&#45;&gt;n18</title>
<path fill="none" stroke="black" d="M522.65,-216.76C518.42,-208.55 513.19,-198.37 508.42,-189.09"/>
<polygon fill="black" stroke="black" points="511.68,-187.79 504,-180.49 505.46,-190.99 511.68,-187.79"/>
</g>
<!-- n19 -->
<g id="node20" class="node">
<title>n19</title>
<ellipse fill="none" stroke="black" cx="567" cy="-162" rx="27" ry="18"/>
<text text-anchor="middle" x="567" y="-156.95" font-family="Times,serif" font-size="14.00">/</text>
</g>
<!-- n17&#45;&gt;n19 -->
<g id="edge16" class="edge">
<title>n17&#45;&gt;n19</title>
<path fill="none" stroke="black" d="M539.35,-216.76C543.58,-208.55 548.81,-198.37 553.58,-189.09"/>
<polygon fill="black" stroke="black" points="556.54,-190.99 558,-180.49 550.32,-187.79 556.54,-190.99"/>
</g>
<!-- n20 -->
<g id="node21" class="node">
<title>n20</title>
<ellipse fill="none" stroke="black" cx="531" cy="-90" rx="27" ry="18"/>
<text text-anchor="middle" x="531" y="-84.95" font-family="Times,serif" font-size="14.00">&#45;</text>
</g>
<!-- n19&#45;&gt;n20 -->
<g id="edge17" class="edge">
<title>n19&#45;&gt;n20</title>
<path fill="none" stroke="black" d="M558.65,-144.76C554.42,-136.55 549.19,-126.37 544.42,-117.09"/>
<polygon fill="black" stroke="black" points="547.68,-115.79 540,-108.49 541.46,-118.99 547.68,-115.79"/>
</g>
<!-- n23 -->
<g id="node24" class="node">
<title>n23</title>
<ellipse fill="none" stroke="black" cx="603" cy="-90" rx="27" ry="18"/>
<text text-anchor="middle" x="603" y="-84.95" font-family="Times,serif" font-size="14.00">2</text>
</g>
<!-- n19&#45;&gt;n23 -->
<g id="edge20" class="edge">
<title>n19&#45;&gt;n23</title>
<path fill="none" stroke="black" d="M575.35,-144.76C579.58,-136.55 584.81,-126.37 589.58,-117.09"/>
<polygon fill="black" stroke="black" points="592.54,-118.99 594,-108.49 586.32,-115.79 592.54,-118.99"/>
</g>
<!-- n21 -->
<g id="node22" class="node">
<title>n21</title>
<ellipse fill="none" stroke="black" cx="531" cy="-18" rx="27" ry="18"/>
<text text-anchor="middle" x="531" y="-12.95" font-family="Times,serif" font-size="14.00">y</text>
</g>
<!-- n20&#45;&gt;n21 -->
<g id="edge18" class="edge">
<title>n20&#45;&gt;n21</title>
<path fill="none" stroke="black" d="M531,-71.7C531,-64.41 531,-55.73 531,-47.54"/>
<polygon fill="black" stroke="black" points="534.5,-47.62 531,-37.62 527.5,-47.62 534.5,-47.62"/>
</g>
<!-- n22 -->
<g id="node23" class="node">
<title>n22</title>
<ellipse fill="none" stroke="black" cx="603" cy="-18" rx="27" ry="18"/>
<text text-anchor="middle" x="603" y="-12.95" font-family="Times,serif" font-size="14.00">x</text>
</g>
<!-- n20&#45;&gt;n22 -->
<g id="edge19" class="edge">
<title>n20&#45;&gt;n22</title>
<path fill="none" stroke="black" d="M545.92,-74.5C555.77,-64.92 568.86,-52.19 580.03,-41.34"/>
<polygon fill="black" stroke="black" points="582.29,-44.02 587.02,-34.54 577.41,-39 582.29,-44.02"/>
</g>
</g>
</svg>
