<?xml version="1.0" encoding="UTF-8" standalone="no"?>
<!DOCTYPE svg PUBLIC "-//W3C//DTD SVG 1.1//EN"
 "http://www.w3.org/Graphics/SVG/1.1/DTD/svg11.dtd">
<!-- Generated by graphviz version 12.2.1 (20241206.2353)
 -->
<!-- Pages: 1 -->
<svg width="499pt" height="764pt"
 viewBox="0.00 0.00 499.00 764.00" xmlns="http://www.w3.org/2000/svg" xmlns:xlink="http://www.w3.org/1999/xlink">
<g id="graph0" class="graph" transform="scale(1 1) rotate(0) translate(4 760)">
<polygon fill="white" stroke="none" points="-4,4 -4,-760 495,-760 495,4 -4,4"/>
<!-- n0 -->
<g id="node1" class="node">
<title>n0</title>
<polygon fill="none" stroke="black" points="134,-756 80,-756 80,-720 134,-720 134,-756"/>
<text text-anchor="middle" x="107" y="-734.5" font-family="Arial" font-size="10.00">program</text>
</g>
<!-- n1 -->
<g id="node2" class="node">
<title>n1</title>
<polygon fill="none" stroke="black" points="134,-684 80,-684 80,-648 134,-648 134,-684"/>
<text text-anchor="middle" x="107" y="-662.5" font-family="Arial" font-size="10.00">block</text>
</g>
<!-- n0&#45;&gt;n1 -->
<g id="edge1" class="edge">
<title>n0&#45;&gt;n1</title>
<path fill="none" stroke="black" d="M107,-719.7C107,-712.41 107,-703.73 107,-695.54"/>
<polygon fill="black" stroke="black" points="110.5,-695.62 107,-685.62 103.5,-695.62 110.5,-695.62"/>
</g>
<!-- n2 -->
<g id="node3" class="node">
<title>n2</title>
<polygon fill="none" stroke="black" points="54,-612 0,-612 0,-576 54,-576 54,-612"/>
<text text-anchor="middle" x="27" y="-590.5" font-family="Arial" font-size="10.00">{</text>
</g>
<!-- n1&#45;&gt;n2 -->
<g id="edge2" class="edge">
<title>n1&#45;&gt;n2</title>
<path fill="none" stroke="black" d="M87.22,-647.7C77.61,-639.28 65.88,-629.02 55.33,-619.79"/>
<polygon fill="black" stroke="black" points="57.79,-617.29 47.96,-613.34 53.19,-622.56 57.79,-617.29"/>
</g>
<!-- n3 -->
<g id="node4" class="node">
<title>n3</title>
<polygon fill="none" stroke="black" points="141.62,-612 72.38,-612 72.38,-576 141.62,-576 141.62,-612"/>
<text text-anchor="middle" x="107" y="-590.5" font-family="Arial" font-size="10.00">operator_list</text>
</g>
<!-- n1&#45;&gt;n3 -->
<g id="edge3" class="edge">
<title>n1&#45;&gt;n3</title>
<path fill="none" stroke="black" d="M107,-647.7C107,-640.41 107,-631.73 107,-623.54"/>
<polygon fill="black" stroke="black" points="110.5,-623.62 107,-613.62 103.5,-623.62 110.5,-623.62"/>
</g>
<!-- n24 -->
<g id="node25" class="node">
<title>n24</title>
<polygon fill="none" stroke="black" points="214,-612 160,-612 160,-576 214,-576 214,-612"/>
<text text-anchor="middle" x="187" y="-590.5" font-family="Arial" font-size="10.00">}</text>
</g>
<!-- n1&#45;&gt;n24 -->
<g id="edge24" class="edge">
<title>n1&#45;&gt;n24</title>
<path fill="none" stroke="black" d="M126.78,-647.7C136.39,-639.28 148.12,-629.02 158.67,-619.79"/>
<polygon fill="black" stroke="black" points="160.81,-622.56 166.04,-613.34 156.21,-617.29 160.81,-622.56"/>
</g>
<!-- n4 -->
<g id="node5" class="node">
<title>n4</title>
<polygon fill="none" stroke="black" points="134,-540 80,-540 80,-504 134,-504 134,-540"/>
<text text-anchor="middle" x="107" y="-518.5" font-family="Arial" font-size="10.00">operator</text>
</g>
<!-- n3&#45;&gt;n4 -->
<g id="edge4" class="edge">
<title>n3&#45;&gt;n4</title>
<path fill="none" stroke="black" d="M107,-575.7C107,-568.41 107,-559.73 107,-551.54"/>
<polygon fill="black" stroke="black" points="110.5,-551.62 107,-541.62 103.5,-551.62 110.5,-551.62"/>
</g>
<!-- n5 -->
<g id="node6" class="node">
<title>n5</title>
<polygon fill="none" stroke="black" points="62,-468 8,-468 8,-432 62,-432 62,-468"/>
<text text-anchor="middle" x="35" y="-446.5" font-family="Arial" font-size="10.00">result</text>
</g>
<!-- n4&#45;&gt;n5 -->
<g id="edge5" class="edge">
<title>n4&#45;&gt;n5</title>
<path fill="none" stroke="black" d="M89.2,-503.7C80.72,-495.45 70.41,-485.43 61.07,-476.35"/>
<polygon fill="black" stroke="black" points="63.54,-473.86 53.93,-469.4 58.66,-478.88 63.54,-473.86"/>
</g>
<!-- n6 -->
<g id="node7" class="node">
<title>n6</title>
<polygon fill="none" stroke="black" points="134,-468 80,-468 80,-432 134,-432 134,-468"/>
<text text-anchor="middle" x="107" y="-446.5" font-family="Arial" font-size="10.00">=</text>
</g>
<!-- n4&#45;&gt;n6 -->
<g id="edge6" class="edge">
<title>n4&#45;&gt;n6</title>
<path fill="none" stroke="black" d="M107,-503.7C107,-496.41 107,-487.73 107,-479.54"/>
<polygon fill="black" stroke="black" points="110.5,-479.62 107,-469.62 103.5,-479.62 110.5,-479.62"/>
</g>
<!-- n7 -->
<g id="node8" class="node">
<title>n7</title>
<polygon fill="none" stroke="black" points="215.62,-468 152.38,-468 152.38,-432 215.62,-432 215.62,-468"/>
<text text-anchor="middle" x="184" y="-446.5" font-family="Arial" font-size="10.00">expression</text>
</g>
<!-- n4&#45;&gt;n7 -->
<g id="edge7" class="edge">
<title>n4&#45;&gt;n7</title>
<path fill="none" stroke="black" d="M126.03,-503.7C135.2,-495.37 146.35,-485.22 156.43,-476.07"/>
<polygon fill="black" stroke="black" points="158.75,-478.68 163.8,-469.37 154.04,-473.5 158.75,-478.68"/>
</g>
<!-- n8 -->
<g id="node9" class="node">
<title>n8</title>
<polygon fill="none" stroke="black" points="239.62,-396 128.38,-396 128.38,-360 239.62,-360 239.62,-396"/>
<text text-anchor="middle" x="184" y="-374.5" font-family="Arial" font-size="10.00">arithmetic_expression</text>
</g>
<!-- n7&#45;&gt;n8 -->
<g id="edge8" class="edge">
<title>n7&#45;&gt;n8</title>
<path fill="none" stroke="black" d="M184,-431.7C184,-424.41 184,-415.73 184,-407.54"/>
<polygon fill="black" stroke="black" points="187.5,-407.62 184,-397.62 180.5,-407.62 187.5,-407.62"/>
</g>
<!-- n9 -->
<g id="node10" class="node">
<title>n9</title>
<polygon fill="none" stroke="black" points="156,-324 102,-324 102,-288 156,-288 156,-324"/>
<text text-anchor="middle" x="129" y="-302.5" font-family="Arial" font-size="10.00">term</text>
</g>
<!-- n8&#45;&gt;n9 -->
<g id="edge9" class="edge">
<title>n8&#45;&gt;n9</title>
<path fill="none" stroke="black" d="M170.4,-359.7C164.08,-351.64 156.42,-341.89 149.41,-332.98"/>
<polygon fill="black" stroke="black" points="152.3,-331 143.37,-325.29 146.8,-335.32 152.3,-331"/>
</g>
<!-- n12 -->
<g id="node13" class="node">
<title>n12</title>
<polygon fill="none" stroke="black" points="320.62,-324 191.38,-324 191.38,-288 320.62,-288 320.62,-324"/>
<text text-anchor="middle" x="256" y="-302.5" font-family="Arial" font-size="10.00">arithmetic_expression_tail</text>
</g>
<!-- n8&#45;&gt;n12 -->
<g id="edge12" class="edge">
<title>n8&#45;&gt;n12</title>
<path fill="none" stroke="black" d="M201.8,-359.7C210.28,-351.45 220.59,-341.43 229.93,-332.35"/>
<polygon fill="black" stroke="black" points="232.34,-334.88 237.07,-325.4 227.46,-329.86 232.34,-334.88"/>
</g>
<!-- n10 -->
<g id="node11" class="node">
<title>n10</title>
<polygon fill="none" stroke="black" points="121,-252 67,-252 67,-216 121,-216 121,-252"/>
<text text-anchor="middle" x="94" y="-230.5" font-family="Arial" font-size="10.00">factor</text>
</g>
<!-- n9&#45;&gt;n10 -->
<g id="edge10" class="edge">
<title>n9&#45;&gt;n10</title>
<path fill="none" stroke="black" d="M120.35,-287.7C116.53,-280.07 111.96,-270.92 107.7,-262.4"/>
<polygon fill="black" stroke="black" points="110.83,-260.84 103.23,-253.46 104.57,-263.97 110.83,-260.84"/>
</g>
<!-- n11 -->
<g id="node12" class="node">
<title>n11</title>
<polygon fill="none" stroke="black" points="121,-180 67,-180 67,-144 121,-144 121,-180"/>
<text text-anchor="middle" x="94" y="-158.5" font-family="Arial" font-size="10.00">a</text>
</g>
<!-- n10&#45;&gt;n11 -->
<g id="edge11" class="edge">
<title>n10&#45;&gt;n11</title>
<path fill="none" stroke="black" d="M94,-215.7C94,-208.41 94,-199.73 94,-191.54"/>
<polygon fill="black" stroke="black" points="97.5,-191.62 94,-181.62 90.5,-191.62 97.5,-191.62"/>
</g>
<!-- n13 -->
<g id="node14" class="node">
<title>n13</title>
<polygon fill="none" stroke="black" points="229.12,-252 138.88,-252 138.88,-216 229.12,-216 229.12,-252"/>
<text text-anchor="middle" x="184" y="-230.5" font-family="Arial" font-size="10.00">additive_operator</text>
</g>
<!-- n12&#45;&gt;n13 -->
<g id="edge13" class="edge">
<title>n12&#45;&gt;n13</title>
<path fill="none" stroke="black" d="M238.2,-287.7C229.72,-279.45 219.41,-269.43 210.07,-260.35"/>
<polygon fill="black" stroke="black" points="212.54,-257.86 202.93,-253.4 207.66,-262.88 212.54,-257.86"/>
</g>
<!-- n15 -->
<g id="node16" class="node">
<title>n15</title>
<polygon fill="none" stroke="black" points="301,-252 247,-252 247,-216 301,-216 301,-252"/>
<text text-anchor="middle" x="274" y="-230.5" font-family="Arial" font-size="10.00">term</text>
</g>
<!-- n12&#45;&gt;n15 -->
<g id="edge15" class="edge">
<title>n12&#45;&gt;n15</title>
<path fill="none" stroke="black" d="M260.45,-287.7C262.35,-280.32 264.61,-271.52 266.74,-263.25"/>
<polygon fill="black" stroke="black" points="270.12,-264.13 269.22,-253.57 263.34,-262.38 270.12,-264.13"/>
</g>
<!-- n18 -->
<g id="node19" class="node">
<title>n18</title>
<polygon fill="none" stroke="black" points="448.62,-252 319.38,-252 319.38,-216 448.62,-216 448.62,-252"/>
<text text-anchor="middle" x="384" y="-230.5" font-family="Arial" font-size="10.00">arithmetic_expression_tail</text>
</g>
<!-- n12&#45;&gt;n18 -->
<g id="edge18" class="edge">
<title>n12&#45;&gt;n18</title>
<path fill="none" stroke="black" d="M287.97,-287.52C304.43,-278.51 324.71,-267.42 342.38,-257.76"/>
<polygon fill="black" stroke="black" points="344.02,-260.86 351.11,-252.99 340.66,-254.71 344.02,-260.86"/>
</g>
<!-- n14 -->
<g id="node15" class="node">
<title>n14</title>
<polygon fill="none" stroke="black" points="211,-180 157,-180 157,-144 211,-144 211,-180"/>
<text text-anchor="middle" x="184" y="-158.5" font-family="Arial" font-size="10.00">+</text>
</g>
<!-- n13&#45;&gt;n14 -->
<g id="edge14" class="edge">
<title>n13&#45;&gt;n14</title>
<path fill="none" stroke="black" d="M184,-215.7C184,-208.41 184,-199.73 184,-191.54"/>
<polygon fill="black" stroke="black" points="187.5,-191.62 184,-181.62 180.5,-191.62 187.5,-191.62"/>
</g>
<!-- n16 -->
<g id="node17" class="node">
<title>n16</title>
<polygon fill="none" stroke="black" points="301,-180 247,-180 247,-144 301,-144 301,-180"/>
<text text-anchor="middle" x="274" y="-158.5" font-family="Arial" font-size="10.00">factor</text>
</g>
<!-- n15&#45;&gt;n16 -->
<g id="edge16" class="edge">
<title>n15&#45;&gt;n16</title>
<path fill="none" stroke="black" d="M274,-215.7C274,-208.41 274,-199.73 274,-191.54"/>
<polygon fill="black" stroke="black" points="277.5,-191.62 274,-181.62 270.5,-191.62 277.5,-191.62"/>
</g>
<!-- n17 -->
<g id="node18" class="node">
<title>n17</title>
<polygon fill="none" stroke="black" points="301,-108 247,-108 247,-72 301,-72 301,-108"/>
<text text-anchor="middle" x="274" y="-86.5" font-family="Arial" font-size="10.00">b</text>
</g>
<!-- n16&#45;&gt;n17 -->
<g id="edge17" class="edge">
<title>n16&#45;&gt;n17</title>
<path fill="none" stroke="black" d="M274,-143.7C274,-136.41 274,-127.73 274,-119.54"/>
<polygon fill="black" stroke="black" points="277.5,-119.62 274,-109.62 270.5,-119.62 277.5,-119.62"/>
</g>
<!-- n19 -->
<g id="node20" class="node">
<title>n19</title>
<polygon fill="none" stroke="black" points="419.12,-180 328.88,-180 328.88,-144 419.12,-144 419.12,-180"/>
<text text-anchor="middle" x="374" y="-158.5" font-family="Arial" font-size="10.00">additive_operator</text>
</g>
<!-- n18&#45;&gt;n19 -->
<g id="edge19" class="edge">
<title>n18&#45;&gt;n19</title>
<path fill="none" stroke="black" d="M381.53,-215.7C380.47,-208.32 379.22,-199.52 378.04,-191.25"/>
<polygon fill="black" stroke="black" points="381.54,-191.01 376.66,-181.6 374.61,-192 381.54,-191.01"/>
</g>
<!-- n21 -->
<g id="node22" class="node">
<title>n21</title>
<polygon fill="none" stroke="black" points="491,-180 437,-180 437,-144 491,-144 491,-180"/>
<text text-anchor="middle" x="464" y="-158.5" font-family="Arial" font-size="10.00">term</text>
</g>
<!-- n18&#45;&gt;n21 -->
<g id="edge21" class="edge">
<title>n18&#45;&gt;n21</title>
<path fill="none" stroke="black" d="M403.78,-215.7C413.39,-207.28 425.12,-197.02 435.67,-187.79"/>
<polygon fill="black" stroke="black" points="437.81,-190.56 443.04,-181.34 433.21,-185.29 437.81,-190.56"/>
</g>
<!-- n20 -->
<g id="node21" class="node">
<title>n20</title>
<polygon fill="none" stroke="black" points="401,-108 347,-108 347,-72 401,-72 401,-108"/>
<text text-anchor="middle" x="374" y="-86.5" font-family="Arial" font-size="10.00">&#45;</text>
</g>
<!-- n19&#45;&gt;n20 -->
<g id="edge20" class="edge">
<title>n19&#45;&gt;n20</title>
<path fill="none" stroke="black" d="M374,-143.7C374,-136.41 374,-127.73 374,-119.54"/>
<polygon fill="black" stroke="black" points="377.5,-119.62 374,-109.62 370.5,-119.62 377.5,-119.62"/>
</g>
<!-- n22 -->
<g id="node23" class="node">
<title>n22</title>
<polygon fill="none" stroke="black" points="491,-108 437,-108 437,-72 491,-72 491,-108"/>
<text text-anchor="middle" x="464" y="-86.5" font-family="Arial" font-size="10.00">factor</text>
</g>
<!-- n21&#45;&gt;n22 -->
<g id="edge22" class="edge">
<title>n21&#45;&gt;n22</title>
<path fill="none" stroke="black" d="M464,-143.7C464,-136.41 464,-127.73 464,-119.54"/>
<polygon fill="black" stroke="black" points="467.5,-119.62 464,-109.62 460.5,-119.62 467.5,-119.62"/>
</g>
<!-- n23 -->
<g id="node24" class="node">
<title>n23</title>
<polygon fill="none" stroke="black" points="491,-36 437,-36 437,0 491,0 491,-36"/>
<text text-anchor="middle" x="464" y="-14.5" font-family="Arial" font-size="10.00">5</text>
</g>
<!-- n22&#45;&gt;n23 -->
<g id="edge23" class="edge">
<title>n22&#45;&gt;n23</title>
<path fill="none" stroke="black" d="M464,-71.7C464,-64.41 464,-55.73 464,-47.54"/>
<polygon fill="black" stroke="black" points="467.5,-47.62 464,-37.62 460.5,-47.62 467.5,-47.62"/>
</g>
</g>
</svg>
