<?xml version="1.0" encoding="UTF-8" standalone="no"?>
<!DOCTYPE svg PUBLIC "-//W3C//DTD SVG 1.1//EN"
 "http://www.w3.org/Graphics/SVG/1.1/DTD/svg11.dtd">
<!-- Generated by graphviz version 12.2.1 (20241206.2353)
 -->
<!-- Pages: 1 -->
<svg width="404pt" height="908pt"
 viewBox="0.00 0.00 403.62 908.00" xmlns="http://www.w3.org/2000/svg" xmlns:xlink="http://www.w3.org/1999/xlink">
<g id="graph0" class="graph" transform="scale(1 1) rotate(0) translate(4 904)">
<polygon fill="white" stroke="none" points="-4,4 -4,-904 399.62,-904 399.62,4 -4,4"/>
<!-- n0 -->
<g id="node1" class="node">
<title>n0</title>
<polygon fill="none" stroke="black" points="134,-900 80,-900 80,-864 134,-864 134,-900"/>
<text text-anchor="middle" x="107" y="-878.5" font-family="Arial" font-size="10.00">program</text>
</g>
<!-- n1 -->
<g id="node2" class="node">
<title>n1</title>
<polygon fill="none" stroke="black" points="134,-828 80,-828 80,-792 134,-792 134,-828"/>
<text text-anchor="middle" x="107" y="-806.5" font-family="Arial" font-size="10.00">block</text>
</g>
<!-- n0&#45;&gt;n1 -->
<g id="edge1" class="edge">
<title>n0&#45;&gt;n1</title>
<path fill="none" stroke="black" d="M107,-863.7C107,-856.41 107,-847.73 107,-839.54"/>
<polygon fill="black" stroke="black" points="110.5,-839.62 107,-829.62 103.5,-839.62 110.5,-839.62"/>
</g>
<!-- n2 -->
<g id="node3" class="node">
<title>n2</title>
<polygon fill="none" stroke="black" points="54,-756 0,-756 0,-720 54,-720 54,-756"/>
<text text-anchor="middle" x="27" y="-734.5" font-family="Arial" font-size="10.00">{</text>
</g>
<!-- n1&#45;&gt;n2 -->
<g id="edge2" class="edge">
<title>n1&#45;&gt;n2</title>
<path fill="none" stroke="black" d="M87.22,-791.7C77.61,-783.28 65.88,-773.02 55.33,-763.79"/>
<polygon fill="black" stroke="black" points="57.79,-761.29 47.96,-757.34 53.19,-766.56 57.79,-761.29"/>
</g>
<!-- n3 -->
<g id="node4" class="node">
<title>n3</title>
<polygon fill="none" stroke="black" points="141.62,-756 72.38,-756 72.38,-720 141.62,-720 141.62,-756"/>
<text text-anchor="middle" x="107" y="-734.5" font-family="Arial" font-size="10.00">operator_list</text>
</g>
<!-- n1&#45;&gt;n3 -->
<g id="edge3" class="edge">
<title>n1&#45;&gt;n3</title>
<path fill="none" stroke="black" d="M107,-791.7C107,-784.41 107,-775.73 107,-767.54"/>
<polygon fill="black" stroke="black" points="110.5,-767.62 107,-757.62 103.5,-767.62 110.5,-767.62"/>
</g>
<!-- n28 -->
<g id="node29" class="node">
<title>n28</title>
<polygon fill="none" stroke="black" points="214,-756 160,-756 160,-720 214,-720 214,-756"/>
<text text-anchor="middle" x="187" y="-734.5" font-family="Arial" font-size="10.00">}</text>
</g>
<!-- n1&#45;&gt;n28 -->
<g id="edge28" class="edge">
<title>n1&#45;&gt;n28</title>
<path fill="none" stroke="black" d="M126.78,-791.7C136.39,-783.28 148.12,-773.02 158.67,-763.79"/>
<polygon fill="black" stroke="black" points="160.81,-766.56 166.04,-757.34 156.21,-761.29 160.81,-766.56"/>
</g>
<!-- n4 -->
<g id="node5" class="node">
<title>n4</title>
<polygon fill="none" stroke="black" points="134,-684 80,-684 80,-648 134,-648 134,-684"/>
<text text-anchor="middle" x="107" y="-662.5" font-family="Arial" font-size="10.00">operator</text>
</g>
<!-- n3&#45;&gt;n4 -->
<g id="edge4" class="edge">
<title>n3&#45;&gt;n4</title>
<path fill="none" stroke="black" d="M107,-719.7C107,-712.41 107,-703.73 107,-695.54"/>
<polygon fill="black" stroke="black" points="110.5,-695.62 107,-685.62 103.5,-695.62 110.5,-695.62"/>
</g>
<!-- n5 -->
<g id="node6" class="node">
<title>n5</title>
<polygon fill="none" stroke="black" points="62,-612 8,-612 8,-576 62,-576 62,-612"/>
<text text-anchor="middle" x="35" y="-590.5" font-family="Arial" font-size="10.00">flag</text>
</g>
<!-- n4&#45;&gt;n5 -->
<g id="edge5" class="edge">
<title>n4&#45;&gt;n5</title>
<path fill="none" stroke="black" d="M89.2,-647.7C80.72,-639.45 70.41,-629.43 61.07,-620.35"/>
<polygon fill="black" stroke="black" points="63.54,-617.86 53.93,-613.4 58.66,-622.88 63.54,-617.86"/>
</g>
<!-- n6 -->
<g id="node7" class="node">
<title>n6</title>
<polygon fill="none" stroke="black" points="134,-612 80,-612 80,-576 134,-576 134,-612"/>
<text text-anchor="middle" x="107" y="-590.5" font-family="Arial" font-size="10.00">=</text>
</g>
<!-- n4&#45;&gt;n6 -->
<g id="edge6" class="edge">
<title>n4&#45;&gt;n6</title>
<path fill="none" stroke="black" d="M107,-647.7C107,-640.41 107,-631.73 107,-623.54"/>
<polygon fill="black" stroke="black" points="110.5,-623.62 107,-613.62 103.5,-623.62 110.5,-623.62"/>
</g>
<!-- n7 -->
<g id="node8" class="node">
<title>n7</title>
<polygon fill="none" stroke="black" points="215.62,-612 152.38,-612 152.38,-576 215.62,-576 215.62,-612"/>
<text text-anchor="middle" x="184" y="-590.5" font-family="Arial" font-size="10.00">expression</text>
</g>
<!-- n4&#45;&gt;n7 -->
<g id="edge7" class="edge">
<title>n4&#45;&gt;n7</title>
<path fill="none" stroke="black" d="M126.03,-647.7C135.2,-639.37 146.35,-629.22 156.43,-620.07"/>
<polygon fill="black" stroke="black" points="158.75,-622.68 163.8,-613.37 154.04,-617.5 158.75,-622.68"/>
</g>
<!-- n8 -->
<g id="node9" class="node">
<title>n8</title>
<polygon fill="none" stroke="black" points="182.62,-540 71.38,-540 71.38,-504 182.62,-504 182.62,-540"/>
<text text-anchor="middle" x="127" y="-518.5" font-family="Arial" font-size="10.00">arithmetic_expression</text>
</g>
<!-- n7&#45;&gt;n8 -->
<g id="edge8" class="edge">
<title>n7&#45;&gt;n8</title>
<path fill="none" stroke="black" d="M169.91,-575.7C163.35,-567.64 155.41,-557.89 148.16,-548.98"/>
<polygon fill="black" stroke="black" points="150.91,-546.82 141.88,-541.28 145.48,-551.24 150.91,-546.82"/>
</g>
<!-- n21 -->
<g id="node22" class="node">
<title>n21</title>
<polygon fill="none" stroke="black" points="281.62,-540 200.38,-540 200.38,-504 281.62,-504 281.62,-540"/>
<text text-anchor="middle" x="241" y="-518.5" font-family="Arial" font-size="10.00">expression_tail</text>
</g>
<!-- n7&#45;&gt;n21 -->
<g id="edge21" class="edge">
<title>n7&#45;&gt;n21</title>
<path fill="none" stroke="black" d="M198.09,-575.7C204.65,-567.64 212.59,-557.89 219.84,-548.98"/>
<polygon fill="black" stroke="black" points="222.52,-551.24 226.12,-541.28 217.09,-546.82 222.52,-551.24"/>
</g>
<!-- n9 -->
<g id="node10" class="node">
<title>n9</title>
<polygon fill="none" stroke="black" points="154,-468 100,-468 100,-432 154,-432 154,-468"/>
<text text-anchor="middle" x="127" y="-446.5" font-family="Arial" font-size="10.00">term</text>
</g>
<!-- n8&#45;&gt;n9 -->
<g id="edge9" class="edge">
<title>n8&#45;&gt;n9</title>
<path fill="none" stroke="black" d="M127,-503.7C127,-496.41 127,-487.73 127,-479.54"/>
<polygon fill="black" stroke="black" points="130.5,-479.62 127,-469.62 123.5,-479.62 130.5,-479.62"/>
</g>
<!-- n10 -->
<g id="node11" class="node">
<title>n10</title>
<polygon fill="none" stroke="black" points="154,-396 100,-396 100,-360 154,-360 154,-396"/>
<text text-anchor="middle" x="127" y="-374.5" font-family="Arial" font-size="10.00">factor</text>
</g>
<!-- n9&#45;&gt;n10 -->
<g id="edge10" class="edge">
<title>n9&#45;&gt;n10</title>
<path fill="none" stroke="black" d="M127,-431.7C127,-424.41 127,-415.73 127,-407.54"/>
<polygon fill="black" stroke="black" points="130.5,-407.62 127,-397.62 123.5,-407.62 130.5,-407.62"/>
</g>
<!-- n11 -->
<g id="node12" class="node">
<title>n11</title>
<polygon fill="none" stroke="black" points="182.62,-324 71.38,-324 71.38,-288 182.62,-288 182.62,-324"/>
<text text-anchor="middle" x="127" y="-302.5" font-family="Arial" font-size="10.00">arithmetic_expression</text>
</g>
<!-- n10&#45;&gt;n11 -->
<g id="edge11" class="edge">
<title>n10&#45;&gt;n11</title>
<path fill="none" stroke="black" d="M127,-359.7C127,-352.41 127,-343.73 127,-335.54"/>
<polygon fill="black" stroke="black" points="130.5,-335.62 127,-325.62 123.5,-335.62 130.5,-335.62"/>
</g>
<!-- n12 -->
<g id="node13" class="node">
<title>n12</title>
<polygon fill="none" stroke="black" points="96,-252 42,-252 42,-216 96,-216 96,-252"/>
<text text-anchor="middle" x="69" y="-230.5" font-family="Arial" font-size="10.00">term</text>
</g>
<!-- n11&#45;&gt;n12 -->
<g id="edge12" class="edge">
<title>n11&#45;&gt;n12</title>
<path fill="none" stroke="black" d="M112.66,-287.7C105.92,-279.56 97.74,-269.69 90.3,-260.7"/>
<polygon fill="black" stroke="black" points="93.21,-258.74 84.14,-253.27 87.82,-263.2 93.21,-258.74"/>
</g>
<!-- n15 -->
<g id="node16" class="node">
<title>n15</title>
<polygon fill="none" stroke="black" points="243.62,-252 114.38,-252 114.38,-216 243.62,-216 243.62,-252"/>
<text text-anchor="middle" x="179" y="-230.5" font-family="Arial" font-size="10.00">arithmetic_expression_tail</text>
</g>
<!-- n11&#45;&gt;n15 -->
<g id="edge15" class="edge">
<title>n11&#45;&gt;n15</title>
<path fill="none" stroke="black" d="M139.85,-287.7C145.77,-279.73 152.93,-270.1 159.49,-261.26"/>
<polygon fill="black" stroke="black" points="162.24,-263.43 165.39,-253.32 156.62,-259.26 162.24,-263.43"/>
</g>
<!-- n13 -->
<g id="node14" class="node">
<title>n13</title>
<polygon fill="none" stroke="black" points="96,-180 42,-180 42,-144 96,-144 96,-180"/>
<text text-anchor="middle" x="69" y="-158.5" font-family="Arial" font-size="10.00">factor</text>
</g>
<!-- n12&#45;&gt;n13 -->
<g id="edge13" class="edge">
<title>n12&#45;&gt;n13</title>
<path fill="none" stroke="black" d="M69,-215.7C69,-208.41 69,-199.73 69,-191.54"/>
<polygon fill="black" stroke="black" points="72.5,-191.62 69,-181.62 65.5,-191.62 72.5,-191.62"/>
</g>
<!-- n14 -->
<g id="node15" class="node">
<title>n14</title>
<polygon fill="none" stroke="black" points="96,-108 42,-108 42,-72 96,-72 96,-108"/>
<text text-anchor="middle" x="69" y="-86.5" font-family="Arial" font-size="10.00">a</text>
</g>
<!-- n13&#45;&gt;n14 -->
<g id="edge14" class="edge">
<title>n13&#45;&gt;n14</title>
<path fill="none" stroke="black" d="M69,-143.7C69,-136.41 69,-127.73 69,-119.54"/>
<polygon fill="black" stroke="black" points="72.5,-119.62 69,-109.62 65.5,-119.62 72.5,-119.62"/>
</g>
<!-- n16 -->
<g id="node17" class="node">
<title>n16</title>
<polygon fill="none" stroke="black" points="214.12,-180 123.88,-180 123.88,-144 214.12,-144 214.12,-180"/>
<text text-anchor="middle" x="169" y="-158.5" font-family="Arial" font-size="10.00">additive_operator</text>
</g>
<!-- n15&#45;&gt;n16 -->
<g id="edge16" class="edge">
<title>n15&#45;&gt;n16</title>
<path fill="none" stroke="black" d="M176.53,-215.7C175.47,-208.32 174.22,-199.52 173.04,-191.25"/>
<polygon fill="black" stroke="black" points="176.54,-191.01 171.66,-181.6 169.61,-192 176.54,-191.01"/>
</g>
<!-- n18 -->
<g id="node19" class="node">
<title>n18</title>
<polygon fill="none" stroke="black" points="286,-180 232,-180 232,-144 286,-144 286,-180"/>
<text text-anchor="middle" x="259" y="-158.5" font-family="Arial" font-size="10.00">term</text>
</g>
<!-- n15&#45;&gt;n18 -->
<g id="edge18" class="edge">
<title>n15&#45;&gt;n18</title>
<path fill="none" stroke="black" d="M198.78,-215.7C208.39,-207.28 220.12,-197.02 230.67,-187.79"/>
<polygon fill="black" stroke="black" points="232.81,-190.56 238.04,-181.34 228.21,-185.29 232.81,-190.56"/>
</g>
<!-- n17 -->
<g id="node18" class="node">
<title>n17</title>
<polygon fill="none" stroke="black" points="196,-108 142,-108 142,-72 196,-72 196,-108"/>
<text text-anchor="middle" x="169" y="-86.5" font-family="Arial" font-size="10.00">+</text>
</g>
<!-- n16&#45;&gt;n17 -->
<g id="edge17" class="edge">
<title>n16&#45;&gt;n17</title>
<path fill="none" stroke="black" d="M169,-143.7C169,-136.41 169,-127.73 169,-119.54"/>
<polygon fill="black" stroke="black" points="172.5,-119.62 169,-109.62 165.5,-119.62 172.5,-119.62"/>
</g>
<!-- n19 -->
<g id="node20" class="node">
<title>n19</title>
<polygon fill="none" stroke="black" points="286,-108 232,-108 232,-72 286,-72 286,-108"/>
<text text-anchor="middle" x="259" y="-86.5" font-family="Arial" font-size="10.00">factor</text>
</g>
<!-- n18&#45;&gt;n19 -->
<g id="edge19" class="edge">
<title>n18&#45;&gt;n19</title>
<path fill="none" stroke="black" d="M259,-143.7C259,-136.41 259,-127.73 259,-119.54"/>
<polygon fill="black" stroke="black" points="262.5,-119.62 259,-109.62 255.5,-119.62 262.5,-119.62"/>
</g>
<!-- n20 -->
<g id="node21" class="node">
<title>n20</title>
<polygon fill="none" stroke="black" points="286,-36 232,-36 232,0 286,0 286,-36"/>
<text text-anchor="middle" x="259" y="-14.5" font-family="Arial" font-size="10.00">2</text>
</g>
<!-- n19&#45;&gt;n20 -->
<g id="edge20" class="edge">
<title>n19&#45;&gt;n20</title>
<path fill="none" stroke="black" d="M259,-71.7C259,-64.41 259,-55.73 259,-47.54"/>
<polygon fill="black" stroke="black" points="262.5,-47.62 259,-37.62 255.5,-47.62 262.5,-47.62"/>
</g>
<!-- n22 -->
<g id="node23" class="node">
<title>n22</title>
<polygon fill="none" stroke="black" points="266,-468 178,-468 178,-432 266,-432 266,-468"/>
<text text-anchor="middle" x="222" y="-446.5" font-family="Arial" font-size="10.00">relation_operator</text>
</g>
<!-- n21&#45;&gt;n22 -->
<g id="edge22" class="edge">
<title>n21&#45;&gt;n22</title>
<path fill="none" stroke="black" d="M236.3,-503.7C234.28,-496.24 231.86,-487.32 229.59,-478.97"/>
<polygon fill="black" stroke="black" points="233.04,-478.3 227.04,-469.57 226.28,-480.13 233.04,-478.3"/>
</g>
<!-- n24 -->
<g id="node25" class="node">
<title>n24</title>
<polygon fill="none" stroke="black" points="395.62,-468 284.38,-468 284.38,-432 395.62,-432 395.62,-468"/>
<text text-anchor="middle" x="340" y="-446.5" font-family="Arial" font-size="10.00">arithmetic_expression</text>
</g>
<!-- n21&#45;&gt;n24 -->
<g id="edge24" class="edge">
<title>n21&#45;&gt;n24</title>
<path fill="none" stroke="black" d="M265.73,-503.52C277.99,-494.85 292.98,-484.25 306.27,-474.85"/>
<polygon fill="black" stroke="black" points="308.21,-477.77 314.35,-469.13 304.17,-472.05 308.21,-477.77"/>
</g>
<!-- n23 -->
<g id="node24" class="node">
<title>n23</title>
<polygon fill="none" stroke="black" points="249,-396 195,-396 195,-360 249,-360 249,-396"/>
<text text-anchor="middle" x="222" y="-374.5" font-family="Arial" font-size="10.00">&gt;=</text>
</g>
<!-- n22&#45;&gt;n23 -->
<g id="edge23" class="edge">
<title>n22&#45;&gt;n23</title>
<path fill="none" stroke="black" d="M222,-431.7C222,-424.41 222,-415.73 222,-407.54"/>
<polygon fill="black" stroke="black" points="225.5,-407.62 222,-397.62 218.5,-407.62 225.5,-407.62"/>
</g>
<!-- n25 -->
<g id="node26" class="node">
<title>n25</title>
<polygon fill="none" stroke="black" points="367,-396 313,-396 313,-360 367,-360 367,-396"/>
<text text-anchor="middle" x="340" y="-374.5" font-family="Arial" font-size="10.00">term</text>
</g>
<!-- n24&#45;&gt;n25 -->
<g id="edge25" class="edge">
<title>n24&#45;&gt;n25</title>
<path fill="none" stroke="black" d="M340,-431.7C340,-424.41 340,-415.73 340,-407.54"/>
<polygon fill="black" stroke="black" points="343.5,-407.62 340,-397.62 336.5,-407.62 343.5,-407.62"/>
</g>
<!-- n26 -->
<g id="node27" class="node">
<title>n26</title>
<polygon fill="none" stroke="black" points="367,-324 313,-324 313,-288 367,-288 367,-324"/>
<text text-anchor="middle" x="340" y="-302.5" font-family="Arial" font-size="10.00">factor</text>
</g>
<!-- n25&#45;&gt;n26 -->
<g id="edge26" class="edge">
<title>n25&#45;&gt;n26</title>
<path fill="none" stroke="black" d="M340,-359.7C340,-352.41 340,-343.73 340,-335.54"/>
<polygon fill="black" stroke="black" points="343.5,-335.62 340,-325.62 336.5,-335.62 343.5,-335.62"/>
</g>
<!-- n27 -->
<g id="node28" class="node">
<title>n27</title>
<polygon fill="none" stroke="black" points="367,-252 313,-252 313,-216 367,-216 367,-252"/>
<text text-anchor="middle" x="340" y="-230.5" font-family="Arial" font-size="10.00">10</text>
</g>
<!-- n26&#45;&gt;n27 -->
<g id="edge27" class="edge">
<title>n26&#45;&gt;n27</title>
<path fill="none" stroke="black" d="M340,-287.7C340,-280.41 340,-271.73 340,-263.54"/>
<polygon fill="black" stroke="black" points="343.5,-263.62 340,-253.62 336.5,-263.62 343.5,-263.62"/>
</g>
</g>
</svg>
