<?xml version="1.0" encoding="UTF-8" standalone="no"?>
<!DOCTYPE svg PUBLIC "-//W3C//DTD SVG 1.1//EN"
 "http://www.w3.org/Graphics/SVG/1.1/DTD/svg11.dtd">
<!-- Generated by graphviz version 12.2.1 (20241206.2353)
 -->
<!-- Pages: 1 -->
<svg width="910pt" height="1052pt"
 viewBox="0.00 0.00 910.00 1052.00" xmlns="http://www.w3.org/2000/svg" xmlns:xlink="http://www.w3.org/1999/xlink">
<g id="graph0" class="graph" transform="scale(1 1) rotate(0) translate(4 1048)">
<polygon fill="white" stroke="none" points="-4,4 -4,-1048 906,-1048 906,4 -4,4"/>
<!-- n0 -->
<g id="node1" class="node">
<title>n0</title>
<polygon fill="none" stroke="black" points="244,-1044 190,-1044 190,-1008 244,-1008 244,-1044"/>
<text text-anchor="middle" x="217" y="-1022.5" font-family="Arial" font-size="10.00">program</text>
</g>
<!-- n1 -->
<g id="node2" class="node">
<title>n1</title>
<polygon fill="none" stroke="black" points="244,-972 190,-972 190,-936 244,-936 244,-972"/>
<text text-anchor="middle" x="217" y="-950.5" font-family="Arial" font-size="10.00">block</text>
</g>
<!-- n0&#45;&gt;n1 -->
<g id="edge1" class="edge">
<title>n0&#45;&gt;n1</title>
<path fill="none" stroke="black" d="M217,-1007.7C217,-1000.41 217,-991.73 217,-983.54"/>
<polygon fill="black" stroke="black" points="220.5,-983.62 217,-973.62 213.5,-983.62 220.5,-983.62"/>
</g>
<!-- n2 -->
<g id="node3" class="node">
<title>n2</title>
<polygon fill="none" stroke="black" points="164,-900 110,-900 110,-864 164,-864 164,-900"/>
<text text-anchor="middle" x="137" y="-878.5" font-family="Arial" font-size="10.00">{</text>
</g>
<!-- n1&#45;&gt;n2 -->
<g id="edge2" class="edge">
<title>n1&#45;&gt;n2</title>
<path fill="none" stroke="black" d="M197.22,-935.7C187.61,-927.28 175.88,-917.02 165.33,-907.79"/>
<polygon fill="black" stroke="black" points="167.79,-905.29 157.96,-901.34 163.19,-910.56 167.79,-905.29"/>
</g>
<!-- n3 -->
<g id="node4" class="node">
<title>n3</title>
<polygon fill="none" stroke="black" points="251.62,-900 182.38,-900 182.38,-864 251.62,-864 251.62,-900"/>
<text text-anchor="middle" x="217" y="-878.5" font-family="Arial" font-size="10.00">operator_list</text>
</g>
<!-- n1&#45;&gt;n3 -->
<g id="edge3" class="edge">
<title>n1&#45;&gt;n3</title>
<path fill="none" stroke="black" d="M217,-935.7C217,-928.41 217,-919.73 217,-911.54"/>
<polygon fill="black" stroke="black" points="220.5,-911.62 217,-901.62 213.5,-911.62 220.5,-911.62"/>
</g>
<!-- n51 -->
<g id="node52" class="node">
<title>n51</title>
<polygon fill="none" stroke="black" points="324,-900 270,-900 270,-864 324,-864 324,-900"/>
<text text-anchor="middle" x="297" y="-878.5" font-family="Arial" font-size="10.00">}</text>
</g>
<!-- n1&#45;&gt;n51 -->
<g id="edge51" class="edge">
<title>n1&#45;&gt;n51</title>
<path fill="none" stroke="black" d="M236.78,-935.7C246.39,-927.28 258.12,-917.02 268.67,-907.79"/>
<polygon fill="black" stroke="black" points="270.81,-910.56 276.04,-901.34 266.21,-905.29 270.81,-910.56"/>
</g>
<!-- n4 -->
<g id="node5" class="node">
<title>n4</title>
<polygon fill="none" stroke="black" points="182,-828 128,-828 128,-792 182,-792 182,-828"/>
<text text-anchor="middle" x="155" y="-806.5" font-family="Arial" font-size="10.00">operator</text>
</g>
<!-- n3&#45;&gt;n4 -->
<g id="edge4" class="edge">
<title>n3&#45;&gt;n4</title>
<path fill="none" stroke="black" d="M201.67,-863.7C194.47,-855.56 185.72,-845.69 177.76,-836.7"/>
<polygon fill="black" stroke="black" points="180.4,-834.4 171.15,-829.24 175.16,-839.04 180.4,-834.4"/>
</g>
<!-- n12 -->
<g id="node13" class="node">
<title>n12</title>
<polygon fill="none" stroke="black" points="322.62,-828 235.38,-828 235.38,-792 322.62,-792 322.62,-828"/>
<text text-anchor="middle" x="279" y="-806.5" font-family="Arial" font-size="10.00">operator_list_tail</text>
</g>
<!-- n3&#45;&gt;n12 -->
<g id="edge12" class="edge">
<title>n3&#45;&gt;n12</title>
<path fill="none" stroke="black" d="M232.33,-863.7C239.53,-855.56 248.28,-845.69 256.24,-836.7"/>
<polygon fill="black" stroke="black" points="258.84,-839.04 262.85,-829.24 253.6,-834.4 258.84,-839.04"/>
</g>
<!-- n5 -->
<g id="node6" class="node">
<title>n5</title>
<polygon fill="none" stroke="black" points="54,-756 0,-756 0,-720 54,-720 54,-756"/>
<text text-anchor="middle" x="27" y="-734.5" font-family="Arial" font-size="10.00">x</text>
</g>
<!-- n4&#45;&gt;n5 -->
<g id="edge5" class="edge">
<title>n4&#45;&gt;n5</title>
<path fill="none" stroke="black" d="M127.54,-793.98C109.07,-783.88 84.48,-770.43 64.25,-759.37"/>
<polygon fill="black" stroke="black" points="66.19,-756.45 55.74,-754.72 62.84,-762.59 66.19,-756.45"/>
</g>
<!-- n6 -->
<g id="node7" class="node">
<title>n6</title>
<polygon fill="none" stroke="black" points="126,-756 72,-756 72,-720 126,-720 126,-756"/>
<text text-anchor="middle" x="99" y="-734.5" font-family="Arial" font-size="10.00">=</text>
</g>
<!-- n4&#45;&gt;n6 -->
<g id="edge6" class="edge">
<title>n4&#45;&gt;n6</title>
<path fill="none" stroke="black" d="M141.16,-791.7C134.71,-783.64 126.92,-773.89 119.79,-764.98"/>
<polygon fill="black" stroke="black" points="122.61,-762.91 113.63,-757.29 117.14,-767.28 122.61,-762.91"/>
</g>
<!-- n7 -->
<g id="node8" class="node">
<title>n7</title>
<polygon fill="none" stroke="black" points="207.62,-756 144.38,-756 144.38,-720 207.62,-720 207.62,-756"/>
<text text-anchor="middle" x="176" y="-734.5" font-family="Arial" font-size="10.00">expression</text>
</g>
<!-- n4&#45;&gt;n7 -->
<g id="edge7" class="edge">
<title>n4&#45;&gt;n7</title>
<path fill="none" stroke="black" d="M160.19,-791.7C162.43,-784.24 165.1,-775.32 167.61,-766.97"/>
<polygon fill="black" stroke="black" points="170.91,-768.14 170.43,-757.55 164.21,-766.13 170.91,-768.14"/>
</g>
<!-- n8 -->
<g id="node9" class="node">
<title>n8</title>
<polygon fill="none" stroke="black" points="213.62,-684 102.38,-684 102.38,-648 213.62,-648 213.62,-684"/>
<text text-anchor="middle" x="158" y="-662.5" font-family="Arial" font-size="10.00">arithmetic_expression</text>
</g>
<!-- n7&#45;&gt;n8 -->
<g id="edge8" class="edge">
<title>n7&#45;&gt;n8</title>
<path fill="none" stroke="black" d="M171.55,-719.7C169.65,-712.32 167.39,-703.52 165.26,-695.25"/>
<polygon fill="black" stroke="black" points="168.66,-694.38 162.78,-685.57 161.88,-696.13 168.66,-694.38"/>
</g>
<!-- n9 -->
<g id="node10" class="node">
<title>n9</title>
<polygon fill="none" stroke="black" points="185,-612 131,-612 131,-576 185,-576 185,-612"/>
<text text-anchor="middle" x="158" y="-590.5" font-family="Arial" font-size="10.00">term</text>
</g>
<!-- n8&#45;&gt;n9 -->
<g id="edge9" class="edge">
<title>n8&#45;&gt;n9</title>
<path fill="none" stroke="black" d="M158,-647.7C158,-640.41 158,-631.73 158,-623.54"/>
<polygon fill="black" stroke="black" points="161.5,-623.62 158,-613.62 154.5,-623.62 161.5,-623.62"/>
</g>
<!-- n10 -->
<g id="node11" class="node">
<title>n10</title>
<polygon fill="none" stroke="black" points="185,-540 131,-540 131,-504 185,-504 185,-540"/>
<text text-anchor="middle" x="158" y="-518.5" font-family="Arial" font-size="10.00">factor</text>
</g>
<!-- n9&#45;&gt;n10 -->
<g id="edge10" class="edge">
<title>n9&#45;&gt;n10</title>
<path fill="none" stroke="black" d="M158,-575.7C158,-568.41 158,-559.73 158,-551.54"/>
<polygon fill="black" stroke="black" points="161.5,-551.62 158,-541.62 154.5,-551.62 161.5,-551.62"/>
</g>
<!-- n11 -->
<g id="node12" class="node">
<title>n11</title>
<polygon fill="none" stroke="black" points="185,-468 131,-468 131,-432 185,-432 185,-468"/>
<text text-anchor="middle" x="158" y="-446.5" font-family="Arial" font-size="10.00">10</text>
</g>
<!-- n10&#45;&gt;n11 -->
<g id="edge11" class="edge">
<title>n10&#45;&gt;n11</title>
<path fill="none" stroke="black" d="M158,-503.7C158,-496.41 158,-487.73 158,-479.54"/>
<polygon fill="black" stroke="black" points="161.5,-479.62 158,-469.62 154.5,-479.62 161.5,-479.62"/>
</g>
<!-- n13 -->
<g id="node14" class="node">
<title>n13</title>
<polygon fill="none" stroke="black" points="286,-756 232,-756 232,-720 286,-720 286,-756"/>
<text text-anchor="middle" x="259" y="-734.5" font-family="Arial" font-size="10.00">;</text>
</g>
<!-- n12&#45;&gt;n13 -->
<g id="edge13" class="edge">
<title>n12&#45;&gt;n13</title>
<path fill="none" stroke="black" d="M274.06,-791.7C271.92,-784.24 269.38,-775.32 266.99,-766.97"/>
<polygon fill="black" stroke="black" points="270.42,-766.21 264.3,-757.56 263.68,-768.14 270.42,-766.21"/>
</g>
<!-- n14 -->
<g id="node15" class="node">
<title>n14</title>
<polygon fill="none" stroke="black" points="358,-756 304,-756 304,-720 358,-720 358,-756"/>
<text text-anchor="middle" x="331" y="-734.5" font-family="Arial" font-size="10.00">operator</text>
</g>
<!-- n12&#45;&gt;n14 -->
<g id="edge14" class="edge">
<title>n12&#45;&gt;n14</title>
<path fill="none" stroke="black" d="M291.85,-791.7C297.77,-783.73 304.93,-774.1 311.49,-765.26"/>
<polygon fill="black" stroke="black" points="314.24,-767.43 317.39,-757.32 308.62,-763.26 314.24,-767.43"/>
</g>
<!-- n27 -->
<g id="node28" class="node">
<title>n27</title>
<polygon fill="none" stroke="black" points="540.62,-756 453.38,-756 453.38,-720 540.62,-720 540.62,-756"/>
<text text-anchor="middle" x="497" y="-734.5" font-family="Arial" font-size="10.00">operator_list_tail</text>
</g>
<!-- n12&#45;&gt;n27 -->
<g id="edge27" class="edge">
<title>n12&#45;&gt;n27</title>
<path fill="none" stroke="black" d="M323.12,-794.83C357.54,-783.78 405.54,-768.37 442.39,-756.54"/>
<polygon fill="black" stroke="black" points="443.06,-760 451.51,-753.61 440.92,-753.33 443.06,-760"/>
</g>
<!-- n15 -->
<g id="node16" class="node">
<title>n15</title>
<polygon fill="none" stroke="black" points="286,-684 232,-684 232,-648 286,-648 286,-684"/>
<text text-anchor="middle" x="259" y="-662.5" font-family="Arial" font-size="10.00">y</text>
</g>
<!-- n14&#45;&gt;n15 -->
<g id="edge15" class="edge">
<title>n14&#45;&gt;n15</title>
<path fill="none" stroke="black" d="M313.2,-719.7C304.72,-711.45 294.41,-701.43 285.07,-692.35"/>
<polygon fill="black" stroke="black" points="287.54,-689.86 277.93,-685.4 282.66,-694.88 287.54,-689.86"/>
</g>
<!-- n16 -->
<g id="node17" class="node">
<title>n16</title>
<polygon fill="none" stroke="black" points="358,-684 304,-684 304,-648 358,-648 358,-684"/>
<text text-anchor="middle" x="331" y="-662.5" font-family="Arial" font-size="10.00">=</text>
</g>
<!-- n14&#45;&gt;n16 -->
<g id="edge16" class="edge">
<title>n14&#45;&gt;n16</title>
<path fill="none" stroke="black" d="M331,-719.7C331,-712.41 331,-703.73 331,-695.54"/>
<polygon fill="black" stroke="black" points="334.5,-695.62 331,-685.62 327.5,-695.62 334.5,-695.62"/>
</g>
<!-- n17 -->
<g id="node18" class="node">
<title>n17</title>
<polygon fill="none" stroke="black" points="439.62,-684 376.38,-684 376.38,-648 439.62,-648 439.62,-684"/>
<text text-anchor="middle" x="408" y="-662.5" font-family="Arial" font-size="10.00">expression</text>
</g>
<!-- n14&#45;&gt;n17 -->
<g id="edge17" class="edge">
<title>n14&#45;&gt;n17</title>
<path fill="none" stroke="black" d="M350.03,-719.7C359.2,-711.37 370.35,-701.22 380.43,-692.07"/>
<polygon fill="black" stroke="black" points="382.75,-694.68 387.8,-685.37 378.04,-689.5 382.75,-694.68"/>
</g>
<!-- n18 -->
<g id="node19" class="node">
<title>n18</title>
<polygon fill="none" stroke="black" points="460.62,-612 349.38,-612 349.38,-576 460.62,-576 460.62,-612"/>
<text text-anchor="middle" x="405" y="-590.5" font-family="Arial" font-size="10.00">arithmetic_expression</text>
</g>
<!-- n17&#45;&gt;n18 -->
<g id="edge18" class="edge">
<title>n17&#45;&gt;n18</title>
<path fill="none" stroke="black" d="M407.26,-647.7C406.95,-640.41 406.57,-631.73 406.22,-623.54"/>
<polygon fill="black" stroke="black" points="409.72,-623.46 405.8,-613.62 402.73,-623.76 409.72,-623.46"/>
</g>
<!-- n19 -->
<g id="node20" class="node">
<title>n19</title>
<polygon fill="none" stroke="black" points="432,-540 378,-540 378,-504 432,-504 432,-540"/>
<text text-anchor="middle" x="405" y="-518.5" font-family="Arial" font-size="10.00">term</text>
</g>
<!-- n18&#45;&gt;n19 -->
<g id="edge19" class="edge">
<title>n18&#45;&gt;n19</title>
<path fill="none" stroke="black" d="M405,-575.7C405,-568.41 405,-559.73 405,-551.54"/>
<polygon fill="black" stroke="black" points="408.5,-551.62 405,-541.62 401.5,-551.62 408.5,-551.62"/>
</g>
<!-- n20 -->
<g id="node21" class="node">
<title>n20</title>
<polygon fill="none" stroke="black" points="357,-468 303,-468 303,-432 357,-432 357,-468"/>
<text text-anchor="middle" x="330" y="-446.5" font-family="Arial" font-size="10.00">factor</text>
</g>
<!-- n19&#45;&gt;n20 -->
<g id="edge20" class="edge">
<title>n19&#45;&gt;n20</title>
<path fill="none" stroke="black" d="M386.46,-503.7C377.54,-495.37 366.67,-485.22 356.86,-476.07"/>
<polygon fill="black" stroke="black" points="359.39,-473.64 349.69,-469.38 354.61,-478.76 359.39,-473.64"/>
</g>
<!-- n22 -->
<g id="node23" class="node">
<title>n22</title>
<polygon fill="none" stroke="black" points="444,-468 390,-468 390,-432 444,-432 444,-468"/>
<text text-anchor="middle" x="417" y="-446.5" font-family="Arial" font-size="10.00">term_tail</text>
</g>
<!-- n19&#45;&gt;n22 -->
<g id="edge22" class="edge">
<title>n19&#45;&gt;n22</title>
<path fill="none" stroke="black" d="M407.97,-503.7C409.23,-496.32 410.74,-487.52 412.16,-479.25"/>
<polygon fill="black" stroke="black" points="415.57,-480.04 413.81,-469.6 408.67,-478.86 415.57,-480.04"/>
</g>
<!-- n21 -->
<g id="node22" class="node">
<title>n21</title>
<polygon fill="none" stroke="black" points="342,-396 288,-396 288,-360 342,-360 342,-396"/>
<text text-anchor="middle" x="315" y="-374.5" font-family="Arial" font-size="10.00">x</text>
</g>
<!-- n20&#45;&gt;n21 -->
<g id="edge21" class="edge">
<title>n20&#45;&gt;n21</title>
<path fill="none" stroke="black" d="M326.29,-431.7C324.71,-424.32 322.83,-415.52 321.05,-407.25"/>
<polygon fill="black" stroke="black" points="324.5,-406.63 318.98,-397.58 317.66,-408.1 324.5,-406.63"/>
</g>
<!-- n23 -->
<g id="node24" class="node">
<title>n23</title>
<polygon fill="none" stroke="black" points="473.75,-396 360.25,-396 360.25,-360 473.75,-360 473.75,-396"/>
<text text-anchor="middle" x="417" y="-374.5" font-family="Arial" font-size="10.00">multiplicative_operator</text>
</g>
<!-- n22&#45;&gt;n23 -->
<g id="edge23" class="edge">
<title>n22&#45;&gt;n23</title>
<path fill="none" stroke="black" d="M417,-431.7C417,-424.41 417,-415.73 417,-407.54"/>
<polygon fill="black" stroke="black" points="420.5,-407.62 417,-397.62 413.5,-407.62 420.5,-407.62"/>
</g>
<!-- n25 -->
<g id="node26" class="node">
<title>n25</title>
<polygon fill="none" stroke="black" points="546,-396 492,-396 492,-360 546,-360 546,-396"/>
<text text-anchor="middle" x="519" y="-374.5" font-family="Arial" font-size="10.00">factor</text>
</g>
<!-- n22&#45;&gt;n25 -->
<g id="edge25" class="edge">
<title>n22&#45;&gt;n25</title>
<path fill="none" stroke="black" d="M442.48,-431.52C455.23,-422.76 470.85,-412.04 484.65,-402.58"/>
<polygon fill="black" stroke="black" points="486.34,-405.66 492.6,-397.12 482.38,-399.89 486.34,-405.66"/>
</g>
<!-- n24 -->
<g id="node25" class="node">
<title>n24</title>
<polygon fill="none" stroke="black" points="444,-324 390,-324 390,-288 444,-288 444,-324"/>
<text text-anchor="middle" x="417" y="-302.5" font-family="Arial" font-size="10.00">*</text>
</g>
<!-- n23&#45;&gt;n24 -->
<g id="edge24" class="edge">
<title>n23&#45;&gt;n24</title>
<path fill="none" stroke="black" d="M417,-359.7C417,-352.41 417,-343.73 417,-335.54"/>
<polygon fill="black" stroke="black" points="420.5,-335.62 417,-325.62 413.5,-335.62 420.5,-335.62"/>
</g>
<!-- n26 -->
<g id="node27" class="node">
<title>n26</title>
<polygon fill="none" stroke="black" points="546,-324 492,-324 492,-288 546,-288 546,-324"/>
<text text-anchor="middle" x="519" y="-302.5" font-family="Arial" font-size="10.00">2</text>
</g>
<!-- n25&#45;&gt;n26 -->
<g id="edge26" class="edge">
<title>n25&#45;&gt;n26</title>
<path fill="none" stroke="black" d="M519,-359.7C519,-352.41 519,-343.73 519,-335.54"/>
<polygon fill="black" stroke="black" points="522.5,-335.62 519,-325.62 515.5,-335.62 522.5,-335.62"/>
</g>
<!-- n28 -->
<g id="node29" class="node">
<title>n28</title>
<polygon fill="none" stroke="black" points="524,-684 470,-684 470,-648 524,-648 524,-684"/>
<text text-anchor="middle" x="497" y="-662.5" font-family="Arial" font-size="10.00">;</text>
</g>
<!-- n27&#45;&gt;n28 -->
<g id="edge28" class="edge">
<title>n27&#45;&gt;n28</title>
<path fill="none" stroke="black" d="M497,-719.7C497,-712.41 497,-703.73 497,-695.54"/>
<polygon fill="black" stroke="black" points="500.5,-695.62 497,-685.62 493.5,-695.62 500.5,-695.62"/>
</g>
<!-- n29 -->
<g id="node30" class="node">
<title>n29</title>
<polygon fill="none" stroke="black" points="602,-684 548,-684 548,-648 602,-648 602,-684"/>
<text text-anchor="middle" x="575" y="-662.5" font-family="Arial" font-size="10.00">operator</text>
</g>
<!-- n27&#45;&gt;n29 -->
<g id="edge29" class="edge">
<title>n27&#45;&gt;n29</title>
<path fill="none" stroke="black" d="M516.28,-719.7C525.66,-711.28 537.09,-701.02 547.38,-691.79"/>
<polygon fill="black" stroke="black" points="549.44,-694.64 554.54,-685.36 544.76,-689.43 549.44,-694.64"/>
</g>
<!-- n30 -->
<g id="node31" class="node">
<title>n30</title>
<polygon fill="none" stroke="black" points="533,-612 479,-612 479,-576 533,-576 533,-612"/>
<text text-anchor="middle" x="506" y="-590.5" font-family="Arial" font-size="10.00">z</text>
</g>
<!-- n29&#45;&gt;n30 -->
<g id="edge30" class="edge">
<title>n29&#45;&gt;n30</title>
<path fill="none" stroke="black" d="M557.94,-647.7C549.76,-639.39 539.79,-629.28 530.78,-620.14"/>
<polygon fill="black" stroke="black" points="533.44,-617.85 523.92,-613.18 528.45,-622.76 533.44,-617.85"/>
</g>
<!-- n31 -->
<g id="node32" class="node">
<title>n31</title>
<polygon fill="none" stroke="black" points="605,-612 551,-612 551,-576 605,-576 605,-612"/>
<text text-anchor="middle" x="578" y="-590.5" font-family="Arial" font-size="10.00">=</text>
</g>
<!-- n29&#45;&gt;n31 -->
<g id="edge31" class="edge">
<title>n29&#45;&gt;n31</title>
<path fill="none" stroke="black" d="M575.74,-647.7C576.05,-640.41 576.43,-631.73 576.78,-623.54"/>
<polygon fill="black" stroke="black" points="580.27,-623.76 577.2,-613.62 573.28,-623.46 580.27,-623.76"/>
</g>
<!-- n32 -->
<g id="node33" class="node">
<title>n32</title>
<polygon fill="none" stroke="black" points="686.62,-612 623.38,-612 623.38,-576 686.62,-576 686.62,-612"/>
<text text-anchor="middle" x="655" y="-590.5" font-family="Arial" font-size="10.00">expression</text>
</g>
<!-- n29&#45;&gt;n32 -->
<g id="edge32" class="edge">
<title>n29&#45;&gt;n32</title>
<path fill="none" stroke="black" d="M594.78,-647.7C604.39,-639.28 616.12,-629.02 626.67,-619.79"/>
<polygon fill="black" stroke="black" points="628.81,-622.56 634.04,-613.34 624.21,-617.29 628.81,-622.56"/>
</g>
<!-- n33 -->
<g id="node34" class="node">
<title>n33</title>
<polygon fill="none" stroke="black" points="710.62,-540 599.38,-540 599.38,-504 710.62,-504 710.62,-540"/>
<text text-anchor="middle" x="655" y="-518.5" font-family="Arial" font-size="10.00">arithmetic_expression</text>
</g>
<!-- n32&#45;&gt;n33 -->
<g id="edge33" class="edge">
<title>n32&#45;&gt;n33</title>
<path fill="none" stroke="black" d="M655,-575.7C655,-568.41 655,-559.73 655,-551.54"/>
<polygon fill="black" stroke="black" points="658.5,-551.62 655,-541.62 651.5,-551.62 658.5,-551.62"/>
</g>
<!-- n34 -->
<g id="node35" class="node">
<title>n34</title>
<polygon fill="none" stroke="black" points="682,-468 628,-468 628,-432 682,-432 682,-468"/>
<text text-anchor="middle" x="655" y="-446.5" font-family="Arial" font-size="10.00">term</text>
</g>
<!-- n33&#45;&gt;n34 -->
<g id="edge34" class="edge">
<title>n33&#45;&gt;n34</title>
<path fill="none" stroke="black" d="M655,-503.7C655,-496.41 655,-487.73 655,-479.54"/>
<polygon fill="black" stroke="black" points="658.5,-479.62 655,-469.62 651.5,-479.62 658.5,-479.62"/>
</g>
<!-- n35 -->
<g id="node36" class="node">
<title>n35</title>
<polygon fill="none" stroke="black" points="676,-396 622,-396 622,-360 676,-360 676,-396"/>
<text text-anchor="middle" x="649" y="-374.5" font-family="Arial" font-size="10.00">factor</text>
</g>
<!-- n34&#45;&gt;n35 -->
<g id="edge35" class="edge">
<title>n34&#45;&gt;n35</title>
<path fill="none" stroke="black" d="M653.52,-431.7C652.89,-424.41 652.15,-415.73 651.45,-407.54"/>
<polygon fill="black" stroke="black" points="654.94,-407.28 650.6,-397.61 647.96,-407.87 654.94,-407.28"/>
</g>
<!-- n46 -->
<g id="node47" class="node">
<title>n46</title>
<polygon fill="none" stroke="black" points="800,-396 746,-396 746,-360 800,-360 800,-396"/>
<text text-anchor="middle" x="773" y="-374.5" font-family="Arial" font-size="10.00">term_tail</text>
</g>
<!-- n34&#45;&gt;n46 -->
<g id="edge46" class="edge">
<title>n34&#45;&gt;n46</title>
<path fill="none" stroke="black" d="M682.37,-432.76C698.3,-423.31 718.61,-411.26 735.96,-400.97"/>
<polygon fill="black" stroke="black" points="737.66,-404.03 744.48,-395.92 734.09,-398.01 737.66,-404.03"/>
</g>
<!-- n36 -->
<g id="node37" class="node">
<title>n36</title>
<polygon fill="none" stroke="black" points="698.62,-324 587.38,-324 587.38,-288 698.62,-288 698.62,-324"/>
<text text-anchor="middle" x="643" y="-302.5" font-family="Arial" font-size="10.00">arithmetic_expression</text>
</g>
<!-- n35&#45;&gt;n36 -->
<g id="edge36" class="edge">
<title>n35&#45;&gt;n36</title>
<path fill="none" stroke="black" d="M647.52,-359.7C646.89,-352.41 646.15,-343.73 645.45,-335.54"/>
<polygon fill="black" stroke="black" points="648.94,-335.28 644.6,-325.61 641.96,-335.87 648.94,-335.28"/>
</g>
<!-- n37 -->
<g id="node38" class="node">
<title>n37</title>
<polygon fill="none" stroke="black" points="570,-252 516,-252 516,-216 570,-216 570,-252"/>
<text text-anchor="middle" x="543" y="-230.5" font-family="Arial" font-size="10.00">term</text>
</g>
<!-- n36&#45;&gt;n37 -->
<g id="edge37" class="edge">
<title>n36&#45;&gt;n37</title>
<path fill="none" stroke="black" d="M618.02,-287.52C605.64,-278.85 590.5,-268.25 577.07,-258.85"/>
<polygon fill="black" stroke="black" points="579.1,-256 568.9,-253.13 575.08,-261.73 579.1,-256"/>
</g>
<!-- n40 -->
<g id="node41" class="node">
<title>n40</title>
<polygon fill="none" stroke="black" points="717.62,-252 588.38,-252 588.38,-216 717.62,-216 717.62,-252"/>
<text text-anchor="middle" x="653" y="-230.5" font-family="Arial" font-size="10.00">arithmetic_expression_tail</text>
</g>
<!-- n36&#45;&gt;n40 -->
<g id="edge40" class="edge">
<title>n36&#45;&gt;n40</title>
<path fill="none" stroke="black" d="M645.47,-287.7C646.53,-280.32 647.78,-271.52 648.96,-263.25"/>
<polygon fill="black" stroke="black" points="652.39,-264 650.34,-253.6 645.46,-263.01 652.39,-264"/>
</g>
<!-- n38 -->
<g id="node39" class="node">
<title>n38</title>
<polygon fill="none" stroke="black" points="570,-180 516,-180 516,-144 570,-144 570,-180"/>
<text text-anchor="middle" x="543" y="-158.5" font-family="Arial" font-size="10.00">factor</text>
</g>
<!-- n37&#45;&gt;n38 -->
<g id="edge38" class="edge">
<title>n37&#45;&gt;n38</title>
<path fill="none" stroke="black" d="M543,-215.7C543,-208.41 543,-199.73 543,-191.54"/>
<polygon fill="black" stroke="black" points="546.5,-191.62 543,-181.62 539.5,-191.62 546.5,-191.62"/>
</g>
<!-- n39 -->
<g id="node40" class="node">
<title>n39</title>
<polygon fill="none" stroke="black" points="570,-108 516,-108 516,-72 570,-72 570,-108"/>
<text text-anchor="middle" x="543" y="-86.5" font-family="Arial" font-size="10.00">y</text>
</g>
<!-- n38&#45;&gt;n39 -->
<g id="edge39" class="edge">
<title>n38&#45;&gt;n39</title>
<path fill="none" stroke="black" d="M543,-143.7C543,-136.41 543,-127.73 543,-119.54"/>
<polygon fill="black" stroke="black" points="546.5,-119.62 543,-109.62 539.5,-119.62 546.5,-119.62"/>
</g>
<!-- n41 -->
<g id="node42" class="node">
<title>n41</title>
<polygon fill="none" stroke="black" points="688.12,-180 597.88,-180 597.88,-144 688.12,-144 688.12,-180"/>
<text text-anchor="middle" x="643" y="-158.5" font-family="Arial" font-size="10.00">additive_operator</text>
</g>
<!-- n40&#45;&gt;n41 -->
<g id="edge41" class="edge">
<title>n40&#45;&gt;n41</title>
<path fill="none" stroke="black" d="M650.53,-215.7C649.47,-208.32 648.22,-199.52 647.04,-191.25"/>
<polygon fill="black" stroke="black" points="650.54,-191.01 645.66,-181.6 643.61,-192 650.54,-191.01"/>
</g>
<!-- n43 -->
<g id="node44" class="node">
<title>n43</title>
<polygon fill="none" stroke="black" points="760,-180 706,-180 706,-144 760,-144 760,-180"/>
<text text-anchor="middle" x="733" y="-158.5" font-family="Arial" font-size="10.00">term</text>
</g>
<!-- n40&#45;&gt;n43 -->
<g id="edge43" class="edge">
<title>n40&#45;&gt;n43</title>
<path fill="none" stroke="black" d="M672.78,-215.7C682.39,-207.28 694.12,-197.02 704.67,-187.79"/>
<polygon fill="black" stroke="black" points="706.81,-190.56 712.04,-181.34 702.21,-185.29 706.81,-190.56"/>
</g>
<!-- n42 -->
<g id="node43" class="node">
<title>n42</title>
<polygon fill="none" stroke="black" points="670,-108 616,-108 616,-72 670,-72 670,-108"/>
<text text-anchor="middle" x="643" y="-86.5" font-family="Arial" font-size="10.00">&#45;</text>
</g>
<!-- n41&#45;&gt;n42 -->
<g id="edge42" class="edge">
<title>n41&#45;&gt;n42</title>
<path fill="none" stroke="black" d="M643,-143.7C643,-136.41 643,-127.73 643,-119.54"/>
<polygon fill="black" stroke="black" points="646.5,-119.62 643,-109.62 639.5,-119.62 646.5,-119.62"/>
</g>
<!-- n44 -->
<g id="node45" class="node">
<title>n44</title>
<polygon fill="none" stroke="black" points="760,-108 706,-108 706,-72 760,-72 760,-108"/>
<text text-anchor="middle" x="733" y="-86.5" font-family="Arial" font-size="10.00">factor</text>
</g>
<!-- n43&#45;&gt;n44 -->
<g id="edge44" class="edge">
<title>n43&#45;&gt;n44</title>
<path fill="none" stroke="black" d="M733,-143.7C733,-136.41 733,-127.73 733,-119.54"/>
<polygon fill="black" stroke="black" points="736.5,-119.62 733,-109.62 729.5,-119.62 736.5,-119.62"/>
</g>
<!-- n45 -->
<g id="node46" class="node">
<title>n45</title>
<polygon fill="none" stroke="black" points="760,-36 706,-36 706,0 760,0 760,-36"/>
<text text-anchor="middle" x="733" y="-14.5" font-family="Arial" font-size="10.00">x</text>
</g>
<!-- n44&#45;&gt;n45 -->
<g id="edge45" class="edge">
<title>n44&#45;&gt;n45</title>
<path fill="none" stroke="black" d="M733,-71.7C733,-64.41 733,-55.73 733,-47.54"/>
<polygon fill="black" stroke="black" points="736.5,-47.62 733,-37.62 729.5,-47.62 736.5,-47.62"/>
</g>
<!-- n47 -->
<g id="node48" class="node">
<title>n47</title>
<polygon fill="none" stroke="black" points="829.75,-324 716.25,-324 716.25,-288 829.75,-288 829.75,-324"/>
<text text-anchor="middle" x="773" y="-302.5" font-family="Arial" font-size="10.00">multiplicative_operator</text>
</g>
<!-- n46&#45;&gt;n47 -->
<g id="edge47" class="edge">
<title>n46&#45;&gt;n47</title>
<path fill="none" stroke="black" d="M773,-359.7C773,-352.41 773,-343.73 773,-335.54"/>
<polygon fill="black" stroke="black" points="776.5,-335.62 773,-325.62 769.5,-335.62 776.5,-335.62"/>
</g>
<!-- n49 -->
<g id="node50" class="node">
<title>n49</title>
<polygon fill="none" stroke="black" points="902,-324 848,-324 848,-288 902,-288 902,-324"/>
<text text-anchor="middle" x="875" y="-302.5" font-family="Arial" font-size="10.00">factor</text>
</g>
<!-- n46&#45;&gt;n49 -->
<g id="edge49" class="edge">
<title>n46&#45;&gt;n49</title>
<path fill="none" stroke="black" d="M798.48,-359.52C811.23,-350.76 826.85,-340.04 840.65,-330.58"/>
<polygon fill="black" stroke="black" points="842.34,-333.66 848.6,-325.12 838.38,-327.89 842.34,-333.66"/>
</g>
<!-- n48 -->
<g id="node49" class="node">
<title>n48</title>
<polygon fill="none" stroke="black" points="800,-252 746,-252 746,-216 800,-216 800,-252"/>
<text text-anchor="middle" x="773" y="-230.5" font-family="Arial" font-size="10.00">/</text>
</g>
<!-- n47&#45;&gt;n48 -->
<g id="edge48" class="edge">
<title>n47&#45;&gt;n48</title>
<path fill="none" stroke="black" d="M773,-287.7C773,-280.41 773,-271.73 773,-263.54"/>
<polygon fill="black" stroke="black" points="776.5,-263.62 773,-253.62 769.5,-263.62 776.5,-263.62"/>
</g>
<!-- n50 -->
<g id="node51" class="node">
<title>n50</title>
<polygon fill="none" stroke="black" points="902,-252 848,-252 848,-216 902,-216 902,-252"/>
<text text-anchor="middle" x="875" y="-230.5" font-family="Arial" font-size="10.00">2</text>
</g>
<!-- n49&#45;&gt;n50 -->
<g id="edge50" class="edge">
<title>n49&#45;&gt;n50</title>
<path fill="none" stroke="black" d="M875,-287.7C875,-280.41 875,-271.73 875,-263.54"/>
<polygon fill="black" stroke="black" points="878.5,-263.62 875,-253.62 871.5,-263.62 878.5,-263.62"/>
</g>
</g>
</svg>
