<?xml version="1.0" encoding="UTF-8" standalone="no"?>
<!DOCTYPE svg PUBLIC "-//W3C//DTD SVG 1.1//EN"
 "http://www.w3.org/Graphics/SVG/1.1/DTD/svg11.dtd">
<!-- Generated by graphviz version 12.2.1 (20241206.2353)
 -->
<!-- Pages: 1 -->
<svg width="759pt" height="1052pt"
 viewBox="0.00 0.00 759.00 1052.00" xmlns="http://www.w3.org/2000/svg" xmlns:xlink="http://www.w3.org/1999/xlink">
<g id="graph0" class="graph" transform="scale(1 1) rotate(0) translate(4 1048)">
<polygon fill="white" stroke="none" points="-4,4 -4,-1048 755,-1048 755,4 -4,4"/>
<!-- n0 -->
<g id="node1" class="node">
<title>n0</title>
<polygon fill="none" stroke="black" points="358,-1044 304,-1044 304,-1008 358,-1008 358,-1044"/>
<text text-anchor="middle" x="331" y="-1022.5" font-family="Arial" font-size="10.00">program</text>
</g>
<!-- n1 -->
<g id="node2" class="node">
<title>n1</title>
<polygon fill="none" stroke="black" points="358,-972 304,-972 304,-936 358,-936 358,-972"/>
<text text-anchor="middle" x="331" y="-950.5" font-family="Arial" font-size="10.00">block</text>
</g>
<!-- n0&#45;&gt;n1 -->
<g id="edge1" class="edge">
<title>n0&#45;&gt;n1</title>
<path fill="none" stroke="black" d="M331,-1007.7C331,-1000.41 331,-991.73 331,-983.54"/>
<polygon fill="black" stroke="black" points="334.5,-983.62 331,-973.62 327.5,-983.62 334.5,-983.62"/>
</g>
<!-- n2 -->
<g id="node3" class="node">
<title>n2</title>
<polygon fill="none" stroke="black" points="278,-900 224,-900 224,-864 278,-864 278,-900"/>
<text text-anchor="middle" x="251" y="-878.5" font-family="Arial" font-size="10.00">{</text>
</g>
<!-- n1&#45;&gt;n2 -->
<g id="edge2" class="edge">
<title>n1&#45;&gt;n2</title>
<path fill="none" stroke="black" d="M311.22,-935.7C301.61,-927.28 289.88,-917.02 279.33,-907.79"/>
<polygon fill="black" stroke="black" points="281.79,-905.29 271.96,-901.34 277.19,-910.56 281.79,-905.29"/>
</g>
<!-- n3 -->
<g id="node4" class="node">
<title>n3</title>
<polygon fill="none" stroke="black" points="365.62,-900 296.38,-900 296.38,-864 365.62,-864 365.62,-900"/>
<text text-anchor="middle" x="331" y="-878.5" font-family="Arial" font-size="10.00">operator_list</text>
</g>
<!-- n1&#45;&gt;n3 -->
<g id="edge3" class="edge">
<title>n1&#45;&gt;n3</title>
<path fill="none" stroke="black" d="M331,-935.7C331,-928.41 331,-919.73 331,-911.54"/>
<polygon fill="black" stroke="black" points="334.5,-911.62 331,-901.62 327.5,-911.62 334.5,-911.62"/>
</g>
<!-- n53 -->
<g id="node54" class="node">
<title>n53</title>
<polygon fill="none" stroke="black" points="438,-900 384,-900 384,-864 438,-864 438,-900"/>
<text text-anchor="middle" x="411" y="-878.5" font-family="Arial" font-size="10.00">}</text>
</g>
<!-- n1&#45;&gt;n53 -->
<g id="edge53" class="edge">
<title>n1&#45;&gt;n53</title>
<path fill="none" stroke="black" d="M350.78,-935.7C360.39,-927.28 372.12,-917.02 382.67,-907.79"/>
<polygon fill="black" stroke="black" points="384.81,-910.56 390.04,-901.34 380.21,-905.29 384.81,-910.56"/>
</g>
<!-- n4 -->
<g id="node5" class="node">
<title>n4</title>
<polygon fill="none" stroke="black" points="305,-828 251,-828 251,-792 305,-792 305,-828"/>
<text text-anchor="middle" x="278" y="-806.5" font-family="Arial" font-size="10.00">operator</text>
</g>
<!-- n3&#45;&gt;n4 -->
<g id="edge4" class="edge">
<title>n3&#45;&gt;n4</title>
<path fill="none" stroke="black" d="M317.9,-863.7C311.87,-855.73 304.58,-846.1 297.89,-837.26"/>
<polygon fill="black" stroke="black" points="300.69,-835.17 291.86,-829.31 295.11,-839.4 300.69,-835.17"/>
</g>
<!-- n37 -->
<g id="node38" class="node">
<title>n37</title>
<polygon fill="none" stroke="black" points="426.62,-828 339.38,-828 339.38,-792 426.62,-792 426.62,-828"/>
<text text-anchor="middle" x="383" y="-806.5" font-family="Arial" font-size="10.00">operator_list_tail</text>
</g>
<!-- n3&#45;&gt;n37 -->
<g id="edge37" class="edge">
<title>n3&#45;&gt;n37</title>
<path fill="none" stroke="black" d="M343.85,-863.7C349.77,-855.73 356.93,-846.1 363.49,-837.26"/>
<polygon fill="black" stroke="black" points="366.24,-839.43 369.39,-829.32 360.62,-835.26 366.24,-839.43"/>
</g>
<!-- n5 -->
<g id="node6" class="node">
<title>n5</title>
<polygon fill="none" stroke="black" points="274,-756 220,-756 220,-720 274,-720 274,-756"/>
<text text-anchor="middle" x="247" y="-734.5" font-family="Arial" font-size="10.00">block</text>
</g>
<!-- n4&#45;&gt;n5 -->
<g id="edge5" class="edge">
<title>n4&#45;&gt;n5</title>
<path fill="none" stroke="black" d="M270.34,-791.7C266.96,-784.07 262.91,-774.92 259.13,-766.4"/>
<polygon fill="black" stroke="black" points="262.44,-765.21 255.19,-757.49 256.04,-768.05 262.44,-765.21"/>
</g>
<!-- n6 -->
<g id="node7" class="node">
<title>n6</title>
<polygon fill="none" stroke="black" points="186,-684 132,-684 132,-648 186,-648 186,-684"/>
<text text-anchor="middle" x="159" y="-662.5" font-family="Arial" font-size="10.00">{</text>
</g>
<!-- n5&#45;&gt;n6 -->
<g id="edge6" class="edge">
<title>n5&#45;&gt;n6</title>
<path fill="none" stroke="black" d="M225.25,-719.7C214.56,-711.2 201.51,-700.81 189.82,-691.51"/>
<polygon fill="black" stroke="black" points="192,-688.78 181.99,-685.29 187.64,-694.25 192,-688.78"/>
</g>
<!-- n7 -->
<g id="node8" class="node">
<title>n7</title>
<polygon fill="none" stroke="black" points="273.62,-684 204.38,-684 204.38,-648 273.62,-648 273.62,-684"/>
<text text-anchor="middle" x="239" y="-662.5" font-family="Arial" font-size="10.00">operator_list</text>
</g>
<!-- n5&#45;&gt;n7 -->
<g id="edge7" class="edge">
<title>n5&#45;&gt;n7</title>
<path fill="none" stroke="black" d="M245.02,-719.7C244.19,-712.41 243.2,-703.73 242.26,-695.54"/>
<polygon fill="black" stroke="black" points="245.74,-695.15 241.13,-685.61 238.78,-695.94 245.74,-695.15"/>
</g>
<!-- n36 -->
<g id="node37" class="node">
<title>n36</title>
<polygon fill="none" stroke="black" points="346,-684 292,-684 292,-648 346,-648 346,-684"/>
<text text-anchor="middle" x="319" y="-662.5" font-family="Arial" font-size="10.00">}</text>
</g>
<!-- n5&#45;&gt;n36 -->
<g id="edge36" class="edge">
<title>n5&#45;&gt;n36</title>
<path fill="none" stroke="black" d="M264.8,-719.7C273.28,-711.45 283.59,-701.43 292.93,-692.35"/>
<polygon fill="black" stroke="black" points="295.34,-694.88 300.07,-685.4 290.46,-689.86 295.34,-694.88"/>
</g>
<!-- n8 -->
<g id="node9" class="node">
<title>n8</title>
<polygon fill="none" stroke="black" points="162,-612 108,-612 108,-576 162,-576 162,-612"/>
<text text-anchor="middle" x="135" y="-590.5" font-family="Arial" font-size="10.00">operator</text>
</g>
<!-- n7&#45;&gt;n8 -->
<g id="edge8" class="edge">
<title>n7&#45;&gt;n8</title>
<path fill="none" stroke="black" d="M213.02,-647.52C200.02,-638.76 184.09,-628.04 170.03,-618.58"/>
<polygon fill="black" stroke="black" points="172.15,-615.79 161.9,-613.11 168.24,-621.59 172.15,-615.79"/>
</g>
<!-- n21 -->
<g id="node22" class="node">
<title>n21</title>
<polygon fill="none" stroke="black" points="285.62,-612 198.38,-612 198.38,-576 285.62,-576 285.62,-612"/>
<text text-anchor="middle" x="242" y="-590.5" font-family="Arial" font-size="10.00">operator_list_tail</text>
</g>
<!-- n7&#45;&gt;n21 -->
<g id="edge21" class="edge">
<title>n7&#45;&gt;n21</title>
<path fill="none" stroke="black" d="M239.74,-647.7C240.05,-640.41 240.43,-631.73 240.78,-623.54"/>
<polygon fill="black" stroke="black" points="244.27,-623.76 241.2,-613.62 237.28,-623.46 244.27,-623.76"/>
</g>
<!-- n9 -->
<g id="node10" class="node">
<title>n9</title>
<polygon fill="none" stroke="black" points="143,-540 89,-540 89,-504 143,-504 143,-540"/>
<text text-anchor="middle" x="116" y="-518.5" font-family="Arial" font-size="10.00">block</text>
</g>
<!-- n8&#45;&gt;n9 -->
<g id="edge9" class="edge">
<title>n8&#45;&gt;n9</title>
<path fill="none" stroke="black" d="M130.3,-575.7C128.28,-568.24 125.86,-559.32 123.59,-550.97"/>
<polygon fill="black" stroke="black" points="127.04,-550.3 121.04,-541.57 120.28,-552.13 127.04,-550.3"/>
</g>
<!-- n10 -->
<g id="node11" class="node">
<title>n10</title>
<polygon fill="none" stroke="black" points="54,-468 0,-468 0,-432 54,-432 54,-468"/>
<text text-anchor="middle" x="27" y="-446.5" font-family="Arial" font-size="10.00">{</text>
</g>
<!-- n9&#45;&gt;n10 -->
<g id="edge10" class="edge">
<title>n9&#45;&gt;n10</title>
<path fill="none" stroke="black" d="M94,-503.7C83.09,-495.11 69.73,-484.61 57.82,-475.24"/>
<polygon fill="black" stroke="black" points="60.27,-472.71 50.25,-469.28 55.94,-478.22 60.27,-472.71"/>
</g>
<!-- n11 -->
<g id="node12" class="node">
<title>n11</title>
<polygon fill="none" stroke="black" points="141.62,-468 72.38,-468 72.38,-432 141.62,-432 141.62,-468"/>
<text text-anchor="middle" x="107" y="-446.5" font-family="Arial" font-size="10.00">operator_list</text>
</g>
<!-- n9&#45;&gt;n11 -->
<g id="edge11" class="edge">
<title>n9&#45;&gt;n11</title>
<path fill="none" stroke="black" d="M113.78,-503.7C112.83,-496.32 111.7,-487.52 110.63,-479.25"/>
<polygon fill="black" stroke="black" points="114.14,-479.08 109.39,-469.61 107.2,-479.97 114.14,-479.08"/>
</g>
<!-- n20 -->
<g id="node21" class="node">
<title>n20</title>
<polygon fill="none" stroke="black" points="214,-468 160,-468 160,-432 214,-432 214,-468"/>
<text text-anchor="middle" x="187" y="-446.5" font-family="Arial" font-size="10.00">}</text>
</g>
<!-- n9&#45;&gt;n20 -->
<g id="edge20" class="edge">
<title>n9&#45;&gt;n20</title>
<path fill="none" stroke="black" d="M133.55,-503.7C141.98,-495.39 152.23,-485.28 161.5,-476.14"/>
<polygon fill="black" stroke="black" points="163.91,-478.68 168.57,-469.17 159,-473.7 163.91,-478.68"/>
</g>
<!-- n12 -->
<g id="node13" class="node">
<title>n12</title>
<polygon fill="none" stroke="black" points="134,-396 80,-396 80,-360 134,-360 134,-396"/>
<text text-anchor="middle" x="107" y="-374.5" font-family="Arial" font-size="10.00">operator</text>
</g>
<!-- n11&#45;&gt;n12 -->
<g id="edge12" class="edge">
<title>n11&#45;&gt;n12</title>
<path fill="none" stroke="black" d="M107,-431.7C107,-424.41 107,-415.73 107,-407.54"/>
<polygon fill="black" stroke="black" points="110.5,-407.62 107,-397.62 103.5,-407.62 110.5,-407.62"/>
</g>
<!-- n13 -->
<g id="node14" class="node">
<title>n13</title>
<polygon fill="none" stroke="black" points="62,-324 8,-324 8,-288 62,-288 62,-324"/>
<text text-anchor="middle" x="35" y="-302.5" font-family="Arial" font-size="10.00">x</text>
</g>
<!-- n12&#45;&gt;n13 -->
<g id="edge13" class="edge">
<title>n12&#45;&gt;n13</title>
<path fill="none" stroke="black" d="M89.2,-359.7C80.72,-351.45 70.41,-341.43 61.07,-332.35"/>
<polygon fill="black" stroke="black" points="63.54,-329.86 53.93,-325.4 58.66,-334.88 63.54,-329.86"/>
</g>
<!-- n14 -->
<g id="node15" class="node">
<title>n14</title>
<polygon fill="none" stroke="black" points="134,-324 80,-324 80,-288 134,-288 134,-324"/>
<text text-anchor="middle" x="107" y="-302.5" font-family="Arial" font-size="10.00">=</text>
</g>
<!-- n12&#45;&gt;n14 -->
<g id="edge14" class="edge">
<title>n12&#45;&gt;n14</title>
<path fill="none" stroke="black" d="M107,-359.7C107,-352.41 107,-343.73 107,-335.54"/>
<polygon fill="black" stroke="black" points="110.5,-335.62 107,-325.62 103.5,-335.62 110.5,-335.62"/>
</g>
<!-- n15 -->
<g id="node16" class="node">
<title>n15</title>
<polygon fill="none" stroke="black" points="215.62,-324 152.38,-324 152.38,-288 215.62,-288 215.62,-324"/>
<text text-anchor="middle" x="184" y="-302.5" font-family="Arial" font-size="10.00">expression</text>
</g>
<!-- n12&#45;&gt;n15 -->
<g id="edge15" class="edge">
<title>n12&#45;&gt;n15</title>
<path fill="none" stroke="black" d="M126.03,-359.7C135.2,-351.37 146.35,-341.22 156.43,-332.07"/>
<polygon fill="black" stroke="black" points="158.75,-334.68 163.8,-325.37 154.04,-329.5 158.75,-334.68"/>
</g>
<!-- n16 -->
<g id="node17" class="node">
<title>n16</title>
<polygon fill="none" stroke="black" points="239.62,-252 128.38,-252 128.38,-216 239.62,-216 239.62,-252"/>
<text text-anchor="middle" x="184" y="-230.5" font-family="Arial" font-size="10.00">arithmetic_expression</text>
</g>
<!-- n15&#45;&gt;n16 -->
<g id="edge16" class="edge">
<title>n15&#45;&gt;n16</title>
<path fill="none" stroke="black" d="M184,-287.7C184,-280.41 184,-271.73 184,-263.54"/>
<polygon fill="black" stroke="black" points="187.5,-263.62 184,-253.62 180.5,-263.62 187.5,-263.62"/>
</g>
<!-- n17 -->
<g id="node18" class="node">
<title>n17</title>
<polygon fill="none" stroke="black" points="211,-180 157,-180 157,-144 211,-144 211,-180"/>
<text text-anchor="middle" x="184" y="-158.5" font-family="Arial" font-size="10.00">term</text>
</g>
<!-- n16&#45;&gt;n17 -->
<g id="edge17" class="edge">
<title>n16&#45;&gt;n17</title>
<path fill="none" stroke="black" d="M184,-215.7C184,-208.41 184,-199.73 184,-191.54"/>
<polygon fill="black" stroke="black" points="187.5,-191.62 184,-181.62 180.5,-191.62 187.5,-191.62"/>
</g>
<!-- n18 -->
<g id="node19" class="node">
<title>n18</title>
<polygon fill="none" stroke="black" points="211,-108 157,-108 157,-72 211,-72 211,-108"/>
<text text-anchor="middle" x="184" y="-86.5" font-family="Arial" font-size="10.00">factor</text>
</g>
<!-- n17&#45;&gt;n18 -->
<g id="edge18" class="edge">
<title>n17&#45;&gt;n18</title>
<path fill="none" stroke="black" d="M184,-143.7C184,-136.41 184,-127.73 184,-119.54"/>
<polygon fill="black" stroke="black" points="187.5,-119.62 184,-109.62 180.5,-119.62 187.5,-119.62"/>
</g>
<!-- n19 -->
<g id="node20" class="node">
<title>n19</title>
<polygon fill="none" stroke="black" points="211,-36 157,-36 157,0 211,0 211,-36"/>
<text text-anchor="middle" x="184" y="-14.5" font-family="Arial" font-size="10.00">5</text>
</g>
<!-- n18&#45;&gt;n19 -->
<g id="edge19" class="edge">
<title>n18&#45;&gt;n19</title>
<path fill="none" stroke="black" d="M184,-71.7C184,-64.41 184,-55.73 184,-47.54"/>
<polygon fill="black" stroke="black" points="187.5,-47.62 184,-37.62 180.5,-47.62 187.5,-47.62"/>
</g>
<!-- n22 -->
<g id="node23" class="node">
<title>n22</title>
<polygon fill="none" stroke="black" points="269,-540 215,-540 215,-504 269,-504 269,-540"/>
<text text-anchor="middle" x="242" y="-518.5" font-family="Arial" font-size="10.00">;</text>
</g>
<!-- n21&#45;&gt;n22 -->
<g id="edge22" class="edge">
<title>n21&#45;&gt;n22</title>
<path fill="none" stroke="black" d="M242,-575.7C242,-568.41 242,-559.73 242,-551.54"/>
<polygon fill="black" stroke="black" points="245.5,-551.62 242,-541.62 238.5,-551.62 245.5,-551.62"/>
</g>
<!-- n23 -->
<g id="node24" class="node">
<title>n23</title>
<polygon fill="none" stroke="black" points="354,-540 300,-540 300,-504 354,-504 354,-540"/>
<text text-anchor="middle" x="327" y="-518.5" font-family="Arial" font-size="10.00">operator</text>
</g>
<!-- n21&#45;&gt;n23 -->
<g id="edge23" class="edge">
<title>n21&#45;&gt;n23</title>
<path fill="none" stroke="black" d="M263.01,-575.7C273.33,-567.2 285.94,-556.81 297.23,-547.51"/>
<polygon fill="black" stroke="black" points="299.27,-550.37 304.77,-541.31 294.82,-544.96 299.27,-550.37"/>
</g>
<!-- n24 -->
<g id="node25" class="node">
<title>n24</title>
<polygon fill="none" stroke="black" points="286,-468 232,-468 232,-432 286,-432 286,-468"/>
<text text-anchor="middle" x="259" y="-446.5" font-family="Arial" font-size="10.00">y</text>
</g>
<!-- n23&#45;&gt;n24 -->
<g id="edge24" class="edge">
<title>n23&#45;&gt;n24</title>
<path fill="none" stroke="black" d="M310.19,-503.7C302.12,-495.39 292.3,-485.28 283.42,-476.14"/>
<polygon fill="black" stroke="black" points="286.15,-473.92 276.67,-469.19 281.13,-478.8 286.15,-473.92"/>
</g>
<!-- n25 -->
<g id="node26" class="node">
<title>n25</title>
<polygon fill="none" stroke="black" points="358,-468 304,-468 304,-432 358,-432 358,-468"/>
<text text-anchor="middle" x="331" y="-446.5" font-family="Arial" font-size="10.00">=</text>
</g>
<!-- n23&#45;&gt;n25 -->
<g id="edge25" class="edge">
<title>n23&#45;&gt;n25</title>
<path fill="none" stroke="black" d="M327.99,-503.7C328.41,-496.41 328.9,-487.73 329.37,-479.54"/>
<polygon fill="black" stroke="black" points="332.86,-479.8 329.94,-469.62 325.87,-479.4 332.86,-479.8"/>
</g>
<!-- n26 -->
<g id="node27" class="node">
<title>n26</title>
<polygon fill="none" stroke="black" points="439.62,-468 376.38,-468 376.38,-432 439.62,-432 439.62,-468"/>
<text text-anchor="middle" x="408" y="-446.5" font-family="Arial" font-size="10.00">expression</text>
</g>
<!-- n23&#45;&gt;n26 -->
<g id="edge26" class="edge">
<title>n23&#45;&gt;n26</title>
<path fill="none" stroke="black" d="M347.02,-503.7C356.76,-495.28 368.64,-485.02 379.31,-475.79"/>
<polygon fill="black" stroke="black" points="381.5,-478.52 386.78,-469.34 376.93,-473.23 381.5,-478.52"/>
</g>
<!-- n27 -->
<g id="node28" class="node">
<title>n27</title>
<polygon fill="none" stroke="black" points="463.62,-396 352.38,-396 352.38,-360 463.62,-360 463.62,-396"/>
<text text-anchor="middle" x="408" y="-374.5" font-family="Arial" font-size="10.00">arithmetic_expression</text>
</g>
<!-- n26&#45;&gt;n27 -->
<g id="edge27" class="edge">
<title>n26&#45;&gt;n27</title>
<path fill="none" stroke="black" d="M408,-431.7C408,-424.41 408,-415.73 408,-407.54"/>
<polygon fill="black" stroke="black" points="411.5,-407.62 408,-397.62 404.5,-407.62 411.5,-407.62"/>
</g>
<!-- n28 -->
<g id="node29" class="node">
<title>n28</title>
<polygon fill="none" stroke="black" points="435,-324 381,-324 381,-288 435,-288 435,-324"/>
<text text-anchor="middle" x="408" y="-302.5" font-family="Arial" font-size="10.00">term</text>
</g>
<!-- n27&#45;&gt;n28 -->
<g id="edge28" class="edge">
<title>n27&#45;&gt;n28</title>
<path fill="none" stroke="black" d="M408,-359.7C408,-352.41 408,-343.73 408,-335.54"/>
<polygon fill="black" stroke="black" points="411.5,-335.62 408,-325.62 404.5,-335.62 411.5,-335.62"/>
</g>
<!-- n29 -->
<g id="node30" class="node">
<title>n29</title>
<polygon fill="none" stroke="black" points="391,-252 337,-252 337,-216 391,-216 391,-252"/>
<text text-anchor="middle" x="364" y="-230.5" font-family="Arial" font-size="10.00">factor</text>
</g>
<!-- n28&#45;&gt;n29 -->
<g id="edge29" class="edge">
<title>n28&#45;&gt;n29</title>
<path fill="none" stroke="black" d="M397.12,-287.7C392.22,-279.9 386.32,-270.51 380.86,-261.83"/>
<polygon fill="black" stroke="black" points="383.84,-259.99 375.56,-253.39 377.92,-263.71 383.84,-259.99"/>
</g>
<!-- n31 -->
<g id="node32" class="node">
<title>n31</title>
<polygon fill="none" stroke="black" points="478,-252 424,-252 424,-216 478,-216 478,-252"/>
<text text-anchor="middle" x="451" y="-230.5" font-family="Arial" font-size="10.00">term_tail</text>
</g>
<!-- n28&#45;&gt;n31 -->
<g id="edge31" class="edge">
<title>n28&#45;&gt;n31</title>
<path fill="none" stroke="black" d="M418.63,-287.7C423.42,-279.9 429.19,-270.51 434.52,-261.83"/>
<polygon fill="black" stroke="black" points="437.45,-263.75 439.7,-253.39 431.48,-260.08 437.45,-263.75"/>
</g>
<!-- n30 -->
<g id="node31" class="node">
<title>n30</title>
<polygon fill="none" stroke="black" points="376,-180 322,-180 322,-144 376,-144 376,-180"/>
<text text-anchor="middle" x="349" y="-158.5" font-family="Arial" font-size="10.00">x</text>
</g>
<!-- n29&#45;&gt;n30 -->
<g id="edge30" class="edge">
<title>n29&#45;&gt;n30</title>
<path fill="none" stroke="black" d="M360.29,-215.7C358.71,-208.32 356.83,-199.52 355.05,-191.25"/>
<polygon fill="black" stroke="black" points="358.5,-190.63 352.98,-181.58 351.66,-192.1 358.5,-190.63"/>
</g>
<!-- n32 -->
<g id="node33" class="node">
<title>n32</title>
<polygon fill="none" stroke="black" points="507.75,-180 394.25,-180 394.25,-144 507.75,-144 507.75,-180"/>
<text text-anchor="middle" x="451" y="-158.5" font-family="Arial" font-size="10.00">multiplicative_operator</text>
</g>
<!-- n31&#45;&gt;n32 -->
<g id="edge32" class="edge">
<title>n31&#45;&gt;n32</title>
<path fill="none" stroke="black" d="M451,-215.7C451,-208.41 451,-199.73 451,-191.54"/>
<polygon fill="black" stroke="black" points="454.5,-191.62 451,-181.62 447.5,-191.62 454.5,-191.62"/>
</g>
<!-- n34 -->
<g id="node35" class="node">
<title>n34</title>
<polygon fill="none" stroke="black" points="580,-180 526,-180 526,-144 580,-144 580,-180"/>
<text text-anchor="middle" x="553" y="-158.5" font-family="Arial" font-size="10.00">factor</text>
</g>
<!-- n31&#45;&gt;n34 -->
<g id="edge34" class="edge">
<title>n31&#45;&gt;n34</title>
<path fill="none" stroke="black" d="M476.48,-215.52C489.23,-206.76 504.85,-196.04 518.65,-186.58"/>
<polygon fill="black" stroke="black" points="520.34,-189.66 526.6,-181.12 516.38,-183.89 520.34,-189.66"/>
</g>
<!-- n33 -->
<g id="node34" class="node">
<title>n33</title>
<polygon fill="none" stroke="black" points="478,-108 424,-108 424,-72 478,-72 478,-108"/>
<text text-anchor="middle" x="451" y="-86.5" font-family="Arial" font-size="10.00">*</text>
</g>
<!-- n32&#45;&gt;n33 -->
<g id="edge33" class="edge">
<title>n32&#45;&gt;n33</title>
<path fill="none" stroke="black" d="M451,-143.7C451,-136.41 451,-127.73 451,-119.54"/>
<polygon fill="black" stroke="black" points="454.5,-119.62 451,-109.62 447.5,-119.62 454.5,-119.62"/>
</g>
<!-- n35 -->
<g id="node36" class="node">
<title>n35</title>
<polygon fill="none" stroke="black" points="580,-108 526,-108 526,-72 580,-72 580,-108"/>
<text text-anchor="middle" x="553" y="-86.5" font-family="Arial" font-size="10.00">2</text>
</g>
<!-- n34&#45;&gt;n35 -->
<g id="edge35" class="edge">
<title>n34&#45;&gt;n35</title>
<path fill="none" stroke="black" d="M553,-143.7C553,-136.41 553,-127.73 553,-119.54"/>
<polygon fill="black" stroke="black" points="556.5,-119.62 553,-109.62 549.5,-119.62 556.5,-119.62"/>
</g>
<!-- n38 -->
<g id="node39" class="node">
<title>n38</title>
<polygon fill="none" stroke="black" points="410,-756 356,-756 356,-720 410,-720 410,-756"/>
<text text-anchor="middle" x="383" y="-734.5" font-family="Arial" font-size="10.00">;</text>
</g>
<!-- n37&#45;&gt;n38 -->
<g id="edge38" class="edge">
<title>n37&#45;&gt;n38</title>
<path fill="none" stroke="black" d="M383,-791.7C383,-784.41 383,-775.73 383,-767.54"/>
<polygon fill="black" stroke="black" points="386.5,-767.62 383,-757.62 379.5,-767.62 386.5,-767.62"/>
</g>
<!-- n39 -->
<g id="node40" class="node">
<title>n39</title>
<polygon fill="none" stroke="black" points="486,-756 432,-756 432,-720 486,-720 486,-756"/>
<text text-anchor="middle" x="459" y="-734.5" font-family="Arial" font-size="10.00">operator</text>
</g>
<!-- n37&#45;&gt;n39 -->
<g id="edge39" class="edge">
<title>n37&#45;&gt;n39</title>
<path fill="none" stroke="black" d="M401.79,-791.7C410.83,-783.37 421.84,-773.22 431.78,-764.07"/>
<polygon fill="black" stroke="black" points="434.07,-766.72 439.05,-757.37 429.33,-761.57 434.07,-766.72"/>
</g>
<!-- n40 -->
<g id="node41" class="node">
<title>n40</title>
<polygon fill="none" stroke="black" points="418,-684 364,-684 364,-648 418,-648 418,-684"/>
<text text-anchor="middle" x="391" y="-662.5" font-family="Arial" font-size="10.00">z</text>
</g>
<!-- n39&#45;&gt;n40 -->
<g id="edge40" class="edge">
<title>n39&#45;&gt;n40</title>
<path fill="none" stroke="black" d="M442.19,-719.7C434.12,-711.39 424.3,-701.28 415.42,-692.14"/>
<polygon fill="black" stroke="black" points="418.15,-689.92 408.67,-685.19 413.13,-694.8 418.15,-689.92"/>
</g>
<!-- n41 -->
<g id="node42" class="node">
<title>n41</title>
<polygon fill="none" stroke="black" points="490,-684 436,-684 436,-648 490,-648 490,-684"/>
<text text-anchor="middle" x="463" y="-662.5" font-family="Arial" font-size="10.00">=</text>
</g>
<!-- n39&#45;&gt;n41 -->
<g id="edge41" class="edge">
<title>n39&#45;&gt;n41</title>
<path fill="none" stroke="black" d="M459.99,-719.7C460.41,-712.41 460.9,-703.73 461.37,-695.54"/>
<polygon fill="black" stroke="black" points="464.86,-695.8 461.94,-685.62 457.87,-695.4 464.86,-695.8"/>
</g>
<!-- n42 -->
<g id="node43" class="node">
<title>n42</title>
<polygon fill="none" stroke="black" points="571.62,-684 508.38,-684 508.38,-648 571.62,-648 571.62,-684"/>
<text text-anchor="middle" x="540" y="-662.5" font-family="Arial" font-size="10.00">expression</text>
</g>
<!-- n39&#45;&gt;n42 -->
<g id="edge42" class="edge">
<title>n39&#45;&gt;n42</title>
<path fill="none" stroke="black" d="M479.02,-719.7C488.76,-711.28 500.64,-701.02 511.31,-691.79"/>
<polygon fill="black" stroke="black" points="513.5,-694.52 518.78,-685.34 508.93,-689.23 513.5,-694.52"/>
</g>
<!-- n43 -->
<g id="node44" class="node">
<title>n43</title>
<polygon fill="none" stroke="black" points="595.62,-612 484.38,-612 484.38,-576 595.62,-576 595.62,-612"/>
<text text-anchor="middle" x="540" y="-590.5" font-family="Arial" font-size="10.00">arithmetic_expression</text>
</g>
<!-- n42&#45;&gt;n43 -->
<g id="edge43" class="edge">
<title>n42&#45;&gt;n43</title>
<path fill="none" stroke="black" d="M540,-647.7C540,-640.41 540,-631.73 540,-623.54"/>
<polygon fill="black" stroke="black" points="543.5,-623.62 540,-613.62 536.5,-623.62 543.5,-623.62"/>
</g>
<!-- n44 -->
<g id="node45" class="node">
<title>n44</title>
<polygon fill="none" stroke="black" points="561,-540 507,-540 507,-504 561,-504 561,-540"/>
<text text-anchor="middle" x="534" y="-518.5" font-family="Arial" font-size="10.00">term</text>
</g>
<!-- n43&#45;&gt;n44 -->
<g id="edge44" class="edge">
<title>n43&#45;&gt;n44</title>
<path fill="none" stroke="black" d="M538.52,-575.7C537.89,-568.41 537.15,-559.73 536.45,-551.54"/>
<polygon fill="black" stroke="black" points="539.94,-551.28 535.6,-541.61 532.96,-551.87 539.94,-551.28"/>
</g>
<!-- n47 -->
<g id="node48" class="node">
<title>n47</title>
<polygon fill="none" stroke="black" points="708.62,-540 579.38,-540 579.38,-504 708.62,-504 708.62,-540"/>
<text text-anchor="middle" x="644" y="-518.5" font-family="Arial" font-size="10.00">arithmetic_expression_tail</text>
</g>
<!-- n43&#45;&gt;n47 -->
<g id="edge47" class="edge">
<title>n43&#45;&gt;n47</title>
<path fill="none" stroke="black" d="M565.98,-575.52C578.98,-566.76 594.91,-556.04 608.97,-546.58"/>
<polygon fill="black" stroke="black" points="610.76,-549.59 617.1,-541.11 606.85,-543.79 610.76,-549.59"/>
</g>
<!-- n45 -->
<g id="node46" class="node">
<title>n45</title>
<polygon fill="none" stroke="black" points="561,-468 507,-468 507,-432 561,-432 561,-468"/>
<text text-anchor="middle" x="534" y="-446.5" font-family="Arial" font-size="10.00">factor</text>
</g>
<!-- n44&#45;&gt;n45 -->
<g id="edge45" class="edge">
<title>n44&#45;&gt;n45</title>
<path fill="none" stroke="black" d="M534,-503.7C534,-496.41 534,-487.73 534,-479.54"/>
<polygon fill="black" stroke="black" points="537.5,-479.62 534,-469.62 530.5,-479.62 537.5,-479.62"/>
</g>
<!-- n46 -->
<g id="node47" class="node">
<title>n46</title>
<polygon fill="none" stroke="black" points="561,-396 507,-396 507,-360 561,-360 561,-396"/>
<text text-anchor="middle" x="534" y="-374.5" font-family="Arial" font-size="10.00">y</text>
</g>
<!-- n45&#45;&gt;n46 -->
<g id="edge46" class="edge">
<title>n45&#45;&gt;n46</title>
<path fill="none" stroke="black" d="M534,-431.7C534,-424.41 534,-415.73 534,-407.54"/>
<polygon fill="black" stroke="black" points="537.5,-407.62 534,-397.62 530.5,-407.62 537.5,-407.62"/>
</g>
<!-- n48 -->
<g id="node49" class="node">
<title>n48</title>
<polygon fill="none" stroke="black" points="679.12,-468 588.88,-468 588.88,-432 679.12,-432 679.12,-468"/>
<text text-anchor="middle" x="634" y="-446.5" font-family="Arial" font-size="10.00">additive_operator</text>
</g>
<!-- n47&#45;&gt;n48 -->
<g id="edge48" class="edge">
<title>n47&#45;&gt;n48</title>
<path fill="none" stroke="black" d="M641.53,-503.7C640.47,-496.32 639.22,-487.52 638.04,-479.25"/>
<polygon fill="black" stroke="black" points="641.54,-479.01 636.66,-469.6 634.61,-480 641.54,-479.01"/>
</g>
<!-- n50 -->
<g id="node51" class="node">
<title>n50</title>
<polygon fill="none" stroke="black" points="751,-468 697,-468 697,-432 751,-432 751,-468"/>
<text text-anchor="middle" x="724" y="-446.5" font-family="Arial" font-size="10.00">term</text>
</g>
<!-- n47&#45;&gt;n50 -->
<g id="edge50" class="edge">
<title>n47&#45;&gt;n50</title>
<path fill="none" stroke="black" d="M663.78,-503.7C673.39,-495.28 685.12,-485.02 695.67,-475.79"/>
<polygon fill="black" stroke="black" points="697.81,-478.56 703.04,-469.34 693.21,-473.29 697.81,-478.56"/>
</g>
<!-- n49 -->
<g id="node50" class="node">
<title>n49</title>
<polygon fill="none" stroke="black" points="661,-396 607,-396 607,-360 661,-360 661,-396"/>
<text text-anchor="middle" x="634" y="-374.5" font-family="Arial" font-size="10.00">+</text>
</g>
<!-- n48&#45;&gt;n49 -->
<g id="edge49" class="edge">
<title>n48&#45;&gt;n49</title>
<path fill="none" stroke="black" d="M634,-431.7C634,-424.41 634,-415.73 634,-407.54"/>
<polygon fill="black" stroke="black" points="637.5,-407.62 634,-397.62 630.5,-407.62 637.5,-407.62"/>
</g>
<!-- n51 -->
<g id="node52" class="node">
<title>n51</title>
<polygon fill="none" stroke="black" points="751,-396 697,-396 697,-360 751,-360 751,-396"/>
<text text-anchor="middle" x="724" y="-374.5" font-family="Arial" font-size="10.00">factor</text>
</g>
<!-- n50&#45;&gt;n51 -->
<g id="edge51" class="edge">
<title>n50&#45;&gt;n51</title>
<path fill="none" stroke="black" d="M724,-431.7C724,-424.41 724,-415.73 724,-407.54"/>
<polygon fill="black" stroke="black" points="727.5,-407.62 724,-397.62 720.5,-407.62 727.5,-407.62"/>
</g>
<!-- n52 -->
<g id="node53" class="node">
<title>n52</title>
<polygon fill="none" stroke="black" points="751,-324 697,-324 697,-288 751,-288 751,-324"/>
<text text-anchor="middle" x="724" y="-302.5" font-family="Arial" font-size="10.00">1</text>
</g>
<!-- n51&#45;&gt;n52 -->
<g id="edge52" class="edge">
<title>n51&#45;&gt;n52</title>
<path fill="none" stroke="black" d="M724,-359.7C724,-352.41 724,-343.73 724,-335.54"/>
<polygon fill="black" stroke="black" points="727.5,-335.62 724,-325.62 720.5,-335.62 727.5,-335.62"/>
</g>
</g>
</svg>
